<svg width="585" height="100" viewBox="0 0 585 100" fill="none" xmlns="http://www.w3.org/2000/svg">
<g clip-path="url(#clip0_8714_936)">
<rect width="600" height="122" fill="#E6ECF3"/>
<path opacity="0.5" d="M0 125.128C234.315 125.128 365.685 125.128 600 125.128V7.62939e-06H0V125.128Z" fill="url(#paint0_linear_8714_936)" fill-opacity="0.2"/>
<g opacity="0.4">
<circle cx="447" cy="31.9567" r="4" fill="white"/>
<circle cx="459" cy="31.9567" r="4" fill="white"/>
<circle cx="471" cy="31.9567" r="4" fill="white"/>
<circle cx="483" cy="31.9567" r="4" fill="white"/>
<circle cx="495" cy="31.9567" r="4" fill="white"/>
<circle cx="507" cy="31.9567" r="4" fill="white"/>
<circle cx="519" cy="31.9567" r="4" fill="white"/>
<circle cx="531" cy="31.9567" r="4" fill="white"/>
<circle cx="543" cy="31.9567" r="4" fill="white"/>
<circle cx="555" cy="31.9567" r="4" fill="white"/>
<circle cx="447" cy="43.9567" r="4" fill="white"/>
<circle cx="459" cy="43.9567" r="4" fill="white"/>
<circle cx="471" cy="43.9567" r="4" fill="white"/>
<circle cx="483" cy="43.9567" r="4" fill="white"/>
<circle cx="495" cy="43.9567" r="4" fill="white"/>
<circle cx="507" cy="43.9567" r="4" fill="white"/>
<circle cx="519" cy="43.9567" r="4" fill="white"/>
<circle cx="531" cy="43.9567" r="4" fill="white"/>
<circle cx="543" cy="43.9567" r="4" fill="white"/>
<circle cx="555" cy="43.9567" r="4" fill="white"/>
<circle cx="447" cy="55.9567" r="4" fill="white"/>
<circle cx="459" cy="55.9567" r="4" fill="white"/>
<circle cx="471" cy="55.9567" r="4" fill="white"/>
<circle cx="483" cy="55.9567" r="4" fill="white"/>
<circle cx="495" cy="55.9567" r="4" fill="white"/>
<circle cx="507" cy="55.9567" r="4" fill="white"/>
<circle cx="519" cy="55.9567" r="4" fill="white"/>
<circle cx="531" cy="55.9567" r="4" fill="white"/>
<circle cx="543" cy="55.9567" r="4" fill="white"/>
<circle cx="555" cy="55.9567" r="4" fill="white"/>
<circle cx="447" cy="67.9567" r="4" fill="white"/>
<circle cx="459" cy="67.9567" r="4" fill="white"/>
<circle cx="471" cy="67.9567" r="4" fill="white"/>
<circle cx="483" cy="67.9567" r="4" fill="white"/>
<circle cx="495" cy="67.9567" r="4" fill="white"/>
<circle cx="507" cy="67.9567" r="4" fill="white"/>
<circle cx="519" cy="67.9567" r="4" fill="white"/>
<circle cx="531" cy="67.9567" r="4" fill="white"/>
<circle cx="543" cy="67.9567" r="4" fill="white"/>
<circle cx="555" cy="67.9567" r="4" fill="white"/>
<circle cx="447" cy="79.9567" r="4" fill="white"/>
<circle cx="459" cy="79.9567" r="4" fill="white"/>
<circle cx="471" cy="79.9567" r="4" fill="white"/>
<circle cx="483" cy="79.9567" r="4" fill="white"/>
<circle cx="495" cy="79.9567" r="4" fill="white"/>
<circle cx="507" cy="79.9567" r="4" fill="white"/>
<circle cx="519" cy="79.9567" r="4" fill="white"/>
<circle cx="531" cy="79.9567" r="4" fill="white"/>
<circle cx="543" cy="79.9567" r="4" fill="white"/>
<circle cx="555" cy="79.9567" r="4" fill="white"/>
</g>
<path opacity="0.4" d="M33.1661 115.15L33.1662 9.01019L140.057 115.099L33.1661 115.15Z" fill="white"/>
<path opacity="0.2" d="M69.3273 115.15L69.3274 9.01019L176.218 115.099L69.3273 115.15Z" fill="white"/>
<path opacity="0.25" d="M99.7647 38.8137L-36.0502 37.8966L98.7751 175.589L99.7647 38.8137Z" fill="white"/>
<path opacity="0.6" d="M-2.56139 115.15L-2.5613 9.01019L104.329 115.099L-2.56139 115.15Z" fill="white"/>
<path d="M568.868 170.235L568.809 269.91C568.809 274.871 564.78 278.899 559.8 278.899L507.551 278.899C502.59 278.899 498.562 274.871 498.542 269.91L498.463 235.779C498.423 223.595 503.245 211.907 511.857 203.295L551.882 163.211C558.172 156.94 568.868 161.385 568.868 170.235ZM201.265 -171.075C201.225 -187.387 207.734 -203.043 219.303 -214.533L259.307 -254.24C264.129 -259.042 272.345 -255.589 272.325 -248.783L272.107 -203.42C303.301 -227.868 342.571 -242.453 385.195 -242.453C489.414 -242.453 573.65 -155.2 568.67 -49.9099L568.888 53.4159C568.928 69.7274 562.419 85.384 550.85 96.8735L510.845 136.581C506.023 141.383 497.808 137.93 497.828 131.124L498.046 85.9198C470.325 107.629 436.313 121.599 399.384 124.377C293.061 132.413 203.745 49.3083 201.563 -54.851L201.523 -54.7716L201.523 -58.7404C201.523 -58.7602 201.523 -58.78 201.523 -58.7999C201.523 -58.8197 201.523 -58.8197 201.523 -58.8395L201.265 -171.075ZM271.948 -60.1889C271.948 3.03293 323.383 54.4676 386.604 54.4676C449.826 54.4676 501.261 3.03295 501.261 -60.1889C501.261 -123.411 449.826 -174.845 386.604 -174.845C323.383 -174.845 271.948 -123.391 271.948 -60.1889Z" fill="white" fill-opacity="0.25"/>
</g>
<rect x="413.5" y="44.5" width="123" height="55" rx="7.5" fill="white"/>
<rect x="413.5" y="44.5" width="123" height="55" rx="7.5" stroke="#E0E0E8"/>
<path d="M519.683 75.8938C519.683 75.8915 519.683 75.8915 519.683 75.8893V75.6476L519.681 75.6521C519.549 69.2991 514.191 64.2305 507.813 64.7206C502.411 65.1346 498.05 69.5922 497.672 75.0859C497.218 81.6269 502.325 87.096 508.664 87.096C511.222 87.096 513.577 86.2054 515.448 84.715L515.435 87.4809C515.433 87.8949 515.926 88.1052 516.216 87.8143L518.616 85.3931C519.311 84.6926 519.701 83.7371 519.699 82.7413L519.685 75.896C519.683 75.896 519.683 75.8938 519.683 75.8938ZM508.579 82.9718C504.786 82.9718 501.7 79.8345 501.7 75.9788C501.7 72.1231 504.786 68.9858 508.579 68.9858C512.371 68.9858 515.457 72.1231 515.457 75.9788C515.457 79.8345 512.371 82.9718 508.579 82.9718ZM434.312 65.1592V86.6283H430.086V70.1405C430.086 68.9992 430.528 67.905 431.321 67.0949L433.531 64.8303C433.817 64.5349 434.312 64.743 434.312 65.1592ZM430.086 62.738L430.09 56.658C430.09 56.3559 430.332 56.1097 430.63 56.1097H433.764C434.061 56.1097 434.303 56.3559 434.303 56.658L434.308 58.7413C434.31 59.4843 434.022 60.1981 433.504 60.724L431.103 63.1699C430.729 63.5503 430.086 63.2795 430.086 62.738ZM450.046 64.7184C447.103 64.4521 444.369 65.3696 442.256 67.0546L442.269 56.5796C442.271 56.1657 441.778 55.9553 441.488 56.2462L439.089 58.6675C438.393 59.3679 438.003 60.3234 438.006 61.3192L438.019 75.8736V75.8759C438.019 75.8781 438.019 75.8781 438.019 75.8803V76.122L438.021 76.1175C438.147 82.1841 443.04 87.0803 449.038 87.0803C455.375 87.0803 460.479 81.6157 460.03 75.077C459.658 69.6415 455.386 65.204 450.046 64.7184ZM449.124 82.7838C445.331 82.7838 442.245 79.6465 442.245 75.7908C442.245 71.9352 445.331 68.7978 449.124 68.7978C452.916 68.7978 456.002 71.9352 456.002 75.7908C456.002 79.6465 452.916 82.7838 449.124 82.7838ZM488.837 75.8938L499.158 65.4009C499.437 65.1167 499.239 64.6289 498.843 64.6289H494.975C494.386 64.6289 493.82 64.8683 493.402 65.2912L485.905 72.9131L484.287 71.3489C484.025 71.0982 483.611 71.1027 483.358 71.3623L481.37 73.383C481.104 73.6538 481.111 74.0946 481.386 74.3564L482.973 75.8915L478.507 80.4319L478.502 80.4297C477.318 81.4255 475.035 82.7928 473.38 82.7928C472.376 82.7928 471.423 82.5668 470.563 82.1707C470.563 82.1707 479.477 72.978 482.015 70.3687C482.365 70.0084 482.372 69.4289 482.026 69.0619C479.413 66.3385 476.277 64.7206 473.294 64.7206C467.23 64.7206 462.297 69.7354 462.297 75.8982C462.297 82.0633 467.23 87.0781 473.294 87.0781C476.129 87.0781 478.614 86.1159 481.703 83.1352L485.902 78.8722L492.884 85.9749C493.303 86.4001 493.868 86.6373 494.458 86.6373H498.326C498.722 86.6373 498.92 86.1494 498.64 85.8652L488.837 75.8938ZM466.519 75.7259C466.568 71.9665 469.616 68.8784 473.314 68.8403C474.701 68.8269 475.993 69.2364 477.076 69.9458L467.607 79.5726C466.907 78.4627 466.502 77.1424 466.519 75.7259Z" fill="url(#paint1_linear_8714_936)"/>
<defs>
<linearGradient id="paint0_linear_8714_936" x1="205.867" y1="114.469" x2="201.67" y2="44.9819" gradientUnits="userSpaceOnUse">
<stop stop-color="#AE1164"/>
<stop offset="1" stop-color="#D70237" stop-opacity="0.1"/>
</linearGradient>
<linearGradient id="paint1_linear_8714_936" x1="430.086" y1="87.9494" x2="519.699" y2="87.9494" gradientUnits="userSpaceOnUse">
<stop stop-color="#E33E10"/>
<stop offset="0.179" stop-color="#E1301A"/>
<stop offset="0.514" stop-color="#DC0C34"/>
<stop offset="0.618" stop-color="#DB003E"/>
<stop offset="1" stop-color="#DB003E"/>
</linearGradient>
<clipPath id="clip0_8714_936">
<rect width="585" height="80" fill="white"/>
</clipPath>
</defs>
</svg>
