<?xml version="1.0" encoding="UTF-8"?>
<svg width="347px" height="409px" viewBox="0 0 347 409" version="1.1" xmlns="http://www.w3.org/2000/svg" xmlns:xlink="http://www.w3.org/1999/xlink">
    <title>Something went wrong</title>
    <defs>
        <path d="M24.1090967,17.159832 L117.599844,17.0787131 C123.122689,17.0739211 127.603725,21.5471873 127.608517,27.0700327 C127.608524,27.0778208 127.608521,27.0856088 127.60851,27.0933969 L127.492446,106.115548 C127.484347,111.629267 123.014856,116.096073 117.501133,116.100857 L24.0103859,116.181976 C18.4875405,116.186768 14.006505,111.713501 14.001713,106.190656 C14.0017062,106.182868 14.0017086,106.17508 14.00172,106.167292 L14.1177842,27.1451407 C14.1258825,21.6314213 18.5953734,17.1646161 24.1090967,17.159832 Z" id="path-1"></path>
        <filter x="-68.6%" y="-60.5%" width="244.3%" height="265.4%" filterUnits="objectBoundingBox" id="filter-2">
            <feMorphology radius="0.5" operator="dilate" in="SourceAlpha" result="shadowSpreadOuter1"></feMorphology>
            <feOffset dx="4" dy="22" in="shadowSpreadOuter1" result="shadowOffsetOuter1"></feOffset>
            <feGaussianBlur stdDeviation="23.5" in="shadowOffsetOuter1" result="shadowBlurOuter1"></feGaussianBlur>
            <feComposite in="shadowBlurOuter1" in2="SourceAlpha" operator="out" result="shadowBlurOuter1"></feComposite>
            <feColorMatrix values="0 0 0 0 0   0 0 0 0 0.247058824   0 0 0 0 1  0 0 0 0.05 0" type="matrix" in="shadowBlurOuter1"></feColorMatrix>
        </filter>
        <path d="M23.1558914,17.5027624 L83.2582458,17.4506136 C88.7810912,17.4458216 93.2621267,21.9190877 93.2669187,27.4419331 C93.2669254,27.4497212 93.2669231,27.4575093 93.2669117,27.4652974 L93.193635,77.3556444 C93.1855366,82.8693638 88.7160457,87.336169 83.2023224,87.3409531 L23.099968,87.3931019 C17.5771226,87.3978939 13.0960871,82.9246278 13.0912951,77.4017824 C13.0912883,77.3939943 13.0912907,77.3862062 13.0913021,77.3784182 L13.1645788,27.4880711 C13.1726771,21.9743517 17.642168,17.5075465 23.1558914,17.5027624 Z" id="path-3"></path>
        <filter x="-97.2%" y="-85.8%" width="304.4%" height="334.4%" filterUnits="objectBoundingBox" id="filter-4">
            <feMorphology radius="0.5" operator="dilate" in="SourceAlpha" result="shadowSpreadOuter1"></feMorphology>
            <feOffset dx="4" dy="22" in="shadowSpreadOuter1" result="shadowOffsetOuter1"></feOffset>
            <feGaussianBlur stdDeviation="23.5" in="shadowOffsetOuter1" result="shadowBlurOuter1"></feGaussianBlur>
            <feComposite in="shadowBlurOuter1" in2="SourceAlpha" operator="out" result="shadowBlurOuter1"></feComposite>
            <feColorMatrix values="0 0 0 0 0   0 0 0 0 0.247058824   0 0 0 0 1  0 0 0 0.05 0" type="matrix" in="shadowBlurOuter1"></feColorMatrix>
        </filter>
        <path d="M20.9255598,14.5392916 L67.4721232,14.4989046 C72.9949686,14.4941126 77.4760041,18.9673788 77.4807961,24.4902242 C77.4808028,24.4980122 77.4808005,24.5058003 77.4807891,24.5135884 L77.4248842,62.5763326 C77.4167859,68.0900521 72.947295,72.5568572 67.4335717,72.5616413 L20.8870083,72.6020283 C15.3641628,72.6068203 10.8831274,68.1335541 10.8783354,62.6107087 C10.8783286,62.6029206 10.8783309,62.5951326 10.8783424,62.5873445 L10.9342472,24.5246003 C10.9423455,19.0108808 15.4118364,14.5440756 20.9255598,14.5392916 Z" id="path-5"></path>
        <filter x="-117.0%" y="-103.2%" width="346.1%" height="382.1%" filterUnits="objectBoundingBox" id="filter-6">
            <feMorphology radius="0.5" operator="dilate" in="SourceAlpha" result="shadowSpreadOuter1"></feMorphology>
            <feOffset dx="4" dy="22" in="shadowSpreadOuter1" result="shadowOffsetOuter1"></feOffset>
            <feGaussianBlur stdDeviation="23.5" in="shadowOffsetOuter1" result="shadowBlurOuter1"></feGaussianBlur>
            <feComposite in="shadowBlurOuter1" in2="SourceAlpha" operator="out" result="shadowBlurOuter1"></feComposite>
            <feColorMatrix values="0 0 0 0 0   0 0 0 0 0.247058824   0 0 0 0 1  0 0 0 0.05 0" type="matrix" in="shadowBlurOuter1"></feColorMatrix>
        </filter>
    </defs>
    <g id="Page-1" stroke="none" stroke-width="1" fill="none" fill-rule="evenodd">
        <g id="Something-went-wrong" transform="translate(-777.000000, -140.000000)">
            <g transform="translate(827.000000, 188.000000)">
                <g id="+icon/+Streamline/light/application-framework-ionic-Copy-4" transform="translate(0.636862, 91.809527)" fill="#F3F3F6">
                    <path d="M199.68833,28.5269038 C215.443304,28.5269038 228.215234,41.2988339 228.215234,57.0538081 L228.215234,57.0538081 L228.215188,149.169904 L260.988215,196.44577 C265.333437,205.141401 264.947256,215.439839 259.990239,223.776041 L259.73858,224.191199 C254.544092,232.598833 245.368026,237.718925 235.480086,237.724202 L235.480086,237.724202 L30.7659436,237.724202 C20.8830797,237.718925 11.7070143,232.598833 6.51252567,224.191199 C1.31803707,215.783565 0.845248909,205.286328 5.96302389,195.266046 L5.96302389,195.266046 L38.0351882,149.160904 L38.0358719,57.0538081 C38.0358719,41.4563836 50.5536406,28.7826407 66.0910317,28.5307256 L66.5627762,28.5269038 Z M213.742585,161.652457 L52.4895034,161.652457 L22.2750795,204.946791 C21.0970416,207.304273 20.9622954,210.01518 21.8420446,212.440146 L21.8420446,212.440146 L22.6916243,214.195267 C24.4231205,216.997812 27.481809,218.704509 30.7710203,218.706267 L30.7710203,218.706267 L235.475009,218.706267 C238.769297,218.704509 241.827986,216.997812 243.559482,214.195267 C245.290978,211.392722 245.448574,207.893643 244.676159,206.126514 L244.676159,206.126514 L213.742585,161.652457 Z M199.68833,47.54484 L66.5627762,47.54484 C61.3111182,47.54484 57.0538081,51.80215 57.0538081,57.0538081 L57.0538081,57.0538081 L57.0538081,142.634521 L209.197298,142.634521 L209.197298,57.0538081 C209.197298,52.3856676 205.833497,48.5031848 201.397579,47.6980422 L201.397579,47.6980422 L199.68833,47.54484 Z" id="Combined-Shape"></path>
                </g>
                <g id="Group-2" transform="translate(0.000000, 49.270966)">
                    <g id="Rectangle-Copy" transform="translate(70.805115, 66.630344) rotate(-21.000000) translate(-70.805115, -66.630344) ">
                        <use fill="black" fill-opacity="1" filter="url(#filter-2)" xlink:href="#path-1"></use>
                        <use stroke="#E0E0E8" stroke-width="1" fill="#FFFFFF" fill-rule="evenodd" xlink:href="#path-1"></use>
                    </g>
                    <g id="Group" transform="translate(41.782125, 38.863527)" fill="#E7E8E9">
                        <g id="+icon/+Streamline/light/application-framework-ionic-Copy-3" transform="translate(27.493321, 27.493321) rotate(-21.000000) translate(-27.493321, -27.493321) ">
                            <path d="M27.4933207,0.00419049314 C29.722803,0.00419049314 31.7612981,1.26270591 32.7610944,3.25753895 L32.7610944,3.25753895 L54.3631989,46.461748 C55.275538,48.2875154 55.177897,50.455423 54.1051222,52.1917823 C53.0323474,53.9281415 51.1372904,54.9855516 49.0952157,54.9866416 L49.0952157,54.9866416 L5.89037733,54.9866416 C3.84935111,54.9855516 1.95429411,53.9281415 0.881519291,52.1917823 C-0.19125553,50.455423 -0.288896563,48.2875154 0.623652109,46.4613288 L0.623652109,46.4613288 L22.226386,3.2558631 C23.2253433,1.26270591 25.2638384,0.00419049314 27.4933207,0.00419049314 Z M27.4933207,3.93180776 C26.75016,3.93180776 26.0706616,4.3513129 25.7385147,5.01402278 L25.7385147,5.01402278 L4.13682931,48.2173935 C3.83271627,48.8259826 3.86526328,49.5486185 4.22285488,50.1274049 C4.58044649,50.7061913 5.21213216,51.0590246 5.89142578,51.0590246 L5.89142578,51.0590246 L49.0941672,51.0590246 C49.7745093,51.0590246 50.406195,50.7061913 50.7637866,50.1274049 C51.1213782,49.5486185 51.1539252,48.8259826 50.8500217,48.2178127 L50.8500217,48.2178127 L29.2489657,5.01569863 C28.9159799,4.3513129 28.2364815,3.93180776 27.4933207,3.93180776 Z M27.4933207,39.2761725 C29.6624839,39.2761725 31.420938,41.0346267 31.420938,43.2037898 C31.420938,45.3729529 29.6624839,47.1314071 27.4933207,47.1314071 C25.3241576,47.1314071 23.5657035,45.3729529 23.5657035,43.2037898 C23.5657035,41.0346267 25.3241576,39.2761725 27.4933207,39.2761725 Z M27.4933207,17.6742776 C28.4573932,17.6742776 29.2592103,18.3689755 29.4254898,19.2850891 L29.4571294,19.6380862 L29.4571294,31.420938 C29.4571294,32.5055196 28.5779023,33.3847466 27.4933207,33.3847466 C26.5292482,33.3847466 25.7274311,32.6900487 25.5611517,31.7739351 L25.5295121,31.420938 L25.5295121,19.6380862 C25.5295121,18.5535046 26.4087392,17.6742776 27.4933207,17.6742776 Z" id="Combined-Shape"></path>
                        </g>
                    </g>
                </g>
                <g id="Group" transform="translate(104.178682, 169.384335)">
                    <g id="Rectangle-Copy-2" transform="translate(53.179107, 52.421858) rotate(-321.000000) translate(-53.179107, -52.421858) ">
                        <use fill="black" fill-opacity="1" filter="url(#filter-4)" xlink:href="#path-3"></use>
                        <use stroke="#E0E0E8" stroke-width="1" fill="#FFFFFF" fill-rule="evenodd" xlink:href="#path-3"></use>
                    </g>
                    <g transform="translate(33.401525, 31.985406)" fill="#E7E8E9" id="+icon/+Streamline/light/application-framework-ionic-Copy-5">
                        <g transform="translate(19.404931, 19.404931) rotate(-321.000000) translate(-19.404931, -19.404931) ">
                            <path d="M19.4049309,0.00295767217 C20.9785112,0.00295767217 22.4172918,0.891224498 23.1229533,2.29918818 L23.1229533,2.29918818 L38.3698326,32.7929469 C39.0137664,34.0815832 38.9448509,35.6117038 38.1876807,36.8372353 C37.4305106,38.0627669 36.0929694,38.8090925 34.6516623,38.8098618 L34.6516623,38.8098618 L4.1574594,38.8098618 C2.71689232,38.8090925 1.3793511,38.0627669 0.622180967,36.8372353 C-0.134989162,35.6117038 -0.203904718,34.0815832 0.44017695,32.7926511 L0.44017695,32.7926511 L15.6875005,2.29800536 C16.3925699,0.891224498 17.8313505,0.00295767217 19.4049309,0.00295767217 Z M19.4049309,2.77509066 C18.8804041,2.77509066 18.4008105,3.0711796 18.1663795,3.53892374 L18.1663795,3.53892374 L2.91979596,34.0320908 C2.70515137,34.4616362 2.72812322,34.9716764 2.98051326,35.3801869 C3.2329033,35.7886974 3.67875038,36.037729 4.1581994,36.037729 L4.1581994,36.037729 L34.6509223,36.037729 C35.1311113,36.037729 35.5769584,35.7886974 35.8293484,35.3801869 C36.0817385,34.9716764 36.1047103,34.4616362 35.8902136,34.0323866 L35.8902136,34.0323866 L20.6440743,3.54010656 C20.4090512,3.0711796 19.9294576,2.77509066 19.4049309,2.77509066 Z M19.4049309,27.7213298 C20.9359376,27.7213298 22.1770638,28.962456 22.1770638,30.4934628 C22.1770638,32.0244696 20.9359376,33.2655958 19.4049309,33.2655958 C17.8739241,33.2655958 16.6327979,32.0244696 16.6327979,30.4934628 C16.6327979,28.962456 17.8739241,27.7213298 19.4049309,27.7213298 Z M19.4049309,12.4745984 C20.0853783,12.4745984 20.651305,12.9649198 20.768666,13.6115177 L20.7909973,13.8606649 L20.7909973,22.1770638 C20.7909973,22.9425672 20.1704342,23.5631303 19.4049309,23.5631303 C18.7244834,23.5631303 18.1585567,23.0728089 18.0411957,22.426211 L18.0188644,22.1770638 L18.0188644,13.8606649 C18.0188644,13.0951615 18.6394275,12.4745984 19.4049309,12.4745984 Z" id="Combined-Shape"></path>
                        </g>
                    </g>
                </g>
                <g id="Group-Copy" transform="translate(151.792509, -0.000000)">
                    <g id="Rectangle-Copy-2" transform="translate(44.179566, 43.550466) rotate(-321.000000) translate(-44.179566, -43.550466) ">
                        <use fill="black" fill-opacity="1" filter="url(#filter-6)" xlink:href="#path-5"></use>
                        <use stroke="#E0E0E8" stroke-width="1" fill="#FFFFFF" fill-rule="evenodd" xlink:href="#path-5"></use>
                    </g>
                    <g id="Group" transform="translate(27.748959, 26.572491)" fill="#E7E8E9">
                        <g id="+icon/+Streamline/light/application-framework-ionic-Copy-5" transform="translate(16.121019, 16.121019) rotate(-321.000000) translate(-16.121019, -16.121019) ">
                            <path d="M16.1210195,0.00245714303 C17.4283016,0.00245714303 18.6235963,0.74040189 19.2098381,1.91009479 L19.2098381,1.91009479 L31.8764763,27.2433713 C32.4114367,28.3139306 32.3541838,29.5851078 31.7251502,30.6032417 C31.0961165,31.6213755 29.9849284,32.2413999 28.7875348,32.242039 L28.7875348,32.242039 L3.45388935,32.242039 C2.25711055,32.2413999 1.14592245,31.6213755 0.516888803,30.6032417 C-0.112144842,29.5851078 -0.169397766,28.3139306 0.365685466,27.2431255 L0.365685466,27.2431255 L13.0326927,1.90911214 C13.6184427,0.74040189 14.8137373,0.00245714303 16.1210195,0.00245714303 Z M16.1210195,2.30545994 C15.6852588,2.30545994 15.2868272,2.55144152 15.0920691,2.94002895 L15.0920691,2.94002895 L2.42567664,28.2728139 C2.24735652,28.629667 2.26644083,29.0533927 2.47611871,29.3927707 C2.68579659,29.7321486 3.05619262,29.9390364 3.45450412,29.9390364 L3.45450412,29.9390364 L28.7869201,29.9390364 C29.1858463,29.9390364 29.5562424,29.7321486 29.7659202,29.3927707 C29.9755981,29.0533927 29.9946824,28.629667 29.8164852,28.2730597 L29.8164852,28.2730597 L17.1504617,2.9410116 C16.9552117,2.55144152 16.5567802,2.30545994 16.1210195,2.30545994 Z M16.1210195,23.0300279 C17.3929328,23.0300279 18.4240223,24.0611173 18.4240223,25.3330306 C18.4240223,26.604944 17.3929328,27.6360334 16.1210195,27.6360334 C14.8491062,27.6360334 13.8180167,26.604944 13.8180167,25.3330306 C13.8180167,24.0611173 14.8491062,23.0300279 16.1210195,23.0300279 Z M16.1210195,10.3635125 C16.6863143,10.3635125 17.1564688,10.7708565 17.2539686,11.3080301 L17.2725209,11.5150139 L17.2725209,18.4240223 C17.2725209,19.0599789 16.7569761,19.5755237 16.1210195,19.5755237 C15.5557247,19.5755237 15.0855701,19.1681797 14.9880703,18.6310061 L14.9695181,18.4240223 L14.9695181,11.5150139 C14.9695181,10.8790572 15.4850628,10.3635125 16.1210195,10.3635125 Z" id="Combined-Shape"></path>
                        </g>
                    </g>
                </g>
            </g>
        </g>
    </g>
</svg>