<svg width="408" height="143" viewBox="0 0 408 143" fill="none" xmlns="http://www.w3.org/2000/svg">
<path d="M407.44 88.9C407.44 88.89 407.44 88.89 407.44 88.88V87.8L407.43 87.82C406.83 59.43 382.49 36.78 353.51 38.97C328.97 40.82 309.16 60.74 307.44 85.29C305.38 114.52 328.58 138.96 357.38 138.96C369 138.96 379.7 134.98 388.2 128.32L388.14 140.68C388.13 142.53 390.37 143.47 391.69 142.17L402.59 131.35C405.75 128.22 407.52 123.95 407.51 119.5L407.45 88.91C407.44 88.91 407.44 88.9 407.44 88.9ZM356.99 120.53C339.76 120.53 325.74 106.51 325.74 89.28C325.74 72.05 339.76 58.03 356.99 58.03C374.22 58.03 388.24 72.05 388.24 89.28C388.24 106.51 374.22 120.53 356.99 120.53ZM19.59 40.93V136.87H0.390015V63.19C0.390015 58.09 2.40002 53.2 6.00002 49.58L16.04 39.46C17.34 38.14 19.59 39.07 19.59 40.93ZM0.390015 30.11L0.410019 2.93999C0.410019 1.58999 1.51002 0.48999 2.86002 0.48999H17.1C18.45 0.48999 19.55 1.58999 19.55 2.93999L19.57 12.25C19.58 15.57 18.27 18.76 15.92 21.11L5.01001 32.04C3.31001 33.74 0.390015 32.53 0.390015 30.11ZM91.07 38.96C77.7 37.77 65.28 41.87 55.68 49.4L55.74 2.58998C55.75 0.739981 53.51 -0.200009 52.19 1.09999L41.29 11.92C38.13 15.05 36.36 19.32 36.37 23.77L36.43 88.81V88.82C36.43 88.83 36.43 88.83 36.43 88.84V89.92L36.44 89.9C37.01 117.01 59.24 138.89 86.49 138.89C115.28 138.89 138.47 114.47 136.43 85.25C134.74 60.96 115.33 41.13 91.07 38.96ZM86.88 119.69C69.65 119.69 55.63 105.67 55.63 88.44C55.63 71.21 69.65 57.19 86.88 57.19C104.11 57.19 118.13 71.21 118.13 88.44C118.13 105.67 104.11 119.69 86.88 119.69ZM267.3 88.9L314.19 42.01C315.46 40.74 314.56 38.56 312.76 38.56H295.19C292.51 38.56 289.94 39.63 288.04 41.52L253.98 75.58L246.63 68.59C245.44 67.47 243.56 67.49 242.41 68.65L233.38 77.68C232.17 78.89 232.2 80.86 233.45 82.03L240.66 88.89L220.37 109.18L220.35 109.17C214.97 113.62 204.6 119.73 197.08 119.73C192.52 119.73 188.19 118.72 184.28 116.95C184.28 116.95 224.78 75.87 236.31 64.21C237.9 62.6 237.93 60.01 236.36 58.37C224.49 46.2 210.24 38.97 196.69 38.97C169.14 38.97 146.73 61.38 146.73 88.92C146.73 116.47 169.14 138.88 196.69 138.88C209.57 138.88 220.86 134.58 234.89 121.26L253.97 102.21L285.69 133.95C287.59 135.85 290.16 136.91 292.84 136.91H310.41C312.21 136.91 313.11 134.73 311.84 133.46L267.3 88.9ZM165.91 88.15C166.13 71.35 179.98 57.55 196.78 57.38C203.08 57.32 208.95 59.15 213.87 62.32L170.85 105.34C167.67 100.38 165.83 94.48 165.91 88.15Z" fill="url(#paint0_linear_2_17)"/>
<defs>
<linearGradient id="paint0_linear_2_17" x1="0.387915" y1="71.6378" x2="407.502" y2="71.6378" gradientUnits="userSpaceOnUse">
<stop stop-color="#FF4713"/>
<stop offset="0.5" stop-color="#DB0032"/>
<stop offset="1" stop-color="#AE1164"/>
</linearGradient>
</defs>
</svg>
