<svg width="64" height="64" viewBox="0 0 64 64" fill="none" xmlns="http://www.w3.org/2000/svg">
<g clip-path="url(#clip0_5_48)">
<path d="M51.2 0H12.8C5.73075 0 0 5.73075 0 12.8V51.2C0 58.2692 5.73075 64 12.8 64H51.2C58.2692 64 64 58.2692 64 51.2V12.8C64 5.73075 58.2692 0 51.2 0Z" fill="url(#paint0_linear_5_48)"/>
<path d="M45.5791 18.0432C52.2063 20.4864 53.3039 30.384 48.3039 34.9408C38.8223 43.5824 30.5967 30.7552 23.9231 25.2384C21.3631 23.8992 20.7695 26.912 20.5231 26.9136C18.3391 25.2448 18.4351 22.7776 19.0895 20.3312C20.0543 16.7296 21.3951 16.4592 24.9759 17.0256C30.5807 17.912 35.1407 26.0736 39.5839 29.0464C42.2079 30.8016 45.4303 28.8528 46.2959 26.064C47.1535 23.3088 46.4559 20.6784 45.5775 18.0432H45.5807H45.5791Z" fill="white"/>
<path d="M15.3567 33.9488L30.2655 48.9584C33.6335 52.2144 38.8863 48.1632 37.0527 44.1728C36.6671 43.3328 33.7183 40.6544 32.8431 39.7952C28.2735 35.3104 23.2959 31.2048 18.8239 26.6128C16.9919 23.9408 17.8655 20.5344 18.9471 17.7568C13.4943 19.8544 11.4639 27.128 14.2095 32.0864C14.5039 32.7568 14.8911 33.3824 15.3567 33.9472V33.9488Z" fill="white"/>
<path d="M42.4287 28.6336C43.1471 27.7888 43.0911 26.5344 42.3007 25.7568C40.6655 24.28 39.5951 27.0208 38.8879 26.896C38.4495 26.8192 33.3663 21.416 32.4111 20.7616C35.6031 16.8528 43.1887 13.4672 45.3071 20.1728C46.2655 23.2096 45.9791 27.592 42.4271 28.6336H42.4287Z" fill="white"/>
<path d="M22.9583 29.2112C23.9279 29.5344 24.7455 27.6912 25.3535 27.7968L31.5391 33.9136L29.7263 35.488L22.9599 29.2112H22.9583Z" fill="white"/>
</g>
<defs>
<linearGradient id="paint0_linear_5_48" x1="3.76" y1="60.24" x2="60.24" y2="3.76" gradientUnits="userSpaceOnUse">
<stop stop-color="#00ABAD"/>
<stop offset="1" stop-color="#53EECA"/>
</linearGradient>
<clipPath id="clip0_5_48">
<rect width="64" height="64" fill="white"/>
</clipPath>
</defs>
</svg>
