<svg width="64" height="64" viewBox="0 0 64 64" fill="none" xmlns="http://www.w3.org/2000/svg">
<g clip-path="url(#clip0_5_44)">
<path d="M51.2 0H12.8C5.73075 0 0 5.73075 0 12.8V51.2C0 58.2692 5.73075 64 12.8 64H51.2C58.2692 64 64 58.2692 64 51.2V12.8C64 5.73075 58.2692 0 51.2 0Z" fill="url(#paint0_linear_5_44)"/>
<path d="M49.477 16.0784C49.693 15.6864 49.2226 15.2784 48.861 15.5408C46.8162 17.0176 44.7042 18.3504 42.4482 19.5376C41.2786 20.1952 40.037 20.7792 38.6498 21.4368C33.317 23.9936 27.6178 25.7472 21.773 26.7696C20.3842 26.9888 18.997 27.208 17.5362 27.3536C16.6754 27.44 15.7394 27.5264 14.7874 27.5824C14.4018 27.6048 14.3522 28.1504 14.7266 28.248C15.5394 28.4576 16.3666 28.6224 17.1698 28.7424C16.877 29.912 16.7314 31.1536 16.7314 32.3216C16.7314 41.2352 23.8914 48.4672 32.7314 48.5408C41.5714 48.6144 48.877 41.4544 48.9506 32.5408C48.9506 28.5952 47.5618 24.7968 44.933 21.8016C46.7586 20.1536 48.2994 18.2192 49.4786 16.0784H49.477ZM32.8034 32.1024C34.6578 32.1024 36.1362 33.6096 36.0898 35.4768C36.0466 37.1984 34.6114 38.6336 32.8898 38.6768C31.0226 38.7232 29.5154 37.2448 29.5154 35.3904C29.5154 33.5632 30.9762 32.1024 32.8034 32.1024ZM45.1506 32.3216C45.1506 39.1888 39.5986 44.6688 32.8034 44.6688C26.0082 44.6688 20.3826 39.1168 20.3826 32.3216C20.3826 31.2256 20.5282 30.1296 20.821 29.1072C22.3554 29.1808 23.8898 29.1808 25.4242 29.1072C23.597 33.1248 25.4242 37.9472 29.4418 39.7008C33.4594 41.528 38.2818 39.7008 40.0354 35.6832C41.4962 32.4688 40.6194 28.6688 37.989 26.3312C39.3778 25.7472 40.693 25.016 41.9346 24.1392C44.053 26.4048 45.149 29.3264 45.149 32.3216H45.1506Z" fill="white"/>
</g>
<defs>
<linearGradient id="paint0_linear_5_44" x1="3.76" y1="60.24" x2="57.8288" y2="6.1696" gradientUnits="userSpaceOnUse">
<stop stop-color="#7C104B"/>
<stop offset="0.03" stop-color="#7F0F4A"/>
<stop offset="0.29" stop-color="#9F0847"/>
<stop offset="0.55" stop-color="#B60344"/>
<stop offset="0.79" stop-color="#C40043"/>
<stop offset="1" stop-color="#C90043"/>
</linearGradient>
<clipPath id="clip0_5_44">
<rect width="64" height="64" fill="white"/>
</clipPath>
</defs>
</svg>
