<svg width="1953" height="1132" viewBox="0 0 1953 1132" fill="none" xmlns="http://www.w3.org/2000/svg">
<g clip-path="url(#clip0_2_22)">
<path d="M1953 0H0V1132H1953V0Z" fill="#F9F9FA"/>
<path d="M1108.5 1258C1260.65 1258 1384 1134.65 1384 982.5C1384 830.346 1260.65 707 1108.5 707C956.346 707 833 830.346 833 982.5C833 1134.65 956.346 1258 1108.5 1258Z" fill="#F3F3F6"/>
<path d="M1834.5 478C1959.59 478 2061 376.592 2061 251.5C2061 126.408 1959.59 25 1834.5 25C1709.41 25 1608 126.408 1608 251.5C1608 376.592 1709.41 478 1834.5 478Z" fill="#F3F3F6"/>
<path fill-rule="evenodd" clip-rule="evenodd" d="M1078.5 52.5C1309.21 52.5 1519.38 141.137 1676.29 285.88C1834.38 431.709 1938.42 634.488 1954.93 860.955C1956.64 900.338 1957.5 921.471 1957.5 924.355L1957.5 924.564C1957.47 933.589 1955.91 1151.32 1952.84 1577.74L1700.57 1894.56V1513.78C1578.57 1687.82 1285.15 1796.21 1078.5 1796.21C836.153 1796.21 616.404 1698.43 457.241 1540.56C298.077 1382.69 199.5 1164.73 199.5 924.355C199.5 683.987 298.078 466.021 457.244 308.149C616.407 150.279 836.154 52.5 1078.5 52.5Z" stroke="#E0E0E8"/>
<path fill-rule="evenodd" clip-rule="evenodd" d="M1364.99 132.5C1535.78 132.5 1690.66 201.307 1802.84 312.398C1915.02 423.488 1984.5 576.861 1984.5 745.992C1984.5 915.136 1915.02 1068.51 1802.85 1179.6C1690.67 1290.69 1535.79 1359.5 1364.99 1359.5C1194.2 1359.5 1039.32 1290.7 927.148 1179.6C814.975 1068.51 745.5 915.138 745.5 745.992C745.5 576.859 814.978 423.486 927.154 312.396C1039.33 201.306 1194.2 132.5 1364.99 132.5Z" stroke="#E0E0E8"/>
</g>
<defs>
<clipPath id="clip0_2_22">
<rect width="1953" height="1132" fill="white"/>
</clipPath>
</defs>
</svg>
