<?xml version="1.0" encoding="UTF-8"?>
<svg width="364px" height="456px" viewBox="0 0 364 456" version="1.1" xmlns="http://www.w3.org/2000/svg" xmlns:xlink="http://www.w3.org/1999/xlink">
    <title>page isn't available</title>
    <defs>
        <path d="M44.8354215,174.712477 L95.2918265,188.112202 C100.629649,189.529769 103.807643,195.006094 102.390076,200.343916 C102.386261,200.358281 102.382414,200.372638 102.378535,200.386986 L86.3847527,259.54667 C84.9479414,264.861317 79.4855791,268.01495 74.1645785,266.601851 L23.7081735,253.202126 C18.3703512,251.784559 15.1923565,246.308234 16.6099238,240.970411 C16.6137387,240.956046 16.6175856,240.94169 16.6214645,240.927342 L32.6152473,181.767658 C34.0520586,176.453011 39.5144209,173.299377 44.8354215,174.712477 Z" id="path-1"></path>
        <mask id="mask-2" maskContentUnits="userSpaceOnUse" maskUnits="objectBoundingBox" x="0" y="0" width="91" height="97" fill="white">
            <use xlink:href="#path-1"></use>
        </mask>
        <path d="M30.8354215,143.712477 L81.2918265,157.112202 C86.6296488,158.529769 89.8076435,164.006094 88.3900762,169.343916 C88.3862613,169.358281 88.3824144,169.372638 88.3785355,169.386986 L72.3847527,228.54667 C70.9479414,233.861317 65.4855791,237.01495 60.1645785,235.601851 L9.70817353,222.202126 C4.37035117,220.784559 1.19235651,215.308234 2.60992378,209.970411 C2.61373868,209.956046 2.6175856,209.94169 2.62146452,209.927342 L18.6152473,150.767658 C20.0520586,145.453011 25.5144209,142.299377 30.8354215,143.712477 Z" id="path-3"></path>
        <filter x="-39.8%" y="-39.5%" width="188.4%" height="183.1%" filterUnits="objectBoundingBox" id="filter-4">
            <feOffset dx="4" dy="2" in="SourceAlpha" result="shadowOffsetOuter1"></feOffset>
            <feGaussianBlur stdDeviation="13.5" in="shadowOffsetOuter1" result="shadowBlurOuter1"></feGaussianBlur>
            <feColorMatrix values="0 0 0 0 0   0 0 0 0 0.247058824   0 0 0 0 1  0 0 0 0.15 0" type="matrix" in="shadowBlurOuter1"></feColorMatrix>
        </filter>
        <path d="M107.648353,64.9843927 L208.253,64.951459 C213.775845,64.9431023 218.254463,69.418789 218.256271,74.9416362 C218.256271,74.9438198 218.256271,74.9460034 218.249722,74.9481849 L218.211487,191.613428 C218.203125,197.133715 213.728497,201.608341 208.208211,201.616701 L107.603564,201.649634 C102.080719,201.657991 97.6021013,197.182304 97.6002933,191.659457 C97.6002926,191.657274 97.6002926,191.65509 97.606842,191.652908 L97.6450766,74.9876657 C97.6534388,69.4673787 102.128066,64.9927528 107.648353,64.9843927 Z" id="path-5"></path>
        <mask id="mask-6" maskContentUnits="userSpaceOnUse" maskUnits="objectBoundingBox" x="0" y="0" width="120.649434" height="136.704722" fill="white">
            <use xlink:href="#path-5"></use>
        </mask>
        <path d="M133.605679,19.1264504 L234.210326,19.0935167 C239.733171,19.08516 244.211788,23.5608467 244.213596,29.0836939 C244.213597,29.0858775 244.213597,29.0880611 244.207048,29.0902426 L244.168813,145.755485 C244.160451,151.275772 239.685823,155.750398 234.165536,155.758758 L133.56089,155.791692 C128.038045,155.800049 123.559427,151.324362 123.557619,145.801515 C123.557618,145.799331 123.557618,145.797148 123.564168,145.794966 L123.602402,29.1297234 C123.610765,23.6094365 128.085392,19.1348105 133.605679,19.1264504 Z" id="path-7"></path>
        <filter x="-64.2%" y="-43.5%" width="235.1%" height="219.2%" filterUnits="objectBoundingBox" id="filter-8">
            <feOffset dx="4" dy="22" in="SourceAlpha" result="shadowOffsetOuter1"></feOffset>
            <feGaussianBlur stdDeviation="23.5" in="shadowOffsetOuter1" result="shadowBlurOuter1"></feGaussianBlur>
            <feColorMatrix values="0 0 0 0 0   0 0 0 0 0.247058824   0 0 0 0 1  0 0 0 0.05 0" type="matrix" in="shadowBlurOuter1"></feColorMatrix>
        </filter>
        <path d="M127.975954,264.648182 L174.475916,264.63296 C179.998761,264.624603 184.477379,269.10029 184.479187,274.623137 C184.479188,274.625321 184.479188,274.627504 184.472638,274.629686 L184.454497,329.98527 C184.446135,335.505557 179.971507,339.980183 174.45122,339.988543 L127.951257,340.003765 C122.428412,340.012122 117.949794,335.536435 117.947986,330.013588 C117.947986,330.011404 117.947986,330.00922 117.954535,330.007039 L117.972677,274.651455 C117.981039,269.131168 122.455667,264.656542 127.975954,264.648182 Z" id="path-9"></path>
        <mask id="mask-10" maskContentUnits="userSpaceOnUse" maskUnits="objectBoundingBox" x="0" y="0" width="66.5246578" height="75.377352" fill="white">
            <use xlink:href="#path-9"></use>
        </mask>
        <path d="M158.2595,239.5561 L204.759463,239.540878 C210.282308,239.532522 214.760926,244.008208 214.762734,249.531056 C214.762735,249.533239 214.762735,249.535423 214.756185,249.537604 L214.738044,304.893188 C214.729681,310.413475 210.255054,314.888101 204.734767,314.896461 L158.234804,314.911683 C152.711959,314.92004 148.233341,310.444353 148.231533,304.921506 C148.231533,304.919322 148.231533,304.917139 148.238082,304.914957 L148.256224,249.559374 C148.264586,244.039087 152.739213,239.564461 158.2595,239.5561 Z" id="path-11"></path>
        <filter x="-116.5%" y="-78.9%" width="345.0%" height="316.2%" filterUnits="objectBoundingBox" id="filter-12">
            <feOffset dx="4" dy="22" in="SourceAlpha" result="shadowOffsetOuter1"></feOffset>
            <feGaussianBlur stdDeviation="23.5" in="shadowOffsetOuter1" result="shadowBlurOuter1"></feGaussianBlur>
            <feColorMatrix values="0 0 0 0 0   0 0 0 0 0.247058824   0 0 0 0 1  0 0 0 0.05 0" type="matrix" in="shadowBlurOuter1"></feColorMatrix>
        </filter>
    </defs>
    <g id="Page-1" stroke="none" stroke-width="1" fill="none" fill-rule="evenodd">
        <g id="Sorry,-this-page-isn't-available" transform="translate(-811.000000, -144.000000)">
            <g id="page-isn't-available" transform="translate(832.000000, 188.842836)">
                <g id="Group-2" transform="translate(0.000000, -0.000000)">
                    <use id="Rectangle-Copy-8" stroke="#A0A4A8" mask="url(#mask-2)" stroke-width="2" stroke-dasharray="2,2" xlink:href="#path-1"></use>
                    <g id="Rectangle-Copy-5">
                        <use fill="black" fill-opacity="1" filter="url(#filter-4)" xlink:href="#path-3"></use>
                        <use fill="#FFFFFF" fill-rule="evenodd" xlink:href="#path-3"></use>
                    </g>
                    <path d="M36.3864996,154.743812 L71.3403286,164.103681 C76.6760439,165.529162 79.8427443,171.012026 78.414178,176.346915 C78.4139026,176.347944 78.413627,176.348972 78.4102664,176.349173 L70.8629054,204.498319 C69.4298722,209.83072 63.948011,212.995673 58.6135004,211.570516 L23.6596714,202.210647 C18.3239561,200.785166 15.1572557,195.302302 16.585822,189.967413 C16.5860974,189.966384 16.586373,189.965356 16.5897336,189.965154 L24.1370946,161.816009 C25.5701278,156.483608 31.051989,153.318654 36.3864996,154.743812 Z" id="Rectangle-Copy-6" fill="#ECECF1"></path>
                    <use id="Rectangle-Copy-7" stroke="#A0A4A8" mask="url(#mask-6)" stroke-width="2" stroke-dasharray="2,2" transform="translate(157.928282, 133.300547) rotate(-385.000000) translate(-157.928282, -133.300547) " xlink:href="#path-5"></use>
                    <g id="Rectangle-Copy-5" transform="translate(183.885608, 87.442604) rotate(-385.000000) translate(-183.885608, -87.442604) ">
                        <use fill="black" fill-opacity="1" filter="url(#filter-8)" xlink:href="#path-7"></use>
                        <use fill="#FFFFFF" fill-rule="evenodd" xlink:href="#path-7"></use>
                    </g>
                    <path d="M141.86687,35.4435829 L215.670484,35.4194228 C221.193329,35.4110661 225.671947,39.8867528 225.673755,45.4096 C225.673756,45.4117836 225.673756,45.4139672 225.667206,45.4161487 L225.646887,107.415295 C225.638525,112.935582 221.163898,117.410208 215.643611,117.418568 L141.839997,117.442728 C136.317151,117.451085 131.838534,112.975398 131.836726,107.452551 C131.836725,107.450367 131.836725,107.448184 131.843274,107.446002 L131.863593,45.446856 C131.871955,39.926569 136.346583,35.4519431 141.86687,35.4435829 Z" id="Rectangle-Copy-6" fill="#F3F3F6" transform="translate(178.755240, 76.431075) rotate(-385.000000) translate(-178.755240, -76.431075) "></path>
                    <use id="Rectangle-Copy-9" stroke="#A0A4A8" mask="url(#mask-10)" stroke-width="2" stroke-dasharray="2,2" transform="translate(151.213587, 302.318362) rotate(-333.000000) translate(-151.213587, -302.318362) " xlink:href="#path-9"></use>
                    <g id="Rectangle-Copy-5" transform="translate(181.497134, 277.226281) rotate(-333.000000) translate(-181.497134, -277.226281) ">
                        <use fill="black" fill-opacity="1" filter="url(#filter-12)" xlink:href="#path-11"></use>
                        <use fill="#FFFFFF" fill-rule="evenodd" xlink:href="#path-11"></use>
                    </g>
                    <path d="M168.686355,248.657589 L200.408548,248.647204 C205.931393,248.638848 210.410011,253.114534 210.411819,258.637382 C210.41182,258.639565 210.41182,258.641749 210.40527,258.64393 L210.397007,283.857281 C210.388645,289.377568 205.914017,293.852194 200.39373,293.860554 L168.671537,293.870939 C163.148692,293.879295 158.670074,289.403609 158.668266,283.880761 C158.668265,283.878578 158.668265,283.876394 158.674815,283.874213 L158.683078,258.660862 C158.69144,253.140575 163.166068,248.665949 168.686355,248.657589 Z" id="Rectangle-Copy-6" fill="#F3F3F6" transform="translate(184.540042, 271.259072) rotate(-333.000000) translate(-184.540042, -271.259072) "></path>
                    <g id="Group" transform="translate(264.440451, 225.679422)" fill="#E7E8E9">
                        <g id="+icon/+Streamline/light/application-framework-ionic-Copy" transform="translate(17.304884, 17.304884) rotate(20.000000) translate(-17.304884, -17.304884) ">
                            <path d="M32.1376416,1.85409464 C33.5029592,1.85409464 34.6097678,2.96090327 34.6097678,4.32622092 L34.6097678,4.32622092 L34.6097678,24.1032312 C34.6097678,25.4685488 33.5029592,26.5753574 32.1376416,26.5753574 L32.1376416,26.5753574 L21.6019999,26.5750946 L23.0849999,30.2830946 L24.7212627,30.2835469 C25.4039215,30.2835469 25.9573259,30.8369512 25.9573259,31.51961 C25.9573259,32.1264178 25.5200681,32.6310987 24.9434466,32.7357585 L24.7212627,32.7556731 L9.88850505,32.7556731 C9.20584622,32.7556731 8.65244191,32.2022688 8.65244191,31.51961 C8.65244191,30.9128021 9.08969964,30.4081213 9.66632113,30.3034615 L9.88850505,30.2835469 L11.5229999,30.2830946 L13.0069999,26.5750946 L2.47212621,26.5753574 C1.16142127,26.5753574 0.0889582332,25.5553226 0.00525831817,24.2657741 L-7.21037086e-08,24.1032312 L-7.21037086e-08,4.32622092 C-7.21037086e-08,2.96090327 1.10680856,1.85409464 2.47212621,1.85409464 L2.47212621,1.85409464 Z M18.9399999,26.5750946 L15.6689999,26.5750946 L14.1859999,30.2830946 L20.4229999,30.2830946 L18.9399999,26.5750946 Z M32.1376416,4.32622092 L2.47212621,4.32622092 L2.47212621,24.1032312 L32.1376416,24.1032312 L32.1376416,4.32622092 Z M13.0634704,8.25341887 L13.23466,8.39644485 L17.3049999,12.4660946 L21.3751078,8.39644485 C21.8578205,7.91373217 22.6404524,7.91373217 23.1231651,8.39644485 C23.552243,8.82552279 23.5999183,9.49157393 23.2661911,9.97331258 L23.1231651,10.1445021 L19.0529999,14.2140946 L23.1231651,18.28495 C23.6058778,18.7676626 23.6058778,19.5502945 23.1231651,20.0330072 C22.6940871,20.4620852 22.028036,20.5097605 21.5462973,20.1760332 L21.3751078,20.0330072 L17.3049999,15.9620946 L13.23466,20.0330072 C12.7519473,20.5157199 11.9693154,20.5157199 11.4866027,20.0330072 C11.0575248,19.6039293 11.0098494,18.9378781 11.3435767,18.4561395 L11.4866027,18.28495 L15.5559999,14.2140946 L11.4866027,10.1445021 C11.00389,9.66178942 11.00389,8.87915753 11.4866027,8.39644485 C11.9156806,7.96736691 12.5817318,7.91969158 13.0634704,8.25341887 Z" id="Combined-Shape"></path>
                        </g>
                    </g>
                    <g id="Group" transform="translate(5.732437, 62.148269)" fill="#E7E8E9">
                        <g id="+icon/+Streamline/light/application-framework-ionic-Copy-2" transform="translate(13.843907, 13.843907) rotate(-30.000000) translate(-13.843907, -13.843907) ">
                            <path d="M6.92195352,1.97770097 C7.46808058,1.97770097 7.91080404,2.42042442 7.91080404,2.96655148 C7.91080404,3.45199775 7.56099785,3.85574241 7.09970066,3.93947028 L6.92195352,3.95540199 L1.97770097,3.95540199 L1.97770097,19.7770102 L25.7101132,19.7770102 L25.7101132,3.95540199 L20.7658607,3.95540199 C20.2197336,3.95540199 19.7770102,3.51267854 19.7770102,2.96655148 C19.7770102,2.4811052 20.1268164,2.07736054 20.5881136,1.99363267 L20.7658607,1.97770097 L25.7101132,1.97770097 C26.7243492,1.97770097 27.5602667,2.74117305 27.6745088,3.72476027 L27.6878143,3.95540199 L27.6878143,19.7770102 C27.6878143,20.7912461 26.9243422,21.6271636 25.940755,21.7414058 L25.7101132,21.7547112 L17.2809999,21.7538505 L18.4679999,24.7208505 L19.7770102,24.7212627 C20.3231372,24.7212627 20.7658607,25.1639862 20.7658607,25.7101132 C20.7658607,26.1955595 20.4160545,26.5993042 19.9547573,26.6830321 L19.7770102,26.6989638 L7.91080404,26.6989638 C7.36467698,26.6989638 6.92195352,26.2562403 6.92195352,25.7101132 C6.92195352,25.224667 7.27175971,24.8209223 7.73305691,24.7371944 L7.91080404,24.7212627 L9.21899994,24.7208505 L10.4059999,21.7538505 L1.97770097,21.7547112 C0.963465002,21.7547112 0.127547497,20.9912391 0.0133053834,20.0076519 L-5.76829345e-08,19.7770102 L-5.76829345e-08,3.95540199 C-5.76829345e-08,2.94116603 0.763472022,2.10524852 1.74705925,1.99100641 L1.97770097,1.97770097 L6.92195352,1.97770097 Z M15.1509999,21.7538505 L12.5359999,21.7538505 L11.3489999,24.7208505 L16.3379999,24.7208505 L15.1509999,21.7538505 Z M13.8439071,12.8550566 C14.9361612,12.8550566 15.8216081,13.7405035 15.8216081,14.8327576 C15.8216081,15.9250117 14.9361612,16.8104586 13.8439071,16.8104586 C12.751653,16.8104586 11.8662061,15.9250117 11.8662061,14.8327576 C11.8662061,13.7405035 12.751653,12.8550566 13.8439071,12.8550566 Z M13.8439071,0.988850454 C14.3293534,0.988850454 14.733098,1.33865664 14.8168259,1.79995384 L14.8327576,1.97770097 L14.8327576,8.89965455 C14.8327576,9.44578161 14.3900342,9.88850506 13.8439071,9.88850506 C13.3584608,9.88850506 12.9547162,9.53869887 12.8709883,9.07740168 L12.8550566,8.89965455 L12.8550566,1.97770097 C12.8550566,1.43157391 13.2977801,0.988850454 13.8439071,0.988850454 Z" id="Combined-Shape"></path>
                        </g>
                    </g>
                </g>
            </g>
        </g>
    </g>
</svg>