<?xml version="1.0" encoding="UTF-8"?>
<svg width="515px" height="467px" viewBox="0 0 515 467" version="1.1" xmlns="http://www.w3.org/2000/svg" xmlns:xlink="http://www.w3.org/1999/xlink">
    <title>Access denied</title>
    <defs>
        <path d="M37.0755002,90.7482798 L234.693185,90.5768134 C240.216031,90.5720214 244.697066,95.0452875 244.701858,100.568133 C244.701865,100.575921 244.701863,100.583709 244.701851,100.591497 L244.452347,270.465746 C244.444249,275.979466 239.974758,280.446271 234.461035,280.451055 L36.8433499,280.622522 C31.3205045,280.627314 26.839469,276.154047 26.834677,270.631202 C26.8346702,270.623414 26.8346726,270.615626 26.834684,270.607838 L27.0841877,100.733589 C27.092286,95.2198691 31.5617769,90.7530639 37.0755002,90.7482798 Z" id="path-1"></path>
        <filter x="-35.8%" y="-31.6%" width="175.3%" height="186.3%" filterUnits="objectBoundingBox" id="filter-2">
            <feMorphology radius="0.5" operator="dilate" in="SourceAlpha" result="shadowSpreadOuter1"></feMorphology>
            <feOffset dx="4" dy="22" in="shadowSpreadOuter1" result="shadowOffsetOuter1"></feOffset>
            <feGaussianBlur stdDeviation="23.5" in="shadowOffsetOuter1" result="shadowBlurOuter1"></feGaussianBlur>
            <feComposite in="shadowBlurOuter1" in2="SourceAlpha" operator="out" result="shadowBlurOuter1"></feComposite>
            <feColorMatrix values="0 0 0 0 0   0 0 0 0 0.247058824   0 0 0 0 1  0 0 0 0.05 0" type="matrix" in="shadowBlurOuter1"></feColorMatrix>
        </filter>
        <path d="M85.2366405,155.622754 L321.150748,155.570845 C326.673596,155.569629 331.151733,160.045797 331.152948,165.568644 C331.152953,165.588683 331.152897,165.608722 331.152781,165.628761 L331.015621,189.310795 C330.98377,194.810088 326.517374,199.251669 321.017989,199.252879 L85.1038811,199.304788 C79.5810337,199.306003 75.1028962,194.829836 75.101681,189.306989 C75.1016766,189.28695 75.1017324,189.266911 75.1018485,189.246872 L75.2390085,165.564838 C75.270859,160.065545 79.7372557,155.623964 85.2366405,155.622754 Z" id="path-3"></path>
        <filter x="-30.4%" y="-137.2%" width="164.0%" height="474.9%" filterUnits="objectBoundingBox" id="filter-4">
            <feMorphology radius="0.5" operator="dilate" in="SourceAlpha" result="shadowSpreadOuter1"></feMorphology>
            <feOffset dx="4" dy="22" in="shadowSpreadOuter1" result="shadowOffsetOuter1"></feOffset>
            <feGaussianBlur stdDeviation="23.5" in="shadowOffsetOuter1" result="shadowBlurOuter1"></feGaussianBlur>
            <feComposite in="shadowBlurOuter1" in2="SourceAlpha" operator="out" result="shadowBlurOuter1"></feComposite>
            <feColorMatrix values="0 0 0 0 0   0 0 0 0 0.247058824   0 0 0 0 1  0 0 0 0.05 0" type="matrix" in="shadowBlurOuter1"></feColorMatrix>
        </filter>
    </defs>
    <g id="Page-1" stroke="none" stroke-width="1" fill="none" fill-rule="evenodd">
        <g id="Access-denied" transform="translate(-685.000000, -179.000000)">
            <g transform="translate(748.000000, 188.000000)">
                <g id="Group-13" transform="translate(189.967111, 183.000000) rotate(10.000000) translate(-189.967111, -183.000000) translate(24.696613, 26.318578)">
                    <g id="Rectangle-Copy" transform="translate(135.768268, 185.599667) rotate(-21.000000) translate(-135.768268, -185.599667) ">
                        <use fill="black" fill-opacity="1" filter="url(#filter-2)" xlink:href="#path-1"></use>
                        <use stroke="#E0E0E8" stroke-width="1" fill="#FFFFFF" fill-rule="evenodd" xlink:href="#path-1"></use>
                    </g>
                    <path d="M42.2253549,44.5026857 L278.139463,44.450776 C283.66231,44.4495608 288.140448,48.9257281 288.141663,54.4485754 C288.141667,54.4686145 288.141611,54.4886535 288.141495,54.5086922 L288.004335,78.1907265 C287.972485,83.6900192 283.506088,88.1315999 278.006703,88.1328099 L42.0925956,88.1847196 C36.5697482,88.1859348 32.0916107,83.7097675 32.0903954,78.1869202 C32.090391,78.1668811 32.0904468,78.1468421 32.0905629,78.1268034 L32.227723,54.444769 C32.2595734,48.9454764 36.7259701,44.5038957 42.2253549,44.5026857 Z" id="Rectangle-Copy-2" fill="#F3F3F6" transform="translate(160.116029, 66.317748) rotate(-21.000000) translate(-160.116029, -66.317748) "></path>
                    <path d="M65.3890639,102.596647 L301.303172,102.544737 C306.826019,102.543522 311.304157,107.019689 311.305372,112.542536 C311.305376,112.562576 311.30532,112.582615 311.305204,112.602653 L311.168044,136.284688 C311.136194,141.78398 306.669797,146.225561 301.170412,146.226771 L65.2563045,146.278681 C59.7334571,146.279896 55.2553196,141.803729 55.2541044,136.280881 C55.2541,136.260842 55.2541558,136.240803 55.2542719,136.220764 L55.3914319,112.53873 C55.4232824,107.039437 59.8896791,102.597857 65.3890639,102.596647 Z" id="Rectangle-Copy-3" fill="#F3F3F6" transform="translate(183.279738, 124.411709) rotate(-21.000000) translate(-183.279738, -124.411709) "></path>
                    <g id="Rectangle-Copy-4" transform="translate(203.127315, 177.437816) rotate(-21.000000) translate(-203.127315, -177.437816) ">
                        <use fill="black" fill-opacity="1" filter="url(#filter-4)" xlink:href="#path-3"></use>
                        <use stroke="#E0E0E8" stroke-width="1" fill="#FFFFFF" fill-rule="evenodd" xlink:href="#path-3"></use>
                    </g>
                    <text id="*********" transform="translate(114.827026, 171.931737) rotate(-20.000000) translate(-114.827026, -171.931737) " font-family="WorkSans-SemiBold, Work Sans" font-size="18" font-weight="500" line-spacing="33" letter-spacing="0.12" fill="#A0A4A8">
                        <tspan x="77.7410262" y="155.931737">*******</tspan>
                        <tspan x="104.231026" y="188.931737">**</tspan>
                    </text>
                    <text id="*********-copy" transform="translate(86.826255, 113.883169) rotate(-20.000000) translate(-86.826255, -113.883169) " font-family="WorkSans-SemiBold, Work Sans" font-size="18" font-weight="500" line-spacing="33" letter-spacing="0.12" fill="#A0A4A8">
                        <tspan x="49.7402553" y="97.8831695">*******</tspan>
                        <tspan x="76.2302553" y="130.883169">**</tspan>
                    </text>
                </g>
                <g id="Group" transform="translate(307.236269, 269.302554)" fill="#E7E8E9">
                    <g id="+icon/+Streamline/light/application-framework-ionic-Copy" transform="translate(16.700105, 16.700105) rotate(20.000000) translate(-16.700105, -16.700105) ">
                        <path d="M23.448311,2.7947975 C23.9141299,3.2606639 23.9140913,4.01594402 23.4482249,4.48176288 C22.9823586,4.94758174 22.2270784,4.9475432 21.7612596,4.48167681 C19.7143091,2.43451748 16.6356925,1.8220778 13.9610981,2.92996418 C11.4272718,3.97954075 9.72884414,6.37728173 9.5572588,9.08834897 L9.54291723,9.54291723 L9.54259392,11.9281184 L26.2430225,11.9286466 C28.1556705,11.9286466 29.7178599,13.4291377 29.8166561,15.3171852 L29.8216165,15.5072406 L29.8216165,29.8216165 C29.8216165,31.7980194 28.2194254,33.4002105 26.2430225,33.4002105 L26.2430225,33.4002105 L7.15718791,33.4002105 C5.18078502,33.4002105 3.57859392,31.7980194 3.57859392,29.8216165 L3.57859392,29.8216165 L3.57859392,15.5072406 C3.57859392,13.5308377 5.18078502,11.9286466 7.15718791,11.9286466 L7.15718791,11.9286466 L7.15718791,9.54300331 C7.15690939,5.68303962 9.48196983,2.20302917 13.0480957,0.725847335 C16.6142215,-0.751334504 20.7190438,0.0652517295 23.448311,2.7947975 Z M26.2430225,14.3143759 L7.15718791,14.3143759 C6.49838695,14.3143759 5.96432325,14.8484396 5.96432325,15.5072406 L5.96432325,15.5072406 L5.96432325,29.8216165 C5.96432325,30.4804175 6.49838695,31.0144812 7.15718791,31.0144812 L7.15718791,31.0144812 L26.2430225,31.0144812 C26.9018235,31.0144812 27.4358872,30.4804175 27.4358872,29.8216165 L27.4358872,29.8216165 L27.4358872,15.5072406 C27.4358872,14.8484396 26.9018235,14.3143759 26.2430225,14.3143759 L26.2430225,14.3143759 Z M16.7001052,20.2786992 C18.0177071,20.2786992 19.0858345,21.3468266 19.0858345,22.6644285 C19.0858345,23.9820305 18.0177071,25.0501579 16.7001052,25.0501579 C15.3825033,25.0501579 14.3143759,23.9820305 14.3143759,22.6644285 C14.3143759,21.3468266 15.3825033,20.2786992 16.7001052,20.2786992 Z" id="Combined-Shape"></path>
                    </g>
                </g>
                <g id="Group" transform="translate(39.239342, 56.972645)" fill="#E7E8E9">
                    <g id="+icon/+Streamline/light/application-framework-ionic-Copy-2" transform="translate(9.542917, 9.542917) rotate(-30.000000) translate(-9.542917, -9.542917) ">
                        <path d="M9.54291726,-3.976282e-08 C12.4633163,-3.976282e-08 14.8475235,2.29571023 14.9893392,5.18093109 L14.9960129,5.45309556 L14.9960129,6.81636946 C16.1253859,6.81636946 17.0409237,7.73190724 17.0409237,8.86128031 L17.0409237,8.86128031 L17.0409237,17.0409237 C17.0409237,18.1702968 16.1253859,19.0858346 14.9960129,19.0858346 L14.9960129,19.0858346 L4.08982166,19.0858346 C2.96044858,19.0858346 2.04491081,18.1702968 2.04491081,17.0409237 L2.04491081,17.0409237 L2.04491081,8.86128031 C2.04491081,7.73190724 2.96044858,6.81636946 4.08982166,6.81636946 L4.08982166,6.81636946 L4.08982166,5.45309556 C4.08982166,2.44143402 6.53125572,-3.976282e-08 9.54291726,-3.976282e-08 Z M14.9960129,8.17964336 L4.08982166,8.17964336 C3.71336397,8.17964336 3.40818471,8.48482262 3.40818471,8.86128031 L3.40818471,8.86128031 L3.40818471,17.0409237 C3.40818471,17.4173814 3.71336397,17.7225607 4.08982166,17.7225607 L4.08982166,17.7225607 L14.9960129,17.7225607 C15.3724706,17.7225607 15.6776498,17.4173814 15.6776498,17.0409237 L15.6776498,17.0409237 L15.6776498,8.86128031 C15.6776498,8.48482262 15.3724706,8.17964336 14.9960129,8.17964336 L14.9960129,8.17964336 Z M9.54291726,11.5878281 C10.2958326,11.5878281 10.9061912,12.1981866 10.9061912,12.951102 C10.9061912,13.7040174 10.2958326,14.3143759 9.54291726,14.3143759 C8.79000188,14.3143759 8.17964336,13.7040174 8.17964336,12.951102 C8.17964336,12.1981866 8.79000188,11.5878281 9.54291726,11.5878281 Z M9.54291726,1.36327386 C7.36484061,1.36327386 5.58443217,3.06589385 5.4600383,5.21278747 L5.45309556,5.45309556 L5.45291081,6.81599996 L13.6319108,6.81599996 L13.632739,5.45309556 C13.632739,3.19434941 11.8016634,1.36327386 9.54291726,1.36327386 Z" id="Combined-Shape"></path>
                    </g>
                </g>
            </g>
        </g>
    </g>
</svg>