<svg width="186" height="271" viewBox="0 0 186 271" fill="none" xmlns="http://www.w3.org/2000/svg">
        <path d="M0.320007 55.5L0.350005 5.26999C0.350005 2.76999 2.38001 0.73999 4.89001 0.73999H31.22C33.72 0.73999 35.75 2.76999 35.76 5.26999L35.8 22.47C35.82 28.61 33.39 34.5 29.05 38.84L8.88 59.04C5.71 62.2 0.320007 59.96 0.320007 55.5ZM185.57 227.5C185.59 235.72 182.31 243.61 176.48 249.4L156.32 269.41C153.89 271.83 149.75 270.09 149.76 266.66L149.87 243.8C134.15 256.12 114.36 263.47 92.88 263.47C40.36 263.47 -2.08999 219.5 0.420013 166.44L0.309997 114.37C0.289997 106.15 3.56999 98.26 9.39999 92.47L29.56 72.46C31.99 70.04 36.13 71.78 36.12 75.21L36.01 97.99C49.98 87.05 67.12 80.01 85.73 78.61C139.31 74.56 184.32 116.44 185.42 168.93L185.44 168.89V170.89C185.44 170.9 185.44 170.91 185.44 170.92C185.44 170.93 185.44 170.93 185.44 170.94L185.57 227.5ZM149.95 171.62C149.95 139.76 124.03 113.84 92.17 113.84C60.31 113.84 34.39 139.76 34.39 171.62C34.39 203.48 60.31 229.4 92.17 229.4C124.03 229.4 149.95 203.47 149.95 171.62Z" fill="url(#paint0_linear_3_26)"/>
        <defs>
            <linearGradient id="paint0_linear_3_26" x1="0.314997" y1="135.638" x2="185.575" y2="135.638" gradientUnits="userSpaceOnUse">
                <stop stop-color="#FF4713"/>
                <stop offset="0.5" stop-color="#DB0032"/>
                <stop offset="1" stop-color="#AE1164"/>
            </linearGradient>
        </defs>
    </svg>