<svg width="396" height="249" viewBox="0 0 396 249" fill="none" xmlns="http://www.w3.org/2000/svg">
<g filter="url(#filter0_d_5000_237489)">
<rect x="105.5" y="25.5" width="182" height="194" rx="12" fill="white"/>
<rect x="117.5" y="37.5" width="158" height="150" rx="10" fill="#E0E0E8"/>
</g>
<path d="M1.16667 150.231C1.16667 157.595 7.1362 163.565 14.5 163.565C21.8638 163.565 27.8333 157.595 27.8333 150.231C27.8333 142.868 21.8638 136.898 14.5 136.898C7.1362 136.898 1.16667 142.868 1.16667 150.231ZM97.0217 215.5L95.4708 217.461L97.2279 218.851L98.8013 217.256L97.0217 215.5ZM212.457 98.5L213.318 96.1531L211.807 95.5986L210.677 96.7442L212.457 98.5ZM328.369 141.045L327.507 143.392L328.712 143.834L329.773 143.114L328.369 141.045ZM364.167 107.686C364.167 115.05 370.136 121.019 377.5 121.019C384.864 121.019 390.833 115.05 390.833 107.686C390.833 100.322 384.864 94.3526 377.5 94.3526C370.136 94.3526 364.167 100.322 364.167 107.686ZM12.9491 152.192L95.4708 217.461L98.5725 213.539L16.0509 148.271L12.9491 152.192ZM98.8013 217.256L214.236 100.256L210.677 96.7442L95.2421 213.744L98.8013 217.256ZM211.595 100.847L327.507 143.392L329.23 138.699L213.318 96.1531L211.595 100.847ZM329.773 143.114L378.904 109.754L376.096 105.618L326.964 138.977L329.773 143.114Z" fill="#CFD1D3"/>
<path d="M233.5 26.5V218.5" stroke="#B3B3BA" stroke-width="2" stroke-linecap="round"/>
<g filter="url(#filter1_d_5000_237489)">
<rect x="224.5" y="100.5" width="149.764" height="47" rx="4" fill="white"/>
<rect x="234.5" y="110.5" width="129.764" height="27" rx="8" fill="#D9D9D9"/>
</g>
<path fill-rule="evenodd" clip-rule="evenodd" d="M240.517 91.7H243.7L236.5 84.5V94.4L238.752 92.1482L240.818 97.0163L242.475 96.313L240.517 91.7Z" fill="#B3B3BA"/>
<defs>
<filter id="filter0_d_5000_237489" x="82.5" y="0.5" width="236" height="248" filterUnits="userSpaceOnUse" color-interpolation-filters="sRGB">
<feFlood flood-opacity="0" result="BackgroundImageFix"/>
<feColorMatrix in="SourceAlpha" type="matrix" values="0 0 0 0 0 0 0 0 0 0 0 0 0 0 0 0 0 0 127 0" result="hardAlpha"/>
<feOffset dx="4" dy="2"/>
<feGaussianBlur stdDeviation="13.5"/>
<feColorMatrix type="matrix" values="0 0 0 0 0 0 0 0 0 0.247059 0 0 0 0 1 0 0 0 0.15 0"/>
<feBlend mode="normal" in2="BackgroundImageFix" result="effect1_dropShadow_5000_237489"/>
<feBlend mode="normal" in="SourceGraphic" in2="effect1_dropShadow_5000_237489" result="shape"/>
</filter>
<filter id="filter1_d_5000_237489" x="211.5" y="85.5" width="183.764" height="81" filterUnits="userSpaceOnUse" color-interpolation-filters="sRGB">
<feFlood flood-opacity="0" result="BackgroundImageFix"/>
<feColorMatrix in="SourceAlpha" type="matrix" values="0 0 0 0 0 0 0 0 0 0 0 0 0 0 0 0 0 0 127 0" result="hardAlpha"/>
<feOffset dx="4" dy="2"/>
<feGaussianBlur stdDeviation="8.5"/>
<feColorMatrix type="matrix" values="0 0 0 0 0.254902 0 0 0 0 0.568627 0 0 0 0 1 0 0 0 0.5 0"/>
<feBlend mode="normal" in2="BackgroundImageFix" result="effect1_dropShadow_5000_237489"/>
<feBlend mode="normal" in="SourceGraphic" in2="effect1_dropShadow_5000_237489" result="shape"/>
</filter>
</defs>
</svg>
