<svg width="393" height="249" viewBox="0 0 393 249" fill="none" xmlns="http://www.w3.org/2000/svg">
<g filter="url(#filter0_d_4418_309211)">
<rect x="105.5" y="25.5" width="182" height="194" rx="12" fill="white"/>
<rect x="117.5" y="37.5" width="158" height="150" rx="10" fill="#E0E0E8"/>
</g>
<path d="M1.16667 150.231C1.16667 157.595 7.1362 163.565 14.5 163.565C21.8638 163.565 27.8333 157.595 27.8333 150.231C27.8333 142.868 21.8638 136.898 14.5 136.898C7.1362 136.898 1.16667 142.868 1.16667 150.231ZM97.0217 215.5L95.4708 217.461L97.2279 218.851L98.8013 217.256L97.0217 215.5ZM212.457 98.5L213.318 96.1531L211.807 95.5986L210.677 96.7442L212.457 98.5ZM328.369 141.045L327.507 143.392L328.712 143.834L329.773 143.114L328.369 141.045ZM364.167 107.686C364.167 115.05 370.136 121.019 377.5 121.019C384.864 121.019 390.833 115.05 390.833 107.686C390.833 100.322 384.864 94.3526 377.5 94.3526C370.136 94.3526 364.167 100.322 364.167 107.686ZM12.9491 152.192L95.4708 217.461L98.5725 213.539L16.0509 148.271L12.9491 152.192ZM98.8013 217.256L214.236 100.256L210.677 96.7442L95.2421 213.744L98.8013 217.256ZM211.595 100.847L327.507 143.392L329.23 138.699L213.318 96.1531L211.595 100.847ZM329.773 143.114L378.904 109.754L376.096 105.618L326.964 138.977L329.773 143.114Z" fill="#CFD1D3"/>
<path d="M233.5 26.5V218.5" stroke="#B3B3BA" stroke-width="2" stroke-linecap="round"/>
<g filter="url(#filter1_d_4418_309211)">
<rect x="224.5" y="100.5" width="121" height="47" rx="4" fill="white"/>
<path d="M240.782 130.5H238.478V119.592H234.788V117.648H244.472V119.592H240.782V130.5ZM253.79 125.604C253.79 127.224 253.37 128.478 252.53 129.366C251.69 130.242 250.55 130.68 249.11 130.68C248.222 130.68 247.43 130.482 246.734 130.086C246.038 129.69 245.492 129.114 245.096 128.358C244.7 127.602 244.502 126.684 244.502 125.604C244.502 123.984 244.916 122.742 245.744 121.878C246.584 121.002 247.724 120.564 249.164 120.564C250.064 120.564 250.862 120.762 251.558 121.158C252.254 121.542 252.8 122.112 253.196 122.868C253.592 123.612 253.79 124.524 253.79 125.604ZM246.824 125.604C246.824 126.636 247.004 127.434 247.364 127.998C247.736 128.562 248.33 128.844 249.146 128.844C249.95 128.844 250.538 128.562 250.91 127.998C251.282 127.434 251.468 126.636 251.468 125.604C251.468 124.572 251.282 123.78 250.91 123.228C250.538 122.676 249.944 122.4 249.128 122.4C248.312 122.4 247.724 122.676 247.364 123.228C247.004 123.78 246.824 124.572 246.824 125.604ZM260.035 128.862C260.311 128.862 260.581 128.838 260.845 128.79C261.121 128.73 261.373 128.664 261.601 128.592V130.284C261.361 130.404 261.049 130.5 260.665 130.572C260.281 130.644 259.879 130.68 259.459 130.68C258.895 130.68 258.385 130.59 257.929 130.41C257.485 130.23 257.131 129.912 256.867 129.456C256.603 129 256.471 128.358 256.471 127.53V122.454H255.157V121.464L256.597 120.672L257.317 118.602H258.739V120.744H261.511V122.454H258.739V127.512C258.739 127.968 258.859 128.31 259.099 128.538C259.351 128.754 259.663 128.862 260.035 128.862ZM267.575 120.564C268.835 120.564 269.789 120.84 270.437 121.392C271.097 121.944 271.427 122.796 271.427 123.948V130.5H269.825L269.375 129.15H269.303C268.883 129.678 268.439 130.068 267.971 130.32C267.503 130.56 266.867 130.68 266.063 130.68C265.187 130.68 264.461 130.434 263.885 129.942C263.309 129.45 263.021 128.688 263.021 127.656C263.021 126.648 263.387 125.892 264.119 125.388C264.863 124.884 265.985 124.602 267.485 124.542L269.177 124.488V124.002C269.177 123.378 269.027 122.934 268.727 122.67C268.427 122.406 268.007 122.274 267.467 122.274C266.975 122.274 266.501 122.346 266.045 122.49C265.601 122.622 265.157 122.79 264.713 122.994L263.993 121.41C264.473 121.158 265.019 120.954 265.631 120.798C266.255 120.642 266.903 120.564 267.575 120.564ZM269.177 125.892L267.989 125.928C266.993 125.964 266.303 126.138 265.919 126.45C265.535 126.75 265.343 127.158 265.343 127.674C265.343 128.142 265.475 128.478 265.739 128.682C266.015 128.874 266.375 128.97 266.819 128.97C267.479 128.97 268.037 128.784 268.493 128.412C268.949 128.028 269.177 127.464 269.177 126.72V125.892ZM276.657 130.5H274.389V116.82H276.657V130.5ZM279.353 121.932C279.353 121.416 279.485 121.056 279.749 120.852C280.025 120.636 280.349 120.528 280.721 120.528C281.093 120.528 281.417 120.636 281.693 120.852C281.969 121.056 282.107 121.416 282.107 121.932C282.107 122.412 281.969 122.766 281.693 122.994C281.417 123.21 281.093 123.318 280.721 123.318C280.349 123.318 280.025 123.21 279.749 122.994C279.485 122.766 279.353 122.412 279.353 121.932ZM279.353 129.348C279.353 128.844 279.485 128.49 279.749 128.286C280.025 128.07 280.349 127.962 280.721 127.962C281.093 127.962 281.417 128.07 281.693 128.286C281.969 128.49 282.107 128.844 282.107 129.348C282.107 129.84 281.969 130.194 281.693 130.41C281.417 130.626 281.093 130.734 280.721 130.734C280.349 130.734 280.025 130.626 279.749 130.41C279.485 130.194 279.353 129.84 279.353 129.348ZM297.738 130.5H288.936V128.826L292.212 125.514C292.86 124.854 293.388 124.29 293.796 123.822C294.216 123.354 294.522 122.916 294.714 122.508C294.918 122.088 295.02 121.638 295.02 121.158C295.02 120.57 294.852 120.132 294.516 119.844C294.192 119.544 293.748 119.394 293.184 119.394C292.644 119.394 292.14 119.508 291.672 119.736C291.204 119.952 290.718 120.264 290.214 120.672L288.972 119.178C289.5 118.722 290.094 118.326 290.754 117.99C291.426 117.642 292.278 117.468 293.31 117.468C294.138 117.468 294.846 117.618 295.434 117.918C296.034 118.206 296.496 118.614 296.82 119.142C297.144 119.658 297.306 120.252 297.306 120.924C297.306 121.62 297.168 122.262 296.892 122.85C296.616 123.426 296.214 124.008 295.686 124.596C295.17 125.172 294.552 125.796 293.832 126.468L291.798 128.43V128.538H297.738V130.5ZM299.717 129.348C299.717 128.844 299.849 128.49 300.113 128.286C300.389 128.07 300.713 127.962 301.085 127.962C301.457 127.962 301.781 128.07 302.057 128.286C302.333 128.49 302.471 128.844 302.471 129.348C302.471 129.84 302.333 130.194 302.057 130.41C301.781 130.626 301.457 130.734 301.085 130.734C300.713 130.734 300.389 130.626 300.113 130.41C299.849 130.194 299.717 129.84 299.717 129.348ZM310.768 130.5H308.5V122.49C308.5 122.106 308.506 121.698 308.518 121.266C308.53 120.834 308.548 120.432 308.572 120.06C308.452 120.18 308.302 120.324 308.122 120.492C307.954 120.66 307.768 120.822 307.564 120.978L306.124 122.13L304.99 120.726L308.878 117.648H310.768V130.5ZM321.189 130.5H318.921V122.49C318.921 122.106 318.927 121.698 318.939 121.266C318.951 120.834 318.969 120.432 318.993 120.06C318.873 120.18 318.723 120.324 318.543 120.492C318.375 120.66 318.189 120.822 317.985 120.978L316.545 122.13L315.411 120.726L319.299 117.648H321.189V130.5ZM333.644 120.582C333.644 121.458 333.386 122.16 332.87 122.688C332.366 123.204 331.712 123.552 330.908 123.732V123.786C331.94 123.918 332.72 124.242 333.248 124.758C333.776 125.274 334.04 125.952 334.04 126.792C334.04 127.536 333.86 128.202 333.5 128.79C333.14 129.378 332.582 129.84 331.826 130.176C331.082 130.512 330.122 130.68 328.946 130.68C328.238 130.68 327.584 130.62 326.984 130.5C326.396 130.392 325.838 130.218 325.31 129.978V127.98C325.85 128.256 326.426 128.466 327.038 128.61C327.65 128.754 328.226 128.826 328.766 128.826C329.81 128.826 330.548 128.64 330.98 128.268C331.412 127.884 331.628 127.356 331.628 126.684C331.628 126.048 331.376 125.574 330.872 125.262C330.368 124.95 329.528 124.794 328.352 124.794H327.272V122.976H328.37C329.51 122.976 330.296 122.79 330.728 122.418C331.16 122.046 331.376 121.566 331.376 120.978C331.376 120.462 331.208 120.06 330.872 119.772C330.536 119.484 330.032 119.34 329.36 119.34C328.712 119.34 328.154 119.448 327.686 119.664C327.218 119.868 326.798 120.09 326.426 120.33L325.346 118.764C325.838 118.404 326.42 118.098 327.092 117.846C327.764 117.594 328.556 117.468 329.468 117.468C330.8 117.468 331.826 117.75 332.546 118.314C333.278 118.878 333.644 119.634 333.644 120.582Z" fill="#B3B3BA"/>
</g>
<path fill-rule="evenodd" clip-rule="evenodd" d="M240.517 91.7H243.7L236.5 84.5V94.4L238.752 92.1482L240.818 97.0163L242.475 96.313L240.517 91.7Z" fill="#B3B3BA"/>
<defs>
<filter id="filter0_d_4418_309211" x="82.5" y="0.5" width="236" height="248" filterUnits="userSpaceOnUse" color-interpolation-filters="sRGB">
<feFlood flood-opacity="0" result="BackgroundImageFix"/>
<feColorMatrix in="SourceAlpha" type="matrix" values="0 0 0 0 0 0 0 0 0 0 0 0 0 0 0 0 0 0 127 0" result="hardAlpha"/>
<feOffset dx="4" dy="2"/>
<feGaussianBlur stdDeviation="13.5"/>
<feColorMatrix type="matrix" values="0 0 0 0 0 0 0 0 0 0.247059 0 0 0 0 1 0 0 0 0.15 0"/>
<feBlend mode="normal" in2="BackgroundImageFix" result="effect1_dropShadow_4418_309211"/>
<feBlend mode="normal" in="SourceGraphic" in2="effect1_dropShadow_4418_309211" result="shape"/>
</filter>
<filter id="filter1_d_4418_309211" x="211.5" y="85.5" width="155" height="81" filterUnits="userSpaceOnUse" color-interpolation-filters="sRGB">
<feFlood flood-opacity="0" result="BackgroundImageFix"/>
<feColorMatrix in="SourceAlpha" type="matrix" values="0 0 0 0 0 0 0 0 0 0 0 0 0 0 0 0 0 0 127 0" result="hardAlpha"/>
<feOffset dx="4" dy="2"/>
<feGaussianBlur stdDeviation="8.5"/>
<feColorMatrix type="matrix" values="0 0 0 0 0.254902 0 0 0 0 0.568627 0 0 0 0 1 0 0 0 0.5 0"/>
<feBlend mode="normal" in2="BackgroundImageFix" result="effect1_dropShadow_4418_309211"/>
<feBlend mode="normal" in="SourceGraphic" in2="effect1_dropShadow_4418_309211" result="shape"/>
</filter>
</defs>
</svg>
