<?xml version="1.0" encoding="UTF-8" standalone="no"?><!DOCTYPE svg PUBLIC "-//W3C//DTD SVG 1.1//EN" "http://www.w3.org/Graphics/SVG/1.1/DTD/svg11.dtd"><svg width="100%" height="100%" viewBox="0 0 939 890" version="1.1" xmlns="http://www.w3.org/2000/svg" xmlns:xlink="http://www.w3.org/1999/xlink" xml:space="preserve" xmlns:serif="http://www.serif.com/" style="fill-rule:evenodd;clip-rule:evenodd;stroke-linecap:round;stroke-linejoin:round;"><path d="M939,40l0,810c0,22.077 -17.923,40 -40,40l-859,0c-22.077,0 -40,-17.923 -40,-40l0,-810c0,-22.077 17.923,-40 40,-40l859,0c22.077,0 40,17.923 40,40Z" style="fill:url(#_Linear1);"/><path d="M827,683.264l-0.086,146.522c0,7.292 -5.797,13.214 -12.964,13.214l-75.185,-0c-7.138,-0 -12.935,-5.922 -12.964,-13.214l-0.114,-50.173c-0.057,-17.91 6.882,-35.091 19.275,-47.751l57.595,-58.924c9.023,-9.189 24.443,-2.684 24.443,10.326Zm-529.007,-501.727c-0.057,-23.978 9.309,-46.993 25.957,-63.882l57.566,-58.37c6.939,-7.059 18.761,-1.983 18.732,8.022l-0.314,66.683c44.888,-35.938 101.398,-57.378 162.734,-57.378c149.97,0 271.185,128.262 264.018,283.038l0.314,151.889c0.057,23.978 -9.309,46.994 -25.957,63.883l-57.566,58.37c-6.939,7.059 -18.761,1.983 -18.732,-8.022l0.314,-66.45c-39.891,31.912 -88.834,52.448 -141.975,56.532c-152.996,11.814 -281.521,-110.351 -284.663,-263.465l-0.057,0.117l0,-5.98l-0.371,-164.987Zm101.712,163.032c0,92.937 74.015,168.546 164.99,168.546c90.976,0 164.99,-75.609 164.99,-168.546c0,-92.936 -74.014,-168.545 -164.99,-168.545c-90.975,0 -164.99,75.609 -164.99,168.545Z" style="fill:#dbe6f6;fill-opacity:0.65;fill-rule:nonzero;"/><circle cx="747" cy="52" r="4" style="fill:#b7cded;"/><circle cx="759" cy="52" r="4" style="fill:#b7cded;"/><circle cx="771" cy="52" r="4" style="fill:#b7cded;"/><circle cx="783" cy="52" r="4" style="fill:#b7cded;"/><circle cx="795" cy="52" r="4" style="fill:#b7cded;"/><circle cx="807" cy="52" r="4" style="fill:#b7cded;"/><circle cx="819" cy="52" r="4" style="fill:#b7cded;"/><circle cx="831" cy="52" r="4" style="fill:#b7cded;"/><circle cx="843" cy="52" r="4" style="fill:#b7cded;"/><circle cx="855" cy="52" r="4" style="fill:#b7cded;"/><circle cx="747" cy="64" r="4" style="fill:#b7cded;"/><circle cx="759" cy="64" r="4" style="fill:#b7cded;"/><circle cx="771" cy="64" r="4" style="fill:#b7cded;"/><circle cx="783" cy="64" r="4" style="fill:#b7cded;"/><circle cx="795" cy="64" r="4" style="fill:#b7cded;"/><circle cx="807" cy="64" r="4" style="fill:#b7cded;"/><circle cx="819" cy="64" r="4" style="fill:#b7cded;"/><circle cx="831" cy="64" r="4" style="fill:#b7cded;"/><circle cx="843" cy="64" r="4" style="fill:#b7cded;"/><circle cx="855" cy="64" r="4" style="fill:#b7cded;"/><circle cx="747" cy="76" r="4" style="fill:#b7cded;"/><circle cx="759" cy="76" r="4" style="fill:#b7cded;"/><circle cx="771" cy="76" r="4" style="fill:#b7cded;"/><circle cx="783" cy="76" r="4" style="fill:#b7cded;"/><circle cx="795" cy="76" r="4" style="fill:#b7cded;"/><circle cx="807" cy="76" r="4" style="fill:#b7cded;"/><circle cx="819" cy="76" r="4" style="fill:#b7cded;"/><circle cx="831" cy="76" r="4" style="fill:#b7cded;"/><circle cx="843" cy="76" r="4" style="fill:#b7cded;"/><circle cx="855" cy="76" r="4" style="fill:#b7cded;"/><circle cx="747" cy="88" r="4" style="fill:#b7cded;"/><circle cx="759" cy="88" r="4" style="fill:#b7cded;"/><circle cx="771" cy="88" r="4" style="fill:#b7cded;"/><circle cx="783" cy="88" r="4" style="fill:#b7cded;"/><circle cx="795" cy="88" r="4" style="fill:#b7cded;"/><circle cx="807" cy="88" r="4" style="fill:#b7cded;"/><circle cx="819" cy="88" r="4" style="fill:#b7cded;"/><circle cx="831" cy="88" r="4" style="fill:#b7cded;"/><circle cx="843" cy="88" r="4" style="fill:#b7cded;"/><circle cx="855" cy="88" r="4" style="fill:#b7cded;"/><circle cx="747" cy="100" r="4" style="fill:#b7cded;"/><circle cx="759" cy="100" r="4" style="fill:#b7cded;"/><circle cx="771" cy="100" r="4" style="fill:#b7cded;"/><circle cx="783" cy="100" r="4" style="fill:#b7cded;"/><circle cx="795" cy="100" r="4" style="fill:#b7cded;"/><circle cx="807" cy="100" r="4" style="fill:#b7cded;"/><circle cx="819" cy="100" r="4" style="fill:#b7cded;"/><circle cx="831" cy="100" r="4" style="fill:#b7cded;"/><circle cx="843" cy="100" r="4" style="fill:#b7cded;"/><circle cx="855" cy="100" r="4" style="fill:#b7cded;"/><circle cx="747" cy="112" r="4" style="fill:#b7cded;"/><circle cx="759" cy="112" r="4" style="fill:#b7cded;"/><circle cx="771" cy="112" r="4" style="fill:#b7cded;"/><circle cx="783" cy="112" r="4" style="fill:#b7cded;"/><circle cx="795" cy="112" r="4" style="fill:#b7cded;"/><circle cx="807" cy="112" r="4" style="fill:#b7cded;"/><circle cx="819" cy="112" r="4" style="fill:#b7cded;"/><circle cx="831" cy="112" r="4" style="fill:#b7cded;"/><circle cx="843" cy="112" r="4" style="fill:#b7cded;"/><circle cx="855" cy="112" r="4" style="fill:#b7cded;"/><circle cx="747" cy="124" r="4" style="fill:#b7cded;"/><circle cx="759" cy="124" r="4" style="fill:#b7cded;"/><circle cx="771" cy="124" r="4" style="fill:#b7cded;"/><circle cx="783" cy="124" r="4" style="fill:#b7cded;"/><circle cx="795" cy="124" r="4" style="fill:#b7cded;"/><circle cx="807" cy="124" r="4" style="fill:#b7cded;"/><circle cx="819" cy="124" r="4" style="fill:#b7cded;"/><circle cx="831" cy="124" r="4" style="fill:#b7cded;"/><circle cx="843" cy="124" r="4" style="fill:#b7cded;"/><circle cx="855" cy="124" r="4" style="fill:#b7cded;"/><circle cx="747" cy="136" r="4" style="fill:#b7cded;"/><circle cx="759" cy="136" r="4" style="fill:#b7cded;"/><circle cx="771" cy="136" r="4" style="fill:#b7cded;"/><circle cx="783" cy="136" r="4" style="fill:#b7cded;"/><circle cx="795" cy="136" r="4" style="fill:#b7cded;"/><circle cx="807" cy="136" r="4" style="fill:#b7cded;"/><circle cx="819" cy="136" r="4" style="fill:#b7cded;"/><circle cx="831" cy="136" r="4" style="fill:#b7cded;"/><circle cx="843" cy="136" r="4" style="fill:#b7cded;"/><circle cx="855" cy="136" r="4" style="fill:#b7cded;"/><circle cx="747" cy="148" r="4" style="fill:#b7cded;"/><circle cx="759" cy="148" r="4" style="fill:#b7cded;"/><circle cx="771" cy="148" r="4" style="fill:#b7cded;"/><circle cx="783" cy="148" r="4" style="fill:#b7cded;"/><circle cx="795" cy="148" r="4" style="fill:#b7cded;"/><circle cx="807" cy="148" r="4" style="fill:#b7cded;"/><circle cx="819" cy="148" r="4" style="fill:#b7cded;"/><circle cx="831" cy="148" r="4" style="fill:#b7cded;"/><circle cx="843" cy="148" r="4" style="fill:#b7cded;"/><circle cx="855" cy="148" r="4" style="fill:#b7cded;"/><circle cx="747" cy="160" r="4" style="fill:#b7cded;"/><circle cx="759" cy="160" r="4" style="fill:#b7cded;"/><circle cx="771" cy="160" r="4" style="fill:#b7cded;"/><circle cx="783" cy="160" r="4" style="fill:#b7cded;"/><circle cx="795" cy="160" r="4" style="fill:#b7cded;"/><circle cx="807" cy="160" r="4" style="fill:#b7cded;"/><circle cx="819" cy="160" r="4" style="fill:#b7cded;"/><circle cx="831" cy="160" r="4" style="fill:#b7cded;"/><circle cx="843" cy="160" r="4" style="fill:#b7cded;"/><circle cx="855" cy="160" r="4" style="fill:#b7cded;"/><circle cx="276" cy="259" r="4" style="fill:#dcddde;"/><circle cx="288" cy="259" r="4" style="fill:#dcddde;"/><circle cx="300" cy="259" r="4" style="fill:#dcddde;"/><circle cx="312" cy="259" r="4" style="fill:#dcddde;"/><circle cx="324" cy="259" r="4" style="fill:#dcddde;"/><circle cx="336" cy="259" r="4" style="fill:#dcddde;"/><circle cx="348" cy="259" r="4" style="fill:#dcddde;"/><circle cx="360" cy="259" r="4" style="fill:#dcddde;"/><circle cx="372" cy="259" r="4" style="fill:#dcddde;"/><circle cx="384" cy="259" r="4" style="fill:#dcddde;"/><circle cx="276" cy="271" r="4" style="fill:#dcddde;"/><circle cx="288" cy="271" r="4" style="fill:#dcddde;"/><circle cx="300" cy="271" r="4" style="fill:#dcddde;"/><circle cx="312" cy="271" r="4" style="fill:#dcddde;"/><circle cx="324" cy="271" r="4" style="fill:#dcddde;"/><circle cx="336" cy="271" r="4" style="fill:#dcddde;"/><circle cx="348" cy="271" r="4" style="fill:#dcddde;"/><circle cx="360" cy="271" r="4" style="fill:#dcddde;"/><circle cx="372" cy="271" r="4" style="fill:#dcddde;"/><circle cx="384" cy="271" r="4" style="fill:#dcddde;"/><circle cx="276" cy="283" r="4" style="fill:#dcddde;"/><circle cx="288" cy="283" r="4" style="fill:#dcddde;"/><circle cx="300" cy="283" r="4" style="fill:#dcddde;"/><circle cx="312" cy="283" r="4" style="fill:#dcddde;"/><circle cx="324" cy="283" r="4" style="fill:#dcddde;"/><circle cx="336" cy="283" r="4" style="fill:#dcddde;"/><circle cx="348" cy="283" r="4" style="fill:#dcddde;"/><circle cx="360" cy="283" r="4" style="fill:#dcddde;"/><circle cx="372" cy="283" r="4" style="fill:#dcddde;"/><circle cx="384" cy="283" r="4" style="fill:#dcddde;"/><circle cx="276" cy="295" r="4" style="fill:#dcddde;"/><circle cx="288" cy="295" r="4" style="fill:#dcddde;"/><circle cx="300" cy="295" r="4" style="fill:#dcddde;"/><circle cx="312" cy="295" r="4" style="fill:#dcddde;"/><circle cx="324" cy="295" r="4" style="fill:#dcddde;"/><circle cx="336" cy="295" r="4" style="fill:#dcddde;"/><circle cx="348" cy="295" r="4" style="fill:#dcddde;"/><circle cx="360" cy="295" r="4" style="fill:#dcddde;"/><circle cx="372" cy="295" r="4" style="fill:#dcddde;"/><circle cx="384" cy="295" r="4" style="fill:#dcddde;"/><circle cx="276" cy="307" r="4" style="fill:#dcddde;"/><circle cx="288" cy="307" r="4" style="fill:#dcddde;"/><circle cx="300" cy="307" r="4" style="fill:#dcddde;"/><circle cx="312" cy="307" r="4" style="fill:#dcddde;"/><circle cx="324" cy="307" r="4" style="fill:#dcddde;"/><circle cx="336" cy="307" r="4" style="fill:#dcddde;"/><circle cx="348" cy="307" r="4" style="fill:#dcddde;"/><circle cx="360" cy="307" r="4" style="fill:#dcddde;"/><circle cx="372" cy="307" r="4" style="fill:#dcddde;"/><circle cx="384" cy="307" r="4" style="fill:#dcddde;"/><circle cx="276" cy="319" r="4" style="fill:#dcddde;"/><circle cx="288" cy="319" r="4" style="fill:#dcddde;"/><circle cx="300" cy="319" r="4" style="fill:#dcddde;"/><circle cx="312" cy="319" r="4" style="fill:#dcddde;"/><circle cx="324" cy="319" r="4" style="fill:#dcddde;"/><circle cx="336" cy="319" r="4" style="fill:#dcddde;"/><circle cx="348" cy="319" r="4" style="fill:#dcddde;"/><circle cx="360" cy="319" r="4" style="fill:#dcddde;"/><circle cx="372" cy="319" r="4" style="fill:#dcddde;"/><circle cx="384" cy="319" r="4" style="fill:#dcddde;"/><circle cx="276" cy="331" r="4" style="fill:#dcddde;"/><circle cx="288" cy="331" r="4" style="fill:#dcddde;"/><circle cx="300" cy="331" r="4" style="fill:#dcddde;"/><circle cx="312" cy="331" r="4" style="fill:#dcddde;"/><circle cx="324" cy="331" r="4" style="fill:#dcddde;"/><circle cx="336" cy="331" r="4" style="fill:#dcddde;"/><circle cx="348" cy="331" r="4" style="fill:#dcddde;"/><circle cx="360" cy="331" r="4" style="fill:#dcddde;"/><circle cx="372" cy="331" r="4" style="fill:#dcddde;"/><circle cx="384" cy="331" r="4" style="fill:#dcddde;"/><circle cx="276" cy="343" r="4" style="fill:#dcddde;"/><circle cx="288" cy="343" r="4" style="fill:#dcddde;"/><circle cx="300" cy="343" r="4" style="fill:#dcddde;"/><circle cx="312" cy="343" r="4" style="fill:#dcddde;"/><circle cx="324" cy="343" r="4" style="fill:#dcddde;"/><circle cx="336" cy="343" r="4" style="fill:#dcddde;"/><circle cx="348" cy="343" r="4" style="fill:#dcddde;"/><circle cx="360" cy="343" r="4" style="fill:#dcddde;"/><circle cx="372" cy="343" r="4" style="fill:#dcddde;"/><circle cx="384" cy="343" r="4" style="fill:#dcddde;"/><circle cx="276" cy="355" r="4" style="fill:#dcddde;"/><circle cx="288" cy="355" r="4" style="fill:#dcddde;"/><circle cx="300" cy="355" r="4" style="fill:#dcddde;"/><circle cx="312" cy="355" r="4" style="fill:#dcddde;"/><circle cx="324" cy="355" r="4" style="fill:#dcddde;"/><circle cx="336" cy="355" r="4" style="fill:#dcddde;"/><circle cx="348" cy="355" r="4" style="fill:#dcddde;"/><circle cx="360" cy="355" r="4" style="fill:#dcddde;"/><circle cx="372" cy="355" r="4" style="fill:#dcddde;"/><circle cx="384" cy="355" r="4" style="fill:#dcddde;"/><circle cx="276" cy="367" r="4" style="fill:#dcddde;"/><circle cx="288" cy="367" r="4" style="fill:#dcddde;"/><circle cx="300" cy="367" r="4" style="fill:#dcddde;"/><circle cx="312" cy="367" r="4" style="fill:#dcddde;"/><circle cx="324" cy="367" r="4" style="fill:#dcddde;"/><circle cx="336" cy="367" r="4" style="fill:#dcddde;"/><circle cx="348" cy="367" r="4" style="fill:#dcddde;"/><circle cx="360" cy="367" r="4" style="fill:#dcddde;"/><circle cx="372" cy="367" r="4" style="fill:#dcddde;"/><circle cx="384" cy="367" r="4" style="fill:#dcddde;"/><g><g><clipPath id="_clip2"><path d="M818,90l0,299c0,5.519 -4.481,10 -10,10l-459,0c-5.519,0 -10,-4.481 -10,-10l0,-299c0,-5.519 4.481,-10 10,-10l459,0c5.519,0 10,4.481 10,10Z"/></clipPath><g clip-path="url(#_clip2)"><path d="M818,90l0,299c0,5.519 -4.481,10 -10,10l-459,0c-5.519,0 -10,-4.481 -10,-10l0,-299c0,-5.519 4.481,-10 10,-10l459,0c5.519,0 10,4.481 10,10Z" style="fill:#fff;"/><rect x="363" y="204" width="431" height="2" style="fill:#fafafb;fill-rule:nonzero;"/><path d="M375,191l0,8c0,1.104 -0.896,2 -2,2l-8,0c-1.104,0 -2,-0.896 -2,-2l0,-8c0,-1.104 0.896,-2 2,-2l8,0c1.104,0 2,0.896 2,2Z" style="fill:url(#_Linear3);"/><path d="M480,194l0,2c0,2.208 -1.792,4 -4,4l-81,0c-2.208,0 -4,-1.792 -4,-4l0,-2c0,-2.208 1.792,-4 4,-4l81,0c2.208,0 4,1.792 4,4Z" style="fill:#ecedee;"/><path d="M794,194l0,2c0,2.208 -1.792,4 -4,4l-23,0c-2.208,0 -4,-1.792 -4,-4l0,-2c0,-2.208 1.792,-4 4,-4l23,0c2.208,0 4,1.792 4,4Z" style="fill:#ecedee;"/><rect x="363" y="228" width="431" height="2" style="fill:#fafafb;fill-rule:nonzero;"/><path d="M375,215l0,8c0,1.104 -0.896,2 -2,2l-8,0c-1.104,0 -2,-0.896 -2,-2l0,-8c0,-1.104 0.896,-2 2,-2l8,0c1.104,0 2,0.896 2,2Z" style="fill:url(#_Linear4);"/><path d="M480,218l0,2c0,2.208 -1.792,4 -4,4l-81,0c-2.208,0 -4,-1.792 -4,-4l0,-2c0,-2.208 1.792,-4 4,-4l81,0c2.208,0 4,1.792 4,4Z" style="fill:#ecedee;"/><path d="M794,218l0,2c0,2.208 -1.792,4 -4,4l-23,0c-2.208,0 -4,-1.792 -4,-4l0,-2c0,-2.208 1.792,-4 4,-4l23,0c2.208,0 4,1.792 4,4Z" style="fill:#ecedee;"/><rect x="363" y="252" width="431" height="2" style="fill:#fafafb;fill-rule:nonzero;"/><path d="M375,239l0,8c0,1.104 -0.896,2 -2,2l-8,0c-1.104,0 -2,-0.896 -2,-2l0,-8c0,-1.104 0.896,-2 2,-2l8,0c1.104,0 2,0.896 2,2Z" style="fill:url(#_Linear5);"/><path d="M480,242l0,2c0,2.208 -1.792,4 -4,4l-81,0c-2.208,0 -4,-1.792 -4,-4l0,-2c0,-2.208 1.792,-4 4,-4l81,0c2.208,0 4,1.792 4,4Z" style="fill:#ecedee;"/><path d="M794,242l0,2c0,2.208 -1.792,4 -4,4l-23,0c-2.208,0 -4,-1.792 -4,-4l0,-2c0,-2.208 1.792,-4 4,-4l23,0c2.208,0 4,1.792 4,4Z" style="fill:#ecedee;"/><rect x="363" y="276" width="431" height="2" style="fill:#fafafb;fill-rule:nonzero;"/><path d="M375,263l0,8c0,1.104 -0.896,2 -2,2l-8,0c-1.104,0 -2,-0.896 -2,-2l0,-8c0,-1.104 0.896,-2 2,-2l8,0c1.104,0 2,0.896 2,2Z" style="fill:#18365f;"/><path d="M480,266l0,2c0,2.208 -1.792,4 -4,4l-81,0c-2.208,0 -4,-1.792 -4,-4l0,-2c0,-2.208 1.792,-4 4,-4l81,0c2.208,0 4,1.792 4,4Z" style="fill:#ecedee;"/><path d="M794,266l0,2c0,2.208 -1.792,4 -4,4l-23,0c-2.208,0 -4,-1.792 -4,-4l0,-2c0,-2.208 1.792,-4 4,-4l23,0c2.208,0 4,1.792 4,4Z" style="fill:#ecedee;"/><path d="M540,105l0,45c0,2.208 -1.792,4 -4,4l-169,0c-2.208,0 -4,-1.792 -4,-4l0,-45c0,-2.208 1.792,-4 4,-4l169,0c2.208,0 4,1.792 4,4Z" style="fill:url(#_Linear6);"/><g><clipPath id="_clip7"><path d="M605.117,69l94.753,164.117l-164.117,94.753l-94.753,-164.117l164.117,-94.753Z"/></clipPath><g clip-path="url(#_clip7)"><path d="M573,175.587c5.323,-3.073 11.648,-3.906 17.585,-2.315c5.937,1.591 10.998,5.474 14.071,10.797c3.073,5.323 3.906,11.648 2.315,17.585c-1.59,5.937 -5.474,10.998 -10.797,14.071" style="fill:url(#_Linear8);fill-rule:nonzero;"/><path d="M573,175.587c5.323,-3.073 11.648,-3.906 17.585,-2.315c5.937,1.591 10.998,5.474 14.071,10.797c3.073,5.323 3.906,11.648 2.315,17.585c-1.59,5.937 -5.474,10.998 -10.797,14.071" style="fill:none;fill-rule:nonzero;stroke:url(#_Linear9);stroke-width:2px;"/><path d="M541.062,207.77l28.75,49.796c0.693,1.2 0.833,2.654 0.391,4.042c-0.443,1.387 -1.433,2.595 -2.752,3.357l-4.974,2.871c-1.319,0.762 -2.86,1.015 -4.283,0.705c-1.423,-0.31 -2.611,-1.159 -3.305,-2.36l-24.889,-24.181" style="fill:url(#_Linear10);fill-rule:nonzero;"/><path d="M551.38,192.915l12.905,-35.084c0.375,-1.019 1.033,-1.911 1.896,-2.569c0.864,-0.659 1.897,-1.058 2.979,-1.15c1.082,-0.093 2.168,0.125 3.131,0.628c0.963,0.503 1.762,1.269 2.305,2.21l38.583,66.828c0.543,0.94 0.807,2.016 0.761,3.101c-0.046,1.085 -0.4,2.134 -1.021,3.025c-0.621,0.891 -1.483,1.586 -2.485,2.005c-1.002,0.418 -2.103,0.543 -3.173,0.358l-36.837,-6.367l-43.98,25.392c-1.458,0.842 -3.191,1.07 -4.817,0.634c-1.626,-0.435 -3.013,-1.499 -3.854,-2.957l-12.696,-21.99c-0.842,-1.458 -1.07,-3.191 -0.634,-4.817c0.435,-1.626 1.499,-3.013 2.957,-3.855l43.98,-25.392Z" style="fill:url(#_Linear11);fill-rule:nonzero;"/><circle cx="589.126" cy="123.126" r="2.126" style="fill:url(#_Linear12);"/><circle cx="595" cy="110" r="2" style="fill:url(#_Linear13);"/><path d="M600,143.491c8.494,-4.904 18.588,-6.233 28.062,-3.695c9.474,2.539 17.551,8.737 22.456,17.231c4.904,8.494 6.232,18.588 3.694,28.062c-2.539,9.474 -8.737,17.551 -17.231,22.455" style="fill:none;fill-rule:nonzero;stroke:url(#_Linear14);stroke-width:4px;"/></g></g><circle cx="640.5" cy="101.5" r="5.5" style="fill:url(#_Linear15);"/><circle cx="686.5" cy="126.5" r="2.5" style="fill:url(#_Linear16);"/><circle cx="704.5" cy="149.5" r="4.5" style="fill:url(#_Linear17);"/><circle cx="740" cy="136" r="2" style="fill:url(#_Linear18);"/><circle cx="688.5" cy="103.5" r="3.5" style="fill:url(#_Linear19);"/><circle cx="735" cy="103" r="2" style="fill:url(#_Linear20);"/><circle cx="720.5" cy="197.5" r="21.5" style="fill:url(#_Linear21);"/><path d="M589,160.044c6.451,-3.725 14.118,-4.734 21.314,-2.806c7.195,1.928 13.33,6.635 17.055,13.087c3.725,6.451 4.734,14.118 2.806,21.314c-1.928,7.195 -6.636,13.33 -13.087,17.055" style="fill:none;fill-rule:nonzero;stroke:url(#_Linear22);stroke-width:4px;"/><path d="M610,125.243c11.136,-6.43 24.371,-8.172 36.792,-4.844c12.421,3.328 23.011,11.454 29.441,22.591c6.429,11.136 8.172,24.371 4.843,36.792c-3.328,12.421 -11.454,23.011 -22.59,29.44" style="fill:none;fill-rule:nonzero;stroke:url(#_Linear23);stroke-width:4px;"/></g></g><path d="M816,90l0,299c0,4.415 -3.585,8 -8,8l-459,0c-4.415,0 -8,-3.585 -8,-8l0,-299c0,-4.415 3.585,-8 8,-8l459,0c4.415,0 8,3.585 8,8Z" style="fill:none;stroke:#dbe6f6;stroke-width:4px;stroke-linecap:butt;stroke-linejoin:miter;"/></g><circle cx="204.504" cy="161.5" r="41" style="fill:url(#_Linear24);stroke:#fff;stroke-width:5px;stroke-linecap:butt;stroke-linejoin:miter;"/><path d="M179.765,179.192l-0.267,-0.042l-0.32,-0.09l-0.215,-0.089l-0.288,-0.153l-0.242,-0.172l-0.218,-0.196l-0.188,-0.216l-0.164,-0.231l-0.098,-0.175l-0.141,-0.333l-0.078,-0.267c-0.063,-0.274 -0.081,-0.554 -0.054,-0.835l0.045,-0.267c0.04,-0.187 0.1,-0.367 0.178,-0.535l0.154,-0.287l26.009,-41.503c0.453,-0.605 1.071,-1.067 1.779,-1.331c0.709,-0.264 1.478,-0.319 2.217,-0.159c0.665,0.142 1.283,0.454 1.793,0.905c0.509,0.452 0.893,1.028 1.114,1.672l0.094,0.351l4.737,18.498l14.814,11.903c0.554,0.414 0.99,0.966 1.263,1.601c0.274,0.636 0.375,1.331 0.296,2.018l-0.066,0.375c-0.302,1.394 -1.327,2.507 -2.833,2.959l-0.386,0.099l-48.379,6.495l-0.28,0.018l-0.276,-0.013Z" style="fill:url(#_Linear25);fill-rule:nonzero;"/><g><path d="M256.114,102.05c30.012,-27.924 138.619,-98.512 255.602,-51.387" style="fill:none;fill-rule:nonzero;stroke:#c4c6c9;stroke-width:3px;stroke-linejoin:miter;stroke-dasharray:4,8;"/></g><g><path d="M205,210.001l-0.001,58.001" style="fill:none;fill-rule:nonzero;stroke:#c4c6c9;stroke-width:3px;stroke-linejoin:miter;stroke-dasharray:4,8;"/></g><g><path d="M200.003,269.825l-97.003,0" style="fill:none;fill-rule:nonzero;stroke:#c4c6c9;stroke-width:3px;stroke-linejoin:miter;stroke-dasharray:4,8;"/></g><g><path d="M146,367.25l-44.999,0.001" style="fill:none;fill-rule:nonzero;stroke:#c4c6c9;stroke-width:3px;stroke-linejoin:miter;stroke-dasharray:4,8;"/></g><g><path d="M146.498,506.375l-45.499,0" style="fill:none;fill-rule:nonzero;stroke:#c4c6c9;stroke-width:3px;stroke-linejoin:miter;stroke-dasharray:4,8;"/></g><g><path d="M608,429l0,118c0,5.519 -4.481,10 -10,10l-446,0c-5.519,0 -10,-4.481 -10,-10l0,-118c0,-5.519 4.481,-10 10,-10l446,0c5.519,0 10,4.481 10,10Z" style="fill:#fff;"/><path d="M606,429l0,118c0,4.415 -3.585,8 -8,8l-446,0c-4.415,0 -8,-3.585 -8,-8l0,-118c0,-4.415 3.585,-8 8,-8l446,0c4.415,0 8,3.585 8,8Z" style="fill:none;stroke:#f1f5fb;stroke-width:4px;stroke-linecap:butt;stroke-linejoin:miter;"/><path d="M582,453l0,70c0,4.415 -3.585,8 -8,8l-398,0c-4.415,0 -8,-3.585 -8,-8l0,-70c0,-4.415 3.585,-8 8,-8l398,0c4.415,0 8,3.585 8,8Z" style="fill:none;stroke:#fafafb;stroke-width:4px;stroke-linecap:butt;stroke-linejoin:miter;"/><g><path d="M237,487l0,2c0,2.208 -1.792,4 -4,4l-23,0c-2.208,0 -4,-1.792 -4,-4l0,-2c0,-2.208 1.792,-4 4,-4l23,0c2.208,0 4,1.792 4,4Z" style="fill:url(#_Linear26);"/></g><path d="M253,509l0,1l1,0l0,-1l-1,0Zm-63,0l-1,0l0,1l1,0l0,-1Zm62,-42l0,42l2,0l0,-42l-2,0Zm1,41l-63,0l0,2l63,0l0,-2Zm-62,1l0,-42l-2,0l0,42l2,0Z" style="fill:#e7e8e9;fill-rule:nonzero;"/><g><path d="M348,487l0,2c0,2.208 -1.792,4 -4,4l-71,0c-2.208,0 -4,-1.792 -4,-4l0,-2c0,-2.208 1.792,-4 4,-4l71,0c2.208,0 4,1.792 4,4Z" style="fill:url(#_Linear27);"/></g><path d="M355.333,509l0,1l1,0l0,-1l-1,0Zm-1,-42l0,42l2,0l0,-42l-2,0Zm1,41l-102.333,0l-0,2l102.333,0l0,-2Z" style="fill:#e7e8e9;fill-rule:nonzero;"/><g><path d="M441.666,487l0,2c0,2.208 -1.792,4 -4,4l-62.333,0c-2.208,0 -4,-1.792 -4,-4l0,-2c0,-2.208 1.792,-4 4,-4l62.333,0c2.208,0 4,1.792 4,4Z" style="fill:url(#_Linear28);"/></g><path d="M457.667,509l-0,1l1,0l-0,-1l-1,0Zm-1,-42l-0,42l2,0l-0,-42l-2,0Zm1,41l-102.334,0l0,2l102.334,0l-0,-2Z" style="fill:#e7e8e9;fill-rule:nonzero;"/><g><path d="M544,487l0,2c0,2.208 -1.792,4 -4,4l-62.333,0c-2.208,0 -4,-1.792 -4,-4l-0,-2c-0,-2.208 1.792,-4 4,-4l62.333,0c2.208,0 4,1.792 4,4Z" style="fill:url(#_Linear29);"/></g><path d="M560,509l0,1l1,0l0,-1l-1,0Zm-1,-42l0,42l2,0l0,-42l-2,0Zm1,41l-102.333,0l-0,2l102.333,0l0,-2Z" style="fill:#e7e8e9;fill-rule:nonzero;"/><g><path d="M282.5,479.554c-59.237,4.314 -92.5,8.446 -92.5,8.446l0,-21.029l92.5,-0l0,12.583Z" style="fill:url(#_Linear30);fill-rule:nonzero;"/><path d="M282.5,479.554l0,-12.583l92.5,0l0,7.126c-31.851,1.468 -62.786,3.292 -92.5,5.457Z" style="fill:url(#_Linear31);fill-rule:nonzero;"/><path d="M375,466.971l92.5,0l0,3.975c-33.403,0.749 -64.339,1.855 -92.5,3.151l0,-7.126Z" style="fill:url(#_Linear32);fill-rule:nonzero;"/><path d="M467.5,466.971l92.5,0l0,2.944c-30.983,0 -61.915,0.345 -92.5,1.031l0,-3.975Z" style="fill:url(#_Linear33);fill-rule:nonzero;"/></g></g><g><path d="M608,306l0,99c0,5.519 -4.481,10 -10,10l-446,0c-5.519,0 -10,-4.481 -10,-10l0,-99c0,-5.519 4.481,-10 10,-10l446,0c5.519,0 10,4.481 10,10Z" style="fill:#fff;"/><path d="M606,306l0,99c0,4.415 -3.585,8 -8,8l-446,0c-4.415,0 -8,-3.585 -8,-8l0,-99c0,-4.415 3.585,-8 8,-8l446,0c4.415,0 8,3.585 8,8Z" style="fill:none;stroke:#f1f5fb;stroke-width:4px;stroke-linecap:butt;stroke-linejoin:miter;"/><path d="M258,328l0,55c0,3.311 -2.689,6 -6,6l-69,0c-3.311,0 -6,-2.689 -6,-6l0,-55c0,-3.311 2.689,-6 6,-6l69,0c3.311,0 6,2.689 6,6Z" style="fill:url(#_Linear34);"/><path d="M258,328l0,55c0,3.311 -2.689,6 -6,6l-69,0c-3.311,0 -6,-2.689 -6,-6l0,-55c0,-3.311 2.689,-6 6,-6l69,0c3.311,0 6,2.689 6,6Z" style="fill:none;stroke:#fafafb;stroke-width:4px;stroke-linecap:butt;stroke-linejoin:miter;"/><g><path d="M220.48,364.833c1.153,0 1.763,1.366 0.993,2.224c-0.499,0.56 -1.112,1.007 -1.796,1.313c-0.685,0.306 -1.427,0.464 -2.177,0.463c-0.75,0.001 -1.492,-0.157 -2.176,-0.463c-0.685,-0.306 -1.298,-0.753 -1.797,-1.313c-0.736,-0.821 -0.211,-2.105 0.845,-2.214l0.147,-0.008l5.961,-0.002Z" style="fill:url(#_Linear35);fill-rule:nonzero;"/><path d="M217.5,342.167c1.811,-0 3.341,1.204 3.833,2.854l0.062,0.228l0.01,0.058c1.47,0.829 2.723,1.994 3.655,3.401c0.933,1.407 1.519,3.014 1.711,4.691l0.037,0.382l0.025,0.386l-0,3.908l0.028,0.181c0.183,0.982 0.727,1.861 1.524,2.463l0.223,0.156l0.216,0.132c1.147,0.649 0.747,2.354 -0.503,2.485l-0.154,0.008l-21.334,-0c-1.37,-0 -1.849,-1.819 -0.657,-2.493c0.508,-0.288 0.947,-0.683 1.286,-1.158c0.339,-0.475 0.57,-1.019 0.677,-1.593l0.028,-0.191l0.001,-3.96c0.081,-1.741 0.588,-3.436 1.476,-4.936c0.889,-1.501 2.131,-2.76 3.619,-3.669l0.33,-0.195l0.014,-0.057c0.188,-0.797 0.617,-1.518 1.228,-2.064c0.611,-0.546 1.374,-0.891 2.188,-0.989l0.242,-0.023l0.235,-0.005Z" style="fill:url(#_Linear36);fill-rule:nonzero;"/></g><path d="M363,328l0,55c0,3.311 -2.689,6 -6,6l-69,0c-3.311,0 -6,-2.689 -6,-6l0,-55c0,-3.311 2.689,-6 6,-6l69,0c3.311,0 6,2.689 6,6Z" style="fill:url(#_Linear37);"/><path d="M363,328l0,55c0,3.311 -2.689,6 -6,6l-69,0c-3.311,0 -6,-2.689 -6,-6l0,-55c0,-3.311 2.689,-6 6,-6l69,0c3.311,0 6,2.689 6,6Z" style="fill:none;stroke:#fafafb;stroke-width:4px;stroke-linecap:butt;stroke-linejoin:miter;"/><g><path d="M329.167,343.953c2.011,1.161 3.684,2.828 4.853,4.834c1.169,2.006 1.794,4.283 1.813,6.605c0.018,2.323 -0.57,4.609 -1.706,6.634c-1.137,2.025 -2.783,3.718 -4.775,4.912c-1.992,1.193 -4.261,1.846 -6.583,1.893c-2.321,0.047 -4.615,-0.513 -6.654,-1.625c-2.038,-1.112 -3.751,-2.737 -4.969,-4.715c-1.217,-1.977 -1.897,-4.238 -1.973,-6.559l-0.006,-0.432l0.006,-0.432c0.075,-2.303 0.745,-4.547 1.945,-6.513c1.2,-1.967 2.89,-3.589 4.903,-4.708c2.014,-1.12 4.283,-1.698 6.587,-1.68c2.304,0.019 4.563,0.634 6.559,1.786Zm-6.667,3.547c-0.327,0 -0.642,0.12 -0.886,0.337c-0.244,0.217 -0.4,0.516 -0.438,0.84l-0.009,0.156l-0,6.667l0.012,0.175c0.03,0.231 0.121,0.45 0.262,0.636l0.116,0.133l4,4l0.126,0.109c0.234,0.182 0.521,0.28 0.817,0.28c0.296,0 0.584,-0.098 0.817,-0.28l0.126,-0.11l0.11,-0.126c0.182,-0.233 0.28,-0.521 0.28,-0.817c0,-0.296 -0.098,-0.584 -0.28,-0.817l-0.11,-0.126l-3.61,-3.61l0,-6.114l-0.009,-0.156c-0.038,-0.324 -0.194,-0.623 -0.438,-0.84c-0.244,-0.217 -0.559,-0.337 -0.886,-0.337Z" style="fill:url(#_Linear38);fill-rule:nonzero;"/></g><path d="M468,328l0,55c0,3.311 -2.689,6 -6,6l-69,0c-3.311,0 -6,-2.689 -6,-6l0,-55c0,-3.311 2.689,-6 6,-6l69,0c3.311,0 6,2.689 6,6Z" style="fill:url(#_Linear39);"/><path d="M468,328l0,55c0,3.311 -2.689,6 -6,6l-69,0c-3.311,0 -6,-2.689 -6,-6l0,-55c0,-3.311 2.689,-6 6,-6l69,0c3.311,0 6,2.689 6,6Z" style="fill:none;stroke:#fafafb;stroke-width:4px;stroke-linecap:butt;stroke-linejoin:miter;"/><g><path d="M433.481,343.691l-5.981,3.586l-5.981,-3.586c-0.203,-0.122 -0.433,-0.187 -0.669,-0.19c-0.236,-0.003 -0.468,0.057 -0.673,0.173c-0.206,0.116 -0.376,0.285 -0.495,0.488c-0.119,0.204 -0.182,0.436 -0.182,0.671l0,17.334c0,0.23 0.06,0.456 0.174,0.656c0.113,0.201 0.277,0.368 0.474,0.486l6.667,4c0.207,0.124 0.444,0.19 0.685,0.19c0.241,0 0.478,-0.066 0.685,-0.19l6.667,-4c0.197,-0.118 0.361,-0.285 0.474,-0.486c0.114,-0.2 0.174,-0.426 0.174,-0.656l0,-17.334c0,-0.235 -0.063,-0.467 -0.182,-0.671c-0.119,-0.203 -0.289,-0.372 -0.495,-0.488c-0.205,-0.116 -0.437,-0.176 -0.673,-0.173c-0.236,0.003 -0.466,0.068 -0.669,0.19Z" style="fill:url(#_Linear40);fill-rule:nonzero;"/></g><path d="M573,328l0,55c0,3.311 -2.689,6 -6,6l-69,0c-3.311,0 -6,-2.689 -6,-6l0,-55c0,-3.311 2.689,-6 6,-6l69,0c3.311,0 6,2.689 6,6Z" style="fill:url(#_Linear41);"/><path d="M573,328l0,55c0,3.311 -2.689,6 -6,6l-69,0c-3.311,0 -6,-2.689 -6,-6l0,-55c0,-3.311 2.689,-6 6,-6l69,0c3.311,0 6,2.689 6,6Z" style="fill:none;stroke:#fafafb;stroke-width:4px;stroke-linecap:butt;stroke-linejoin:miter;"/><g><path d="M531.167,358.167l0,10.666l-5.334,0c-1.061,0 -2.078,-0.421 -2.828,-1.171c-0.75,-0.75 -1.172,-1.768 -1.172,-2.829l-0,-5.333c-0,-0.354 0.141,-0.693 0.391,-0.943c0.25,-0.25 0.589,-0.39 0.943,-0.39l8,-0Zm10.666,-0c0.354,-0 0.693,0.14 0.943,0.39c0.25,0.25 0.391,0.589 0.391,0.943l0,5.333c0,1.061 -0.422,2.079 -1.172,2.829c-0.75,0.75 -1.767,1.171 -2.828,1.171l-5.334,0l-0,-10.666l8,-0Zm-3.333,-16c0.787,-0 1.562,0.199 2.252,0.578c0.689,0.38 1.272,0.928 1.693,1.593c0.421,0.666 0.666,1.427 0.714,2.213c0.048,0.786 -0.104,1.571 -0.442,2.282l0.45,0c0.707,0 1.385,0.281 1.885,0.781c0.5,0.5 0.781,1.179 0.781,1.886l-0,1.333c-0,0.708 -0.281,1.386 -0.781,1.886c-0.5,0.5 -1.178,0.781 -1.885,0.781l-9.334,-0l-0,-6.667l-2.666,-0l-0,6.667l-9.334,-0c-0.707,-0 -1.385,-0.281 -1.885,-0.781c-0.5,-0.5 -0.781,-1.178 -0.781,-1.886l-0,-1.333c-0,-0.707 0.281,-1.386 0.781,-1.886c0.5,-0.5 1.178,-0.781 1.885,-0.781l0.45,0c-0.297,-0.625 -0.451,-1.308 -0.45,-2c-0,-2.577 2.09,-4.666 4.644,-4.666c2.34,-0.04 4.416,1.456 5.842,3.912l0.181,0.324c1.377,-2.552 3.413,-4.152 5.721,-4.234l0.279,-0.002Zm-12,2.666c-0.53,0 -1.039,0.211 -1.414,0.586c-0.375,0.375 -0.586,0.884 -0.586,1.414c-0,0.531 0.211,1.039 0.586,1.415c0.375,0.375 0.884,0.585 1.414,0.585l4.191,0c-0.988,-2.54 -2.599,-4.026 -4.191,-4Zm11.977,0c-1.573,-0.026 -3.18,1.462 -4.168,4l4.191,0c0.53,-0.003 1.038,-0.216 1.411,-0.593c0.373,-0.378 0.581,-0.888 0.578,-1.418c-0.003,-0.53 -0.217,-1.038 -0.594,-1.411c-0.377,-0.373 -0.887,-0.581 -1.418,-0.578Z" style="fill:url(#_Linear42);fill-rule:nonzero;"/></g></g><g><circle cx="724.5" cy="395.5" r="137.5" style="fill:#fff;fill-opacity:0.08;"/></g><g><circle cx="724.5" cy="395.5" r="135.5" style="fill:none;stroke:url(#_Linear43);stroke-width:4px;stroke-linejoin:miter;stroke-dasharray:18,18;"/></g><circle cx="751.5" cy="459.5" r="47" style="fill:url(#_Linear44);"/><circle cx="751.5" cy="459.5" r="47" style="fill:none;"/><circle cx="751.5" cy="459.5" r="47" style="fill:none;stroke:#fff;stroke-width:5px;stroke-linecap:butt;stroke-linejoin:miter;"/><circle cx="789" cy="388" r="40.5" style="fill:url(#_Linear45);"/><circle cx="789" cy="388" r="40.5" style="fill:none;"/><circle cx="789" cy="388" r="40.5" style="fill:none;stroke:#fff;stroke-width:5px;stroke-linecap:butt;stroke-linejoin:miter;"/><g><circle cx="697" cy="359" r="67" style="fill:url(#_Linear46);"/><circle cx="697" cy="359" r="67" style="fill:none;"/><circle cx="697" cy="359" r="69.5" style="fill:none;stroke:#fff;stroke-width:5px;stroke-linecap:butt;stroke-linejoin:miter;"/></g><path d="M850,478l0,28c0,2.208 -1.792,4 -4,4l-28,0c-2.208,0 -4,-1.792 -4,-4l0,-28c0,-2.208 1.792,-4 4,-4l28,0c2.208,0 4,1.792 4,4Z" style="fill:url(#_Linear47);"/><path d="M850,478l0,28c0,2.208 -1.792,4 -4,4l-28,0c-2.208,0 -4,-1.792 -4,-4l0,-28c0,-2.208 1.792,-4 4,-4l28,0c2.208,0 4,1.792 4,4Z" style="fill:none;stroke:#fff;stroke-width:4px;stroke-linecap:butt;stroke-linejoin:miter;"/><path d="M840,484l-11.2,16l-4.8,-3.2" style="fill:none;fill-rule:nonzero;stroke:url(#_Linear48);stroke-width:3px;stroke-linejoin:miter;"/><g><path d="M97.937,271.943l-0,235.748" style="fill:none;fill-rule:nonzero;stroke:#c4c6c9;stroke-width:3px;stroke-linejoin:miter;stroke-dasharray:4,8;"/></g><path d="M113,357l0,20c0,2.76 -2.24,5 -5,5l-20,0c-2.76,0 -5,-2.24 -5,-5l0,-20c0,-2.76 2.24,-5 5,-5l20,0c2.76,0 5,2.24 5,5Z" style="fill:url(#_Linear49);stroke:#fff;stroke-width:2px;stroke-linecap:butt;stroke-linejoin:miter;"/><path d="M98.002,359c-1.004,0 -1.818,0.814 -1.818,1.818l-0,4.363l-4.366,0c-1.004,0 -1.818,0.814 -1.818,1.818c0,1.005 0.814,1.819 1.818,1.819l4.366,0l-0,4.364c-0,1.004 0.814,1.818 1.818,1.818c1.004,0 1.818,-0.814 1.818,-1.818l0,-4.364l4.362,0c1.004,0 1.818,-0.814 1.818,-1.819c0,-1.004 -0.814,-1.818 -1.818,-1.818l-4.362,0l0,-4.363c0,-1.004 -0.814,-1.818 -1.818,-1.818Z" style="fill:url(#_Linear50);"/><path d="M113,496l0,20c0,2.76 -2.24,5 -5,5l-20,0c-2.76,0 -5,-2.24 -5,-5l0,-20c0,-2.76 2.24,-5 5,-5l20,0c2.76,0 5,2.24 5,5Z" style="fill:url(#_Linear51);stroke:#fff;stroke-width:2px;stroke-linecap:butt;stroke-linejoin:miter;"/><path d="M98.002,498c-1.004,0 -1.818,0.814 -1.818,1.818l-0,4.363l-4.366,0c-1.004,0 -1.818,0.814 -1.818,1.818c0,1.005 0.814,1.819 1.818,1.819l4.366,0l-0,4.364c-0,1.004 0.814,1.818 1.818,1.818c1.004,0 1.818,-0.814 1.818,-1.818l0,-4.364l4.362,-0c1.004,-0 1.818,-0.814 1.818,-1.819c0,-1.004 -0.814,-1.818 -1.818,-1.818l-4.362,-0l0,-4.363c0,-1.004 -0.814,-1.818 -1.818,-1.818Z" style="fill:url(#_Linear52);"/><defs><linearGradient id="_Linear1" x1="0" y1="0" x2="1" y2="0" gradientUnits="userSpaceOnUse" gradientTransform="matrix(1784.66,0,0,1784.66,-22.1945,445)"><stop offset="0" style="stop-color:#fafafb;stop-opacity:1"/><stop offset="1" style="stop-color:#dbe6f6;stop-opacity:1"/></linearGradient><linearGradient id="_Linear3" x1="0" y1="0" x2="1" y2="0" gradientUnits="userSpaceOnUse" gradientTransform="matrix(9.5,11,-11,9.5,365,190.5)"><stop offset="0" style="stop-color:#4780cd;stop-opacity:1"/><stop offset="1" style="stop-color:#244067;stop-opacity:1"/></linearGradient><linearGradient id="_Linear4" x1="0" y1="0" x2="1" y2="0" gradientUnits="userSpaceOnUse" gradientTransform="matrix(9.5,11,-11,9.5,365,214.5)"><stop offset="0" style="stop-color:#4780cd;stop-opacity:1"/><stop offset="1" style="stop-color:#244067;stop-opacity:1"/></linearGradient><linearGradient id="_Linear5" x1="0" y1="0" x2="1" y2="0" gradientUnits="userSpaceOnUse" gradientTransform="matrix(12,-11.5,11.5,12,365,248)"><stop offset="0" style="stop-color:#a6286a;stop-opacity:1"/><stop offset="1" style="stop-color:#cb3181;stop-opacity:1"/></linearGradient><linearGradient id="_Linear6" x1="0" y1="0" x2="1" y2="0" gradientUnits="userSpaceOnUse" gradientTransform="matrix(80,-50,50,80,467,157)"><stop offset="0" style="stop-color:#f6f6f6;stop-opacity:1"/><stop offset="1" style="stop-color:#fafafb;stop-opacity:1"/></linearGradient><linearGradient id="_Linear8" x1="0" y1="0" x2="1" y2="0" gradientUnits="userSpaceOnUse" gradientTransform="matrix(19.829,49.185,-49.185,19.829,583.035,169.793)"><stop offset="0" style="stop-color:#4881ce;stop-opacity:1"/><stop offset="1" style="stop-color:#2b5ea3;stop-opacity:1"/></linearGradient><linearGradient id="_Linear9" x1="0" y1="0" x2="1" y2="0" gradientUnits="userSpaceOnUse" gradientTransform="matrix(23.174,40.139,-40.139,23.174,583.035,169.793)"><stop offset="0" style="stop-color:#4a83d1;stop-opacity:1"/><stop offset="0.35" style="stop-color:#b7cded;stop-opacity:1"/><stop offset="1" style="stop-color:#b7cded;stop-opacity:1"/></linearGradient><linearGradient id="_Linear10" x1="0" y1="0" x2="1" y2="0" gradientUnits="userSpaceOnUse" gradientTransform="matrix(31.363,54.322,-54.322,31.363,533.295,212.255)"><stop offset="0" style="stop-color:#3d74be;stop-opacity:1"/><stop offset="0.48" style="stop-color:#3d74be;stop-opacity:1"/><stop offset="1" style="stop-color:#3f76c1;stop-opacity:1"/></linearGradient><linearGradient id="_Linear11" x1="0" y1="0" x2="1" y2="0" gradientUnits="userSpaceOnUse" gradientTransform="matrix(90.026,-75.598,75.598,90.026,518.881,259.736)"><stop offset="0" style="stop-color:#5083c9;stop-opacity:1"/><stop offset="1" style="stop-color:#8fb0de;stop-opacity:1"/></linearGradient><linearGradient id="_Linear12" x1="0" y1="0" x2="1" y2="0" gradientUnits="userSpaceOnUse" gradientTransform="matrix(5.024,-0.967,0.967,5.024,587,123.899)"><stop offset="0" style="stop-color:#ccdbf2;stop-opacity:1"/><stop offset="1" style="stop-color:#4b7fc7;stop-opacity:1"/></linearGradient><linearGradient id="_Linear13" x1="0" y1="0" x2="1" y2="0" gradientUnits="userSpaceOnUse" gradientTransform="matrix(4.727,-0.909,0.909,4.727,593,110.727)"><stop offset="0" style="stop-color:#ccdbf2;stop-opacity:1"/><stop offset="1" style="stop-color:#4b7fc7;stop-opacity:1"/></linearGradient><linearGradient id="_Linear14" x1="0" y1="0" x2="1" y2="0" gradientUnits="userSpaceOnUse" gradientTransform="matrix(36.982,64.054,-64.054,36.982,616.013,134.245)"><stop offset="0" style="stop-color:#c5d6ef;stop-opacity:0.5"/><stop offset="1" style="stop-color:#4e81c8;stop-opacity:0.5"/></linearGradient><linearGradient id="_Linear15" x1="0" y1="0" x2="1" y2="0" gradientUnits="userSpaceOnUse" gradientTransform="matrix(13,-2.5,2.5,13,635,103.5)"><stop offset="0" style="stop-color:#ccdbf2;stop-opacity:1"/><stop offset="1" style="stop-color:#4b7fc7;stop-opacity:1"/></linearGradient><linearGradient id="_Linear16" x1="0" y1="0" x2="1" y2="0" gradientUnits="userSpaceOnUse" gradientTransform="matrix(5.909,-1.136,1.136,5.909,684,127.409)"><stop offset="0" style="stop-color:#ccdbf2;stop-opacity:1"/><stop offset="1" style="stop-color:#4b7fc7;stop-opacity:1"/></linearGradient><linearGradient id="_Linear17" x1="0" y1="0" x2="1" y2="0" gradientUnits="userSpaceOnUse" gradientTransform="matrix(10.636,-2.045,2.045,10.636,700,151.136)"><stop offset="0" style="stop-color:#ccdbf2;stop-opacity:1"/><stop offset="1" style="stop-color:#4b7fc7;stop-opacity:1"/></linearGradient><linearGradient id="_Linear18" x1="0" y1="0" x2="1" y2="0" gradientUnits="userSpaceOnUse" gradientTransform="matrix(4.727,-0.909,0.909,4.727,738,136.727)"><stop offset="0" style="stop-color:#ccdbf2;stop-opacity:1"/><stop offset="1" style="stop-color:#4b7fc7;stop-opacity:1"/></linearGradient><linearGradient id="_Linear19" x1="0" y1="0" x2="1" y2="0" gradientUnits="userSpaceOnUse" gradientTransform="matrix(8.273,-1.591,1.591,8.273,685,104.773)"><stop offset="0" style="stop-color:#ccdbf2;stop-opacity:1"/><stop offset="1" style="stop-color:#4b7fc7;stop-opacity:1"/></linearGradient><linearGradient id="_Linear20" x1="0" y1="0" x2="1" y2="0" gradientUnits="userSpaceOnUse" gradientTransform="matrix(4.727,-0.909,0.909,4.727,733,103.727)"><stop offset="0" style="stop-color:#ccdbf2;stop-opacity:1"/><stop offset="1" style="stop-color:#4b7fc7;stop-opacity:1"/></linearGradient><linearGradient id="_Linear21" x1="0" y1="0" x2="1" y2="0" gradientUnits="userSpaceOnUse" gradientTransform="matrix(50.818,-9.773,9.773,50.818,699,205.318)"><stop offset="0" style="stop-color:#ccdbf2;stop-opacity:0.1"/><stop offset="1" style="stop-color:#4b7fc7;stop-opacity:0.1"/></linearGradient><linearGradient id="_Linear22" x1="0" y1="0" x2="1" y2="0" gradientUnits="userSpaceOnUse" gradientTransform="matrix(28.088,48.65,-48.65,28.088,601.162,153.022)"><stop offset="0" style="stop-color:#c5d6ef;stop-opacity:1"/><stop offset="1" style="stop-color:#4e81c8;stop-opacity:1"/></linearGradient><linearGradient id="_Linear23" x1="0" y1="0" x2="1" y2="0" gradientUnits="userSpaceOnUse" gradientTransform="matrix(48.486,83.98,-83.98,48.486,630.995,113.121)"><stop offset="0" style="stop-color:#c5d6ef;stop-opacity:0.2"/><stop offset="1" style="stop-color:#4e81c8;stop-opacity:0.2"/></linearGradient><linearGradient id="_Linear24" x1="0" y1="0" x2="1" y2="0" gradientUnits="userSpaceOnUse" gradientTransform="matrix(-97.875,59.594,-59.594,-97.875,277,141.5)"><stop offset="0" style="stop-color:#457bc5;stop-opacity:1"/><stop offset="1" style="stop-color:#dbe6f6;stop-opacity:1"/></linearGradient><linearGradient id="_Linear25" x1="0" y1="0" x2="1" y2="0" gradientUnits="userSpaceOnUse" gradientTransform="matrix(-93.966,45.812,-45.812,-93.966,229.125,142.863)"><stop offset="0" style="stop-color:#306cbe;stop-opacity:1"/><stop offset="0.98" style="stop-color:#dbe6f6;stop-opacity:1"/><stop offset="1" style="stop-color:#dbe6f6;stop-opacity:1"/></linearGradient><linearGradient id="_Linear26" x1="0" y1="0" x2="1" y2="0" gradientUnits="userSpaceOnUse" gradientTransform="matrix(6.12323e-16,10,-10,6.12323e-16,221.5,483)"><stop offset="0" style="stop-color:#f7f8fb;stop-opacity:1"/><stop offset="1" style="stop-color:#e7e8e9;stop-opacity:1"/><stop offset="1" style="stop-color:#e3e4e5;stop-opacity:1"/></linearGradient><linearGradient id="_Linear27" x1="0" y1="0" x2="1" y2="0" gradientUnits="userSpaceOnUse" gradientTransform="matrix(6.12323e-16,10,-10,6.12323e-16,308.5,483)"><stop offset="0" style="stop-color:#f7f8fb;stop-opacity:1"/><stop offset="1" style="stop-color:#e7e8e9;stop-opacity:1"/><stop offset="1" style="stop-color:#e3e4e5;stop-opacity:1"/></linearGradient><linearGradient id="_Linear28" x1="0" y1="0" x2="1" y2="0" gradientUnits="userSpaceOnUse" gradientTransform="matrix(6.12323e-16,10,-10,6.12323e-16,406.5,483)"><stop offset="0" style="stop-color:#f7f8fb;stop-opacity:1"/><stop offset="1" style="stop-color:#e7e8e9;stop-opacity:1"/><stop offset="1" style="stop-color:#e3e4e5;stop-opacity:1"/></linearGradient><linearGradient id="_Linear29" x1="0" y1="0" x2="1" y2="0" gradientUnits="userSpaceOnUse" gradientTransform="matrix(6.12323e-16,10,-10,6.12323e-16,508.833,483)"><stop offset="0" style="stop-color:#f7f8fb;stop-opacity:1"/><stop offset="1" style="stop-color:#e7e8e9;stop-opacity:1"/><stop offset="1" style="stop-color:#e3e4e5;stop-opacity:1"/></linearGradient><linearGradient id="_Linear30" x1="0" y1="0" x2="1" y2="0" gradientUnits="userSpaceOnUse" gradientTransform="matrix(92.5,0,0,92.5,190,477.485)"><stop offset="0" style="stop-color:#224b84;stop-opacity:0.5"/><stop offset="1" style="stop-color:#214a81;stop-opacity:0.5"/></linearGradient><linearGradient id="_Linear31" x1="0" y1="0" x2="1" y2="0" gradientUnits="userSpaceOnUse" gradientTransform="matrix(92.5,0,0,92.5,282.5,473.262)"><stop offset="0" style="stop-color:#20487f;stop-opacity:0.5"/><stop offset="0.5" style="stop-color:#285a9e;stop-opacity:0.5"/><stop offset="1" style="stop-color:#2a5da3;stop-opacity:0.5"/></linearGradient><linearGradient id="_Linear32" x1="0" y1="0" x2="1" y2="0" gradientUnits="userSpaceOnUse" gradientTransform="matrix(92.5,0,0,92.5,375,470.534)"><stop offset="0" style="stop-color:#285a9e;stop-opacity:0.5"/><stop offset="1" style="stop-color:#306cbe;stop-opacity:0.5"/></linearGradient><linearGradient id="_Linear33" x1="0" y1="0" x2="1" y2="0" gradientUnits="userSpaceOnUse" gradientTransform="matrix(92.5,0,0,92.5,467.5,468.958)"><stop offset="0" style="stop-color:#306cbe;stop-opacity:0.5"/><stop offset="1" style="stop-color:#4a83d1;stop-opacity:0.5"/></linearGradient><linearGradient id="_Linear34" x1="0" y1="0" x2="1" y2="0" gradientUnits="userSpaceOnUse" gradientTransform="matrix(4.3475e-15,71,-71,4.3475e-15,217.5,320)"><stop offset="0" style="stop-color:#ecedee;stop-opacity:1"/><stop offset="1" style="stop-color:#f6f6f6;stop-opacity:1"/></linearGradient><linearGradient id="_Linear35" x1="0" y1="0" x2="1" y2="0" gradientUnits="userSpaceOnUse" gradientTransform="matrix(2.44929e-16,4,-4,2.44929e-16,217.5,364.833)"><stop offset="0" style="stop-color:#a7316f;stop-opacity:1"/><stop offset="0" style="stop-color:#b8598a;stop-opacity:1"/><stop offset="1" style="stop-color:#a52a6a;stop-opacity:1"/></linearGradient><linearGradient id="_Linear36" x1="0" y1="0" x2="1" y2="0" gradientUnits="userSpaceOnUse" gradientTransform="matrix(1.30627e-15,21.333,-21.333,1.30627e-15,217.5,342.167)"><stop offset="0" style="stop-color:#d7599b;stop-opacity:1"/><stop offset="0" style="stop-color:#be6895;stop-opacity:1"/><stop offset="1" style="stop-color:#a32768;stop-opacity:1"/></linearGradient><linearGradient id="_Linear37" x1="0" y1="0" x2="1" y2="0" gradientUnits="userSpaceOnUse" gradientTransform="matrix(4.3475e-15,71,-71,4.3475e-15,322.5,320)"><stop offset="0" style="stop-color:#ecedee;stop-opacity:1"/><stop offset="1" style="stop-color:#f6f6f6;stop-opacity:1"/></linearGradient><linearGradient id="_Linear38" x1="0" y1="0" x2="1" y2="0" gradientUnits="userSpaceOnUse" gradientTransform="matrix(1.63282e-15,26.666,-26.666,1.63282e-15,322.5,342.167)"><stop offset="0" style="stop-color:#b52c73;stop-opacity:1"/><stop offset="0" style="stop-color:#d7599b;stop-opacity:1"/><stop offset="1" style="stop-color:#a32768;stop-opacity:1"/></linearGradient><linearGradient id="_Linear39" x1="0" y1="0" x2="1" y2="0" gradientUnits="userSpaceOnUse" gradientTransform="matrix(4.3475e-15,71,-71,4.3475e-15,427.5,320)"><stop offset="0" style="stop-color:#ecedee;stop-opacity:1"/><stop offset="1" style="stop-color:#f6f6f6;stop-opacity:1"/></linearGradient><linearGradient id="_Linear40" x1="0" y1="0" x2="1" y2="0" gradientUnits="userSpaceOnUse" gradientTransform="matrix(1.46945e-15,23.998,-23.998,1.46945e-15,427.5,343.501)"><stop offset="0" style="stop-color:#d7599b;stop-opacity:1"/><stop offset="1" style="stop-color:#a32768;stop-opacity:1"/><stop offset="1" style="stop-color:#a32768;stop-opacity:1"/></linearGradient><linearGradient id="_Linear41" x1="0" y1="0" x2="1" y2="0" gradientUnits="userSpaceOnUse" gradientTransform="matrix(4.3475e-15,71,-71,4.3475e-15,532.5,320)"><stop offset="0" style="stop-color:#ecedee;stop-opacity:1"/><stop offset="1" style="stop-color:#f6f6f6;stop-opacity:1"/></linearGradient><linearGradient id="_Linear42" x1="0" y1="0" x2="1" y2="0" gradientUnits="userSpaceOnUse" gradientTransform="matrix(1.63288e-15,26.667,-26.667,1.63288e-15,532.5,342.166)"><stop offset="0" style="stop-color:#d7599b;stop-opacity:1"/><stop offset="1" style="stop-color:#a32768;stop-opacity:1"/></linearGradient><linearGradient id="_Linear43" x1="0" y1="0" x2="1" y2="0" gradientUnits="userSpaceOnUse" gradientTransform="matrix(1.68389e-14,275,-275,1.68389e-14,724.5,258)"><stop offset="0" style="stop-color:#e2e3e4;stop-opacity:0.7"/><stop offset="1" style="stop-color:#d0d2d4;stop-opacity:0.7"/></linearGradient><linearGradient id="_Linear44" x1="0" y1="0" x2="1" y2="0" gradientUnits="userSpaceOnUse" gradientTransform="matrix(5.44968e-15,89,-89,5.44968e-15,751.5,415)"><stop offset="0" style="stop-color:#ade7bb;stop-opacity:1"/><stop offset="1" style="stop-color:#e4f0f4;stop-opacity:1"/></linearGradient><linearGradient id="_Linear45" x1="0" y1="0" x2="1" y2="0" gradientUnits="userSpaceOnUse" gradientTransform="matrix(4.65366e-15,76,-76,4.65366e-15,789,350)"><stop offset="0" style="stop-color:#eecdaa;stop-opacity:1"/><stop offset="1" style="stop-color:#f9eee3;stop-opacity:1"/></linearGradient><linearGradient id="_Linear46" x1="0" y1="0" x2="1" y2="0" gradientUnits="userSpaceOnUse" gradientTransform="matrix(0.573,139.726,-139.726,0.573,696.427,286.274)"><stop offset="0" style="stop-color:#f8d8df;stop-opacity:1"/><stop offset="1" style="stop-color:#ea89a0;stop-opacity:1"/></linearGradient><linearGradient id="_Linear47" x1="0" y1="0" x2="1" y2="0" gradientUnits="userSpaceOnUse" gradientTransform="matrix(53,-42,42,53,802,520.5)"><stop offset="0" style="stop-color:#2d60a5;stop-opacity:1"/><stop offset="0.9" style="stop-color:#cadaf1;stop-opacity:1"/><stop offset="1" style="stop-color:#cadaf1;stop-opacity:1"/></linearGradient><linearGradient id="_Linear48" x1="0" y1="0" x2="1" y2="0" gradientUnits="userSpaceOnUse" gradientTransform="matrix(17,-28,28,17,831,504)"><stop offset="0" style="stop-color:#2e61a6;stop-opacity:1"/><stop offset="1" style="stop-color:#6597d9;stop-opacity:1"/></linearGradient><linearGradient id="_Linear49" x1="0" y1="0" x2="1" y2="0" gradientUnits="userSpaceOnUse" gradientTransform="matrix(-53,55.5,-55.5,-53,118.5,349.5)"><stop offset="0" style="stop-color:#b7cded;stop-opacity:1"/><stop offset="0" style="stop-color:#dbe6f6;stop-opacity:1"/><stop offset="1" style="stop-color:#4881ce;stop-opacity:1"/></linearGradient><linearGradient id="_Linear50" x1="0" y1="0" x2="1" y2="0" gradientUnits="userSpaceOnUse" gradientTransform="matrix(-0.7556,16,-16,-0.7556,98.3778,359)"><stop offset="0" style="stop-color:#6798d9;stop-opacity:1"/><stop offset="1" style="stop-color:#224b83;stop-opacity:1"/></linearGradient><linearGradient id="_Linear51" x1="0" y1="0" x2="1" y2="0" gradientUnits="userSpaceOnUse" gradientTransform="matrix(1.95943e-15,32,-32,1.95943e-15,98,490)"><stop offset="0" style="stop-color:#b7cded;stop-opacity:1"/><stop offset="0" style="stop-color:#dbe6f6;stop-opacity:1"/><stop offset="1" style="stop-color:#b7cded;stop-opacity:1"/></linearGradient><linearGradient id="_Linear52" x1="0" y1="0" x2="1" y2="0" gradientUnits="userSpaceOnUse" gradientTransform="matrix(9.79717e-16,16,-16,9.79717e-16,98,498)"><stop offset="0" style="stop-color:#6798d9;stop-opacity:1"/><stop offset="1" style="stop-color:#306cbe;stop-opacity:1"/></linearGradient></defs></svg>