<svg width="32" height="32" viewBox="0 0 32 32" xmlns="http://www.w3.org/2000/svg">
<g clip-path="url(#clip0_12755_372)">
<path fill-rule="evenodd" clip-rule="evenodd" d="M12.8915 2.82812C7.31653 2.82812 2.79712 7.34753 2.79712 12.9225C2.79712 18.4975 7.31653 23.0169 12.8915 23.0169C14.1203 23.0169 15.2952 22.7979 16.381 22.3978C17.0288 22.1592 17.7474 22.4909 17.9861 23.1387C18.2247 23.7865 17.893 24.5051 17.2452 24.7437C15.8868 25.2442 14.4196 25.5169 12.8915 25.5169C5.93581 25.5169 0.297119 19.8782 0.297119 12.9225C0.297119 5.96682 5.93581 0.328125 12.8915 0.328125C19.8472 0.328125 25.4859 5.96682 25.4859 12.9225C25.4859 14.5276 25.185 16.0654 24.6354 17.4805C24.3855 18.124 23.6612 18.4431 23.0177 18.1932C22.3742 17.9433 22.0551 17.219 22.305 16.5754C22.7443 15.4443 22.9859 14.2131 22.9859 12.9225C22.9859 7.34753 18.4665 2.82812 12.8915 2.82812Z"/>
<path fill-rule="evenodd" clip-rule="evenodd" d="M18.1444 18.2292C18.4942 17.871 19.024 17.7561 19.4907 17.9372L24.5544 19.9013L29.5673 21.7688C30.0456 21.947 30.3676 22.3982 30.3805 22.9085C30.3934 23.4188 30.0947 23.8857 29.626 24.0879L27.0136 25.2148L31.3368 29.538C31.8249 30.0262 31.8249 30.8176 31.3368 31.3058C30.8486 31.794 30.0572 31.794 29.569 31.3058L25.2161 26.9529L24.1641 29.254C23.9572 29.7065 23.5016 29.9933 23.0041 29.984C22.5066 29.9748 22.0619 29.6713 21.872 29.2114L17.8842 19.5819C17.6923 19.1196 17.7946 18.5873 18.1444 18.2292ZM21.3156 21.3265L22.2138 23.4897L23.0855 25.6005L23.8906 23.8393L25.7782 23.025L23.666 22.2382L21.3156 21.3265Z"/>
<path fill-rule="evenodd" clip-rule="evenodd" d="M9.88929 7.83428C10.3581 8.34105 10.3273 9.13191 9.82052 9.60071C8.92538 10.4288 8.36768 11.6096 8.36768 12.9225C8.36768 15.4209 10.393 17.4463 12.8915 17.4463C15.3899 17.4463 17.4153 15.4209 17.4153 12.9225C17.4153 11.6096 16.8576 10.4288 15.9624 9.60071C15.4557 9.13191 15.4249 8.34105 15.8937 7.83428C16.3625 7.3275 17.1533 7.29672 17.6601 7.76551C19.0453 9.04691 19.9153 10.884 19.9153 12.9225C19.9153 16.8016 16.7706 19.9463 12.8915 19.9463C9.01234 19.9463 5.86768 16.8016 5.86768 12.9225C5.86768 10.884 6.73765 9.04691 8.12286 7.76551C8.62963 7.29672 9.42049 7.3275 9.88929 7.83428Z"/>
<path fill-rule="evenodd" clip-rule="evenodd" d="M12.8915 3.49512C13.5818 3.49512 14.1415 4.05476 14.1415 4.74512V9.55333C14.1415 10.2437 13.5818 10.8033 12.8915 10.8033C12.2011 10.8033 11.6415 10.2437 11.6415 9.55333V4.74512C11.6415 4.05476 12.2011 3.49512 12.8915 3.49512Z"/>
</g>
<defs>
<clipPath id="clip0_12755_372">
<rect width="32" height="32"/>
</clipPath>
</defs>
</svg>
