<?xml version="1.0" encoding="UTF-8"?>
<svg width="32px" height="32px" viewBox="0 0 32 32" version="1.1" xmlns="http://www.w3.org/2000/svg" xmlns:xlink="http://www.w3.org/1999/xlink">
    <title>bell</title>
    <g id="icons" stroke="none" stroke-width="1" fill="none" fill-rule="evenodd">
        <g id="bell" fill="#000000" fill-rule="nonzero">
            <path d="M31.7416853,25.5657143 L27.5702567,20.4457143 L27.4216853,11.4285714 C27.4265693,11.3677169 27.4265693,11.3065688 27.4216853,11.2457143 C26.1073995,4.09142857 21.9473995,0 15.9931138,0 C9.70739954,0 4.65597097,4.57142857 3.42168525,11.2228571 C3.41550128,11.2912891 3.41550128,11.3601394 3.42168525,11.4285714 L3.27311382,20.5714286 L0.153113824,25.6914286 C-0.0510379414,26.0450298 -0.0510379414,26.4806845 0.153113824,26.8342857 C0.350167788,27.1945768 0.725374906,27.4214462 1.13597097,27.4285714 L11.4216853,27.4285714 C11.4216853,29.9533017 13.4683835,32 15.9931138,32 C18.5178441,32 20.5645424,29.9533017 20.5645424,27.4285714 L30.8502567,27.4285714 C31.2898675,27.427327 31.6897965,27.1740386 31.8788281,26.7771429 C32.0703014,26.3806315 32.016953,25.909387 31.7416853,25.5657143 Z M15.9931138,29.7142857 C14.7307487,29.7142857 13.7073995,28.6909366 13.7073995,27.4285714 L18.2788281,27.4285714 C18.2788281,28.6909366 17.255479,29.7142857 15.9931138,29.7142857 Z M3.15882811,25.1428571 L5.4445424,21.44 C5.5472585,21.2669339 5.60245241,21.0698128 5.6045424,20.8685714 L5.70739954,11.5428571 C6.74739954,6 10.8731138,2.28571429 15.9931138,2.28571429 C22.4273995,2.28571429 24.4845424,8 25.135971,11.5428571 L25.295971,20.8685714 C25.2974663,21.1263591 25.3860732,21.3760694 25.5473995,21.5771429 L28.4502567,25.1428571 L3.15882811,25.1428571 Z" id="Shape"></path>
        </g>
    </g>
</svg>