<svg width="32" height="32" viewBox="0 0 32 32" fill="none" xmlns="http://www.w3.org/2000/svg">
<g clip-path="url(#clip0_3510_636315)">
    <path fill-rule="evenodd" clip-rule="evenodd" d="M15.9999 1.875C14.4639 1.875 12.9907 2.48519 11.9046 3.57134C10.8184 4.65749 10.2083 6.13062 10.2083 7.66667C10.2083 8.14992 9.8165 8.54167 9.33325 8.54167C8.85 8.54167 8.45825 8.14992 8.45825 7.66667C8.45825 5.66649 9.25282 3.74824 10.6672 2.3339C12.0815 0.919566 13.9997 0.125 15.9999 0.125C18.0001 0.125 19.9183 0.919566 21.3327 2.3339C22.747 3.74824 23.5416 5.66649 23.5416 7.66667C23.5416 8.14992 23.1498 8.54167 22.6666 8.54167C22.1833 8.54167 21.7916 8.14992 21.7916 7.66667C21.7916 6.13062 21.1814 4.65749 20.0952 3.57134C19.0091 2.48519 17.536 1.875 15.9999 1.875ZM16 2.79199C16.4832 2.79199 16.875 3.18374 16.875 3.66699V4.125H18.6666C19.1498 4.125 19.5416 4.51675 19.5416 5C19.5416 5.48325 19.1498 5.875 18.6666 5.875H16.0241C16.0161 5.87522 16.0081 5.87533 16 5.87533C15.9919 5.87533 15.9839 5.87522 15.9759 5.875H14.6666C14.545 5.875 14.4284 5.92329 14.3425 6.00924C14.2565 6.0952 14.2083 6.21178 14.2083 6.33333C14.2083 6.45489 14.2565 6.57147 14.3425 6.65742C14.4285 6.74338 14.545 6.79167 14.6666 6.79167H17.3333C17.9189 6.79167 18.4806 7.02433 18.8948 7.43847C19.3089 7.85261 19.5416 8.41431 19.5416 9C19.5416 9.58569 19.3089 10.1474 18.8948 10.5615C18.4806 10.9757 17.9189 11.2083 17.3333 11.2083H16.875V11.6663C16.875 12.1496 16.4832 12.5413 16 12.5413C15.5168 12.5413 15.125 12.1496 15.125 11.6663V11.2083H13.3333C12.85 11.2083 12.4583 10.8166 12.4583 10.3333C12.4583 9.85009 12.85 9.45833 13.3333 9.45833H15.9759C15.9839 9.45812 15.9919 9.45801 16 9.45801C16.0081 9.45801 16.0161 9.45812 16.0241 9.45833H17.3333C17.4548 9.45833 17.5714 9.41005 17.6573 9.32409C17.7433 9.23813 17.7916 9.12156 17.7916 9C17.7916 8.87845 17.7433 8.76187 17.6573 8.67591C17.5714 8.58995 17.4548 8.54167 17.3333 8.54167H14.6666C14.0809 8.54167 13.5192 8.309 13.1051 7.89486C12.6909 7.48072 12.4583 6.91902 12.4583 6.33333C12.4583 5.74765 12.6909 5.18595 13.1051 4.77181C13.5192 4.35766 14.0809 4.125 14.6666 4.125H15.125V3.66699C15.125 3.18374 15.5168 2.79199 16 2.79199ZM2.59321 9.92695C3.31992 9.20025 4.30554 8.79199 5.33325 8.79199C6.36097 8.79199 7.34659 9.20025 8.07329 9.92695C8.79999 10.6537 9.20825 11.6393 9.20825 12.667C9.20825 13.6947 8.79999 14.6803 8.07329 15.407C7.66958 15.8107 7.18596 16.1162 6.65961 16.3079C6.84248 16.3596 7.02254 16.4221 7.19883 16.4951C7.7903 16.7401 8.32771 17.0992 8.7804 17.5519C9.23308 18.0046 9.59217 18.542 9.83716 19.1334C10.0822 19.7249 10.2083 20.3588 10.2083 20.999V23.6657C10.2083 24.1489 9.8165 24.5407 9.33325 24.5407H8.12512L7.53724 30.4194C7.49251 30.8667 7.11612 31.2074 6.66659 31.2074H3.99992C3.55039 31.2074 3.17399 30.8667 3.12926 30.4194L2.54139 24.5407H1.33325C0.850003 24.5407 0.458252 24.1489 0.458252 23.6657V20.999C0.458252 19.7061 0.971867 18.4661 1.88611 17.5519C2.48037 16.9576 3.21227 16.5326 4.00688 16.3079C3.48054 16.1162 2.99692 15.8107 2.59321 15.407C1.86651 14.6803 1.45825 13.6947 1.45825 12.667C1.45825 11.6393 1.86651 10.6537 2.59321 9.92695ZM5.33325 10.542C4.76967 10.542 4.22917 10.7659 3.83065 11.1644C3.43214 11.5629 3.20825 12.1034 3.20825 12.667C3.20825 13.2306 3.43214 13.7711 3.83065 14.1696C4.22917 14.5681 4.76967 14.792 5.33325 14.792C5.89684 14.792 6.43734 14.5681 6.83585 14.1696C7.23437 13.7711 7.45825 13.2306 7.45825 12.667C7.45825 12.1034 7.23437 11.5629 6.83585 11.1644C6.43734 10.7659 5.89684 10.542 5.33325 10.542ZM25.1836 9.08696C25.6537 8.89222 26.1576 8.79199 26.6665 8.79199C27.1754 8.79199 27.6793 8.89222 28.1494 9.08696C28.6195 9.2817 29.0467 9.56713 29.4065 9.92695C29.7664 10.2868 30.0518 10.714 30.2465 11.1841C30.4413 11.6542 30.5415 12.1581 30.5415 12.667C30.5415 13.1759 30.4413 13.6798 30.2465 14.1499C30.0518 14.62 29.7664 15.0472 29.4065 15.407C29.0467 15.7669 28.6195 16.0523 28.1494 16.247C28.0976 16.2685 28.0454 16.2888 27.9929 16.3079C28.1757 16.3596 28.3558 16.4221 28.5321 16.4951C29.1235 16.7401 29.661 17.0992 30.1137 17.5519C30.5663 18.0046 30.9254 18.542 31.1704 19.1334C31.4154 19.7249 31.5415 20.3588 31.5415 20.999V23.6657C31.5415 24.1489 31.1498 24.5407 30.6665 24.5407H29.4584L28.8705 30.4194C28.8258 30.8667 28.4494 31.2074 27.9998 31.2074H25.3332C24.8836 31.2074 24.5072 30.8667 24.4625 30.4194L23.8746 24.5407H22.6665C22.1833 24.5407 21.7915 24.1489 21.7915 23.6657V20.999C21.7915 19.7061 22.3051 18.4661 23.2194 17.5519C23.8136 16.9576 24.5455 16.5326 25.3401 16.3079C25.2876 16.2888 25.2354 16.2685 25.1836 16.247C24.7135 16.0523 24.2863 15.7669 23.9265 15.407C23.5666 15.0472 23.2812 14.62 23.0865 14.1499C22.8917 13.6798 22.7915 13.1759 22.7915 12.667C22.7915 12.1581 22.8917 11.6542 23.0865 11.1841C23.2812 10.714 23.5666 10.2868 23.9265 9.92695C24.2863 9.56713 24.7135 9.2817 25.1836 9.08696ZM26.6665 10.542C26.3874 10.542 26.1111 10.597 25.8533 10.7037C25.5955 10.8105 25.3612 10.9671 25.1639 11.1644C24.9666 11.3617 24.8101 11.596 24.7033 11.8538C24.5965 12.1116 24.5415 12.3879 24.5415 12.667C24.5415 12.9461 24.5965 13.2224 24.7033 13.4802C24.8101 13.738 24.9666 13.9723 25.1639 14.1696C25.3612 14.3669 25.5955 14.5234 25.8533 14.6302C26.1111 14.737 26.3874 14.792 26.6665 14.792C26.9456 14.792 27.2219 14.737 27.4797 14.6302C27.7375 14.5234 27.9718 14.3669 28.1691 14.1696C28.3664 13.9723 28.523 13.738 28.6297 13.4802C28.7365 13.2224 28.7915 12.9461 28.7915 12.667C28.7915 12.3879 28.7365 12.1116 28.6297 11.8538C28.523 11.596 28.3664 11.3617 28.1691 11.1644C27.9718 10.9671 27.7375 10.8105 27.4797 10.7037C27.2219 10.597 26.9456 10.542 26.6665 10.542ZM11.2999 12.475C11.5899 12.0884 12.1383 12.0101 12.5249 12.3C13.5274 13.0519 14.7468 13.4583 15.9999 13.4583C17.2531 13.4583 18.4724 13.0519 19.4749 12.3C19.8615 12.0101 20.41 12.0884 20.6999 12.475C20.9899 12.8616 20.9115 13.4101 20.5249 13.7C19.2195 14.6791 17.6317 15.2083 15.9999 15.2083C14.3681 15.2083 12.7804 14.6791 11.4749 13.7C11.0883 13.4101 11.01 12.8616 11.2999 12.475ZM5.33325 17.874C4.50445 17.874 3.70959 18.2033 3.12354 18.7893C2.53749 19.3754 2.20825 20.1702 2.20825 20.999V22.7907H3.33325C3.78278 22.7907 4.15918 23.1313 4.20391 23.5786L4.79178 29.4574H5.87472L6.46259 23.5786C6.50732 23.1313 6.88372 22.7907 7.33325 22.7907H8.45825V20.999C8.45825 20.5886 8.37742 20.1823 8.22038 19.8031C8.06333 19.424 7.83314 19.0795 7.54296 18.7893C7.25278 18.4991 6.90828 18.2689 6.52914 18.1119C6.14999 17.9549 5.74363 17.874 5.33325 17.874ZM26.6665 17.874C25.8377 17.874 25.0428 18.2033 24.4568 18.7893C23.8707 19.3754 23.5415 20.1702 23.5415 20.999V22.7907H24.6665C25.116 22.7907 25.4924 23.1313 25.5372 23.5786L26.125 29.4574H27.208L27.7958 23.5786C27.8406 23.1313 28.217 22.7907 28.6665 22.7907H29.7915V20.999C29.7915 20.5886 29.7107 20.1823 29.5536 19.8031C29.3966 19.424 29.1664 19.0795 28.8762 18.7893C28.586 18.4991 28.2415 18.2689 27.8624 18.1119C27.4832 17.9549 27.0769 17.874 26.6665 17.874Z" fill="#131C26"/>
</g>
<defs>
<clipPath id="clip0_3510_636315">
    <rect width="32" height="32" fill="white"/>
</clipPath>
</defs>
</svg>
