<svg version="1.1" xmlns="http://www.w3.org/2000/svg" width="16" height="16" viewBox="0 0 16 16">
<path d="M8 16C3.5815 16 0 12.4185 0 8C0 3.5815 3.5815 0 8 0C12.4185 0 16 3.5815 16 8C15.9955 12.4165 12.416 15.9955 8 16ZM8 1C4.134 1 1 4.134 1 8C1 11.866 4.134 15 8 15C11.866 15 15 11.866 15 8C15 4.134 11.866 1 8 1ZM11 7.5H8.5C8.36739 7.5 7.5 7.5 7.5 7.5H5C4.86739 7.5 4.74021 7.55268 4.64645 7.64645C4.55268 7.74021 4.5 7.86739 4.5 8C4.5 8.13261 4.55268 8.25979 4.64645 8.35355C4.74021 8.44732 4.86739 8.5 5 8.5H7.5C7.75 8.5 8.5 8.5 8.5 8.5H11C11.1326 8.5 11.2598 8.44732 11.3536 8.35355C11.4473 8.25979 11.5 8.13261 11.5 8C11.5 7.86739 11.4473 7.74021 11.3536 7.64645C11.2598 7.55268 11.1326 7.5 11 7.5Z" />
</svg>
