<svg viewBox="0 0 32 32" xmlns="http://www.w3.org/2000/svg">
<path d="M21.6475 6.58899C21.6475 9.70807 19.119 12.2366 15.9999 12.2366C12.8809 12.2366 10.3524 9.70807 10.3524 6.58899C10.3524 3.46992 12.8809 0.941406 15.9999 0.941406C19.119 0.941406 21.6475 3.46992 21.6475 6.58899Z" />
<path d="M11.2936 25.4142C11.2936 28.5333 8.76514 31.0618 5.64606 31.0618C2.52698 31.0618 -0.00152588 28.5333 -0.00152588 25.4142C-0.00152588 22.2951 2.52698 19.7666 5.64606 19.7666C8.76514 19.7666 11.2936 22.2951 11.2936 25.4142Z" />
<path d="M32.0015 25.4142C32.0015 28.5333 29.473 31.0618 26.3539 31.0618C23.2348 31.0618 20.7063 28.5333 20.7063 25.4142C20.7063 22.2951 23.2348 19.7666 26.3539 19.7666C29.473 19.7666 32.0015 22.2951 32.0015 25.4142Z" />
<path fill-rule="evenodd" clip-rule="evenodd" d="M8.67941 7.06254C9.04965 7.47234 9.01757 8.10469 8.60777 8.47494C6.35254 10.5124 4.52071 13.4837 4.79812 17.8211C4.83337 18.3723 4.41515 18.8477 3.86399 18.8829C3.31283 18.9182 2.83745 18.5 2.8022 17.9488C2.47795 12.8791 4.65923 9.34692 7.26701 6.9909C7.67681 6.62066 8.30916 6.65273 8.67941 7.06254Z" />
<path fill-rule="evenodd" clip-rule="evenodd" d="M23.3208 7.06254C22.9505 7.47234 22.9826 8.10469 23.3924 8.47494C25.6476 10.5124 27.4795 13.4837 27.2021 17.8211C27.1668 18.3723 27.585 18.8477 28.1362 18.8829C28.6874 18.9182 29.1627 18.5 29.198 17.9488C29.5222 12.8791 27.341 9.34692 24.7332 6.9909C24.3234 6.62066 23.691 6.65273 23.3208 7.06254Z" />
<path fill-rule="evenodd" clip-rule="evenodd" d="M20.6917 28.2669C20.5203 27.7419 19.9557 27.4553 19.4307 27.6267C17.4085 28.287 15.0894 28.4655 12.5477 27.6276C12.0232 27.4547 11.4578 27.7397 11.2849 28.2642C11.112 28.7887 11.397 29.3541 11.9215 29.527C14.9221 30.5162 17.6818 30.3017 20.0515 29.5279C20.5765 29.3565 20.8631 28.7919 20.6917 28.2669Z" />
</svg>
