<svg width="32" height="32" viewBox="0 0 32 32" fill="none" xmlns="http://www.w3.org/2000/svg">
<path d="M28.6787 15.2295V4.21387C28.6786 3.72087 28.2782 3.32129 27.7852 3.32129H4.21387C3.72098 3.32144 3.32144 3.72098 3.32129 4.21387V27.7852C3.32129 28.2782 3.72087 28.6786 4.21387 28.6787H14.209L14.3369 28.6846C14.9673 28.7486 15.459 29.2815 15.459 29.9287C15.4588 30.5758 14.9671 31.1079 14.3369 31.1719L14.209 31.1787H4.21387C2.34018 31.1786 0.821289 29.6589 0.821289 27.7852V4.21387C0.82144 2.34026 2.34026 0.82144 4.21387 0.821289H27.7852C29.6589 0.821289 31.1786 2.34018 31.1787 4.21387V15.2295C31.1787 15.9198 30.6189 16.4793 29.9287 16.4795C29.2384 16.4795 28.6787 15.9198 28.6787 15.2295Z"/>
<path d="M29.9287 7.24986L30.0566 7.2567C30.6868 7.32091 31.1787 7.8528 31.1787 8.49986C31.1787 9.14692 30.6868 9.67881 30.0566 9.74302L29.9287 9.74986H2.07129C1.38093 9.74986 0.821289 9.19022 0.821289 8.49986C0.821289 7.8095 1.38093 7.24986 2.07129 7.24986H29.9287Z"/>
<path d="M10.4846 29.9287V8.5C10.4846 7.80964 11.0442 7.25 11.7346 7.25C12.425 7.25 12.9846 7.80964 12.9846 8.5V29.9287C12.9845 30.619 12.4249 31.1787 11.7346 31.1787C11.0443 31.1787 10.4847 30.619 10.4846 29.9287Z"/>
<path d="M19.6659 12.7588V8.5C19.6659 7.80964 20.2255 7.25 20.9159 7.25C21.6062 7.25 22.1659 7.80964 22.1659 8.5V12.7588C22.1659 13.4491 21.6062 14.0088 20.9159 14.0088C20.2255 14.0088 19.6659 13.4491 19.6659 12.7588Z"/>
<path d="M23.9766 15.4076L24.1514 15.4144C24.4995 15.4417 24.837 15.5472 25.1387 15.723L25.2862 15.8167L25.4268 15.9212C25.7434 16.1763 25.9885 16.5109 26.1358 16.8919L26.4356 17.6693L27.2383 18.1302L28.0704 18.0042L28.0909 18.0013L28.2618 17.9847C28.6049 17.9638 28.9486 18.0188 29.2676 18.1468L29.4249 18.2171L29.5762 18.2982C29.8725 18.4717 30.1267 18.7089 30.3204 18.9925L30.4122 19.139L30.4161 19.1449L30.837 19.8812L30.92 20.0355C31.0999 20.4023 31.1805 20.8118 31.1514 21.222C31.1184 21.687 30.9446 22.1305 30.6553 22.4964L30.6563 22.4974L30.1407 23.1537V24.0794L30.668 24.7337L30.6719 24.7396L30.7764 24.8802C30.9737 25.1702 31.1023 25.5012 31.1534 25.848L31.1729 26.0218L31.1778 26.1976C31.1758 26.6065 31.0665 27.0088 30.8585 27.3626L30.8575 27.3617L30.4376 28.099L30.4336 28.1048C30.2031 28.5033 29.8593 28.8242 29.4463 29.0267L29.4454 29.0277C29.084 29.2045 28.6835 29.2835 28.2833 29.2591L28.1124 29.2425C28.1056 29.2416 28.0986 29.2406 28.0919 29.2396L27.2598 29.1126L26.4571 29.5736L26.1563 30.3499L26.1573 30.3509C26.0101 30.7322 25.7652 31.0672 25.4483 31.3226L25.3077 31.4271C24.9224 31.6923 24.4656 31.8349 23.9981 31.8363H23.0909C22.6819 31.835 22.2815 31.7257 21.9297 31.5208L21.7823 31.4271C21.397 31.162 21.1 30.787 20.9317 30.3509L20.6309 29.5736L19.8292 29.1126L18.9971 29.2396L18.9776 29.2425C18.5211 29.3046 18.0566 29.229 17.6436 29.0267C17.2824 28.8495 16.9729 28.5822 16.7471 28.2513L16.6553 28.1048L16.6524 28.099L16.2237 27.349L16.2247 27.348C15.9923 26.9464 15.8843 26.4848 15.917 26.0218L15.9356 25.848C15.9947 25.4463 16.1591 25.0664 16.4122 24.7464L16.9268 24.0892V23.1624L16.4004 22.5101L16.3956 22.5042C16.1031 22.1372 15.9288 21.6902 15.8956 21.222C15.8624 20.7537 15.9721 20.286 16.21 19.8812L16.6309 19.1449L16.6338 19.139L16.7256 18.9925C16.9516 18.6615 17.2605 18.3943 17.6221 18.2171L17.7794 18.1468C18.0982 18.019 18.4414 17.9639 18.7842 17.9847L18.9561 18.0013L18.9756 18.0042L19.8106 18.1312L20.6329 17.6654L20.9317 16.8929L21.001 16.7328C21.1758 16.365 21.4452 16.0487 21.7823 15.8167L21.9297 15.723C22.2815 15.5182 22.6818 15.4088 23.0909 15.4076H23.9766ZM22.8028 18.9837C22.7117 19.219 22.5523 19.4209 22.3458 19.5628L22.2549 19.6195L20.669 20.5199C20.4554 20.6411 20.2113 20.6964 19.9678 20.68L19.8633 20.6683L18.7374 20.4964L18.4258 21.0404L19.1495 21.9369L19.2129 22.0228C19.3518 22.2287 19.4268 22.4721 19.4268 22.722V24.5218C19.4268 24.8016 19.3328 25.0732 19.1602 25.2933L18.4473 26.2015L18.7579 26.7464L19.8848 26.5755L19.9903 26.5638C20.2359 26.5475 20.4816 26.6044 20.6963 26.7279L22.2608 27.6283L22.3506 27.6849C22.5547 27.8267 22.7124 28.0269 22.8028 28.2601L23.2198 29.3363H23.8692L24.2862 28.2601L24.3292 28.1615C24.4383 27.9387 24.6118 27.7529 24.8282 27.6283L26.3926 26.7279L26.4864 26.6791C26.7094 26.5747 26.9592 26.5383 27.2042 26.5755L28.3301 26.7464L28.6407 26.2025L27.918 25.307C27.7388 25.0847 27.6407 24.8073 27.6407 24.5218V22.722C27.6407 22.4422 27.7355 22.1707 27.9083 21.9505L28.6202 21.0414L28.3086 20.4964L27.1836 20.6683C26.9036 20.711 26.6167 20.6572 26.3711 20.516L24.8067 19.6156C24.5593 19.4731 24.3678 19.25 24.2647 18.9837L23.8477 17.9076H23.2198L22.8028 18.9837ZM23.5342 20.2289C24.2052 20.2289 24.8611 20.4284 25.419 20.8011C25.9769 21.1739 26.4122 21.7037 26.669 22.3236L26.7559 22.5589C26.939 23.1137 26.9759 23.7078 26.8614 24.2835C26.7305 24.9417 26.4072 25.5463 25.9327 26.0208C25.4583 26.4952 24.8543 26.8186 24.1963 26.9496C23.6204 27.0641 23.0257 27.0272 22.4708 26.8441L22.2354 26.7562C21.6931 26.5315 21.22 26.1706 20.8604 25.7103L20.7129 25.5072C20.3402 24.9494 20.1408 24.2933 20.1407 23.6224C20.1407 22.7226 20.4986 21.8593 21.1348 21.223L21.2569 21.1068C21.8793 20.5432 22.6907 20.2289 23.5342 20.2289ZM22.6407 23.6224C22.6408 23.7988 22.6941 23.9708 22.792 24.1175L22.8731 24.222C22.9613 24.3192 23.0702 24.396 23.1924 24.4466L23.3174 24.4876C23.4449 24.5195 23.5782 24.5232 23.7081 24.4974C23.8812 24.463 24.0402 24.3781 24.1651 24.2533C24.2899 24.1285 24.3748 23.9694 24.4092 23.7962C24.4351 23.6664 24.4322 23.5329 24.4004 23.4056L24.3585 23.2806C24.2909 23.1175 24.1771 22.9774 24.0303 22.8792C23.8836 22.7812 23.7107 22.7289 23.5342 22.7289C23.327 22.7289 23.1267 22.8008 22.9678 22.931L22.9024 22.9906C22.735 23.158 22.6407 23.3857 22.6407 23.6224Z"/>
</svg>
