<svg width="32" height="32" viewBox="0 0 32 32" fill="none" xmlns="http://www.w3.org/2000/svg">
<path fill-rule="evenodd" clip-rule="evenodd" d="M3 2.5V30.75C3 31.4404 2.44036 32 1.75 32C1.05964 32 0.5 31.4404 0.5 30.75V2.25C0.5 1.00736 1.50736 0 2.75 0H19.75C20.9926 0 22 1.00736 22 2.25V9.5H29.25C30.4926 9.5 31.5 10.5074 31.5 11.75V30.75C31.5 31.4404 30.9404 32 30.25 32C29.5596 32 29 31.4404 29 30.75V12H22V30.75C22 31.4404 21.4404 32 20.75 32C20.0596 32 19.5 31.4404 19.5 30.75V2.5H3ZM7.75 5.5C8.44036 5.5 9 6.05964 9 6.75V8.75C9 9.44036 8.44036 10 7.75 10C7.05964 10 6.5 9.44036 6.5 8.75V6.75C6.5 6.05964 7.05964 5.5 7.75 5.5ZM14.75 5.5C15.4404 5.5 16 6.05964 16 6.75V8.75C16 9.44036 15.4404 10 14.75 10C14.0596 10 13.5 9.44036 13.5 8.75V6.75C13.5 6.05964 14.0596 5.5 14.75 5.5ZM7.75 14C8.44036 14 9 14.5596 9 15.25V17.25C9 17.9404 8.44036 18.5 7.75 18.5C7.05964 18.5 6.5 17.9404 6.5 17.25V15.25C6.5 14.5596 7.05964 14 7.75 14ZM14.75 14C15.4404 14 16 14.5596 16 15.25V17.25C16 17.9404 15.4404 18.5 14.75 18.5C14.0596 18.5 13.5 17.9404 13.5 17.25V15.25C13.5 14.5596 14.0596 14 14.75 14ZM25.75 14C26.4404 14 27 14.5596 27 15.25V17.25C27 17.9404 26.4404 18.5 25.75 18.5C25.0596 18.5 24.5 17.9404 24.5 17.25V15.25C24.5 14.5596 25.0596 14 25.75 14ZM9.5 24V30.75C9.5 31.4404 8.94036 32 8.25 32C7.55964 32 7 31.4404 7 30.75V23.75C7 22.5074 8.00736 21.5 9.25 21.5H12.75C13.9926 21.5 15 22.5074 15 23.75V30.75C15 31.4404 14.4404 32 13.75 32C13.0596 32 12.5 31.4404 12.5 30.75V24H9.5ZM25.75 21.5C26.4404 21.5 27 22.0596 27 22.75V25.25C27 25.9404 26.4404 26.5 25.75 26.5C25.0596 26.5 24.5 25.9404 24.5 25.25V22.75C24.5 22.0596 25.0596 21.5 25.75 21.5Z" fill="#131C26"/>
</svg>
