<svg width="32" height="32" viewBox="0 0 32 32" xmlns="http://www.w3.org/2000/svg">
<path fill-rule="evenodd" clip-rule="evenodd" d="M3.5 17.5016C4.32843 17.5016 5 16.83 5 16.0016C5 15.1732 4.32843 14.5016 3.5 14.5016C2.67157 14.5016 2 15.1732 2 16.0016C2 16.83 2.67157 17.5016 3.5 17.5016ZM3.5 19.5016C5.433 19.5016 7 17.9346 7 16.0016C7 14.0686 5.433 12.5016 3.5 12.5016C1.567 12.5016 0 14.0686 0 16.0016C0 17.9346 1.567 19.5016 3.5 19.5016Z" />
<path d="M22 16.0016C22 16.5539 21.5523 17.0016 21 17.0016C20.4477 17.0016 20 16.5539 20 16.0016C20 15.4493 20.4477 15.0016 21 15.0016C21.5523 15.0016 22 15.4493 22 16.0016Z" />
<path d="M9.5 16.0016C9.5 16.5539 9.05228 17.0016 8.5 17.0016C7.94772 17.0016 7.5 16.5539 7.5 16.0016C7.5 15.4493 7.94772 15.0016 8.5 15.0016C9.05228 15.0016 9.5 15.4493 9.5 16.0016Z"/>
<path d="M18.8841 10.8906C19.3624 11.1668 19.5263 11.7784 19.2501 12.2567C18.974 12.735 18.3624 12.8988 17.8841 12.6227C17.4058 12.3466 17.2419 11.735 17.5181 11.2567C17.7942 10.7784 18.4058 10.6145 18.8841 10.8906Z" />
<path d="M24.5 16.0016C24.5 16.5539 24.0523 17.0016 23.5 17.0016C22.9477 17.0016 22.5 16.5539 22.5 16.0016C22.5 15.4493 22.9477 15.0016 23.5 15.0016C24.0523 15.0016 24.5 15.4493 24.5 16.0016Z" />
<path d="M12 16.0016C12 16.5539 11.5523 17.0016 11 17.0016C10.4477 17.0016 10 16.5539 10 16.0016C10 15.4493 10.4477 15.0016 11 15.0016C11.5523 15.0016 12 15.4493 12 16.0016Z" />
<path d="M20.616 9.20217C21.0943 9.47831 21.2582 10.0899 20.982 10.5682C20.7059 11.0465 20.0943 11.2104 19.616 10.9342C19.1377 10.6581 18.9739 10.0465 19.25 9.56819C19.5261 9.0899 20.1377 8.92603 20.616 9.20217Z" />
<path fill-rule="evenodd" clip-rule="evenodd" d="M16 17.5016C16.8284 17.5016 17.5 16.83 17.5 16.0016C17.5 15.1732 16.8284 14.5016 16 14.5016C15.1716 14.5016 14.5 15.1732 14.5 16.0016C14.5 16.83 15.1716 17.5016 16 17.5016ZM16 19.5016C17.933 19.5016 19.5 17.9346 19.5 16.0016C19.5 14.0686 17.933 12.5016 16 12.5016C14.067 12.5016 12.5 14.0686 12.5 16.0016C12.5 17.9346 14.067 19.5016 16 19.5016Z" />
<path fill-rule="evenodd" clip-rule="evenodd" d="M28.5 17.694C29.3284 17.694 30 17.0224 30 16.194C30 15.3656 29.3284 14.694 28.5 14.694C27.6716 14.694 27 15.3656 27 16.194C27 17.0224 27.6716 17.694 28.5 17.694ZM28.5 19.694C30.433 19.694 32 18.127 32 16.194C32 14.261 30.433 12.694 28.5 12.694C26.567 12.694 25 14.261 25 16.194C25 18.127 26.567 19.694 28.5 19.694Z" />
<path fill-rule="evenodd" clip-rule="evenodd" d="M24.611 7.54504C25.1968 6.95925 25.1968 6.0095 24.611 5.42371C24.0252 4.83793 23.0755 4.83793 22.4897 5.42371C21.9039 6.0095 21.9039 6.95925 22.4897 7.54504C23.0755 8.13082 24.0252 8.13082 24.611 7.54504ZM26.0252 8.95925C27.392 7.59241 27.392 5.37634 26.0252 4.0095C24.6584 2.64267 22.4423 2.64267 21.0755 4.0095C19.7086 5.37634 19.7086 7.59241 21.0755 8.95925C22.4423 10.3261 24.6584 10.3261 26.0252 8.95925Z" />
<path d="M18.8841 21.1126C19.3624 20.8364 19.5263 20.2248 19.2501 19.7465C18.974 19.2682 18.3624 19.1044 17.8841 19.3805C17.4058 19.6567 17.2419 20.2682 17.5181 20.7465C17.7942 21.2248 18.4058 21.3887 18.8841 21.1126Z" />
<path d="M20.616 22.801C21.0943 22.5249 21.2582 21.9133 20.982 21.435C20.7059 20.9567 20.0943 20.7928 19.616 21.069C19.1377 21.3451 18.9739 21.9567 19.25 22.435C19.5261 22.9133 20.1377 23.0772 20.616 22.801Z" />
<path fill-rule="evenodd" clip-rule="evenodd" d="M24.611 24.4585C25.1968 25.0443 25.1968 25.9941 24.611 26.5798C24.0252 27.1656 23.0755 27.1656 22.4897 26.5798C21.9039 25.9941 21.9039 25.0443 22.4897 24.4585C23.0755 23.8727 24.0252 23.8727 24.611 24.4585ZM26.0252 23.0443C27.392 24.4111 27.392 26.6272 26.0252 27.9941C24.6584 29.3609 22.4423 29.3609 21.0755 27.9941C19.7086 26.6272 19.7086 24.4111 21.0755 23.0443C22.4423 21.6775 24.6584 21.6775 26.0252 23.0443Z" />
</svg>
