<svg width="32" height="32" viewBox="0 0 32 32" xmlns="http://www.w3.org/2000/svg">
<path fill-rule="evenodd" clip-rule="evenodd" d="M2.48639 1.96113C2.39979 1.96113 2.31673 1.99553 2.2555 2.05677C2.19426 2.118 2.15986 2.20106 2.15986 2.28766V25.7978C2.15986 25.8844 2.19426 25.9674 2.2555 26.0287C2.31673 26.0899 2.39978 26.1243 2.48639 26.1243H16.8537C17.3947 26.1243 17.8333 26.5629 17.8333 27.1039C17.8333 27.6449 17.3947 28.0835 16.8537 28.0835H2.48639C1.88019 28.0835 1.29881 27.8427 0.870152 27.414C0.441498 26.9854 0.200684 26.404 0.200684 25.7978V2.28766C0.200684 1.68145 0.441498 1.10007 0.870152 0.671421C1.2988 0.242768 1.88018 0.00195312 2.48639 0.00195312H20.772C21.3782 0.00195312 21.9596 0.242767 22.3883 0.671421C22.8169 1.10007 23.0577 1.68145 23.0577 2.28766V8.81825C23.0577 9.35926 22.6192 9.79784 22.0782 9.79784C21.5371 9.79784 21.0986 9.35926 21.0986 8.81825V2.28766C21.0986 2.20106 21.0642 2.118 21.0029 2.05677C20.9417 1.99553 20.8586 1.96113 20.772 1.96113H2.48639ZM8.03739 4.89989C8.03739 4.35888 8.47597 3.92031 9.01698 3.92031H16.8537C17.3947 3.92031 17.8333 4.35888 17.8333 4.89989C17.8333 5.44091 17.3947 5.87948 16.8537 5.87948H9.01698C8.47597 5.87948 8.03739 5.44091 8.03739 4.89989ZM8.03739 8.81825C8.03739 8.27724 8.47597 7.83866 9.01698 7.83866H16.8537C17.3947 7.83866 17.8333 8.27724 17.8333 8.81825C17.8333 9.35926 17.3947 9.79784 16.8537 9.79784H9.01698C8.47597 9.79784 8.03739 9.35926 8.03739 8.81825ZM8.03739 12.7366C8.03739 12.1956 8.47597 11.757 9.01698 11.757H10.3231C10.8641 11.757 11.3027 12.1956 11.3027 12.7366C11.3027 13.2776 10.8641 13.7162 10.3231 13.7162H9.01698C8.47597 13.7162 8.03739 13.2776 8.03739 12.7366Z" />
<path fill-rule="evenodd" clip-rule="evenodd" d="M4.25673 4.89989C4.25673 4.35888 4.69531 3.92031 5.23632 3.92031H5.89681C6.43782 3.92031 6.8764 4.35888 6.8764 4.89989C6.8764 5.44091 6.43782 5.87948 5.89681 5.87948H5.23632C4.69531 5.87948 4.25673 5.44091 4.25673 4.89989Z" />
<path fill-rule="evenodd" clip-rule="evenodd" d="M4.25675 8.82494C4.25675 8.28393 4.69532 7.84536 5.23634 7.84536H5.89683C6.43784 7.84536 6.87642 8.28393 6.87642 8.82494C6.87642 9.36596 6.43784 9.80453 5.89683 9.80453H5.23634C4.69532 9.80453 4.25675 9.36596 4.25675 8.82494Z" />
<path fill-rule="evenodd" clip-rule="evenodd" d="M4.25674 12.7137C4.25674 12.1727 4.69532 11.7342 5.23633 11.7342H5.89682C6.43783 11.7342 6.87641 12.1727 6.87641 12.7137C6.87641 13.2548 6.43783 13.6933 5.89682 13.6933H5.23633C4.69532 13.6933 4.25674 13.2548 4.25674 12.7137Z" />
<path fill-rule="evenodd" clip-rule="evenodd" d="M17.9894 11.884L19.4263 12.6012C19.688 12.7322 19.9391 12.8834 20.1774 13.0534C20.6177 13.3677 20.7199 13.9794 20.4056 14.4198C20.0913 14.8602 19.4796 14.9623 19.0392 14.6481C18.8841 14.5373 18.7205 14.4388 18.5501 14.3535L17.1137 13.6366C16.8644 13.5119 16.585 13.4571 16.3071 13.4788C16.0295 13.5006 15.763 13.5975 15.5363 13.7593L13.2999 15.3621C13.0595 15.5339 12.8565 15.7526 12.703 16.0049C12.5496 16.2573 12.4489 16.538 12.4069 16.8303L12.0687 19.2054C11.9925 19.7411 11.4965 20.1134 10.9608 20.0372C10.4252 19.9609 10.0529 19.4649 10.1291 18.9293L10.4675 16.5525C10.5471 15.9981 10.7381 15.4655 11.0291 14.987C11.32 14.5086 11.7047 14.0942 12.1602 13.7686L14.397 12.1654C14.9137 11.7964 15.5212 11.5752 16.1541 11.5256C16.7868 11.4761 17.4218 11.6003 17.9894 11.884ZM9.89304 19.2901C10.3522 19.5763 10.4924 20.1805 10.2062 20.6396L8.9253 22.6945L11.3387 22.4865C11.8778 22.44 12.3524 22.8393 12.3988 23.3783C12.4453 23.9174 12.046 24.392 11.507 24.4384L7.14191 24.8146C6.77226 24.8464 6.41634 24.6667 6.22252 24.3504C6.02869 24.034 6.03023 23.6353 6.22649 23.3204L8.54354 19.6032C8.82973 19.1441 9.43392 19.0039 9.89304 19.2901ZM18.3748 22.3094C18.8587 22.0674 19.4471 22.2636 19.689 22.7475L23.6074 30.5842C23.8493 31.0681 23.6532 31.6565 23.1693 31.8984C22.6854 32.1404 22.097 31.9442 21.855 31.4603L17.9367 23.6236C17.6947 23.1397 17.8909 22.5513 18.3748 22.3094Z" />
<path fill-rule="evenodd" clip-rule="evenodd" d="M21.1239 11.7738C21.7881 11.3771 22.582 11.2584 23.3332 11.4433C24.0845 11.6283 24.7324 12.102 25.1366 12.7618C25.5407 13.4215 25.6684 14.2139 25.4919 14.9672C25.3154 15.7205 24.849 16.3738 24.1939 16.7853L24.1846 16.7912L16.6483 21.4083C16.187 21.6909 15.5839 21.546 15.3012 21.0847C15.0186 20.6234 15.1635 20.0203 15.6248 19.7377L23.1556 15.1239C23.3719 14.9866 23.5259 14.7699 23.5844 14.5203C23.6432 14.2692 23.6007 14.0051 23.4659 13.7852C23.3312 13.5653 23.1152 13.4073 22.8648 13.3457C22.6159 13.2844 22.3529 13.3231 22.1323 13.4535L10.722 20.4445L11.7459 22.1149L13.0985 21.2856C13.5597 21.0028 14.1628 21.1475 14.4456 21.6087C14.7284 22.0699 14.5838 22.673 14.1225 22.9558L11.9348 24.2972C11.7133 24.433 11.4469 24.4753 11.1942 24.4147C10.9416 24.3541 10.7234 24.1956 10.5876 23.974L8.53959 20.633C8.40379 20.4115 8.36158 20.1451 8.42223 19.8924C8.48288 19.6397 8.64143 19.4215 8.86299 19.2858L21.1239 11.7738Z" />
<path fill-rule="evenodd" clip-rule="evenodd" d="M21.4924 16.1433C21.9453 15.8472 22.5523 15.9743 22.8484 16.4271L32.0409 30.4862C32.3369 30.939 32.2099 31.5461 31.7571 31.8421C31.3043 32.1382 30.6972 32.0111 30.4011 31.5583L21.2086 17.4993C20.9126 17.0465 21.0396 16.4394 21.4924 16.1433ZM13.2783 20.2632C13.7069 19.8345 14.2883 19.5937 14.8945 19.5937H19.4659C20.0069 19.5937 20.4455 20.0323 20.4455 20.5733C20.4455 21.1143 20.0069 21.5529 19.4659 21.5529H14.8945C14.8079 21.5529 14.7249 21.5873 14.6636 21.6485C14.6024 21.7098 14.568 21.7928 14.568 21.8794C14.568 21.966 14.6024 22.0491 14.6636 22.1103C14.7249 22.1716 14.8079 22.206 14.8945 22.206H20.772C21.3131 22.206 21.7516 22.6445 21.7516 23.1855C21.7516 23.7266 21.3131 24.1651 20.772 24.1651H14.8945C14.2883 24.1651 13.7069 23.9243 13.2783 23.4957C12.8496 23.067 12.6088 22.4856 12.6088 21.8794C12.6088 21.2732 12.8496 20.6918 13.2783 20.2632Z" />
</svg>
