<svg width="32" height="32" viewBox="0 0 32 32" xmlns="http://www.w3.org/2000/svg">
<path d="M26.35 8.99105L19.167 0.551055C18.924 0.267055 18.567 0.0860547 18.168 0.0810547H6.66698C5.93098 0.0810547 5.33398 0.678055 5.33398 1.41405V28.0811C5.33398 28.8171 5.93098 29.4141 6.66698 29.4141H13.334C14.07 29.4141 14.667 28.8171 14.667 28.0811C14.667 27.3451 14.07 26.7481 13.334 26.7481H8.00098V2.74805H15.834V7.45805C15.834 10.6281 17.597 12.4581 20.671 12.4581H24.001V14.0811C24.001 14.8171 24.598 15.4141 25.334 15.4141C26.07 15.4141 26.667 14.8171 26.667 14.0811V9.85405C26.667 9.52405 26.547 9.22105 26.349 8.98805L26.351 8.99006L26.35 8.99105ZM18.507 7.45805V3.88505L23.507 9.77805H20.667C18.864 9.77805 18.507 8.92805 18.507 7.45805Z" />
<path fill-rule="evenodd" clip-rule="evenodd" d="M22.6045 18.1809C23.9465 16.7157 26.071 16.2513 28.5355 17.014C28.9808 17.1518 29.2897 17.5569 29.3048 18.0227C29.3198 18.4886 29.0378 18.9127 28.6024 19.079C27.8881 19.3518 27.3747 19.8534 27.146 20.3216C26.9478 20.7276 26.9954 20.9905 27.1264 21.1661C27.2671 21.2611 27.3673 21.2798 27.433 21.2816C27.5178 21.284 27.6516 21.2602 27.8442 21.142C28.2597 20.887 28.7664 20.3016 29.239 19.38C29.4416 18.9848 29.8634 18.7515 30.3059 18.7899C30.7484 18.8282 31.1237 19.1306 31.2553 19.5549C31.9777 21.8838 31.6438 23.9805 30.2148 25.3385C28.948 26.5424 27.0632 26.9277 25.022 26.6137L20.4992 31.1365C20.4822 31.1535 20.4646 31.17 20.4465 31.1858C19.8885 31.6746 19.2102 31.7783 18.621 31.6673C18.0568 31.561 17.5558 31.2615 17.1805 30.899C16.806 30.5371 16.4819 30.0399 16.3679 29.4592C16.2468 28.8424 16.3755 28.1627 16.8704 27.6028C16.8867 27.5844 16.9036 27.5665 16.921 27.5492L21.3682 23.1541C21.0491 21.2917 21.4361 19.4566 22.6045 18.1809ZM24.2163 19.6572C23.5428 20.3926 23.2201 21.6794 23.62 23.2403C23.7164 23.6166 23.6058 24.0158 23.3295 24.2889L18.5148 29.0472C18.5285 29.102 18.5793 29.2111 18.6992 29.3269C18.8251 29.4486 18.9534 29.5056 19.0253 29.5192L23.8827 24.6618C24.1456 24.399 24.524 24.2877 24.8873 24.3666C26.7431 24.7693 28.0304 24.3991 28.7091 23.7541C28.9593 23.5162 29.1702 23.1985 29.3005 22.791C29.1985 22.8679 29.0942 22.9394 28.9875 23.0049C28.5188 23.2926 27.971 23.4834 27.3713 23.4665C26.7631 23.4494 26.1983 23.221 25.7036 22.8318C25.6613 22.7985 25.6216 22.7622 25.5847 22.7232C24.6283 21.7104 24.6802 20.39 25.1819 19.3625C25.2517 19.2195 25.3309 19.0795 25.4188 18.9433C24.8976 19.083 24.5021 19.3452 24.2163 19.6572Z" />
</svg>
