<svg width="32" height="32" viewBox="0 0 32 32" fill="none" xmlns="http://www.w3.org/2000/svg">
<g clip-path="url(#clip0_2530_43011)">
<path fill-rule="evenodd" clip-rule="evenodd" d="M30.8355 16.134C30.8355 16.805 30.408 18.4307 28.5855 18.7834V19.4151C28.5855 19.8291 28.2496 20.1649 27.8356 20.1649C27.4216 20.1649 27.0858 19.8291 27.0858 19.4151V18.8002C24.8639 18.4627 24.8358 16.6459 24.8358 16.625H26.336V16.6025C26.336 16.728 26.4581 17.3524 27.8362 17.3524C29.2143 17.3524 29.3364 16.4147 29.3364 16.1244C29.3364 15.8342 29.1997 14.915 27.8362 14.915C25.3741 14.915 24.8364 12.9519 24.8364 12.1965C24.8364 11.5254 25.2639 9.89976 27.0864 9.54707V8.91538C27.0864 8.50137 27.4222 8.16556 27.8362 8.16556C28.2502 8.16556 28.586 8.50137 28.586 8.91538V9.53019C30.8079 9.86769 30.836 11.6846 30.836 11.7054H29.3358V11.7279C29.3358 11.6025 29.2138 10.9781 27.8356 10.9781C26.4575 10.9781 26.3354 11.9158 26.3354 12.206C26.3354 12.4963 26.4721 13.4154 27.8356 13.4154C30.2977 13.4154 30.8355 15.3785 30.8355 16.134ZM25.2108 6.66555C25.2108 4.18041 23.1959 2.16553 20.7108 2.16553C18.2257 2.16553 16.2108 4.18041 16.2108 6.66555C16.2108 9.15069 18.2257 11.1656 20.7108 11.1656C23.1959 11.1656 25.2108 9.15069 25.2108 6.66555ZM23.7112 6.66536C23.7112 8.3225 22.3679 9.66519 20.7113 9.66519C19.0548 9.66519 17.7115 8.32194 17.7115 6.66536C17.7115 5.00823 19.0548 3.66554 20.7113 3.66554C22.3685 3.66554 23.7112 5.00879 23.7112 6.66536ZM22.5862 20.1654H16.1945C15.7237 20.1654 15.304 19.9421 15.038 19.5951L15.0352 19.5917C14.8321 19.3279 14.71 18.9926 14.71 18.6287C14.71 18.5089 14.7235 18.3919 14.7483 18.2799L14.746 18.2906C14.7646 18.0926 14.7961 17.9126 14.8411 17.7382L14.836 17.7619C14.8923 17.5369 15.7867 14.0117 16.5084 13.016C17.5867 11.5406 19.3811 11.5406 19.6134 11.5406H21.3009C21.5911 11.5434 21.8735 11.5653 22.1497 11.6064L22.1165 11.6025C22.4821 11.657 22.7589 11.9686 22.7589 12.345C22.7589 12.7595 22.4231 13.0953 22.0085 13.0953C21.9703 13.0953 21.9331 13.0925 21.8966 13.0869L21.9005 13.0875C21.7267 13.0599 21.5242 13.043 21.3183 13.0408H19.5701C19.5701 13.0408 18.3702 13.0166 17.7194 13.9053C17.3819 14.3666 16.6861 16.517 16.2907 18.1337V18.1562C16.2676 18.2462 16.2502 18.3525 16.2423 18.461L16.2417 18.4672C16.2378 18.519 16.2294 18.5668 16.2158 18.6129L16.217 18.6079C16.2113 18.6197 16.208 18.6337 16.208 18.6489C16.208 18.6551 16.2085 18.6607 16.2097 18.6669L22.5845 18.6664C22.9985 18.6664 23.3343 19.0022 23.3343 19.4162C23.3343 19.8302 23.0002 20.1654 22.5862 20.1654Z" fill="#131C26"/>
<path fill-rule="evenodd" clip-rule="evenodd" d="M15.7108 6.66555C15.7108 3.90427 17.9495 1.66553 20.7108 1.66553C23.4721 1.66553 25.7108 3.90427 25.7108 6.66555C25.7108 8.73797 24.4498 10.5161 22.6532 11.2742C23.0165 11.4931 23.2589 11.8899 23.2589 12.345C23.2589 13.0357 22.6992 13.5953 22.0085 13.5953C21.9455 13.5953 21.8829 13.5907 21.8205 13.5811C21.674 13.5579 21.4976 13.5429 21.3155 13.5408H19.56L19.533 13.5412C19.5083 13.542 19.4694 13.5439 19.4196 13.5487C19.3191 13.5582 19.1784 13.5786 19.0216 13.6218C18.7029 13.7096 18.3581 13.8795 18.1229 14.2006C18.0791 14.2605 17.9922 14.4281 17.8724 14.7219C17.7591 15.0001 17.6319 15.3516 17.5011 15.7442C17.2491 16.501 16.99 17.3914 16.7976 18.1664H22.5845C23.2747 18.1664 23.8343 18.726 23.8343 19.4162C23.8343 20.1063 23.2747 20.666 22.5845 20.666L16.1945 20.6654C15.5656 20.6654 15.0049 20.3683 14.6478 19.9079L14.6386 19.8969C14.3699 19.5477 14.21 19.1055 14.21 18.6287C14.21 18.4867 14.2245 18.3481 14.251 18.215C14.2723 18.0029 14.3073 17.8058 14.357 17.6133C14.4063 17.4178 14.6384 16.518 14.9451 15.5297C15.1074 15.0068 15.2927 14.453 15.4851 13.9631C15.673 13.4849 15.8832 13.0266 16.1035 12.7226C16.8132 11.7516 17.7869 11.34 18.5317 11.167C16.8621 10.3572 15.7108 8.64571 15.7108 6.66555ZM21.2984 12.0406H19.6134C19.3857 12.0406 17.8327 12.0523 16.9126 13.3102C16.7723 13.5042 16.6002 13.8596 16.4159 14.3288C16.2359 14.7869 16.0587 15.3152 15.9002 15.8261C15.5833 16.8474 15.3482 17.7749 15.3211 17.8831C15.2857 18.0246 15.2593 18.1721 15.2438 18.3373L14.8587 18.3012L15.2376 18.3829L15.2365 18.3879L15.2353 18.3936C15.2189 18.4696 15.21 18.5484 15.21 18.6287C15.21 18.8764 15.2918 19.1023 15.4261 19.2798L15.4351 19.2906C15.6105 19.5194 15.8845 19.6654 16.1933 19.6654H22.5862C22.7232 19.6645 22.8343 19.5534 22.8343 19.4162C22.8343 19.2783 22.7224 19.1664 22.5845 19.1664H16.2097V18.712L15.7177 18.7564C15.7119 18.7241 15.708 18.6884 15.708 18.6489C15.708 18.6339 15.7085 18.6189 15.7097 18.6039V18.1664H15.7768C15.7811 18.1432 15.7857 18.1203 15.7907 18.0979V18.0734L15.805 18.0149C16.0061 17.1928 16.2827 16.238 16.5524 15.4282C16.6872 15.0235 16.822 14.6499 16.9464 14.3446C17.0644 14.055 17.191 13.7808 17.3159 13.6101C17.7315 13.0425 18.3121 12.78 18.756 12.6577C18.9805 12.5959 19.1804 12.5668 19.3253 12.5531C19.3981 12.5462 19.458 12.5431 19.5015 12.5417C19.5232 12.541 19.541 12.5408 19.5542 12.5407L19.5707 12.5407L19.573 12.5408H21.3238C21.5511 12.5433 21.7774 12.5618 21.977 12.5933L21.6461 13.0567L21.8298 13.5824L21.8258 13.5819M21.977 12.5933C21.9865 12.5946 21.9969 12.5953 22.0085 12.5953C22.1469 12.5953 22.2589 12.4834 22.2589 12.345C22.2589 12.2213 22.1684 12.1157 22.0427 12.097C21.8013 12.0626 21.5539 12.0432 21.2984 12.0406M16.3997 18.6949L16.6684 18.8228C16.6793 18.8 16.6879 18.7766 16.6942 18.753L16.4504 18.6903L16.3997 18.6949ZM16.3573 18.6664H16.3398L16.3193 18.6566L16.3573 18.6664ZM20.7108 2.66553C18.5018 2.66553 16.7108 4.45656 16.7108 6.66555C16.7108 8.87455 18.5018 10.6656 20.7108 10.6656C22.9198 10.6656 24.7108 8.87455 24.7108 6.66555C24.7108 4.45656 22.9198 2.66553 20.7108 2.66553ZM20.7113 4.16554C19.3308 4.16554 18.2115 5.28444 18.2115 6.66536C18.2115 8.04579 19.3309 9.16519 20.7113 9.16519C22.0918 9.16519 23.2112 8.04629 23.2112 6.66536C23.2112 5.28488 22.0923 4.16554 20.7113 4.16554ZM17.2115 6.66536C17.2115 4.73203 18.7787 3.16553 20.7113 3.16553C22.6447 3.16553 24.2112 4.73271 24.2112 6.66536C24.2112 8.5987 22.644 10.1652 20.7113 10.1652C18.7786 10.1652 17.2115 8.59808 17.2115 6.66536ZM27.8362 8.66556C27.6983 8.66556 27.5864 8.77752 27.5864 8.91538V9.95959L27.1814 10.038C26.4207 10.1852 25.971 10.5878 25.7017 11.0178C25.422 11.4643 25.3364 11.9445 25.3364 12.1965C25.3364 12.4847 25.4461 13.0534 25.8119 13.5376C26.1582 13.9959 26.7595 14.415 27.8362 14.415C28.6421 14.415 29.1772 14.6942 29.494 15.1061C29.7911 15.4925 29.8364 15.9194 29.8364 16.1244C29.8364 16.3227 29.7974 16.7543 29.5033 17.147C29.1886 17.5671 28.6511 17.8524 27.8362 17.8524C27.0788 17.8524 26.5712 17.6814 26.2461 17.406C26.1398 17.3159 26.0594 17.22 25.9992 17.125H25.4554C25.4837 17.1958 25.5187 17.2703 25.5619 17.3461C25.7724 17.7149 26.204 18.1606 27.1609 18.3059L27.5858 18.3704V19.4151C27.5858 19.5529 27.6978 19.6649 27.8356 19.6649C27.9735 19.6649 28.0855 19.5529 28.0855 19.4151V18.3708L28.4905 18.2925C29.2511 18.1453 29.7008 17.7427 29.9701 17.3127C30.2498 16.8661 30.3355 16.3859 30.3355 16.134C30.3355 15.8458 30.2258 15.277 29.8599 14.7928C29.5136 14.3346 28.9123 13.9154 27.8356 13.9154C27.0298 13.9154 26.4946 13.6362 26.1779 13.2244C25.8807 12.838 25.8354 12.411 25.8354 12.206C25.8354 12.0077 25.8744 11.5761 26.1686 11.1834C26.4832 10.7634 27.0207 10.4781 27.8356 10.4781C28.593 10.4781 29.1007 10.6491 29.4257 10.9244C29.532 11.0145 29.6125 11.1104 29.6727 11.2054H30.2164C30.1881 11.1346 30.1532 11.0601 30.11 10.9844C29.8995 10.6155 29.4678 10.1699 28.5109 10.0245L28.086 9.95998V8.91538C28.086 8.77752 27.9741 8.66556 27.8362 8.66556ZM29.3358 11.7279H28.8358C28.8358 11.7511 28.8382 11.7609 28.8382 11.7609C28.8382 11.7609 28.8288 11.7293 28.7794 11.6875C28.6988 11.6193 28.4564 11.4781 27.8356 11.4781C27.2725 11.4781 27.0598 11.6616 26.9689 11.783C26.8575 11.9317 26.8354 12.1141 26.8354 12.206C26.8354 12.2913 26.8585 12.469 26.9706 12.6147C27.0631 12.735 27.278 12.9154 27.8356 12.9154C29.221 12.9154 30.1196 13.4778 30.6578 14.19C31.1763 14.8762 31.3355 15.6667 31.3355 16.134C31.3355 16.5531 31.2073 17.2213 30.8176 17.8435C30.471 18.3969 29.9178 18.9112 29.0855 19.1723V19.4151C29.0855 20.1052 28.5258 20.6649 27.8356 20.6649C27.1455 20.6649 26.5858 20.1052 26.5858 19.4151V19.2088C25.5865 18.9532 25.01 18.3965 24.6933 17.8417C24.3492 17.2386 24.3358 16.6821 24.3358 16.625V16.125H26.336V16.6025H26.836C26.836 16.5794 26.8336 16.5695 26.8336 16.5695C26.8336 16.5695 26.8431 16.6011 26.8925 16.643C26.973 16.7112 27.2155 16.8524 27.8362 16.8524C28.3994 16.8524 28.612 16.6688 28.7029 16.5475C28.8143 16.3988 28.8364 16.2163 28.8364 16.1244C28.8364 16.0392 28.8133 15.8614 28.7013 15.7157C28.6088 15.5954 28.3938 15.415 27.8362 15.415C26.4508 15.415 25.5522 14.8526 25.0141 14.1405C24.4955 13.4542 24.3364 12.6637 24.3364 12.1965C24.3364 11.7773 24.4645 11.1092 24.8542 10.487C25.2008 9.93353 25.7541 9.41926 26.5864 9.1581V8.91538C26.5864 8.22523 27.1461 7.66556 27.8362 7.66556C28.5263 7.66556 29.086 8.22523 29.086 8.91538V9.12166C30.0853 9.37724 30.6619 9.93391 30.9785 10.4887C31.3227 11.0918 31.336 11.6483 31.336 11.7054V12.2054H29.3358V11.7279Z" fill="#131C26"/>
<path fill-rule="evenodd" clip-rule="evenodd" d="M10.6661 4.33253H2.66603C1.56102 4.33253 0.666016 5.22754 0.666016 6.33254V23.6656C0.666016 24.7706 1.56102 25.6656 2.66603 25.6656H12.6661V28.3326H11.9991C11.2631 28.3326 10.6661 28.9297 10.6661 29.6657C10.6661 30.4017 11.2631 30.9987 11.9991 30.9987H21.3321C22.0681 30.9987 22.6651 30.4017 22.6651 29.6657C22.6651 28.9297 22.0681 28.3326 21.3321 28.3326H20.6651V25.6656H30.6652C31.7702 25.6656 32.6652 24.7706 32.6652 23.6656V22.1866H29.9992V22.9986H3.33203V6.99855H10.6661V4.33253ZM15.3321 28.3326H17.9991V25.6656H15.3321V28.3326Z" fill="#131C26"/>
<path fill-rule="evenodd" clip-rule="evenodd" d="M6.39847 5.66254C6.39847 4.928 6.99393 4.33253 7.72847 4.33253H12.7285C13.463 4.33253 14.0585 4.928 14.0585 5.66254C14.0585 6.39708 13.463 6.99255 12.7285 6.99255H7.72847C6.99393 6.99255 6.39847 6.39708 6.39847 5.66254Z" fill="#131C26"/>
<path fill-rule="evenodd" clip-rule="evenodd" d="M31.336 24.326C30.6015 24.326 30.006 23.7306 30.006 22.996V21.996C30.006 21.2615 30.6015 20.666 31.336 20.666C32.0706 20.666 32.666 21.2615 32.666 21.996V22.996C32.666 23.7306 32.0706 24.326 31.336 24.326Z" fill="#131C26"/>
</g>
</svg>
