<svg width="32" height="32" viewBox="0 0 32 32" xmlns="http://www.w3.org/2000/svg">
<path fill-rule="evenodd" clip-rule="evenodd" d="M2.20215 2.74805H30.2011C31.3062 2.74805 32.2011 3.64305 32.2011 4.74805V22.081C32.2011 22.0824 32.2011 22.0837 32.2011 22.085V10.322V7.71289H29.5358V5.41341H2.86882V21.4134H14.8576V29.4138H20.8921C20.8842 29.414 20.8762 29.414 20.8681 29.414H11.5351C10.7991 29.414 10.2021 28.817 10.2021 28.081C10.2021 27.345 10.7991 26.748 11.5351 26.748H12.2021V24.081H2.20215C1.09715 24.081 0.202148 23.186 0.202148 22.081V4.74805C0.202148 3.64305 1.09715 2.74805 2.20215 2.74805Z" />
<path fill-rule="evenodd" clip-rule="evenodd" d="M30.8691 5.48633C31.6053 5.48633 32.2021 6.08314 32.2021 6.81934L32.2021 9.47917C32.2021 10.2154 31.6053 10.8122 30.8691 10.8122C30.1329 10.8122 29.5361 10.2154 29.5361 9.47917L29.5361 6.81934C29.5361 6.08314 30.1329 5.48633 30.8691 5.48633Z" />
<path fill-rule="evenodd" clip-rule="evenodd" d="M23.6924 14.8782C25.0344 13.4129 27.1589 12.9486 29.6234 13.7113C30.0687 13.8491 30.3776 14.2541 30.3927 14.72C30.4077 15.1859 30.1257 15.61 29.6902 15.7763C28.976 16.0491 28.4626 16.5507 28.2339 17.0189C28.0357 17.4249 28.0833 17.6878 28.2143 17.8634C28.355 17.9583 28.4551 17.977 28.5209 17.9789C28.6057 17.9813 28.7395 17.9575 28.9321 17.8392C29.3476 17.5843 29.8543 16.9989 30.3269 16.0773C30.5295 15.682 30.9513 15.4487 31.3938 15.4871C31.8363 15.5255 32.2116 15.8279 32.3432 16.2521C33.0656 18.5811 32.7317 20.6777 31.3027 22.0358C30.0359 23.2396 28.1511 23.625 26.1099 23.311L21.5871 27.8338C21.5701 27.8508 21.5525 27.8672 21.5344 27.8831C20.9764 28.3719 20.2981 28.4756 19.7089 28.3646C19.1447 28.2583 18.6437 27.9588 18.2684 27.5962C17.8939 27.2344 17.5698 26.7372 17.4558 26.1565C17.3347 25.5396 17.4634 24.8599 17.9583 24.3C17.9746 24.2816 17.9914 24.2638 18.0089 24.2465L22.4561 19.8514C22.137 17.9889 22.524 16.1538 23.6924 14.8782ZM25.3042 16.3545C24.6307 17.0899 24.3079 18.3767 24.7079 19.9376C24.8043 20.3139 24.6937 20.7131 24.4174 20.9862L19.6027 25.7445C19.6164 25.7992 19.6672 25.9084 19.7871 26.0242C19.913 26.1459 20.0413 26.2029 20.1132 26.2165L24.9706 21.3591C25.2335 21.0962 25.6119 20.985 25.9752 21.0638C27.831 21.4666 29.1182 21.0963 29.7969 20.4513C30.0472 20.2135 30.2581 19.8958 30.3883 19.4883C30.2864 19.5652 30.1821 19.6367 30.0754 19.7022C29.6067 19.9899 29.0589 20.1807 28.4592 20.1638C27.851 20.1466 27.2862 19.9182 26.7915 19.529C26.7492 19.4958 26.7095 19.4595 26.6726 19.4205C25.7162 18.4077 25.7681 17.0873 26.2698 16.0597C26.3396 15.9168 26.4188 15.7768 26.5067 15.6405C25.9854 15.7803 25.59 16.0425 25.3042 16.3545Z" />
</svg>
