<svg width="32" height="32" viewBox="0 0 32 32" fill="none" xmlns="http://www.w3.org/2000/svg">
<g clip-path="url(#clip0_2530_42994)">
<path d="M6.50474 5.26029C6.50474 5.81257 6.04346 6.26029 5.47444 6.26029C4.90542 6.26029 4.44414 5.81257 4.44414 5.26029C4.44414 4.708 4.90542 4.26029 5.47444 4.26029C6.04346 4.26029 6.50474 4.708 6.50474 5.26029ZM8.56535 4.26029C7.99633 4.26029 7.53505 4.708 7.53505 5.26029C7.53505 5.81257 7.99633 6.26029 8.56535 6.26029C9.13436 6.26029 9.59565 5.81257 9.59565 5.26029C9.59565 4.708 9.13436 4.26029 8.56535 4.26029ZM11.6563 4.26029C11.0872 4.26029 10.626 4.708 10.626 5.26029C10.626 5.81257 11.0872 6.26029 11.6563 6.26029C12.2253 6.26029 12.6866 5.81257 12.6866 5.26029C12.6866 4.708 12.2253 4.26029 11.6563 4.26029ZM29.5145 2.59329V13.9263C29.5145 14.6625 28.8996 15.2593 28.1411 15.2593C27.3826 15.2593 26.7677 14.6625 26.7677 13.9263V9.92629H3.41383V25.9263H8.17383C8.93234 25.9263 9.54723 26.5231 9.54723 27.2593C9.54723 27.9955 8.93234 28.5923 8.17383 28.5923H2.72662C1.58858 28.5923 0.666016 27.6969 0.666016 26.5923V2.59229C0.666016 1.48772 1.58858 0.592285 2.72662 0.592285H27.4539C28.592 0.592285 29.5145 1.48772 29.5145 2.59229V2.59329ZM26.7667 7.26029V3.26029H3.4128V7.26029H26.7667Z" fill="#131C26"/>
<path fill-rule="evenodd" clip-rule="evenodd" d="M29.7284 28.5621C29.7284 29.2332 29.3009 30.8588 27.4784 31.2115V31.8432C27.4784 32.2572 27.1426 32.593 26.7286 32.593C26.3146 32.593 25.9788 32.2572 25.9788 31.8432V31.2284C23.7569 30.8909 23.7288 29.074 23.7288 29.0532H25.2289V29.0307C25.2289 29.1561 25.351 29.7805 26.7291 29.7805C28.1073 29.7805 28.2293 28.8428 28.2293 28.5526C28.2293 28.2623 28.0926 27.3432 26.7291 27.3432C24.2671 27.3432 23.7293 25.3801 23.7293 24.6246C23.7293 23.9536 24.1568 22.3279 25.9793 21.9753V21.3436C25.9793 20.9296 26.3151 20.5938 26.7291 20.5938C27.1431 20.5938 27.4789 20.9296 27.4789 21.3436V21.9584C29.7008 22.2959 29.7289 24.1128 29.7289 24.1336H28.2288V24.1561C28.2288 24.0306 28.1067 23.4062 26.7286 23.4062C25.3504 23.4062 25.2284 24.3439 25.2284 24.6342C25.2284 24.9244 25.3651 25.8436 26.7286 25.8436C29.1906 25.8436 29.7284 27.8067 29.7284 28.5621ZM24.1038 19.0938C24.1038 16.6086 22.0889 14.5938 19.6038 14.5938C17.1187 14.5938 15.1038 16.6086 15.1038 19.0938C15.1038 21.5789 17.1187 23.5938 19.6038 23.5938C22.0889 23.5938 24.1038 21.5789 24.1038 19.0938ZM22.6041 19.0936C22.6041 20.7507 21.2609 22.0934 19.6043 22.0934C17.9477 22.0934 16.6045 20.7501 16.6045 19.0936C16.6045 17.4364 17.9477 16.0938 19.6043 16.0938C21.2614 16.0938 22.6041 17.437 22.6041 19.0936ZM21.4792 32.5936H15.0875C14.6167 32.5936 14.197 32.3703 13.931 32.0232L13.9282 32.0198C13.7251 31.756 13.603 31.4208 13.603 31.0568C13.603 30.937 13.6165 30.82 13.6413 30.7081L13.639 30.7188C13.6576 30.5208 13.6891 30.3408 13.7341 30.1664L13.729 30.19C13.7853 29.965 14.6797 26.4398 15.4013 25.4442C16.4797 23.9688 18.274 23.9688 18.5063 23.9688H20.1938C20.4841 23.9716 20.7665 23.9935 21.0427 24.0346L21.0095 24.0306C21.3751 24.0852 21.6518 24.3968 21.6518 24.7731C21.6518 25.1877 21.316 25.5235 20.9015 25.5235C20.8632 25.5235 20.8261 25.5207 20.7895 25.5151L20.7935 25.5156C20.6197 25.4881 20.4172 25.4712 20.2113 25.4689H18.463C18.463 25.4689 17.2632 25.4447 16.6124 26.3335C16.2749 26.7948 15.5791 28.9452 15.1837 30.5618V30.5843C15.1606 30.6743 15.1432 30.7806 15.1353 30.8892L15.1347 30.8954C15.1308 30.9471 15.1223 30.9949 15.1088 31.0411L15.11 31.036C15.1043 31.0478 15.101 31.0619 15.101 31.0771C15.101 31.0833 15.1015 31.0889 15.1027 31.0951L21.4775 31.0945C21.8915 31.0945 22.2273 31.4303 22.2273 31.8443C22.2273 32.2583 21.8932 32.5936 21.4792 32.5936Z" fill="#131C26"/>
<path fill-rule="evenodd" clip-rule="evenodd" d="M14.6038 19.0938C14.6038 16.3325 16.8425 14.0938 19.6038 14.0938C22.365 14.0938 24.6038 16.3325 24.6038 19.0938C24.6038 21.1662 23.3427 22.9442 21.5461 23.7024C21.9095 23.9213 22.1518 24.3181 22.1518 24.7731C22.1518 25.4638 21.5922 26.0235 20.9015 26.0235C20.8384 26.0235 20.7759 26.0188 20.7135 26.0092C20.5669 25.9861 20.3905 25.9711 20.2084 25.9689H18.4529L18.426 25.9694C18.4013 25.9702 18.3624 25.9721 18.3125 25.9768C18.2121 25.9863 18.0713 26.0068 17.9146 26.05C17.5959 26.1378 17.2511 26.3077 17.0159 26.6288C16.9721 26.6886 16.8852 26.8563 16.7654 27.1501C16.6521 27.4283 16.5249 27.7798 16.3941 28.1724C16.1421 28.9291 15.883 29.8195 15.6906 30.5945H21.4775C22.1676 30.5945 22.7273 31.1542 22.7273 31.8443C22.7273 32.5345 22.1676 33.0941 21.4775 33.0941L15.0875 33.0936C14.4586 33.0936 13.8979 32.7964 13.5408 32.336L13.5316 32.325C13.2629 31.9759 13.103 31.5337 13.103 31.0568C13.103 30.9148 13.1175 30.7763 13.144 30.6432C13.1653 30.4311 13.2003 30.234 13.25 30.0414C13.2993 29.846 13.5314 28.9461 13.8381 27.9579C14.0004 27.4349 14.1857 26.8811 14.3781 26.3913C14.566 25.913 14.7761 25.4547 14.9965 25.1507C15.7062 24.1797 16.6799 23.7682 17.4247 23.5952C15.7551 22.7853 14.6038 21.0739 14.6038 19.0938ZM20.1914 24.4688H18.5063C18.2787 24.4688 16.7257 24.4804 15.8056 25.7384C15.6652 25.9324 15.4932 26.2878 15.3089 26.7569C15.1289 27.2151 14.9517 27.7433 14.7932 28.2543C14.4763 29.2755 14.2412 30.203 14.2141 30.3113C14.1787 30.4527 14.1523 30.6003 14.1368 30.7654L13.7517 30.7293L14.1306 30.8111L14.1295 30.816L14.1283 30.8218C14.1119 30.8977 14.103 30.9766 14.103 31.0568C14.103 31.3046 14.1848 31.5305 14.3191 31.7079L14.3281 31.7187C14.5035 31.9475 14.7775 32.0936 15.0863 32.0936H21.4792C21.6162 32.0926 21.7273 31.9816 21.7273 31.8443C21.7273 31.7065 21.6153 31.5945 21.4775 31.5945H15.1027V31.1401L14.6107 31.1845C14.6048 31.1522 14.601 31.1165 14.601 31.0771C14.601 31.062 14.6015 31.047 14.6027 31.032V30.5945H14.6698C14.6741 30.5713 14.6787 30.5485 14.6837 30.526V30.5015L14.698 30.443C14.899 29.621 15.1757 28.6661 15.4454 27.8564C15.5802 27.4516 15.715 27.078 15.8394 26.7727C15.9574 26.4831 16.0839 26.209 16.2089 26.0382C16.6245 25.4707 17.2051 25.2082 17.649 25.0859C17.8735 25.024 18.0734 24.995 18.2182 24.9813C18.291 24.9744 18.351 24.9713 18.3944 24.9699C18.4162 24.9692 18.4339 24.9689 18.4472 24.9689L18.4636 24.9689L18.466 24.9689H20.2167C20.4441 24.9714 20.6704 24.99 20.87 25.0215L20.5391 25.4849L20.7227 26.0106L20.7188 26.01M20.87 25.0215C20.8795 25.0228 20.8898 25.0235 20.9015 25.0235C21.0399 25.0235 21.1518 24.9115 21.1518 24.7731C21.1518 24.6495 21.0614 24.5439 20.9357 24.5251C20.6943 24.4908 20.4469 24.4713 20.1914 24.4688M15.2927 31.123L15.5614 31.251C15.5723 31.2281 15.5808 31.2047 15.5872 31.1811L15.3434 31.1184L15.2927 31.123ZM15.2503 31.0945H15.2328L15.2123 31.0847L15.2503 31.0945ZM19.6038 15.0938C17.3948 15.0938 15.6038 16.8848 15.6038 19.0938C15.6038 21.3027 17.3948 23.0938 19.6038 23.0938C21.8128 23.0938 23.6038 21.3027 23.6038 19.0938C23.6038 16.8848 21.8128 15.0938 19.6038 15.0938ZM19.6043 16.5938C18.2238 16.5938 17.1045 17.7126 17.1045 19.0936C17.1045 20.474 18.2239 21.5934 19.6043 21.5934C20.9848 21.5934 22.1041 20.4745 22.1041 19.0936C22.1041 17.7131 20.9852 16.5938 19.6043 16.5938ZM16.1045 19.0936C16.1045 17.1602 17.6717 15.5938 19.6043 15.5938C21.5376 15.5938 23.1041 17.1609 23.1041 19.0936C23.1041 21.0269 21.5369 22.5934 19.6043 22.5934C17.6716 22.5934 16.1045 21.0263 16.1045 19.0936ZM26.7291 21.0938C26.5913 21.0938 26.4793 21.2057 26.4793 21.3436V22.3878L26.0743 22.4661C25.3137 22.6133 24.864 23.0159 24.5946 23.4459C24.315 23.8925 24.2293 24.3727 24.2293 24.6246C24.2293 24.9128 24.339 25.4816 24.7049 25.9658C25.0511 26.424 25.6525 26.8432 26.7291 26.8432C27.535 26.8432 28.0702 27.1224 28.3869 27.5342C28.684 27.9206 28.7293 28.3475 28.7293 28.5526C28.7293 28.7509 28.6904 29.1824 28.3962 29.5751C28.0815 29.9952 27.5441 30.2805 26.7291 30.2805C25.9717 30.2805 25.4641 30.1095 25.1391 29.8342C25.0327 29.7441 24.9523 29.6482 24.8921 29.5532H24.3484C24.3766 29.6239 24.4116 29.6985 24.4548 29.7742C24.6653 30.1431 25.0969 30.5887 26.0538 30.734L26.4788 30.7986V31.8432C26.4788 31.981 26.5907 32.093 26.7286 32.093C26.8664 32.093 26.9784 31.981 26.9784 31.8432V30.799L27.3834 30.7206C28.144 30.5734 28.5937 30.1708 28.8631 29.7408C29.1427 29.2943 29.2284 28.8141 29.2284 28.5621C29.2284 28.2739 29.1187 27.7052 28.7528 27.221C28.4066 26.7627 27.8053 26.3436 26.7286 26.3436C25.9227 26.3436 25.3876 26.0644 25.0708 25.6525C24.7737 25.2661 24.7284 24.8392 24.7284 24.6342C24.7284 24.4359 24.7673 24.0043 25.0615 23.6116C25.3762 23.1916 25.9136 22.9062 26.7286 22.9062C27.486 22.9062 27.9936 23.0772 28.3186 23.3526C28.425 23.4427 28.5054 23.5386 28.5656 23.6336H29.1093C29.0811 23.5628 29.0461 23.4883 29.0029 23.4125C28.7924 23.0437 28.3608 22.5981 27.4039 22.4527L26.9789 22.3882V21.3436C26.9789 21.2057 26.867 21.0938 26.7291 21.0938ZM28.2288 24.1561H27.7288C27.7288 24.1792 27.7312 24.1891 27.7312 24.1891C27.7312 24.1891 27.7217 24.1575 27.6723 24.1156C27.5918 24.0474 27.3493 23.9062 26.7286 23.9062C26.1654 23.9062 25.9528 24.0898 25.8619 24.2111C25.7505 24.3598 25.7284 24.5423 25.7284 24.6342C25.7284 24.7194 25.7514 24.8972 25.8635 25.0429C25.956 25.1632 26.171 25.3436 26.7286 25.3436C28.114 25.3436 29.0125 25.906 29.5507 26.6181C30.0692 27.3044 30.2284 28.0949 30.2284 28.5621C30.2284 28.9813 30.1003 29.6494 29.7106 30.2716C29.3639 30.825 28.8107 31.3393 27.9784 31.6005V31.8432C27.9784 32.5333 27.4187 33.093 26.7286 33.093C26.0384 33.093 25.4788 32.5333 25.4788 31.8432V31.6369C24.4795 31.3813 23.9029 30.8247 23.5863 30.2698C23.2421 29.6668 23.2288 29.1103 23.2288 29.0532V28.5532H25.2289V29.0307H25.7289C25.7289 29.0075 25.7265 28.9977 25.7265 28.9977C25.7265 28.9977 25.736 29.0293 25.7854 29.0711C25.8659 29.1393 26.1084 29.2805 26.7291 29.2805C27.2923 29.2805 27.5049 29.097 27.5958 28.9756C27.7072 28.8269 27.7293 28.6445 27.7293 28.5526C27.7293 28.4673 27.7063 28.2896 27.5942 28.1438C27.5017 28.0236 27.2868 27.8432 26.7291 27.8432C25.3438 27.8432 24.4452 27.2808 23.907 26.5686C23.3885 25.8824 23.2293 25.0918 23.2293 24.6246C23.2293 24.2055 23.3574 23.5374 23.7471 22.9151C24.0938 22.3617 24.647 21.8474 25.4793 21.5863V21.3436C25.4793 20.6534 26.039 20.0938 26.7291 20.0938C27.4193 20.0938 27.9789 20.6534 27.9789 21.3436V21.5498C28.9782 21.8054 29.5548 22.3621 29.8714 22.9169C30.2156 23.52 30.2289 24.0765 30.2289 24.1336V24.6336H28.2288V24.1561Z" fill="#131C26"/>
</g>
</svg>
