<svg width="32" height="32" viewBox="0 0 32 32" xmlns="http://www.w3.org/2000/svg">
<path fill-rule="evenodd" clip-rule="evenodd" d="M27.1959 13.9756H27.1565C26.2574 13.9756 25.3815 14.0745 24.5389 14.2619C23.8308 10.5043 20.272 7.63673 16 7.63673C11.22 7.63673 7.333 11.2267 7.333 15.6367C7.333 16.3727 6.736 16.9697 6 16.9697C5.264 16.9697 4.667 16.3727 4.667 15.6367C4.667 9.75373 9.75 4.96973 16 4.96973C21.6499 4.96973 26.3462 8.87835 27.1959 13.9756ZM29.1306 13.9756C28.0297 7.72185 22.5701 2.96973 16 2.96973C8.637 2.96973 2.667 8.93873 2.667 16.3027C2.667 22.4794 6.8682 27.6758 12.5686 29.1899L12.5687 31.934C5.38079 30.3635 0 23.9619 0 16.3027C0 7.46573 7.163 0.302734 16 0.302734C24.0466 0.302734 30.7052 6.24166 31.832 13.9756H29.1306ZM20 10.9687C20.368 10.9687 20.702 11.1177 20.943 11.3597L20.944 11.3607C21.186 11.6017 21.335 11.9357 21.335 12.3037C21.335 12.6717 21.186 13.0057 20.944 13.2467L18.5748 15.616C18.5732 15.6102 18.5716 15.6045 18.57 15.5987L18.574 15.6167L18.5748 15.616C18.6348 15.8348 18.668 16.065 18.668 16.3037C18.668 17.7767 17.474 18.9707 16.001 18.9707C14.528 18.9707 13.334 17.7767 13.334 16.3037C13.334 14.8307 14.528 13.6367 16.001 13.6367C16.245 13.6367 16.481 13.6707 16.687 13.7297L19.057 11.3597C19.298 11.1177 19.632 10.9687 20 10.9687Z" />
<path fill-rule="evenodd" clip-rule="evenodd" d="M22.8122 18.7757C24.1543 17.3104 26.2787 16.846 28.7433 17.6088C29.1886 17.7466 29.4975 18.1516 29.5125 18.6175C29.5276 19.0833 29.2456 19.5075 28.8101 19.6738C28.0959 19.9465 27.5824 20.4481 27.3538 20.9163C27.1555 21.3223 27.2032 21.5852 27.3342 21.7608C27.4749 21.8558 27.575 21.8745 27.6407 21.8763C27.7256 21.8787 27.8593 21.8549 28.052 21.7367C28.4674 21.4817 28.9742 20.8964 29.4467 19.9747C29.6494 19.5795 30.0711 19.3462 30.5137 19.3846C30.9562 19.423 31.3315 19.7254 31.4631 20.1496C32.1855 22.4785 31.8516 24.5752 30.4225 25.9332C29.1557 27.1371 27.271 27.5225 25.2298 27.2084L20.707 31.7312C20.69 31.7482 20.6724 31.7647 20.6543 31.7805C20.0963 32.2693 19.418 32.373 18.8288 32.262C18.2646 32.1557 17.7636 31.8563 17.3883 31.4937C17.0137 31.1319 16.6897 30.6346 16.5757 30.0539C16.4546 29.4371 16.5833 28.7574 17.0782 28.1975C17.0944 28.1791 17.1113 28.1612 17.1288 28.144L21.576 23.7488C21.2568 21.8864 21.6439 20.0513 22.8122 18.7757ZM24.4241 20.252C23.7506 20.9873 23.4278 22.2742 23.8277 23.835C23.9242 24.2114 23.8136 24.6106 23.5373 24.8836L18.7226 29.6419C18.7363 29.6967 18.7871 29.8058 18.9069 29.9216C19.0329 30.0433 19.1612 30.1003 19.2331 30.114L24.0905 25.2565C24.3534 24.9937 24.7318 24.8825 25.0951 24.9613C26.9508 25.3641 28.2381 24.9938 28.9168 24.3488C29.1671 24.1109 29.378 23.7932 29.5082 23.3857C29.4063 23.4627 29.302 23.5341 29.1953 23.5996C28.7265 23.8873 28.1788 24.0782 27.5791 24.0612C26.9709 24.0441 26.4061 23.8157 25.9113 23.4265C25.8691 23.3933 25.8294 23.357 25.7925 23.3179C24.8361 22.3051 24.8879 20.9847 25.3897 19.9572C25.4595 19.8142 25.5387 19.6743 25.6266 19.538C25.1053 19.6777 24.7099 19.94 24.4241 20.252Z" />
<path fill-rule="evenodd" clip-rule="evenodd" d="M9.19234 30.1579C9.27758 29.3992 9.9617 28.8533 10.7204 28.9385L13.4614 29.2465C14.22 29.3317 14.7659 30.0158 14.6807 30.7745C14.5955 31.5332 13.7401 32.1835 12.7027 31.9669L11.8192 31.756C10.9927 31.5166 9.1071 30.9165 9.19234 30.1579Z" />
<path fill-rule="evenodd" clip-rule="evenodd" d="M30.4504 10.5254C29.687 10.5254 29.0681 11.1443 29.0681 11.9077L29.0681 14.666C29.0681 15.4294 29.687 16.0483 30.4504 16.0483C31.2139 16.0483 31.9556 15.2709 31.8562 14.2158L31.7453 13.3143C31.5996 12.4662 31.2139 10.5254 30.4504 10.5254Z" />
<path fill-rule="evenodd" clip-rule="evenodd" d="M25.5326 10.6202C24.7719 10.6849 24.2077 11.354 24.2724 12.1147L24.5061 14.863C24.5708 15.6237 25.2399 16.1879 26.0006 16.1232C26.7613 16.0585 27.4345 15.2211 27.246 14.1782L27.0591 13.2893C26.8421 12.4567 26.2933 10.5555 25.5326 10.6202Z" />
</svg>
