<svg width="32px" height="32px" viewBox="0 0 32 32" version="1.1" xmlns="http://www.w3.org/2000/svg" xmlns:xlink="http://www.w3.org/1999/xlink">
    <path d="M19.9285714,6.65774033 C25.9756182,6.65774033 31,8.8894344 31,12.1900721 L31,12.1900721 L31,25.4676681 C31,28.7688928 25.9759759,30.9999998 19.9285714,30.9999998 C14.0701482,30.9999998 9.17214374,28.9061581 8.87173958,25.7739874 L8.85714284,25.4676681 L8.85714284,12.1900721 L8.86192655,12.0142814 C9.03691116,8.81044268 13.9895077,6.65774033 19.9285714,6.65774033 Z M19.9285714,24.3612018 C16.3344785,24.3612018 13.1018601,23.5731388 11.070545,22.2407315 L11.0714286,25.4676681 C11.0714286,27.0561754 14.9690638,28.7870672 19.9285714,28.7870672 C24.7109538,28.7870672 28.5059573,27.1776028 28.770929,25.6383248 L28.7857143,25.4676681 L28.7865979,22.2407315 C26.7552827,23.5731388 23.5226643,24.3612018 19.9285714,24.3612018 Z M20.2879391,2.39634578 C20.808507,2.71691469 20.9704793,3.39853292 20.6497143,3.91878268 C20.3289494,4.43903244 19.6469144,4.60090575 19.1263465,4.28033684 C16.7288421,2.80393867 13.9395682,2.08917726 11.0714286,2.23187497 C6.12029077,2.23187497 2.21428571,3.96947943 2.21428571,5.55127399 C2.21428571,6.26195973 3.11271998,7.13565955 4.83840584,7.82289051 C5.4064277,8.0490975 5.68341128,8.69266584 5.45706598,9.2603406 C5.23072068,9.82801536 4.58675886,10.1048297 4.01873701,9.87862272 C3.34362301,9.60976773 2.73771174,9.30242292 2.21350598,8.96022808 L2.21428571,12.1900721 C2.21428571,12.9007578 3.11271998,13.7744576 4.83840584,14.4616886 C5.4064277,14.6878955 5.68341128,15.3314639 5.45706598,15.8991387 C5.23072068,16.4668134 4.58675886,16.7436277 4.01873701,16.5174208 C3.34362301,16.2485658 2.73771174,15.9412209 2.21350598,15.5990261 L2.21428571,18.82887 C2.21428571,19.5395558 3.11271998,20.4132556 4.83840584,21.1004866 C5.4064277,21.3266936 5.68341128,21.9702619 5.45706598,22.5379366 C5.23072068,23.1056115 4.58675886,23.3824258 4.01873701,23.1562188 C1.69021863,22.2289179 0.184943586,20.8437377 0.0159095615,19.1500211 L0,18.82887 L0,5.55127399 C0,2.2578233 5.0328373,0.0189422864 11.0158421,0.0203377345 C14.2758977,-0.143446982 17.5089701,0.6850394 20.2879391,2.39634578 Z M28.7864929,15.601681 C26.7551102,16.9341333 23.5224517,17.7224037 19.9285714,17.7224037 C16.3346912,17.7224037 13.1020327,16.9341333 11.0706499,15.601681 L11.0714286,18.82887 C11.0714286,20.4173775 14.9690638,22.1482691 19.9285714,22.1482691 C24.7109538,22.1482691 28.5059573,20.5388048 28.770929,18.9995268 L28.7857143,18.82887 L28.7864929,15.601681 Z M19.9285714,8.870673 C14.9693721,8.870673 11.0714286,10.6020338 11.0714286,12.1900721 C11.0714286,13.7781103 14.9693721,15.509471 19.9285714,15.509471 C24.8877707,15.509471 28.7857143,13.7781103 28.7857143,12.1900721 C28.7857143,10.6020338 24.8877707,8.870673 19.9285714,8.870673 Z"></path>
</svg>