<svg xmlns="http://www.w3.org/2000/svg" width="32" height="32"><path d="M24 4H31C31.2652 4 31.5196 4.10536 31.7071 4.29289C31.8946 4.48043 32 4.73478 32 5V31C32 31.2652 31.8946 31.5196 31.7071 31.7071C31.5196 31.8946 31.2652 32 31 32H1C0.734784 32 0.48043 31.8946 0.292893 31.7071C0.105357 31.5196 0 31.2652 0 31V5C0 4.73478 0.105357 4.48043 0.292893 4.29289C0.48043 4.10536 0.734784 4 1 4H8V1C8 0.734783 8.10536 0.48043 8.29289 0.292893C8.48043 0.105357 8.73478 0 9 0C9.26522 0 9.51957 0.105357 9.70711 0.292893C9.89464 0.48043 10 0.734783 10 1V4H22V1C22 0.734783 22.1054 0.48043 22.2929 0.292893C22.4804 0.105357 22.7348 0 23 0C23.2652 0 23.5196 0.105357 23.7071 0.292893C23.8946 0.48043 24 0.734783 24 1V4ZM2 30H30V14H2V30ZM2 12H30V6H24V8.333C24 8.59822 23.8946 8.85257 23.7071 9.04011C23.5196 9.22764 23.2652 9.333 23 9.333C22.7348 9.333 22.4804 9.22764 22.2929 9.04011C22.1054 8.85257 22 8.59822 22 8.333V6H10V8.333C10 8.59822 9.89464 8.85257 9.70711 9.04011C9.51957 9.22764 9.26522 9.333 9 9.333C8.73478 9.333 8.48043 9.22764 8.29289 9.04011C8.10536 8.85257 8 8.59822 8 8.333V6H2V12ZM9.54874 16.6704C9.5516 16.3943 9.33006 16.1682 9.05394 16.1653C8.77781 16.1624 8.55165 16.384 8.5488 16.6601L8.50003 21.3793C8.49848 21.5288 8.56395 21.6712 8.67849 21.7674C8.79302 21.8636 8.94458 21.9034 9.0916 21.876L12.9453 21.1579C13.2167 21.1073 13.3958 20.8462 13.3452 20.5747C13.2946 20.3033 13.0335 20.1242 12.7621 20.1748L10.5676 20.5837L12.5483 18.2615C13.1402 17.6435 13.867 17.1952 14.6603 16.9539C15.4594 16.7108 16.3031 16.6847 17.1138 16.8776C17.9248 17.0705 18.6799 17.4772 19.3073 18.0637C19.9351 18.6504 20.4146 19.398 20.6975 20.2387C20.8296 20.6313 21.2549 20.8424 21.6475 20.7103C22.0401 20.5782 22.2512 20.1528 22.1191 19.7603C21.7588 18.6895 21.1451 17.7281 20.3316 16.9678C19.5179 16.2073 18.5307 15.6728 17.461 15.4183C16.3911 15.1638 15.277 15.1985 14.2238 15.5188C13.1709 15.8391 12.2164 16.4334 11.4476 17.2422C11.4383 17.2519 11.4293 17.2619 11.4206 17.2722L9.51949 19.5011L9.54874 16.6704ZM18.6951 23.3337C18.6951 23.0576 18.919 22.8337 19.1951 22.8337H23C23.2761 22.8337 23.5 23.0576 23.5 23.3337V27.3347C23.5 27.6109 23.2761 27.8347 23 27.8347C22.7239 27.8347 22.5 27.6109 22.5 27.3347V24.8684L20.5938 26.7656C19.8263 27.5704 18.8745 28.162 17.825 28.4812C16.7718 28.8015 15.6577 28.8362 14.5878 28.5817C13.518 28.3272 12.5309 27.7927 11.7172 27.0322C10.9037 26.2719 10.29 25.3105 9.92965 24.2397C9.79754 23.8472 10.0087 23.4218 10.4013 23.2897C10.7939 23.1576 11.2192 23.3687 11.3513 23.7613C11.6342 24.602 12.1137 25.3496 12.7414 25.9363C13.3689 26.5228 14.124 26.9295 14.935 27.1224C15.7457 27.3153 16.5894 27.2892 17.3885 27.0461C18.1878 26.803 18.9196 26.3497 19.514 25.7244L19.5285 25.7095L21.4133 23.8337H19.1951C18.919 23.8337 18.6951 23.6098 18.6951 23.3337Z"/></svg>