<svg width="32" height="32" viewBox="0 0 32 32" xmlns="http://www.w3.org/2000/svg">
<g clip-path="url(#clip0_12755_390)">
<path fill-rule="evenodd" clip-rule="evenodd" d="M12.946 3.08105C7.48078 3.08105 3.05035 7.51148 3.05035 12.9767C3.05035 15.7233 4.16772 18.2067 5.97578 20.0009C6.4658 20.4872 6.46883 21.2786 5.98255 21.7687C5.49627 22.2587 4.70482 22.2617 4.2148 21.7754C1.95315 19.531 0.550354 16.4165 0.550354 12.9767C0.550354 6.13076 6.10006 0.581055 12.946 0.581055C16.1478 0.581055 19.0687 1.79667 21.2676 3.78947C21.7791 4.25306 21.818 5.04356 21.3544 5.5551C20.8908 6.06664 20.1003 6.10551 19.5887 5.64191C17.8317 4.04957 15.5034 3.08105 12.946 3.08105ZM23.9888 11.007C24.6777 10.9629 25.272 11.4857 25.316 12.1746C25.333 12.44 25.3416 12.7074 25.3416 12.9767C25.3416 14.5564 25.0455 16.07 24.5046 17.4627C24.2546 18.1063 23.5304 18.4254 22.8868 18.1754C22.2433 17.9255 21.9242 17.2012 22.1741 16.5577C22.6048 15.4489 22.8416 14.2419 22.8416 12.9767C22.8416 12.7607 22.8347 12.5465 22.8211 12.3342C22.7771 11.6453 23.2998 11.051 23.9888 11.007ZM17.9718 23.0063C18.2105 23.6541 17.8788 24.3727 17.231 24.6113C15.894 25.1039 14.4499 25.3723 12.946 25.3723C12.4568 25.3723 11.9738 25.3439 11.4986 25.2886C10.8129 25.2087 10.3217 24.5881 10.4015 23.9024C10.4814 23.2167 11.102 22.7255 11.7877 22.8054C12.1672 22.8495 12.5537 22.8723 12.946 22.8723C14.1506 22.8723 15.3024 22.6576 16.3668 22.2655C17.0146 22.0268 17.7332 22.3585 17.9718 23.0063Z"/>
<path fill-rule="evenodd" clip-rule="evenodd" d="M18.0912 18.1745C18.441 17.8163 18.9707 17.7015 19.4375 17.8825L24.4124 19.8121L29.3372 21.6468C29.8156 21.8251 30.1375 22.2762 30.1505 22.7865C30.1634 23.2969 29.8647 23.7638 29.396 23.966L26.8589 25.0604L31.0836 29.285C31.5717 29.7732 31.5717 30.5646 31.0836 31.0528C30.5954 31.541 29.8039 31.541 29.3158 31.0528L25.0614 26.7985L24.041 29.0305C23.8341 29.4831 23.3785 29.7698 22.881 29.7606C22.3835 29.7514 21.9388 29.4479 21.7488 28.988L17.831 19.5272C17.639 19.0649 17.7414 18.5326 18.0912 18.1745ZM21.2623 21.2718L22.1252 23.3497L22.9624 25.377L23.736 23.6848L25.5482 22.9031L23.5239 22.149L21.2623 21.2718Z"/>
<path fill-rule="evenodd" clip-rule="evenodd" d="M10.0124 7.9627C10.4812 8.46947 10.4505 9.26033 9.94368 9.72913C9.06851 10.5387 8.52332 11.6931 8.52332 12.9766C8.52332 14.3417 9.14022 15.5615 10.115 16.3747C10.6451 16.8169 10.7164 17.6052 10.2741 18.1353C9.83186 18.6654 9.04361 18.7366 8.51351 18.2944C6.99374 17.0265 6.02332 15.1143 6.02332 12.9766C6.02332 10.9675 6.88079 9.15685 8.24601 7.89393C8.75279 7.42514 9.54365 7.45592 10.0124 7.9627ZM15.8795 7.9627C16.3483 7.45592 17.1391 7.42514 17.6459 7.89393C17.8999 8.1289 18.1362 8.3827 18.3527 8.65315C18.7842 9.1921 18.697 9.97874 18.1581 10.4102C17.6191 10.8416 16.8325 10.7544 16.401 10.2155C16.2624 10.0423 16.111 9.87968 15.9482 9.72913C15.4415 9.26033 15.4107 8.46947 15.8795 7.9627Z"/>
<path fill-rule="evenodd" clip-rule="evenodd" d="M12.946 3.69238C13.6363 3.69238 14.196 4.25203 14.196 4.94238V9.66635C14.196 10.3567 13.6363 10.9164 12.946 10.9164C12.2556 10.9164 11.696 10.3567 11.696 9.66635V4.94238C11.696 4.25203 12.2556 3.69238 12.946 3.69238Z"/>
<path fill-rule="evenodd" clip-rule="evenodd" d="M29.9562 1.48818C30.4446 1.97607 30.445 2.76752 29.9572 3.25595L2.84794 30.3953C2.36005 30.8838 1.5686 30.8842 1.08017 30.3963C0.591744 29.9084 0.591303 29.117 1.07919 28.6286L28.1884 1.48917C28.6763 1.00074 29.4677 1.0003 29.9562 1.48818Z"/>
</g>
<defs>
<clipPath id="clip0_12755_390">
<rect width="32" height="32"/>
</clipPath>
</defs>
</svg>
