<svg width="32" height="32" viewBox="0 0 32 32" xmlns="http://www.w3.org/2000/svg">
<path fill-rule="evenodd" clip-rule="evenodd" d="M20.9935 20.9935C21.9898 19.9972 23.341 19.4375 24.75 19.4375C26.159 19.4375 27.5102 19.9972 28.5065 20.9935C29.5028 21.9898 30.0625 23.341 30.0625 24.75C30.0625 26.159 29.5028 27.5102 28.5065 28.5065C27.5102 29.5028 26.159 30.0625 24.75 30.0625C23.341 30.0625 21.9898 29.5028 20.9935 28.5065C19.9972 27.5102 19.4375 26.159 19.4375 24.75C19.4375 23.341 19.9972 21.9898 20.9935 20.9935ZM24.75 21.9375C24.004 21.9375 23.2887 22.2338 22.7613 22.7613C22.2338 23.2887 21.9375 24.004 21.9375 24.75C21.9375 25.496 22.2338 26.2113 22.7613 26.7387C23.2887 27.2662 24.004 27.5625 24.75 27.5625C25.496 27.5625 26.2113 27.2662 26.7387 26.7387C27.2662 26.2113 27.5625 25.496 27.5625 24.75C27.5625 24.004 27.2662 23.2887 26.7387 22.7613C26.2113 22.2338 25.496 21.9375 24.75 21.9375Z"/>
<path fill-rule="evenodd" clip-rule="evenodd" d="M3.49349 3.49349C4.48978 2.4972 5.84098 1.9375 7.25 1.9375C8.65902 1.9375 10.0102 2.4972 11.0065 3.49349C12.0028 4.48978 12.5625 5.84098 12.5625 7.25C12.5625 8.65902 12.0028 10.0102 11.0065 11.0065C10.0102 12.0028 8.65902 12.5625 7.25 12.5625C5.84098 12.5625 4.48978 12.0028 3.49349 11.0065C2.4972 10.0102 1.9375 8.65902 1.9375 7.25C1.9375 5.84098 2.4972 4.48978 3.49349 3.49349ZM7.25 4.4375C6.50402 4.4375 5.78871 4.7338 5.26126 5.26126C4.7338 5.78871 4.4375 6.50402 4.4375 7.25C4.4375 7.99598 4.7338 8.71129 5.26126 9.23874C5.78871 9.7662 6.50402 10.0625 7.25 10.0625C7.99598 10.0625 8.71129 9.7662 9.23874 9.23874C9.7662 8.71129 10.0625 7.99598 10.0625 7.25C10.0625 6.50402 9.7662 5.78871 9.23874 5.26126C8.71129 4.7338 7.99598 4.4375 7.25 4.4375Z"/>
<path fill-rule="evenodd" clip-rule="evenodd" d="M25.3753 1.78435C26.254 0.905672 27.6786 0.905668 28.5573 1.78435L30.2163 3.44338C31.095 4.32206 31.095 5.74668 30.2163 6.62536L6.62517 30.2165C5.74649 31.0952 4.32187 31.0952 3.44319 30.2165L1.78416 28.5575C0.905482 27.6788 0.905482 26.2542 1.78416 25.3755L25.3753 1.78435ZM26.9663 3.72889L3.72871 26.9665L5.03418 28.272L28.2718 5.03437L26.9663 3.72889Z"/>
</svg>
