<svg viewBox="0 0 32 32" xmlns="http://www.w3.org/2000/svg">
<path d="M22 13.383L15.333 5.786C15.088 5.508 14.731 5.333 14.333 5.333H3.66601C2.93001 5.333 2.33301 5.93 2.33301 6.666V30.666C2.33301 31.402 2.93001 31.999 3.66601 31.999H20.999C21.735 31.999 22.332 31.402 22.332 30.666V14.263C22.332 13.925 22.205 13.616 21.997 13.382L21.998 13.383H22ZM19.02 14.03H16.587C15.414 14.03 14.777 13.723 14.777 12.097V9.194L19.02 14.03ZM5.00001 29.333V8H12.107V12.1C12.107 15.02 13.737 16.697 16.584 16.697H19.667V29.334L5.00001 29.333ZM29.333 8.05L22.666 0.453C22.421 0.175 22.064 0 21.666 0H10.999C10.263 0 9.66601 0.597 9.66601 1.333V2.666C9.66601 3.402 10.263 3.999 10.999 3.999C11.735 3.999 12.332 3.402 12.332 2.666H19.439V6.766C19.439 9.686 21.069 11.363 23.916 11.363H26.999V24H25.332C24.596 24 23.999 24.597 23.999 25.333C23.999 26.069 24.596 26.666 25.332 26.666H28.332C29.068 26.666 29.665 26.069 29.665 25.333V8.93C29.665 8.592 29.538 8.283 29.33 8.049L29.331 8.05H29.333ZM22.113 6.763V3.86L26.356 8.697H23.923C22.75 8.697 22.113 8.389 22.113 6.763Z" />
<path d="M17.6943 22.9697C17.6943 23.7057 17.0973 24.3027 16.3613 24.3027H13.6943V26.9697C13.6943 27.7057 13.0973 28.3027 12.3613 28.3027C11.6253 28.3027 11.0283 27.7057 11.0283 26.9697V24.3027H8.36132C7.62532 24.3027 7.02832 23.7057 7.02832 22.9697C7.02832 22.2337 7.62532 21.6367 8.36132 21.6367H11.0283V18.9697C11.0283 18.2337 11.6253 17.6367 12.3613 17.6367C13.0973 17.6367 13.6943 18.2337 13.6943 18.9697V21.6367H16.3613C17.0973 21.6367 17.6943 22.2337 17.6943 22.9697Z" />
</svg>
