<svg width="33" height="32" viewBox="0 0 33 32" xmlns="http://www.w3.org/2000/svg">
<path fill-rule="evenodd" clip-rule="evenodd" d="M16.1296 0.00195312H16.15C24.0986 0.00195312 31.3388 6.32505 32.0655 14.1255C32.1165 14.6726 31.7142 15.1575 31.167 15.2085C30.6198 15.2595 30.1349 14.8572 30.084 14.3101C29.4583 7.59379 23.1389 2.00296 16.1704 1.99209C9.0986 2.29209 2.33869 7.76374 2.33869 15.4063C2.33869 22.5189 7.55766 30.0118 16.15 30.0118C18.9552 30.0118 21.3814 29.3608 23.3832 28.2274C23.8615 27.9567 24.4686 28.1249 24.7394 28.6031C25.0101 29.0813 24.842 29.6885 24.3637 29.9592C22.038 31.276 19.2691 32.002 16.15 32.002C6.18437 32.002 0.34857 23.3222 0.34857 15.4063C0.34857 6.45591 8.21295 0.32662 16.1092 0.00278884L16.1296 0.00195312Z" />
<path fill-rule="evenodd" clip-rule="evenodd" d="M16.6158 0.551643C16.9722 0.969948 16.922 1.59798 16.5037 1.9544C12.6963 5.19851 10.8244 10.244 10.8396 15.5492C10.8547 20.8533 12.7602 26.3054 16.3606 30.268C16.7301 30.6747 16.7 31.3041 16.2933 31.6736C15.8865 32.0432 15.2572 32.013 14.8877 31.6063C10.9231 27.243 8.86588 21.3012 8.84948 15.5548C8.83307 9.80948 10.8608 4.1479 15.213 0.439587C15.6313 0.0831693 16.2593 0.133339 16.6158 0.551643Z" />
<path fill-rule="evenodd" clip-rule="evenodd" d="M20.1573 25.8978C19.6741 25.636 19.0702 25.8155 18.8084 26.2987C18.033 27.7298 17.0971 29.0674 16.0066 30.2676C15.637 30.6743 15.6672 31.3036 16.0739 31.6732C16.4806 32.0427 17.11 32.0126 17.4795 31.6059C18.6837 30.2806 19.7109 28.8105 20.5582 27.2467C20.82 26.7636 20.6405 26.1596 20.1573 25.8978Z" />
<path fill-rule="evenodd" clip-rule="evenodd" d="M15.8899 0.551192C15.5335 0.969497 15.5837 1.59753 16.002 1.95395C16.6792 2.531 17.3704 3.43765 18.0348 4.53527C18.6923 5.62138 19.2906 6.83898 19.7986 7.98997C20.3055 9.1387 20.7161 10.2067 21 10.988C21.1418 11.3781 21.2515 11.6956 21.3255 11.9144C21.3625 12.0238 21.3905 12.1085 21.409 12.1652L21.4297 12.2288L21.4346 12.2441L21.4357 12.2475C21.6022 12.7711 22.1619 13.0613 22.6856 12.8949C23.2093 12.7284 23.4989 12.1689 23.3325 11.6452L22.3842 11.9466C23.3325 11.6452 23.3325 11.6452 23.3325 11.6452L23.33 11.6374L23.3238 11.618L23.3004 11.5461C23.28 11.4837 23.25 11.393 23.2108 11.2773C23.1327 11.0459 23.0179 10.7141 22.8705 10.3083C22.5759 9.49753 22.1488 8.38636 21.6193 7.18647C21.0908 5.98885 20.4538 4.6884 19.7373 3.50471C19.0278 2.33254 18.2064 1.21766 17.2927 0.439136C16.8744 0.0827181 16.2463 0.132888 15.8899 0.551192Z" />
<path fill-rule="evenodd" clip-rule="evenodd" d="M2.80934 23.2524C2.80934 22.7028 3.25484 22.2573 3.8044 22.2573H16.9463C17.4958 22.2573 17.9413 22.7028 17.9413 23.2524C17.9413 23.802 17.4958 24.2475 16.9463 24.2475H3.8044C3.25484 24.2475 2.80934 23.802 2.80934 23.2524Z" />
<path fill-rule="evenodd" clip-rule="evenodd" d="M0.320312 15.38C0.320312 14.8305 0.765816 14.385 1.31537 14.385H14.8331C15.3827 14.385 15.8282 14.8305 15.8282 15.38C15.8282 15.9296 15.3827 16.3751 14.8331 16.3751H1.31537C0.765816 16.3751 0.320312 15.9296 0.320312 15.38Z" />
<path fill-rule="evenodd" clip-rule="evenodd" d="M2.80934 7.6139C2.80934 7.06434 3.25484 6.61884 3.8044 6.61884H28.4508C29.0004 6.61884 29.4459 7.06434 29.4459 7.6139C29.4459 8.16346 29.0004 8.60896 28.4508 8.60896H3.8044C3.25484 8.60896 2.80934 8.16346 2.80934 7.6139Z" />
<path fill-rule="evenodd" clip-rule="evenodd" d="M24.5423 20.6052C24.9309 20.2166 25.5609 20.2166 25.9495 20.6052L31.79 26.4458C32.1786 26.8344 32.1786 27.4644 31.79 27.853C31.4014 28.2416 30.7714 28.2416 30.3828 27.853L24.5423 22.0125C24.1537 21.6239 24.1537 20.9938 24.5423 20.6052Z" />
<path fill-rule="evenodd" clip-rule="evenodd" d="M20.5768 14.4922L28.7396 17.8534C29.039 17.9768 29.2956 18.186 29.4766 18.4545C29.6576 18.723 29.7553 19.039 29.7574 19.3627C29.7595 19.6865 29.6659 20.0037 29.4884 20.2746C29.311 20.5454 29.0574 20.7578 28.7597 20.8851L26.0036 22.0661L24.8226 24.8222C24.6953 25.1199 24.4829 25.3735 24.2121 25.5509C23.9412 25.7284 23.624 25.822 23.3002 25.8199C22.9765 25.8178 22.6605 25.7201 22.392 25.5391C22.1235 25.3581 21.9144 25.1018 21.791 24.8025L18.4297 16.6393C18.306 16.3393 18.2735 16.0084 18.337 15.6902C18.4005 15.3716 18.557 15.079 18.7867 14.8492C19.0164 14.6195 19.3091 14.463 19.6277 14.3995C19.9459 14.336 20.2768 14.3685 20.5768 14.4922ZM27.2198 19.3798L20.5855 16.648L23.3173 23.2823L24.3312 20.9164C24.4318 20.6815 24.619 20.4943 24.8538 20.3937L27.2198 19.3798Z" />
</svg>
