<?xml version="1.0" encoding="UTF-8"?>
<svg width="32px" height="32px" viewBox="0 0 32 32" version="1.1" xmlns="http://www.w3.org/2000/svg" xmlns:xlink="http://www.w3.org/1999/xlink">
    <title>embed inline</title>
    <g id="embed-inline" stroke="none" stroke-width="1" fill="none" fill-rule="evenodd">
        <path d="M21.0000001,26 L11.6666667,26 C11.12,26 10.6666667,25.5466667 10.6666667,25 L10.6666667,6.33333333 C10.6666667,5.78666667 11.12,5.33333333 11.6666667,5.33333333 L21.0000001,5.33333333 C21.5466668,5.33333333 22,5.78666667 22,6.33333333 L22,25 C22,25.5466667 21.5466668,26 21.0000001,26 Z M12.6666667,24 L20,24 L20,7.33333334 L12.6666667,7.33333334 L12.6666667,24 Z M1.33333333,25 C1.33333333,25.5533334 1.78,26 2.33333333,26 L8.33333333,26 C8.8866667,26 9.33333333,25.5533334 9.33333333,25 C9.33333333,24.4466667 8.8866667,24 8.33333333,24 L2.33333333,24 C1.78,24 1.33333333,24.4466667 1.33333333,25 Z M9.33333333,13 C9.33333333,12.4466666 8.8866667,12 8.33333333,12 L2.33333333,12 C1.78,12 1.33333333,12.4466666 1.33333333,13 C1.33333333,13.5533333 1.78,14 2.33333333,14 L8.33333333,14 C8.8866667,14 9.33333333,13.5533333 9.33333333,13 Z M9.33333333,19 C9.33333333,18.4466667 8.8866667,18 8.33333333,18 L2.33333333,18 C1.78,18 1.33333333,18.4466667 1.33333333,19 C1.33333333,19.5533333 1.78,20 2.33333333,20 L8.33333333,20 C8.8866667,20 9.33333333,19.5533333 9.33333333,19 Z M9.33333333,6.99999996 C9.33333333,6.44666662 8.8866667,5.99999996 8.33333333,5.99999996 L2.33333333,5.99999996 C1.78,5.99999996 1.33333333,6.44666662 1.33333333,6.99999996 C1.33333333,7.55333329 1.78,7.99999996 2.33333333,7.99999996 L8.33333333,7.99999996 C8.8866667,7.99999996 9.33333333,7.55333329 9.33333333,6.99999996 Z M23.3333334,25 C23.3333334,25.5533334 23.78,26 24.3333334,26 L30.3333334,26 C30.8866667,26 31.3333334,25.5533334 31.3333334,25 C31.3333334,24.4466667 30.8866667,24 30.3333334,24 L24.3333334,24 C23.78,24 23.3333334,24.4466667 23.3333334,25 Z M31.3333334,13 C31.3333334,12.4466666 30.8866667,12 30.3333334,12 L24.3333334,12 C23.78,12 23.3333334,12.4466666 23.3333334,13 C23.3333334,13.5533333 23.78,14 24.3333334,14 L30.3333334,14 C30.8866667,14 31.3333334,13.5533333 31.3333334,13 Z M31.3333334,19 C31.3333334,18.4466667 30.8866667,18 30.3333334,18 L24.3333334,18 C23.78,18 23.3333334,18.4466667 23.3333334,19 C23.3333334,19.5533333 23.78,20 24.3333334,20 L30.3333334,20 C30.8866667,20 31.3333334,19.5533333 31.3333334,19 Z M31.3333334,6.99999996 C31.3333334,6.44666662 30.8866667,5.99999996 30.3333334,5.99999996 L24.3333334,5.99999996 C23.78,5.99999996 23.3333334,6.44666662 23.3333334,6.99999996 C23.3333334,7.55333329 23.78,7.99999996 24.3333334,7.99999996 L30.3333334,7.99999996 C30.8866667,7.99999996 31.3333334,7.55333329 31.3333334,6.99999996 Z" id="Combined-Shape" fill="#131C26" transform="translate(16.333333, 15.666667) scale(1, -1) translate(-16.333333, -15.666667) "></path>
    </g>
</svg>