<?xml version="1.0" encoding="UTF-8"?>
<svg width="32px" height="32px" viewBox="0 0 32 32" version="1.1" xmlns="http://www.w3.org/2000/svg" xmlns:xlink="http://www.w3.org/1999/xlink">
    <title>embed</title>
    <g id="embed" stroke="none" stroke-width="1" fill="none" fill-rule="evenodd">
        <g id="Group" transform="translate(12.000000, 2.666667)" fill="#131C26">
            <g id="Group-2" transform="translate(9.666667, 13.666667) scale(1, -1) translate(-9.666667, -13.666667) ">
                <path d="M18.3333334,10 L1,10 C0.453333335,10 0,9.54666671 0,9 L0,1 C0,0.453333335 0.453333335,0 1,0 L18.3333334,0 C18.8800001,0 19.3333333,0.453333335 19.3333333,1 L19.3333333,9 C19.3333333,9.54666671 18.8800001,10 18.3333334,10 Z M2.00000001,8.00000001 L17.3333333,8.00000001 L17.3333333,2.00000001 L2.00000001,2.00000001 L2.00000001,8.00000001 Z" id="Shape"></path>
                <path d="M0,20.3333334 C0,19.78 0.416888889,19.3333334 0.933333333,19.3333334 L17.7333333,19.3333334 C18.2497778,19.3333334 18.6666667,19.78 18.6666667,20.3333334 C18.6666667,20.8866667 18.2497778,21.3333334 17.7333333,21.3333334 L0.933333333,21.3333334 C0.416888889,21.3333334 0,20.8866667 0,20.3333334 Z M0,14.3333333 C0,13.78 0.416888889,13.3333333 0.933333333,13.3333333 L17.7333333,13.3333333 C18.2497778,13.3333333 18.6666667,13.78 18.6666667,14.3333333 C18.6666667,14.8866667 18.2497778,15.3333333 17.7333333,15.3333333 L0.933333333,15.3333333 C0.416888889,15.3333333 0,14.8866667 0,14.3333333 Z M0,26.3333334 C0,25.7800001 0.357333335,25.3333334 0.800000003,25.3333334 L8.80000004,25.3333334 C9.24266671,25.3333334 9.60000004,25.7800001 9.60000004,26.3333334 C9.60000004,26.8866667 9.24266671,27.3333334 8.80000004,27.3333334 L0.800000003,27.3333334 C0.357333335,27.3333334 0,26.8866667 0,26.3333334 Z" id="Shape"></path>
            </g>
        </g>
        <path d="M9.36054428,27.7561904 L1.52380955,27.7561904 C0.981768734,27.7561904 0.544217712,27.3186394 0.544217712,26.7765986 C0.544217712,26.2345578 0.981768734,25.7970067 1.52380955,25.7970067 L9.36054428,25.7970067 C9.9025851,25.7970067 10.3401361,26.2345578 10.3401361,26.7765986 C10.3401361,27.3186394 9.9025851,27.7561904 9.36054428,27.7561904 Z" id="Path" fill="#131C26"></path>
        <path d="M5.44217692,31.6745578 C5.19074834,31.6745578 4.93931977,31.5798639 4.74993201,31.3872108 C4.3678912,31.00517 4.3678912,30.3847619 4.74993201,30.002721 L7.97605448,26.7765986 L4.74993201,23.5504761 C4.3678912,23.1684353 4.3678912,22.5480271 4.74993201,22.1659863 C5.13197283,21.7839455 5.752381,21.7839455 6.13442182,22.1659863 L10.0527892,26.0843537 C10.43483,26.4663945 10.43483,27.0868027 10.0527892,27.4688435 L6.13442182,31.3872108 C5.94503406,31.5765986 5.69360549,31.6745578 5.44217692,31.6745578 Z" id="Path" fill="#131C26"></path>
    </g>
</svg>
