<svg viewBox="0 0 14 15" xmlns="http://www.w3.org/2000/svg">
<path d="M1.16731 14.6953C0.881082 14.6954 0.642981 14.4623 0.593558 14.155L0.584143 14.0366L0.582413 1.35434C0.582347 0.990485 0.843336 0.695475 1.16535 0.695417C1.45158 0.695366 1.68968 0.92838 1.7391 1.23571L1.74852 1.35413L1.75025 14.0364C1.75032 14.4002 1.48933 14.6953 1.16731 14.6953Z" />
<path fill-rule="evenodd" clip-rule="evenodd" d="M13.2467 14.5244C13.4745 14.2965 13.4745 13.9272 13.2467 13.6994L7.24253 7.69526L13.2467 1.69112C13.4745 1.46331 13.4745 1.09397 13.2467 0.866165C13.0189 0.638362 12.6495 0.638362 12.4217 0.866165L6.0051 7.28278C5.7773 7.51059 5.7773 7.87993 6.0051 8.10774L12.4217 14.5244C12.6495 14.7522 13.0189 14.7522 13.2467 14.5244Z" />
</svg>
