<svg width="33" height="32" viewBox="0 0 33 32" fill="none" xmlns="http://www.w3.org/2000/svg">
<mask id="path-1-outside-1_13098_217313" maskUnits="userSpaceOnUse" x="4.75" y="3" width="24" height="26">
<rect x="4.75" y="3" width="24" height="26"/>
<path d="M26.7475 28C27.2381 28.0001 27.6462 27.6006 27.7309 27.0738L27.747 26.8708L27.75 5.12976C27.7501 4.50601 27.3028 4.00028 26.7508 4.00018C26.2602 4.00009 25.8521 4.39954 25.7674 4.92639L25.7512 5.1294L25.7483 26.8704C25.7482 27.4942 26.1955 27.9999 26.7475 28Z"/>
<path fill-rule="evenodd" clip-rule="evenodd" d="M6.04285 27.7069C5.65238 27.3164 5.65238 26.6832 6.04285 26.2927L16.3342 15.9999L6.04285 5.7071C5.65238 5.31657 5.65238 4.68341 6.04285 4.29289C6.43332 3.90237 7.06639 3.90237 7.45686 4.29289L18.4552 15.2928C18.8457 15.6833 18.8457 16.3165 18.4552 16.707L7.45686 27.7069C7.06639 28.0974 6.43332 28.0974 6.04285 27.7069Z"/>
</mask>
<path d="M26.7475 28C27.2381 28.0001 27.6462 27.6006 27.7309 27.0738L27.747 26.8708L27.75 5.12976C27.7501 4.50601 27.3028 4.00028 26.7508 4.00018C26.2602 4.00009 25.8521 4.39954 25.7674 4.92639L25.7512 5.1294L25.7483 26.8704C25.7482 27.4942 26.1955 27.9999 26.7475 28Z"/>
<path fill-rule="evenodd" clip-rule="evenodd" d="M6.04285 27.7069C5.65238 27.3164 5.65238 26.6832 6.04285 26.2927L16.3342 15.9999L6.04285 5.7071C5.65238 5.31657 5.65238 4.68341 6.04285 4.29289C6.43332 3.90237 7.06639 3.90237 7.45686 4.29289L18.4552 15.2928C18.8457 15.6833 18.8457 16.3165 18.4552 16.707L7.45686 27.7069C7.06639 28.0974 6.43332 28.0974 6.04285 27.7069Z"/>
<path d="M26.7475 28L26.7474 28.5L26.7475 28ZM27.7309 27.0738L28.2246 27.1532L28.2277 27.1334L28.2293 27.1134L27.7309 27.0738ZM27.747 26.8708L28.2455 26.9104L28.247 26.8907L28.247 26.8708L27.747 26.8708ZM27.75 5.12976L27.25 5.12967L27.25 5.12969L27.75 5.12976ZM26.7508 4.00018L26.7509 3.50018L26.7508 4.00018ZM25.7674 4.92639L25.2737 4.84702L25.2705 4.8668L25.2689 4.88677L25.7674 4.92639ZM25.7512 5.1294L25.2528 5.08978L25.2512 5.10953L25.2512 5.12934L25.7512 5.1294ZM25.7483 26.8704L26.2483 26.8705L26.2483 26.8705L25.7483 26.8704ZM6.04285 27.7069L6.39643 27.3534L6.39643 27.3534L6.04285 27.7069ZM6.04285 26.2927L6.39643 26.6463L6.39643 26.6463L6.04285 26.2927ZM16.3342 15.9999L16.6878 16.3534C16.883 16.1582 16.883 15.8416 16.6878 15.6464L16.3342 15.9999ZM6.04285 5.7071L5.68927 6.06062L5.68927 6.06062L6.04285 5.7071ZM6.04285 4.29289L5.68927 3.93936L5.68927 3.93936L6.04285 4.29289ZM7.45686 4.29289L7.81044 3.93936L7.81044 3.93936L7.45686 4.29289ZM18.4552 15.2928L18.1017 15.6463L18.1017 15.6463L18.4552 15.2928ZM18.4552 16.707L18.1017 16.3535L18.1017 16.3535L18.4552 16.707ZM7.45686 27.7069L7.10328 27.3534L7.10328 27.3534L7.45686 27.7069ZM26.7475 28L26.7474 28.5C27.5306 28.5001 28.1088 27.8728 28.2246 27.1532L27.7309 27.0738L27.2372 26.9944C27.1835 27.3284 26.9456 27.5 26.7475 27.5L26.7475 28ZM27.7309 27.0738L28.2293 27.1134L28.2455 26.9104L27.747 26.8708L27.2486 26.8312L27.2325 27.0342L27.7309 27.0738ZM27.747 26.8708L28.247 26.8708L28.25 5.12983L27.75 5.12976L27.25 5.12969L27.247 26.8707L27.747 26.8708ZM27.75 5.12976L28.25 5.12985C28.2502 4.28919 27.6347 3.50034 26.7509 3.50018L26.7508 4.00018L26.7507 4.50018C26.9708 4.50022 27.2501 4.72283 27.25 5.12967L27.75 5.12976ZM26.7508 4.00018L26.7509 3.50018C25.9677 3.50004 25.3894 4.12733 25.2737 4.84702L25.7674 4.92639L26.261 5.00577C26.3147 4.67176 26.5527 4.50014 26.7507 4.50018L26.7508 4.00018ZM25.7674 4.92639L25.2689 4.88677L25.2528 5.08978L25.7512 5.1294L26.2497 5.16902L26.2658 4.96601L25.7674 4.92639ZM25.7512 5.1294L25.2512 5.12934L25.2483 26.8703L25.7483 26.8704L26.2483 26.8705L26.2512 5.12947L25.7512 5.1294ZM25.7483 26.8704L25.2483 26.8703C25.2481 27.711 25.8636 28.4998 26.7474 28.5L26.7475 28L26.7475 27.5C26.5275 27.5 26.2482 27.2773 26.2483 26.8705L25.7483 26.8704ZM6.04285 27.7069L6.39643 27.3534C6.20119 27.1581 6.20119 26.8415 6.39643 26.6463L6.04285 26.2927L5.68927 25.9392C5.10358 26.525 5.10358 27.4747 5.68927 28.0605L6.04285 27.7069ZM6.04285 26.2927L6.39643 26.6463L16.6878 16.3534L16.3342 15.9999L15.9807 15.6464L5.68927 25.9392L6.04285 26.2927ZM16.3342 15.9999L16.6878 15.6464L6.39643 5.35357L6.04285 5.7071L5.68927 6.06062L15.9807 16.3534L16.3342 15.9999ZM6.04285 5.7071L6.39643 5.35357C6.20119 5.1583 6.20119 4.84169 6.39643 4.64642L6.04285 4.29289L5.68927 3.93936C5.10358 4.52514 5.10358 5.47484 5.68927 6.06062L6.04285 5.7071ZM6.04285 4.29289L6.39643 4.64642C6.59163 4.45119 6.90808 4.45119 7.10328 4.64642L7.45686 4.29289L7.81044 3.93936C7.2247 3.35355 6.27501 3.35355 5.68927 3.93936L6.04285 4.29289ZM7.45686 4.29289L7.10328 4.64642L18.1017 15.6463L18.4552 15.2928L18.8088 14.9393L7.81044 3.93936L7.45686 4.29289ZM18.4552 15.2928L18.1017 15.6463C18.2969 15.8416 18.2969 16.1582 18.1017 16.3535L18.4552 16.707L18.8088 17.0605C19.3945 16.4748 19.3945 15.5251 18.8088 14.9393L18.4552 15.2928ZM18.4552 16.707L18.1017 16.3535L7.10328 27.3534L7.45686 27.7069L7.81043 28.0605L18.8088 17.0605L18.4552 16.707ZM7.45686 27.7069L7.10328 27.3534C6.90808 27.5486 6.59163 27.5486 6.39643 27.3534L6.04285 27.7069L5.68927 28.0605C6.27501 28.6463 7.2247 28.6463 7.81043 28.0605L7.45686 27.7069Z" mask="url(#path-1-outside-1_13098_217313)"/>
</svg>
