<svg width="16" height="16" viewBox="0 0 16 16" xmlns="http://www.w3.org/2000/svg">
<path fill-rule="evenodd" clip-rule="evenodd" d="M7.31675 1.70755C7.59585 1.72694 7.80638 1.9689 7.787 2.24799C7.62357 4.60119 7.15035 6.26933 5.98108 7.39533C4.82228 8.51124 3.0764 8.99834 0.63657 9.26369C0.358444 9.29394 0.108457 9.093 0.0782082 8.81487C0.0479594 8.53675 0.248904 8.28676 0.52703 8.25651C2.9377 7.99433 4.38046 7.53019 5.27833 6.66556C6.16571 5.81102 6.61717 4.46933 6.77631 2.1778C6.79569 1.89871 7.03766 1.68817 7.31675 1.70755Z"/>
<path fill-rule="evenodd" clip-rule="evenodd" d="M7.24656 1.70755C6.96747 1.72694 6.75693 1.9689 6.77631 2.24799C6.93974 4.60119 7.41296 6.26933 8.58223 7.39533C9.74103 8.51124 11.4869 8.99834 13.9267 9.26369C14.2049 9.29394 14.4549 9.093 14.4851 8.81487C14.5154 8.53675 14.3144 8.28676 14.0363 8.25651C11.6256 7.99433 10.1828 7.53019 9.28499 6.66556C8.3976 5.81102 7.94614 4.46933 7.787 2.1778C7.76762 1.89871 7.52565 1.68817 7.24656 1.70755Z"/>
<path fill-rule="evenodd" clip-rule="evenodd" d="M7.31675 15.8127C7.59585 15.7933 7.80638 15.5513 7.787 15.2722C7.62357 12.919 7.15035 11.2509 5.98108 10.1249C4.82228 9.00897 3.0764 8.52186 0.63657 8.25651C0.358444 8.22626 0.108457 8.42721 0.0782082 8.70533C0.0479594 8.98346 0.248904 9.23345 0.52703 9.26369C2.9377 9.52588 4.38046 9.99001 5.27833 10.8546C6.16571 11.7092 6.61717 13.0509 6.77631 15.3424C6.79569 15.6215 7.03766 15.832 7.31675 15.8127Z"/>
<path fill-rule="evenodd" clip-rule="evenodd" d="M7.24656 15.8127C6.96747 15.7933 6.75693 15.5513 6.77631 15.2722C6.93974 12.919 7.41296 11.2509 8.58223 10.1249C9.74103 9.00897 11.4869 8.52186 13.9267 8.25651C14.2049 8.22626 14.4549 8.42721 14.4851 8.70533C14.5154 8.98346 14.3144 9.23345 14.0363 9.26369C11.6256 9.52588 10.1828 9.99001 9.28499 10.8546C8.3976 11.7092 7.94614 13.0509 7.787 15.3424C7.76762 15.6215 7.52565 15.832 7.24656 15.8127Z"/>
<path fill-rule="evenodd" clip-rule="evenodd" d="M11.9124 0.186523C12.1921 0.186523 12.4189 0.413319 12.4189 0.693085V2.71933C12.4189 2.9991 12.1921 3.22589 11.9124 3.22589C11.6326 3.22589 11.4058 2.9991 11.4058 2.71933V0.693085C11.4058 0.413319 11.6326 0.186523 11.9124 0.186523Z"/>
<path fill-rule="evenodd" clip-rule="evenodd" d="M13.4328 1.74677C13.4328 2.02654 13.206 2.25333 12.9262 2.25333H10.8983C10.6185 2.25333 10.3917 2.02654 10.3917 1.74677C10.3917 1.46701 10.6185 1.24021 10.8983 1.24021H12.9262C13.206 1.24021 13.4328 1.46701 13.4328 1.74677Z"/>
<path fill-rule="evenodd" clip-rule="evenodd" d="M14.4048 11.8998C14.6845 11.8998 14.9113 12.1266 14.9113 12.4063V14.4326C14.9113 14.7123 14.6845 14.9391 14.4048 14.9391C14.125 14.9391 13.8982 14.7123 13.8982 14.4326V12.4063C13.8982 12.1266 14.125 11.8998 14.4048 11.8998Z"/>
<path fill-rule="evenodd" clip-rule="evenodd" d="M15.9252 13.46C15.9252 13.7398 15.6984 13.9666 15.4186 13.9666H13.3907C13.1109 13.9666 12.8841 13.7398 12.8841 13.46C12.8841 13.1802 13.1109 12.9535 13.3907 12.9535H15.4186C15.6984 12.9535 15.9252 13.1802 15.9252 13.46Z"/>
</svg>
