<svg width="32" height="32" viewBox="0 0 32 32" fill="none" xmlns="http://www.w3.org/2000/svg">
<path d="M26.35 8.91L19.167 0.47C18.924 0.186 18.567 0.005 18.168 0H6.66698C5.93098 0 5.33398 0.597 5.33398 1.333V28C5.33398 28.736 5.93098 29.333 6.66698 29.333H15.334C16.07 29.333 16.667 28.736 16.667 28C16.667 27.264 16.07 26.667 15.334 26.667H8.00098V2.667H15.834V7.377C15.834 10.547 17.597 12.377 20.671 12.377H24.001V15C24.001 15.736 24.598 16.333 25.334 16.333C26.07 16.333 26.667 15.736 26.667 15V9.773C26.667 9.443 26.547 9.14 26.349 8.907L26.351 8.909L26.35 8.91ZM18.507 7.377V3.804L23.507 9.697H20.667C18.864 9.697 18.507 8.847 18.507 7.377Z"/>
<path d="M24.4083 30.154C24.1123 29.908 23.9253 29.539 23.9253 29.127L23.9253 29.124C23.9253 28.801 24.0403 28.506 24.2303 28.275L24.2283 28.277L25.8083 26.124L19.5913 26.124C18.8553 26.124 18.2583 25.527 18.2583 24.791C18.2583 24.055 18.8553 23.458 19.5913 23.458L25.8043 23.458L24.2213 21.301C24.0513 21.08 23.9493 20.799 23.9493 20.494C23.9493 19.758 24.5463 19.161 25.2823 19.161C25.6813 19.161 26.0383 19.336 26.2823 19.613L26.2833 19.614L29.0303 23.191C29.3793 23.627 29.5903 24.186 29.5903 24.794C29.5903 25.402 29.3793 25.962 29.0263 26.402L29.0303 26.397L26.2833 29.97C26.0373 30.268 25.6673 30.457 25.2533 30.457C24.9303 30.457 24.6353 30.342 24.4043 30.152L24.4063 30.154L24.4083 30.154Z"/>
</svg>
