<svg width="32" height="32" viewBox="0 0 32 32" xmlns="http://www.w3.org/2000/svg">
<path fill-rule="evenodd" clip-rule="evenodd" d="M9.2908 0.65246C9.45007 0.258116 9.81874 0.00195312 10.227 0.00195312H22.2717C22.6241 0.00195312 22.9514 0.193369 23.1366 0.50784C23.3219 0.82231 23.3387 1.21499 23.1811 1.54565L19.537 9.19169H26.1182C26.5367 9.19778 26.944 9.33428 27.2884 9.58366C27.6329 9.83305 27.8989 10.1842 28.0528 10.5925C28.2066 11.0007 28.2414 11.4478 28.1526 11.8769C28.0639 12.3059 27.8556 12.6976 27.5542 13.0023L27.5481 13.0084L8.7364 31.7095C8.40379 32.0402 7.90144 32.0966 7.50967 31.8472C7.11789 31.5979 6.9335 31.1045 7.05939 30.6422L11.069 15.9199H6.3019C5.95604 15.9181 5.61589 15.8272 5.31135 15.6552C5.00681 15.4832 4.7472 15.2353 4.55535 14.9334C4.3635 14.6315 4.24526 14.2848 4.21104 13.9237C4.17683 13.5626 4.22767 13.1983 4.3591 12.8627L4.36335 12.8518L9.2908 0.65246ZM10.9004 2.13529L6.23922 13.6756C6.23499 13.6874 6.23341 13.7001 6.23459 13.7126C6.23586 13.726 6.24024 13.7389 6.24735 13.75C6.25445 13.7612 6.26407 13.7704 6.27535 13.7768C6.28631 13.783 6.29852 13.7863 6.31097 13.7866H12.4169C12.736 13.7866 13.0365 13.9437 13.2287 14.2109C13.4208 14.4781 13.4822 14.8244 13.3946 15.1463L10.0359 27.4787L26.1445 11.4647C26.155 11.4536 26.1622 11.4396 26.1654 11.4244C26.1687 11.4085 26.1674 11.3919 26.1617 11.3768C26.156 11.3617 26.1461 11.3487 26.1334 11.3394C26.1214 11.3308 26.1075 11.3258 26.093 11.325H17.8918C17.5394 11.325 17.2122 11.1336 17.0269 10.8191C16.8416 10.5047 16.8248 10.112 16.9824 9.78133L20.6266 2.13529H10.9004Z" />
</svg>