<?xml version="1.0" encoding="UTF-8"?>
<svg width="32px" height="32px" viewBox="0 0 32 32" version="1.1" xmlns="http://www.w3.org/2000/svg" xmlns:xlink="http://www.w3.org/1999/xlink">
    <title>+icon/+oss/go-up</title>
    <g id="+icon/+oss/go-up" stroke="none" stroke-width="1" fill="none" fill-rule="evenodd">
        <path d="M30.6663327,23.0320641 L11.007014,23.0320641 C9.70440882,23.0320641 8.95591182,22.3006012 8.95591182,21.0280561 L8.95591182,11.3216433 L12.9639279,15.8977956 C13.2104208,16.2024048 13.5851703,16.3957916 14.004008,16.3957916 C14.741483,16.3957916 15.3396794,15.7975952 15.3396794,15.0601202 C15.3396794,14.7004008 15.1973948,14.3747495 14.9669339,14.1342685 L14.9669339,14.1342685 L9.51903808,7.91182365 C9.06513026,7.35370741 8.37875752,7 7.60921844,7 C6.86272545,7 6.19438878,7.33266533 5.74448898,7.85871743 L5.74148297,7.86172345 L0.270541082,14.1372745 C0.101202405,14.3587174 0,14.6392786 0,14.9428858 C0,15.6803607 0.598196393,16.2785571 1.33567134,16.2785571 C1.70140281,16.2785571 2.03306613,16.1312625 2.2745491,15.8927856 L2.2745491,15.8927856 L6.28256513,11.3036072 L6.28256513,21.0260521 C6.28256513,23.7785571 8.22645291,25.7024048 11.00501,25.7024048 L30.6643287,25.7024048 C31.4018036,25.7024048 32,25.1042084 32,24.3667335 C32,23.6292585 31.4018036,23.0310621 30.6643287,23.0310621 L30.6643287,23.0310621 L30.6663327,23.0320641 Z" id="go-up" fill="#131C26" transform="translate(16.000000, 16.351202) scale(1, -1) rotate(90.000000) translate(-16.000000, -16.351202) "></path>
    </g>
</svg>