<svg width="32" height="32" viewBox="0 0 32 32" xmlns="http://www.w3.org/2000/svg">
<path fill-rule="evenodd" clip-rule="evenodd" d="M16.9615 8.35796C16.1824 8.26889 15.394 8.40195 14.6873 8.74177C13.9806 9.08159 13.3843 9.61432 12.9674 10.2785C12.5505 10.9427 12.3299 11.7112 12.3311 12.4954C12.332 13.1391 11.8109 13.6616 11.1672 13.6626C10.5235 13.6635 10.001 13.1425 10 12.4988C9.99821 11.275 10.3425 10.0757 10.9931 9.03916C11.6438 8.00267 12.5742 7.17129 13.6771 6.64096C14.7801 6.11064 16.0104 5.903 17.2263 6.042C18.4422 6.181 19.5939 6.66098 20.5487 7.42655C21.5035 8.19211 22.2223 9.21205 22.6222 10.3686C23.0221 11.5252 23.0868 12.7714 22.8089 13.9631C22.5309 15.1549 21.9216 16.2439 21.0513 17.1042C20.181 17.9645 19.0851 18.5612 17.8902 18.8254L17.8641 18.8309C17.8049 18.8426 17.7514 18.8743 17.7128 18.9207C17.6751 18.966 17.6537 19.0225 17.6519 19.0813V20.6501C17.6519 21.2938 17.1301 21.8156 16.4864 21.8156C15.8427 21.8156 15.3209 21.2938 15.3209 20.6501V19.0558C15.3285 18.4607 15.5407 17.8863 15.9216 17.4289C16.299 16.9757 16.8196 16.6648 17.3972 16.5471C18.1589 16.3766 18.8573 15.9952 19.4125 15.4464C19.9702 14.8951 20.3606 14.1974 20.5387 13.4337C20.7168 12.67 20.6754 11.8715 20.4191 11.1304C20.1629 10.3893 19.7023 9.73572 19.0905 9.24516C18.4787 8.7546 17.7406 8.44703 16.9615 8.35796Z"/>
<path fill-rule="evenodd" clip-rule="evenodd" d="M17.9639 24.5431C17.9639 25.3477 17.3116 26 16.507 26C15.7023 26 15.05 25.3477 15.05 24.5431C15.05 23.7385 15.7023 23.0862 16.507 23.0862C17.3116 23.0862 17.9639 23.7385 17.9639 24.5431Z"/>
</svg>