<svg version="1.1" xmlns="http://www.w3.org/2000/svg" width="32" height="32" viewBox="0 0 32 32">
<title>history-file</title>
<path d="M9.04314 32C4.04916 32 -0.000488281 28.12 -0.000488281 23.333C-0.000488281 18.546 4.04812 14.666 9.04314 14.666C14.0371 14.666 18.0868 18.546 18.0868 23.333V23.333C18.0868 28.119 14.0382 32 9.04314 32V32ZM9.04314 17.333C5.58513 17.333 2.78241 20.019 2.78241 23.333C2.78241 26.647 5.58513 29.333 9.04314 29.333C12.5012 29.333 15.3039 26.647 15.3039 23.333V23.333C15.3039 20.019 12.5012 17.333 9.04314 17.333V17.333ZM12.1151 24.723L10.4351 23.116V19.999C10.4351 19.263 9.81217 18.666 9.04418 18.666C8.2762 18.666 7.65326 19.263 7.65326 19.999V19.999V23.479C7.64491 23.535 7.63969 23.601 7.63969 23.667C7.63969 24.035 7.79517 24.368 8.04664 24.609V24.609L10.1336 26.609C10.385 26.85 10.7335 27 11.1175 27C11.8866 27 12.5095 26.403 12.5095 25.666C12.5095 25.298 12.354 24.964 12.1015 24.723V24.723H12.1151ZM31.6517 9.733L23.0849 0.450001C22.821 0.163432 22.4413 -0.000502519 22.0425 1.15723e-06H8.34819C7.5802 1.15723e-06 6.95726 0.597001 6.95726 1.333V11.6663C6.95726 12.4025 7.58 12.9993 8.34819 12.9993C9.11638 12.9993 9.73911 12.4025 9.73911 11.6663V2.666H19.4777V7.979C19.4777 11.382 21.5156 13.332 25.0424 13.332H29.2163V29.332H19.4772C19.4772 29.332 18.0868 29.332 18.0868 30.665C18.0868 31.998 19.4772 31.998 19.4772 31.998H30.6072C31.3752 31.998 31.9981 31.401 31.9981 30.665V10.615C31.9981 10.276 31.8666 9.966 31.6486 9.731L31.6496 9.732L31.6517 9.733ZM22.2606 7.98V3.583L28.7957 10.666H25.0424C23.0494 10.666 22.2595 9.913 22.2595 7.979L22.2606 7.98Z"/>
</svg>
