<?xml version="1.0" encoding="UTF-8"?>
<svg width="32px" height="33px" viewBox="0 0 32 33" version="1.1" xmlns="http://www.w3.org/2000/svg" xmlns:xlink="http://www.w3.org/1999/xlink">
    <title>+icon/+Streamline/light/interface-block</title>
    <g id="modal/edit" stroke="none" stroke-width="1" fill="none" fill-rule="evenodd">
        <g id="+icon/+Streamline/light/interface-block" transform="translate(0.000000, 0.970563)" fill="#131C26">
            <path d="M15.9999999,-6.66667669e-08 C24.836556,-6.66667669e-08 31.9999999,7.16344397 31.9999999,15.9999999 C31.9999999,24.836556 24.836556,31.9999999 15.9999999,31.9999999 C7.16344397,31.9999999 -6.6666671e-08,24.836556 -6.6666671e-08,15.9999999 C-6.6666671e-08,7.16344397 7.16344397,-6.66667669e-08 15.9999999,-6.66667669e-08 Z M26.4717329,7.1437923 L7.1437923,26.4717329 C9.53319716,28.4945454 12.6241558,29.7142858 16,29.7142858 C23.5741909,29.7142858 29.7142858,23.5741909 29.7142858,16 C29.7142858,12.6241558 28.4945454,9.53319716 26.4717329,7.1437923 Z M16,2.28571423 C8.42580911,2.28571423 2.28571423,8.42580911 2.28571423,16 C2.28571423,19.3758442 3.50545457,22.4668028 5.52826713,24.8562077 L24.8562077,5.52826713 C22.4668028,3.50545457 19.3758442,2.28571423 16,2.28571423 Z" id="Combined-Shape"></path>
        </g>
    </g>
</svg>