<svg version="1.1" xmlns="http://www.w3.org/2000/svg" width="33" height="32" viewBox="0 0 33 32">
<title>last-viewed</title>
<path fill="#131C26" d="M5.667 4.667C5.667 5.21928 5.21928 5.667 4.667 5.667C4.11472 5.667 3.667 5.21928 3.667 4.667C3.667 4.11471 4.11472 3.667 4.667 3.667C5.21928 3.667 5.667 4.11471 5.667 4.667ZM7.667 3.667C7.11472 3.667 6.667 4.11471 6.667 4.667C6.667 5.21928 7.11472 5.667 7.667 5.667C8.21928 5.667 8.667 5.21928 8.667 4.667C8.667 4.11471 8.21928 3.667 7.667 3.667ZM10.667 3.667C10.1147 3.667 9.667 4.11471 9.667 4.667C9.667 5.21928 10.1147 5.667 10.667 5.667C11.2193 5.667 11.667 5.21928 11.667 4.667C11.667 4.11471 11.2193 3.667 10.667 3.667ZM28 2V13.333C28 14.0692 27.4032 14.666 26.667 14.666C25.9308 14.666 25.334 14.0692 25.334 13.333V9.333H2.667V25.333H7.287C8.0232 25.333 8.62 25.9298 8.62 26.666C8.62 27.4022 8.0232 27.999 7.287 27.999H2C0.895431 27.999 0 27.1036 0 25.999V1.999C0 0.89443 0.895431 -0.0010004 2 -0.0010004H26C27.1046 -0.0010004 28 0.89443 28 1.999V2ZM25.333 6.667V2.667H2.666V6.667H25.333ZM32 24.333C32.0127 24.6225 31.9282 24.908 31.76 25.144L31.763 25.14C28.533 29.693 25.043 32 21.376 32H21.079C15.032 31.793 11.029 25.333 10.862 25.067C10.7388 24.8666 10.6731 24.6362 10.672 24.401C10.6678 24.3671 10.6681 24.3328 10.673 24.299V24.301C10.6742 24.0635 10.741 23.831 10.866 23.629L10.863 23.635C11.03 23.335 15.033 16.878 21.08 16.668C24.85 16.538 28.447 18.848 31.747 23.525C31.906 23.739 32.001 24.008 32.001 24.299L32 24.337V24.335V24.333ZM29.047 24.333C26.46 20.926 23.814 19.246 21.177 19.333C17.527 19.46 14.667 22.866 13.59 24.333C14.667 25.796 17.547 29.213 21.18 29.333C23.82 29.416 26.457 27.733 29.04 24.333H29.047ZM21.333 21.297C19.6761 21.297 18.333 22.6401 18.333 24.297C18.333 25.9539 19.6761 27.297 21.333 27.297C22.9899 27.297 24.333 25.9539 24.333 24.297C24.333 22.6401 22.9899 21.297 21.333 21.297Z" />
</svg>
