<svg version="1.1" xmlns="http://www.w3.org/2000/svg" width="32" height="32" viewBox="0 0 32 32">
<title>last-purchased</title>
<path fill="#131C26" d="M14.1867 18.5862H5.17139C2.31467 18.5862 0 16.2706 0 13.4148V13.4148V8.2434C0 5.38667 2.31564 3.07201 5.17139 3.07201V3.07201H25.8579C28.7147 3.07201 31.0293 5.38764 31.0293 8.2434V8.2434V12.769C31.0293 13.4827 30.4504 14.0616 29.7367 14.0616C29.023 14.0616 28.4441 13.4827 28.4441 12.769V12.769V8.2434C28.4441 6.81504 27.2863 5.65722 25.8579 5.65722V5.65722H5.17139C3.74303 5.65722 2.58521 6.81504 2.58521 8.2434V8.2434V13.4148C2.58521 14.8432 3.74303 16.001 5.17139 16.001V16.001H14.1867C14.9004 16.001 15.4793 16.5799 15.4793 17.2936C15.4793 18.0073 14.9004 18.5862 14.1867 18.5862V18.5862V18.5862ZM30.5193 19.4647L19.5297 11.0933C19.3125 10.9217 19.0342 10.8179 18.7316 10.8179C18.0179 10.8179 17.439 11.3969 17.439 12.1106C17.439 12.1813 17.4448 12.2512 17.4555 12.319L17.4545 12.3113L19.4492 25.7125C19.5152 26.1411 19.7838 26.495 20.1532 26.6793L20.161 26.6822C20.3248 26.7656 20.5178 26.815 20.7224 26.815C20.7253 26.815 20.7273 26.815 20.7302 26.815V26.815C20.7341 26.815 20.7399 26.815 20.7447 26.815C20.9765 26.815 21.1947 26.7539 21.3828 26.6463L21.376 26.6492L24.7767 24.7486L26.8936 28.3045C27.1098 28.735 27.5472 29.025 28.0524 29.025C28.7661 29.025 29.345 28.4461 29.345 27.7324C29.345 27.4541 29.2567 27.1961 29.1074 26.9857L29.1103 26.9896L27.0322 23.489L30.3845 21.6242C30.783 21.3993 31.0478 20.9775 31.0478 20.4946C31.0478 20.0756 30.848 19.7033 30.5396 19.4667L30.5367 19.4647H30.5193Z"/>
</svg>
