<svg width="32" height="32" viewBox="0 0 32 32" fill="none" xmlns="http://www.w3.org/2000/svg">
<g clip-path="url(#clip0_5791_203626)">
<path fill-rule="evenodd" clip-rule="evenodd" d="M18.1922 0.0563457C18.7151 0.218752 19.0714 0.702558 19.0714 1.25009V11.4287H25.8214C26.2856 11.4287 26.7116 11.6859 26.9277 12.0967C27.1438 12.5076 27.1145 13.0043 26.8515 13.3868L14.2801 31.6725C13.9699 32.1237 13.4021 32.3205 12.8792 32.1581C12.3563 31.9957 12 31.5119 12 30.9644V20.7858H5.25C4.7858 20.7858 4.35983 20.5286 4.14373 20.1177C3.92762 19.7069 3.95697 19.2102 4.21995 18.8276L16.7914 0.541932C17.1016 0.0907404 17.6693 -0.10606 18.1922 0.0563457ZM7.62629 18.2858H13.25C13.9404 18.2858 14.5 18.8455 14.5 19.5358V26.9398L23.4451 13.9287H17.8214C17.1311 13.9287 16.5714 13.369 16.5714 12.6787V5.27469L7.62629 18.2858Z" fill="#131C26"/>
</g>
<defs>
<clipPath id="clip0_5791_203626">
<rect width="32" height="32" fill="white" transform="translate(0 0.00195312)"/>
</clipPath>
</defs>
</svg>
