<svg version="1.1" xmlns="http://www.w3.org/2000/svg" width="32" height="32" viewBox="0 0 32 32">
<title>lock</title>
<path d="M20,22.667 C20,24.876 18.209,26.667 16,26.667 C13.791,26.667 12,24.876 12,22.667 C12,20.458 13.791,18.667 16,18.667 L16,18.667 C18.209,18.667 20,20.458 20,22.667 L20,22.667 Z M28.6670001,15.9999999 L28.6670001,29.3330001 C28.6670001,30.8060001 27.473,31.9999999 26,31.9999999 L26,31.9999999 L5.99999996,31.9999999 C4.52699995,31.9999999 3.33299995,30.8060001 3.33299995,29.3330001 L3.33299995,29.3330001 L3.33299995,15.9999999 C3.33299995,14.527 4.52699995,13.333 5.99999996,13.333 L5.99999996,13.333 L6.66699996,13.333 L6.66699996,6.14299996 C6.67099996,2.75199994 9.41899997,0.00299993335 12.81,-6.66666698e-08 L19.057,-6.66666698e-08 C22.521,0.00599993336 25.328,2.81199995 25.334,6.27599996 L25.334,13.333 L26.001,13.333 C27.474,13.333 28.6680001,14.527 28.6680001,15.9999999 L28.6680001,15.9999999 L28.6670001,15.9999999 Z M9.33299997,13.333 L22.666,13.333 L22.666,6.27599996 C22.664,4.28299995 21.049,2.66799994 19.056,2.66599994 L12.809,2.66599994 C10.89,2.66799994 9.33399997,4.22299995 9.33199997,6.14299996 L9.33199997,6.14299996 L9.33299997,13.333 Z M26,29.3330001 L26,16 L5.99999996,16 L5.99999996,29.3330001 L26,29.3330001 Z"></path>
</svg>
