<svg width="32" height="24" viewBox="0 0 32 24" fill="none" xmlns="http://www.w3.org/2000/svg">
<path fill-rule="evenodd" clip-rule="evenodd" d="M2.5 3.16699V20.8359H29.4995V3.16699H2.5ZM2 0.666992C0.895431 0.666992 0 1.56242 0 2.66699V21.3359C0 22.4405 0.895431 23.3359 2 23.3359H29.9995C31.1041 23.3359 31.9995 22.4405 31.9995 21.3359V2.66699C31.9995 1.56242 31.1041 0.666992 29.9995 0.666992H2Z" fill="#131C26"/>
<path fill-rule="evenodd" clip-rule="evenodd" d="M23.9702 8.74353C21.722 10.5966 19.4793 12.4452 16.8378 14.676C16.3801 15.0626 15.7125 15.07 15.2462 14.6937L0.766216 3.00735L2.33632 1.0619L16.0141 12.1008C18.3316 10.1514 20.3572 8.48178 22.3783 6.8159L22.3801 6.81439C24.6283 4.96129 26.871 3.1127 29.5125 0.881917L31.1255 2.79191C28.472 5.03286 26.2193 6.88974 23.972 8.74202L23.9702 8.74353Z" fill="#131C26"/>
<path fill-rule="evenodd" clip-rule="evenodd" d="M12.8738 11.4766L2.36551 22.6719L0.542696 20.9609L11.051 9.76562L12.8738 11.4766Z" fill="#131C26"/>
<path fill-rule="evenodd" clip-rule="evenodd" d="M19.1081 11.4766L29.6164 22.6719L31.4392 20.9609L20.9309 9.76562L19.1081 11.4766Z" fill="#131C26"/>
</svg>
