<svg width="32" height="32" viewBox="0 0 32 32" fill="none" xmlns="http://www.w3.org/2000/svg">
<path fill-rule="evenodd" clip-rule="evenodd" d="M2.49756 11.4873H2.79652V8.98731H2.24756C1.00492 8.98731 -0.00244141 9.99467 -0.00244141 11.2373V29.7174C-0.00244141 30.96 1.00492 31.9674 2.24756 31.9674H29.7373C30.9799 31.9674 31.9873 30.96 31.9873 29.7174V11.2373C31.9873 9.99467 30.9799 8.98731 29.7373 8.98731H29.4313V11.4873H29.4873V29.4674H2.49756V11.4873Z" fill="#131C26"/>
<path fill-rule="evenodd" clip-rule="evenodd" d="M23.9702 17.4076C21.722 19.2607 19.4793 21.1093 16.8378 23.3401C16.3801 23.7266 15.7125 23.7341 15.2462 23.3578L0.766216 11.6714L2.33632 9.72597L16.0141 20.7648C18.3316 18.8154 20.3572 17.1458 22.3783 15.48L22.3801 15.4785C24.6283 13.6254 26.871 11.7768 29.5125 9.54598L31.1255 11.456C28.472 13.6969 26.2193 15.5538 23.972 17.4061L23.9702 17.4076Z" fill="#131C26"/>
<path fill-rule="evenodd" clip-rule="evenodd" d="M16.3926 0.788298L31.1177 9.46514L29.8485 11.619L15.7804 3.32928C13.3845 4.83526 11.3288 6.05894 9.28489 7.27553L9.28066 7.27805C7.05334 8.60384 4.83989 9.92143 2.1937 11.5985L0.85544 9.48681C3.53276 7.79006 5.77231 6.45699 7.99774 5.13232L8.00195 5.12982C10.2293 3.80403 12.4427 2.48644 15.0889 0.809409C15.4851 0.558322 15.9885 0.550171 16.3926 0.788298Z" fill="#131C26"/>
<path fill-rule="evenodd" clip-rule="evenodd" d="M12.8738 20.1406L2.36551 31.3359L0.542696 29.625L11.051 18.4297L12.8738 20.1406Z" fill="#131C26"/>
<path fill-rule="evenodd" clip-rule="evenodd" d="M19.1081 20.1406L29.6164 31.3359L31.4392 29.625L20.9309 18.4297L19.1081 20.1406Z" fill="#131C26"/>
</svg>
