<svg version="1.1" xmlns="http://www.w3.org/2000/svg" width="32" height="32" viewBox="0 0 32 32">
<title>manage-orders</title>
<path d="M0.800003559,18.2377201 C1.21027406,18.2377201 1.54841262,18.5465536 1.59462491,18.9444263 L1.60000712,19.0377237 L1.60000712,20.2640901 L7.89350114,20.2644337 C10.2693774,20.2644337 12.2465247,21.9715951 12.6651962,24.2261709 L12.6804883,24.3177082 L17.0137123,24.3178608 C19.6332682,24.3178608 21.7681102,26.3931675 21.8637954,28.9893378 L21.867143,29.1712916 C21.867143,29.5815621 21.5583095,29.9197006 21.1604369,29.9659129 L21.0671395,29.9712952 L1.60000712,29.9705333 L1.60000712,31.1980052 C1.60000712,31.6398349 1.24183332,31.9980087 0.800003559,31.9980087 C0.389733063,31.9980087 0.051594501,31.6891752 0.00538220901,31.2913025 L0,31.1980052 L0,19.0377237 C0,18.5958938 0.358173793,18.2377201 0.800003559,18.2377201 Z M7.89350114,21.8644408 L1.60000712,21.8640973 L1.60000712,28.3705262 L20.1669216,28.3705262 L20.1293891,28.2316598 C19.7411464,26.942534 18.5747116,25.9905952 17.176091,25.9218496 L17.0137123,25.9178679 L7.89350114,25.9178679 C7.45167137,25.9178679 7.09349758,25.5596942 7.09349758,25.1178644 C7.09349758,24.7075939 7.40233111,24.3694554 7.80020382,24.3232431 L7.89350114,24.3178608 L11.04786,24.3179639 C10.7041589,22.9584014 9.5045738,21.9396293 8.05587976,21.8684224 L7.89350114,21.8644408 Z M29.8495651,0 C30.9919161,0 31.9262936,0.890440873 31.9964789,2.0151041 L32.000711,2.15114595 L32.000711,23.7694243 C32.000711,24.9117754 31.1102702,25.8461528 29.9856069,25.9163381 L29.8495651,25.9205703 L23.7694243,25.9205703 C23.3275945,25.9205703 22.9694207,25.5623964 22.9694207,25.1205667 C22.9694207,24.7102962 23.2782543,24.3721576 23.676127,24.3259453 L23.7694243,24.3205632 L29.8495651,24.3205632 C30.1285852,24.3205632 30.3591782,24.1132218 30.3956727,23.8442106 L30.4007039,23.7694243 L30.4007039,2.15114595 C30.4007039,1.87212585 30.1933626,1.64153289 29.9243514,1.60503836 L29.8495651,1.60000712 L12.9602851,1.60000712 C12.6812651,1.60000712 12.450672,1.8073484 12.4141775,2.07635968 L12.4091463,2.15114595 L12.4091463,17.0137123 C12.4091463,17.4555421 12.0509725,17.8137159 11.6091428,17.8137159 C11.1988722,17.8137159 10.8607337,17.5048824 10.8145214,17.1070096 L10.8091392,17.0137123 L10.8091392,2.15114595 C10.8091392,1.0087949 11.69958,0.0744174385 12.8242433,0.00423211821 L12.9602851,0 L29.8495651,0 Z M26.8094947,17.1689665 C27.2513244,17.1689665 27.6094983,17.5271402 27.6094983,17.96897 C27.6094983,18.3792405 27.3006647,18.717379 26.902792,18.7635913 L26.8094947,18.7689736 L21.7427107,18.7689736 C21.3008809,18.7689736 20.9427072,18.4107997 20.9427072,17.96897 C20.9427072,17.5586995 21.2515407,17.2205609 21.6494134,17.1743486 L21.7427107,17.1689665 L26.8094947,17.1689665 Z M17.6892835,17.1689665 C18.1311133,17.1689665 18.4892871,17.5271402 18.4892871,17.96897 C18.4892871,18.3792405 18.1804535,18.717379 17.7825808,18.7635913 L17.6892835,18.7689736 L17.0137123,18.7689736 C16.5718825,18.7689736 16.2137088,18.4107997 16.2137088,17.96897 C16.2137088,17.5586995 16.5225423,17.2205609 16.920415,17.1743486 L17.0137123,17.1689665 L17.6892835,17.1689665 Z M26.8094947,11.7643968 C27.2513244,11.7643968 27.6094983,12.1225706 27.6094983,12.5644004 C27.6094983,12.9746709 27.3006647,13.3128095 26.902792,13.3590217 L26.8094947,13.3644039 L21.7427107,13.3644039 C21.3008809,13.3644039 20.9427072,13.0062302 20.9427072,12.5644004 C20.9427072,12.1541299 21.2515407,11.8159914 21.6494134,11.7697791 L21.7427107,11.7643968 L26.8094947,11.7643968 Z M17.6892835,11.7643968 C18.1311133,11.7643968 18.4892871,12.1225706 18.4892871,12.5644004 C18.4892871,12.9746709 18.1804535,13.3128095 17.7825808,13.3590217 L17.6892835,13.3644039 L17.0137123,13.3644039 C16.5718825,13.3644039 16.2137088,13.0062302 16.2137088,12.5644004 C16.2137088,12.1541299 16.5225423,11.8159914 16.920415,11.7697791 L17.0137123,11.7643968 L17.6892835,11.7643968 Z M26.8094947,6.35982726 C27.2513244,6.35982726 27.6094983,6.71800105 27.6094983,7.15983082 C27.6094983,7.57010132 27.3006647,7.90823988 26.902792,7.95445217 L26.8094947,7.95983438 L21.7427107,7.95983438 C21.3008809,7.95983438 20.9427072,7.60166059 20.9427072,7.15983082 C20.9427072,6.74956032 21.2515407,6.41142176 21.6494134,6.36520947 L21.7427107,6.35982726 L26.8094947,6.35982726 Z M17.6892835,6.35982726 C18.1311133,6.35982726 18.4892871,6.71800105 18.4892871,7.15983082 C18.4892871,7.57010132 18.1804535,7.90823988 17.7825808,7.95445217 L17.6892835,7.95983438 L17.0137123,7.95983438 C16.5718825,7.95983438 16.2137088,7.60166059 16.2137088,7.15983082 C16.2137088,6.74956032 16.5225423,6.41142176 16.920415,6.36520947 L17.0137123,6.35982726 L17.6892835,6.35982726 Z"></path>
</svg>