<svg width="32" height="32" viewBox="0 0 32 32" xmlns="http://www.w3.org/2000/svg">
<path fill-rule="evenodd" clip-rule="evenodd" d="M32.4412 10.3799V6.41309C32.4412 4.94009 31.2472 3.74609 29.7742 3.74609H3.10719C1.63419 3.74609 0.440186 4.94009 0.440186 6.41309V25.7461C0.440186 27.2191 1.63419 28.4131 3.10719 28.4131H12.51L12.51 25.7458H3.10815V6.41276H29.7752V10.3799H32.4412ZM18.5422 16.5747L14.1842 12.1431C13.9422 11.8981 13.6062 11.7461 13.2352 11.7461H13.2342C12.8632 11.7471 12.5282 11.8991 12.2872 12.1431L4.82419 19.7031C4.58719 19.9441 4.44019 20.2751 4.44019 20.6401C4.44019 21.3771 5.03719 21.9741 5.77419 21.9741C6.14619 21.9741 6.48219 21.8221 6.72419 21.5771L13.2342 14.9801L16.885 18.6853C17.3581 17.9204 17.9148 17.2126 18.5422 16.5747ZM17.7748 11.4128C17.7748 10.3078 18.6698 9.41276 19.7748 9.41276C20.8798 9.41276 21.7748 10.3078 21.7748 11.4128C21.7748 12.5178 20.8798 13.4128 19.7748 13.4128C18.6698 13.4128 17.7748 12.5178 17.7748 11.4128Z" />
<path fill-rule="evenodd" clip-rule="evenodd" d="M31.1084 7.62598C31.8446 7.62598 32.4414 8.22278 32.4414 8.95898L32.4414 11.6188C32.4414 12.355 31.8446 12.9518 31.1084 12.9518C30.3722 12.9518 29.7754 12.355 29.7754 11.6188L29.7754 8.95898C29.7754 8.22278 30.3722 7.62598 31.1084 7.62598Z" />
<path fill-rule="evenodd" clip-rule="evenodd" d="M22.7197 16.5364C24.0617 15.0711 26.1862 14.6068 28.6508 15.3695C29.0961 15.5073 29.4049 15.9123 29.42 16.3782C29.4351 16.8441 29.153 17.2682 28.7176 17.4345C28.0034 17.7073 27.4899 18.2089 27.2613 18.6771C27.063 19.0831 27.1106 19.346 27.2416 19.5216C27.3824 19.6165 27.4825 19.6352 27.5482 19.6371C27.633 19.6395 27.7668 19.6157 27.9595 19.4974C28.3749 19.2425 28.8817 18.6571 29.3542 17.7355C29.5569 17.3402 29.9786 17.1069 30.4211 17.1453C30.8637 17.1837 31.239 17.4861 31.3705 17.9103C32.0929 20.2393 31.7591 22.3359 30.33 23.694C29.0632 24.8978 27.1785 25.2832 25.1372 24.9692L20.6144 29.492C20.5974 29.509 20.5799 29.5254 20.5618 29.5413C20.0037 30.0301 19.3254 30.1338 18.7362 30.0228C18.1721 29.9165 17.6711 29.617 17.2958 29.2544C16.9212 28.8926 16.5972 28.3954 16.4832 27.8147C16.3621 27.1978 16.4908 26.5181 16.9856 25.9582C17.0019 25.9398 17.0188 25.922 17.0363 25.9047L21.4835 21.5096C21.1643 19.6471 21.5514 17.812 22.7197 16.5364ZM24.3316 18.0127C23.6581 18.7481 23.3353 20.0349 23.7352 21.5958C23.8316 21.9721 23.721 22.3713 23.4447 22.6444L18.6301 27.4027C18.6438 27.4574 18.6945 27.5666 18.8144 27.6824C18.9404 27.8041 19.0686 27.8611 19.1406 27.8747L23.998 23.0173C24.2608 22.7544 24.6393 22.6432 25.0026 22.7221C26.8583 23.1248 28.1456 22.7545 28.8243 22.1095C29.0746 21.8717 29.2855 21.554 29.4157 21.1465C29.3138 21.2234 29.2095 21.2949 29.1028 21.3604C28.634 21.6481 28.0863 21.8389 27.4866 21.822C26.8783 21.8048 26.3135 21.5764 25.8188 21.1872C25.7766 21.154 25.7368 21.1177 25.7 21.0787C24.7435 20.0659 24.7954 18.7455 25.2972 17.7179C25.367 17.575 25.4462 17.435 25.534 17.2987C25.0128 17.4385 24.6173 17.7007 24.3316 18.0127Z" />
<path fill-rule="evenodd" clip-rule="evenodd" d="M8.66089 27.0801C8.66089 26.3439 9.2577 25.7471 9.9939 25.7471H12.6537C13.3899 25.7471 13.9867 26.3439 13.9867 27.0801C13.9867 27.8163 13.3899 28.4131 12.6537 28.4131H9.9939C9.2577 28.4131 8.66089 27.8163 8.66089 27.0801Z" />
<path fill-rule="evenodd" clip-rule="evenodd" d="M15.3191 15.2307C15.8397 14.7101 16.6837 14.7101 17.2043 15.2307L19.0851 17.1115C19.6057 17.632 19.6057 18.476 19.0851 18.9966C18.5645 19.5172 17.7205 19.5172 17.1999 18.9966L15.3191 17.1158C14.7986 16.5953 14.7986 15.7512 15.3191 15.2307Z" />
</svg>
