<svg width="32" height="33" viewBox="0 0 32 33" fill="none" xmlns="http://www.w3.org/2000/svg">
<path d="M9.04363 32.5C4.04965 32.5 0 28.62 0 23.833C0 19.046 4.04861 15.166 9.04363 15.166C14.0376 15.166 18.0873 19.046 18.0873 23.833C18.0873 28.619 14.0387 32.5 9.04363 32.5ZM9.04363 17.833C5.58562 17.833 2.7829 20.519 2.7829 23.833C2.7829 27.147 5.58562 29.833 9.04363 29.833C12.5017 29.833 15.3044 27.147 15.3044 23.833C15.3044 20.519 12.5017 17.833 9.04363 17.833ZM12.1156 25.223L10.4356 23.616V20.499C10.4356 19.763 9.81266 19.166 9.04467 19.166C8.27669 19.166 7.65375 19.763 7.65375 20.499V23.979C7.6454 24.035 7.64018 24.101 7.64018 24.167C7.64018 24.535 7.79566 24.868 8.04713 25.109L10.1341 27.109C10.3855 27.35 10.734 27.5 11.118 27.5C11.8871 27.5 12.51 26.903 12.51 26.166C12.51 25.798 12.3545 25.464 12.102 25.223H12.1156ZM31.6522 10.233L23.0854 0.950001C22.8215 0.663432 22.4418 0.499497 22.043 0.500001H8.34868C7.58069 0.500001 6.95775 1.097 6.95775 1.833V12.1663C6.95775 12.9025 7.58049 13.4993 8.34868 13.4993C9.11687 13.4993 9.7396 12.9025 9.7396 12.1663V3.166H19.4782V8.479C19.4782 11.882 21.5161 13.832 25.0429 13.832H29.2168V29.832H19.4777C19.4777 29.832 18.0873 29.832 18.0873 31.165C18.0873 32.498 19.4777 32.498 19.4777 32.498H30.6077C31.3757 32.498 31.9986 31.901 31.9986 31.165V11.115C31.9986 10.776 31.8671 10.466 31.6491 10.231L31.6501 10.232L31.6522 10.233ZM22.2611 8.48V4.083L28.7962 11.166H25.0429C23.0499 11.166 22.26 10.413 22.26 8.479L22.2611 8.48Z"/>
</svg>
