<svg width="32" height="32" viewBox="0 0 32 32" xmlns="http://www.w3.org/2000/svg">
<path d="M25.1607 6.73302C25.131 6.62248 25.083 6.51769 25.0187 6.42302L25.0207 6.42602L21.3537 1.18602C21.0739 0.817175 20.7126 0.518081 20.298 0.312154C19.8833 0.106227 19.4267 -0.000946507 18.9637 -0.000976562H7.42571C6.44471 -0.000976562 5.57371 0.470023 5.02571 1.19802L5.01971 1.20602L1.37971 6.42602C1.31971 6.51402 1.27171 6.61602 1.24171 6.72602L1.23971 6.73302C0.913718 7.01382 0.652079 7.36158 0.472611 7.75262C0.293142 8.14365 0.200061 8.56877 0.199707 8.99902V22.999C0.199707 23.7947 0.515778 24.5577 1.07839 25.1203C1.641 25.683 2.40406 25.999 3.19971 25.999H11.1997C11.4649 25.999 11.7193 25.8937 11.9068 25.7061C12.0944 25.5186 12.1997 25.2642 12.1997 24.999C12.1997 24.7338 12.0944 24.4795 11.9068 24.2919C11.7193 24.1044 11.4649 23.999 11.1997 23.999H3.19971C2.93449 23.999 2.68014 23.8937 2.4926 23.7061C2.30506 23.5186 2.19971 23.2642 2.19971 22.999V8.99902C2.19971 8.73381 2.30506 8.47945 2.4926 8.29192C2.68014 8.10438 2.93449 7.99902 3.19971 7.99902H23.1997C23.4649 7.99902 23.7193 8.10438 23.9068 8.29192C24.0943 8.47945 24.1997 8.73381 24.1997 8.99902V10.999C24.1997 11.2642 24.3051 11.5186 24.4926 11.7061C24.6801 11.8937 24.9345 11.999 25.1997 11.999C25.4649 11.999 25.7193 11.8937 25.9068 11.7061C26.0943 11.5186 26.1997 11.2642 26.1997 10.999V8.99902C26.1994 8.56945 26.1067 8.14497 25.9279 7.75435C25.7492 7.36373 25.4886 7.0161 25.1637 6.73502L25.1597 6.73202L25.1607 6.73302ZM19.7377 2.35302L22.2847 6.00002H14.2017V2.00002H18.9757C19.1206 1.99997 19.2639 2.03142 19.3954 2.0922C19.527 2.15298 19.6438 2.24264 19.7377 2.35302ZM6.64371 2.37302C6.74081 2.25208 6.86474 2.15542 7.00568 2.09067C7.14662 2.02593 7.30069 1.9949 7.45571 2.00002H7.45371H12.2007V6.00002H4.11771L6.64371 2.37302Z" />
<path fill-rule="evenodd" clip-rule="evenodd" d="M17.8762 17.6774C19.1715 16.382 20.9285 15.6543 22.7604 15.6543C24.5924 15.6543 26.3493 16.382 27.6447 17.6774C28.9401 18.9728 29.6678 20.7297 29.6678 22.5617C29.6678 24.3936 28.9401 26.1506 27.6447 27.446C26.3493 28.7413 24.5924 29.4691 22.7604 29.4691C20.9285 29.4691 19.1715 28.7413 17.8762 27.446C16.5808 26.1506 15.853 24.3936 15.853 22.5617C15.853 20.7297 16.5808 18.9728 17.8762 17.6774ZM22.7604 17.6543C21.4589 17.6543 20.2107 18.1713 19.2904 19.0916C18.3701 20.012 17.853 21.2602 17.853 22.5617C17.853 23.8632 18.3701 25.1114 19.2904 26.0317C20.2107 26.9521 21.4589 27.4691 22.7604 27.4691C24.0619 27.4691 25.3102 26.9521 26.2305 26.0317C27.1508 25.1114 27.6678 23.8632 27.6678 22.5617C27.6678 21.2602 27.1508 20.012 26.2305 19.0916C25.3102 18.1713 24.0619 17.6543 22.7604 17.6543Z" />
<path fill-rule="evenodd" clip-rule="evenodd" d="M26.2572 26.0584C26.6477 25.6679 27.2809 25.6679 27.6714 26.0584L31.908 30.295C32.2985 30.6855 32.2985 31.3186 31.908 31.7092C31.5174 32.0997 30.8843 32.0997 30.4937 31.7092L26.2572 27.4726C25.8667 27.0821 25.8667 26.449 26.2572 26.0584Z" />
</svg>
