<svg version="1.1" xmlns="http://www.w3.org/2000/svg" width="32" height="32" viewBox="0 0 32 32">
<title>past-orders</title>
<path d="M23,14 C27.9705627,14 32,18.0294373 32,23 C32,27.9705627 27.9705627,32 23,32 C18.0294373,32 14,27.9705627 14,23 C14,18.0294373 18.0294373,14 23,14 Z M23,16 C19.1340067,16 16,19.1340067 16,23 C16,26.8659933 19.1340067,30 23,30 C26.8659933,30 30,26.8659933 30,23 C30,19.1340067 26.8659933,16 23,16 Z M17.172,0 C17.905961,0 18.6122164,0.269152241 19.1591123,0.752861023 L19.2924401,0.878226552 L23.122,4.70778649 C23.6408799,5.22699907 23.949946,5.91673534 23.9944243,6.64516324 L24,6.828 L24,10 C24,10.5522847 23.5522847,11 23,11 C22.482233,11 22.0563729,10.6065002 22.0051629,10.1022442 L22,10 L22,6.828 C22,6.60102814 21.9226643,6.38189706 21.7826956,6.20597184 L21.7075599,6.12177345 L17.8784531,2.29266664 C17.717718,2.13203448 17.5080494,2.03175135 17.2846694,2.00637723 L17.172,2 L3,2 C2.48223305,2 2.05637288,2.39349973 2.00516289,2.89775581 L2,3 L2,25 C2,25.517767 2.39349973,25.9436271 2.89775581,25.9948371 L3,26 L10,26 C10.5522847,26 11,26.4477153 11,27 C11,27.517767 10.6065002,27.9436271 10.1022442,27.9948371 L10,28 L3,28 C1.39659266,28 0.086981004,26.7421111 0.00415840749,25.1593269 L0,25 L0,3 C0,1.39659266 1.25788884,0.086981004 2.84067314,0.00415840749 L3,0 L17.172,0 Z M23,18.464 C23.517767,18.464 23.9436271,18.8574998 23.9948371,19.3617558 L24,19.464 L24,21.9992 L26.536,22 C27.053767,22 27.4796271,22.3934998 27.5308371,22.8977558 L27.536,23 C27.536,23.517767 27.1425002,23.9436271 26.6382442,23.9948371 L26.536,24 L23,24 C22.482233,24 22.0563729,23.6065002 22.0051629,23.1022442 L22,23 L22,19.464 C22,18.9117153 22.4477153,18.464 23,18.464 Z M10,20 C10.5522847,20 11,20.4477153 11,21 C11,21.517767 10.6065002,21.9436271 10.1022442,21.9948371 L10,22 L5,22 C4.44771525,22 4,21.5522847 4,21 C4,20.482233 4.39349973,20.0563729 4.89775581,20.0051629 L5,20 L10,20 Z M13,14 C13.5522847,14 14,14.4477153 14,15 C14,15.517767 13.6065002,15.9436271 13.1022442,15.9948371 L13,16 L5,16 C4.44771525,16 4,15.5522847 4,15 C4,14.482233 4.39349973,14.0563729 4.89775581,14.0051629 L5,14 L13,14 Z M19,8 C19.5522847,8 20,8.44771528 20,9 C20,9.51776696 19.6065002,9.94362712 19.1022442,9.99483712 L19,10 L5,10 C4.44771525,10 4,9.55228472 4,9 C4,8.48223304 4.39349973,8.05637288 4.89775581,8.00516288 L5,8 L19,8 Z"></path>
</svg>