<?xml version="1.0" encoding="UTF-8"?>
<svg width="32px" height="32px" viewBox="0 0 32 32" version="1.1" xmlns="http://www.w3.org/2000/svg" xmlns:xlink="http://www.w3.org/1999/xlink">
    <path d="M25.4862341,8.9097859 C25.5953176,8.97794887 25.6902263,9.0665169 25.7657572,9.17063464 L26.7617766,10.5436272 C26.9142575,10.7538189 27.1425216,10.8964542 27.3982839,10.941361 L29.0689476,11.2346971 C29.6129112,11.3302065 29.9764551,11.8486018 29.8809457,12.3925654 C29.8587012,12.5192564 29.8122235,12.640466 29.7440606,12.7495496 L28.2760945,15.0987863 C28.1355512,15.3237027 27.9114165,15.4835764 27.6529975,15.5432371 L24.854,16.189 L23.9176038,17.6894577 C25.7936783,19.1535077 27,21.4358781 27,24 C27,28.418278 23.418278,32 19,32 C14.581722,32 11,28.418278 11,24 C11,19.581722 14.581722,16 19,16 C20.1377606,16 21.2200471,16.2375131 22.1999821,16.6656621 L23.159,15.129 L22.5139787,12.3320218 C22.454318,12.0736028 22.4997573,11.8020678 22.6403007,11.5771515 L24.1082667,9.22791473 C24.4009331,8.7595507 25.0178701,8.61711957 25.4862341,8.9097859 Z M0.177482988,27.9195006 L0.229,27.697 L0.22399825,27.7267834 C0.323997469,27.3267865 1.91398505,21.0598355 3.19697502,19.2898493 C5.06214964,16.7377611 8.13243391,16.6687858 8.67744021,16.6669216 L9.33392708,16.6668698 C9.84992305,16.6718698 10.3519191,16.7108694 10.8429153,16.7838689 L10.7839158,16.7768689 C11.4339107,16.8738682 11.9259068,17.4278638 11.9259068,18.0968586 C11.9259068,18.8338529 11.3289115,19.4308482 10.5919173,19.4308482 C10.5239178,19.4308482 10.4579183,19.4258482 10.3929188,19.4158483 L10.3999188,19.4168483 C10.0909212,19.3678487 9.73092398,19.3378489 9.36492684,19.333849 L8.61051734,19.3337819 C8.35036996,19.3356373 6.42715669,19.399814 5.3499582,20.870837 C4.74996289,21.6908305 3.51297256,25.5138007 2.80997805,28.3877782 L2.80997805,28.4277779 C2.76897837,28.5877767 2.73797861,28.7767752 2.72397872,28.9697737 L2.72297873,28.9807736 L2.70635386,29.1140226 L2.70635386,29.1140226 L2.678,29.232 L2.67897907,29.2307716 C2.66897915,29.2517715 2.6629792,29.2767713 2.6629792,29.3037711 C2.6629792,29.314771 2.66397919,29.3247709 2.66597917,29.3357708 L10.1098823,29.3347708 C10.8458766,29.3347708 11.4428719,29.9317662 11.4428719,30.6677604 C11.4428719,31.4037547 10.8458766,32.00075 10.1098823,32.00075 L2.63897938,31.99975 C1.79998594,31.99975 1.05599175,31.6027531 0.582995445,30.9857579 L0.577995485,30.979758 C0.216998305,30.5107616 0,29.9147663 0,29.2677714 C0,29.1257725 0.0106665833,28.9859958 0.0308145741,28.8496265 L0.0639995,28.666776 C0.0887493067,28.4027781 0.126436512,28.15678 0.177482988,27.9195006 Z M19,18 C15.6862915,18 13,20.6862915 13,24 C13,27.3137085 15.6862915,30 19,30 C22.3137085,30 25,27.3137085 25,24 C25,22.151572 24.1641475,20.4983678 22.8497933,19.397738 L21.2289368,21.9920179 C21.7082384,22.5237197 22,23.2277876 22,24 C22,25.6568542 20.6568542,27 19,27 C17.3431458,27 16,25.6568542 16,24 C16,22.3431458 17.3431458,21 19,21 C19.1591798,21 19.3154641,21.0123974 19.4679399,21.0362793 L21.1239982,18.3867912 C20.4637317,18.136819 19.7478438,18 19,18 Z M10.6679167,0 C15.0858821,0 18.6678542,3.58197202 18.6678542,7.9999375 C18.6678542,12.417903 15.0858821,15.999875 10.6679167,15.999875 C6.24995117,15.999875 2.66797916,12.417903 2.66797916,7.9999375 C2.66797916,3.58197202 6.24995117,0 10.6679167,0 Z M10.6689167,2.66697916 C7.72393966,2.66697916 5.33595831,5.05396052 5.33595831,7.9999375 C5.33595831,10.9449145 7.72393966,13.3328958 10.6689167,13.3328958 C13.6138936,13.3328958 16.001875,10.9459145 16.001875,7.9999375 C16.001875,5.05496051 13.6148936,2.66697916 10.6689167,2.66697916 Z"></path>
</svg>
