<svg width="32" height="32" viewBox="0 0 32 32" fill="none" xmlns="http://www.w3.org/2000/svg">
<g clip-path="url(#clip0_2530_42925)">
<path d="M29.5854 9.46009C29.5654 9.43909 29.5434 9.41909 29.5204 9.40109L29.5194 9.40009C29.6424 8.98709 29.7224 8.71709 29.7394 8.65709C29.8274 8.40609 29.8784 8.11609 29.8784 7.81509C29.8784 7.12209 29.6104 6.49209 29.1714 6.02209L29.1724 6.02409C28.7894 5.60709 25.4424 1.92709 25.0594 1.50409C24.6044 0.988086 23.9414 0.663086 23.2034 0.663086C22.8754 0.663086 22.5624 0.727086 22.2764 0.843086L22.2934 0.837086C21.9604 0.964086 16.2934 2.89409 12.5604 4.17009C12.3384 4.24409 12.1494 4.37009 12.0014 4.53209L12.0004 4.53309L2.46342 15.0361C0.070416 17.6661 -0.123584 21.5761 2.03042 23.9631L8.49342 30.9631C9.42042 32.0071 10.7644 32.6631 12.2624 32.6661H12.2794C14.0884 32.6131 15.6974 31.7991 16.8034 30.5331L16.8094 30.5261L22.5424 24.2291C22.7554 23.9921 22.8854 23.6781 22.8854 23.3321C22.8854 22.5901 22.2844 21.9891 21.5424 21.9891C21.1454 21.9891 20.7894 22.1611 20.5434 22.4341L20.5424 22.4351L14.8394 28.7281C14.2154 29.4641 13.3084 29.9431 12.2884 29.9981H12.2794C11.5574 29.9961 10.9114 29.6761 10.4724 29.1711L10.4704 29.1681L4.00742 22.1681C2.81442 20.8351 3.00742 18.4011 4.44042 16.8351L13.7434 6.57509C15.7434 5.90809 22.1304 3.72509 23.1504 3.36509C23.7504 4.03209 26.8374 7.42209 27.2004 7.81509C27.2004 7.82009 27.1994 7.82609 27.1994 7.83209C27.1994 7.83809 27.1994 7.84409 27.2004 7.84909C27.1034 8.14909 25.7904 12.6511 24.9334 15.6181C24.8904 15.7431 24.8664 15.8861 24.8664 16.0361C24.8664 16.7721 25.4634 17.3691 26.1994 17.3691C26.8214 17.3691 27.3434 16.9431 27.4914 16.3671L27.4934 16.3581L28.5634 12.6911C29.4734 14.5511 29.4404 16.7281 28.3334 18.0241C27.8164 18.6221 27.0574 18.9981 26.2094 18.9981C26.1974 18.9981 26.1864 18.9981 26.1744 18.9981H26.1764C25.0094 18.9981 23.7864 18.3811 22.8234 17.3051C21.8314 16.2111 21.2244 14.7511 21.2244 13.1501C21.2244 12.8851 21.2414 12.6241 21.2734 12.3671L21.2704 12.3981C21.4074 12.4531 21.5654 12.4851 21.7314 12.4851C22.0084 12.4851 22.2654 12.3961 22.4734 12.2461L22.4694 12.2491C23.1974 11.7331 23.6664 10.8951 23.6664 9.94609C23.6664 9.93509 23.6664 9.92409 23.6664 9.91409V9.91609C23.6664 8.44309 22.4724 7.24909 20.9994 7.24909C19.5264 7.24909 18.3324 8.44309 18.3324 9.91609C18.3324 9.91709 18.3324 9.91809 18.3324 9.92009C18.3324 10.0961 18.3474 10.2691 18.3754 10.4381L18.3724 10.4201C18.4304 10.7311 18.5894 10.9981 18.8144 11.1921L18.8164 11.1931C18.1494 13.7261 18.8394 16.8231 20.8364 19.0561C22.3064 20.7091 24.2534 21.6661 26.1764 21.6661C26.1924 21.6661 26.2104 21.6661 26.2294 21.6661C27.8744 21.6661 29.3484 20.9321 30.3404 19.7731L30.3464 19.7661C32.6694 17.0591 32.3364 12.5391 29.5864 9.45909L29.5854 9.46009Z" fill="#131C26"/>
</g>
</svg>
