<svg width="32" height="32" viewBox="0 0 32 32" xmlns="http://www.w3.org/2000/svg">
<path fill-rule="evenodd" clip-rule="evenodd" d="M30.188 8.88189C30.1924 8.9204 30.1924 8.9593 30.188 8.99781L30.189 8.99582C30.189 9.26085 30.0837 9.51503 29.8963 9.70244C29.7089 9.88985 29.4547 9.99514 29.1897 9.99514L2.20925 9.99713L1.21101 9.99514C0.945995 9.99514 0.691835 9.88985 0.504441 9.70244C0.317047 9.51503 0.212207 8.99582 0.212207 8.99582L0.21177 8.99282C0.214024 8.97472 0.211925 8.97948 0.209785 8.98813C0.178368 8.87244 0.3037 8.57011 0.3037 8.57011L3.56422 1.63184L3.57221 1.61585C3.83688 1.12792 4.22836 0.720503 4.70534 0.436615C5.18232 0.152727 5.72709 0.00290069 6.28215 0.00295244H24.0656L24.1226 0.00195312C24.6746 0.00251138 25.2162 0.151627 25.6908 0.433656C26.1653 0.715686 26.5552 1.12023 26.8195 1.60486L30.124 8.58709V8.60408C30.1278 8.61229 30.1318 8.62049 30.1359 8.62866C30.1501 8.65727 30.164 8.68535 30.164 8.71101C30.174 8.74151 30.1803 8.76454 30.187 8.79595C30.189 8.81094 30.189 8.82593 30.189 8.84092L30.188 8.88189ZM24.1216 2.00159L24.0656 2.00259L16.1976 2.00359V7.9985H27.6155L25.0249 2.48326L25.0229 2.47926C24.827 2.19046 24.4963 2.00159 24.1216 2.00159ZM5.77795 2.12434C5.60644 2.21397 5.46207 2.34791 5.35985 2.51224L2.78082 7.9985H14.1991V2.00259H6.33511C6.14185 1.99267 5.94946 2.03471 5.77795 2.12434Z" />
<path d="M0.212207 8.99582C0.203749 9.01973 0.206808 9.00016 0.209785 8.98813C0.210508 8.99079 0.211314 8.99336 0.212207 8.99582Z" />
<path fill-rule="evenodd" clip-rule="evenodd" d="M0.648613 7.97988L29.8006 8.00089L30.1894 8.83201V12.3264C30.1894 12.8784 29.742 13.3258 29.19 13.3258C28.6381 13.3258 28.1907 12.8784 28.1907 12.3264V9.99807L2.20429 9.97916L2.18918 29.9754L13.5698 29.9802C14.1217 29.9805 14.5689 30.4281 14.5687 30.98C14.5685 31.5319 14.1209 31.9791 13.5689 31.9789L1.3886 31.9737C0.726168 31.9734 0.189441 31.436 0.189942 30.7736L0.198553 8.91869L0.648613 7.97988Z" />
<path d="M32.1899 22.9863C32.1899 27.9539 28.1637 31.9801 23.1961 31.9801C18.2285 31.9801 14.2022 27.9539 14.2022 22.9863C14.2022 20.6009 15.1498 18.3133 16.8365 16.6266C18.5231 14.94 20.8108 13.9924 23.1961 13.9924C25.5814 13.9924 27.869 14.94 29.5557 16.6266C31.2424 18.3133 32.1899 20.6009 32.1899 22.9863ZM16.2009 22.9863C16.2009 24.3698 16.6111 25.7222 17.3798 26.8726C18.1484 28.023 19.2409 28.9196 20.5191 29.449C21.7973 29.9785 23.2038 30.117 24.5608 29.8471C25.9177 29.5772 27.1642 28.9109 28.1425 27.9326C29.1208 26.9543 29.787 25.7079 30.0569 24.351C30.3268 22.994 30.1883 21.5875 29.6588 20.3093C29.1294 19.0311 28.2328 17.9386 27.0824 17.1699C25.9321 16.4013 24.5796 15.991 23.1961 15.991C21.3408 15.991 19.5616 16.728 18.2497 18.0399C16.9378 19.3518 16.2009 21.131 16.2009 22.9863ZM22.1968 18.989V24.5722L21.2374 23.6128C21.0481 23.4353 20.7971 23.3384 20.5376 23.3426C20.2781 23.3468 20.0304 23.4518 19.847 23.6354C19.6635 23.819 19.5587 24.0668 19.5547 24.3263C19.5506 24.5858 19.6477 24.8367 19.8254 25.0259L22.4896 27.6901C22.5353 27.7365 22.5855 27.7783 22.6395 27.815L22.6425 27.817C22.6654 27.817 22.6894 27.84 22.7154 27.8539C22.7447 27.8742 22.7758 27.8916 22.8083 27.9059L22.8123 27.9069C22.8453 27.9069 22.8793 27.9269 22.9123 27.9369C22.9386 27.9473 22.9656 27.9556 22.9932 27.9619L22.9992 27.9629C23.131 27.9915 23.2673 27.9911 23.3989 27.9619L23.3929 27.9629C23.4244 27.955 23.4555 27.9453 23.4859 27.9339L23.4799 27.9359C23.5129 27.9359 23.5468 27.9359 23.5798 27.9059C23.6144 27.8913 23.6472 27.8728 23.6778 27.8509L23.6758 27.8519C23.7027 27.8519 23.7257 27.829 23.7487 27.815C23.8067 27.777 23.8566 27.735 23.9016 27.6881L26.5668 25.0229C26.7541 24.8355 26.8594 24.5813 26.8594 24.3164C26.8594 24.0514 26.7541 23.7972 26.5668 23.6098C26.3794 23.4225 26.1252 23.3173 25.8603 23.3173C25.5953 23.3173 25.3411 23.4225 25.1537 23.6098L24.1944 24.5692V18.986C24.1944 18.721 24.0891 18.4668 23.9017 18.2794C23.7143 18.092 23.4601 17.9867 23.1951 17.9867C22.93 17.9867 22.6759 18.092 22.4885 18.2794C22.301 18.4668 22.1958 18.721 22.1958 18.986L22.1968 18.989Z" />
</svg>
