<?xml version="1.0" encoding="UTF-8"?>
<svg width="32px" height="32px" viewBox="0 0 32 32" version="1.1" xmlns="http://www.w3.org/2000/svg" xmlns:xlink="http://www.w3.org/1999/xlink">
    <path d="M3,30 C1.34314575,30 0,28.6568542 0,27 L0,18 C0,16.3431458 1.34314575,15 3,15 L7.17102423,15.0009007 C7.06026977,14.6878673 7,14.350972 7,14 L7,5 C7,3.34314575 8.34314575,2 10,2 L21,2 C22.6568542,2 24,3.34314575 24,5 L24,14 C24,14.350972 23.9397302,14.6878673 23.8289758,15.0009007 L29,15 C30.6568542,15 32,16.3431458 32,18 L32,27 C32,28.6568542 30.6568542,30 29,30 L3,30 Z M5.17067428,17.0000889 L3,17 C2.48716416,17 2.06449284,17.3860402 2.00672773,17.8833789 L2,18 L2,27 C2,27.5128358 2.38604019,27.9355072 2.88337887,27.9932723 L3,28 L15,28 L15,17 L11.8293257,17.0000889 C11.9398572,17.3128427 12,17.6493978 12,18 L12,21 C12,22.6568542 10.6568542,24 9,24 L8,24 C6.34314575,24 5,22.6568542 5,21 L5,18 C5,17.6493978 5.06014282,17.3128427 5.17067428,17.0000889 Z M29,17 L26.8293257,17.0000889 C26.9398572,17.3128427 27,17.6493978 27,18 L27,21 C27,22.6568542 25.6568542,24 24,24 L23,24 C21.3431458,24 20,22.6568542 20,21 L20,18 C20,17.6493978 20.0601428,17.3128427 20.1706743,17.0000889 L18,17 L18,28 L29,28 C29.5128358,28 29.9355072,27.6139598 29.9932723,27.1166211 L30,27 L30,18 C30,17.4871642 29.6139598,17.0644928 29.1166211,17.0067277 L29,17 Z M9,17 L8,17 C7.48716416,17 7.06449284,17.3860402 7.00672773,17.8833789 L7,18 L7,21 C7,21.5128358 7.38604019,21.9355072 7.88337887,21.9932723 L8,22 L9,22 C9.51283584,22 9.93550716,21.6139598 9.99327227,21.1166211 L10,21 L10,18 C10,17.4871642 9.61395981,17.0644928 9.11662113,17.0067277 L9,17 Z M24,17 L23,17 C22.4871642,17 22.0644928,17.3860402 22.0067277,17.8833789 L22,18 L22,21 C22,21.5128358 22.3860402,21.9355072 22.8833789,21.9932723 L23,22 L24,22 C24.5128358,22 24.9355072,21.6139598 24.9932723,21.1166211 L25,21 L25,18 C25,17.4871642 24.6139598,17.0644928 24.1166211,17.0067277 L24,17 Z M12.1706743,4.00008893 L10,4 C9.48716416,4 9.06449284,4.38604019 9.00672773,4.88337887 L9,5 L9,14 C9,14.5128358 9.38604019,14.9355072 9.88337887,14.9932723 L10,15 L21,15 C21.5128358,15 21.9355072,14.6139598 21.9932723,14.1166211 L22,14 L22,5 C22,4.48716416 21.6139598,4.06449284 21.1166211,4.00672773 L21,4 L18.8293257,4.00008893 C18.9398572,4.31284272 19,4.64939781 19,5 L19,8 C19,9.65685425 17.6568542,11 16,11 L15,11 C13.3431458,11 12,9.65685425 12,8 L12,5 C12,4.64939781 12.0601428,4.31284272 12.1706743,4.00008893 Z M16,4 L15,4 C14.4871642,4 14.0644928,4.38604019 14.0067277,4.88337887 L14,5 L14,8 C14,8.51283584 14.3860402,8.93550716 14.8833789,8.99327227 L15,9 L16,9 C16.5128358,9 16.9355072,8.61395981 16.9932723,8.11662113 L17,8 L17,5 C17,4.48716416 16.6139598,4.06449284 16.1166211,4.00672773 L16,4 Z"></path>
</svg>