<svg width="32" height="32" viewBox="0 0 32 32" fill="none" xmlns="http://www.w3.org/2000/svg">
<path fill-rule="evenodd" clip-rule="evenodd" d="M32.4812 9.16701C32.5132 9.05801 32.5322 8.93201 32.5322 8.80201C32.5322 8.64501 32.5052 8.49401 32.4552 8.35401L32.4582 8.36301L30.3012 2.22301C29.9992 1.40501 29.2262 0.833008 28.3202 0.833008H4.7322C3.8262 0.833008 3.0532 1.40501 2.7562 2.20801L2.7512 2.22301L0.611203 8.31601C0.562203 8.44801 0.534203 8.59901 0.534203 8.75801C0.534203 8.89401 0.555203 9.02501 0.593203 9.14901L0.590203 9.14001C0.556203 9.24701 0.535203 9.37101 0.533203 9.49901V27.39C0.533203 28.553 1.4742 29.496 2.6362 29.5H30.4262L30.4293 29.5H14.8916V26.8344L3.2012 26.834V10.121C3.9482 10.121 4.99127 10.121 6.4712 10.141L11.2012 10.168V15.645C11.2012 16.381 11.7982 16.98 12.5342 16.98C12.7312 16.98 12.9182 16.937 13.0862 16.861L13.0782 16.864L16.5352 15.324L19.9882 16.884C20.1492 16.957 20.3372 16.999 20.5342 17.001C21.2702 17.001 21.8672 16.404 21.8672 15.668V10.168H29.8672V16.4487H32.5332V9.50001C32.5303 9.38334 32.5135 9.27234 32.4812 9.16701ZM29.3272 7.50001H21.5942L20.7942 3.50001H27.9212L29.3272 7.50001ZM19.2012 13.604L17.0812 12.647C16.9212 12.573 16.7332 12.531 16.5362 12.531C16.3392 12.531 16.1512 12.574 15.9832 12.651L15.9912 12.648L13.8682 13.591V10.168H19.2012V13.604ZM18.0742 3.50001L18.8672 7.50001H14.2002L15.0002 3.50001H18.0742ZM5.1412 3.50001H12.2742L11.4772 7.50001C8.29027 7.50001 5.47718 7.50001 3.7402 7.47001L5.1412 3.50001Z" fill="#131C26"/>
<path fill-rule="evenodd" clip-rule="evenodd" d="M21.6611 27.1785C21.1088 27.1785 20.6611 27.6262 20.6611 28.1785C20.6611 28.7308 21.1088 29.1785 21.6611 29.1785C22.2134 29.1785 22.6611 28.7308 22.6611 28.1785C22.6611 27.6262 22.2134 27.1785 21.6611 27.1785ZM18.6611 28.1785C18.6611 26.5216 20.0043 25.1785 21.6611 25.1785C23.318 25.1785 24.6611 26.5216 24.6611 28.1785C24.6611 29.8353 23.318 31.1785 21.6611 31.1785C20.0043 31.1785 18.6611 29.8353 18.6611 28.1785Z" fill="#131C26"/>
<path fill-rule="evenodd" clip-rule="evenodd" d="M25.0898 20.3396C25.0898 19.5112 25.7614 18.8396 26.5898 18.8396H29.5898C30.4183 18.8396 31.0898 19.5112 31.0898 20.3396V23.3396C31.0898 24.168 30.4183 24.8396 29.5898 24.8396H26.5898C25.7614 24.8396 25.0898 24.168 25.0898 23.3396V20.3396ZM27.0898 20.8396V22.8396H29.0898V20.8396H27.0898Z" fill="#131C26"/>
<path fill-rule="evenodd" clip-rule="evenodd" d="M27.0292 25.35C27.615 24.7643 28.5647 24.7643 29.1505 25.35L30.9183 27.1178C31.5041 27.7036 31.5041 28.6533 30.9183 29.2391L29.1505 31.0069C28.5647 31.5927 27.615 31.5927 27.0292 31.0069L25.2614 29.2391C24.6756 28.6533 24.6756 27.7036 25.2614 27.1178L27.0292 25.35ZM28.0898 27.1178L27.0292 28.1785L28.0898 29.2391L29.1505 28.1785L28.0898 27.1178Z" fill="#131C26"/>
<path fill-rule="evenodd" clip-rule="evenodd" d="M20.3621 19.6433C20.9394 18.6433 22.3828 18.6433 22.9602 19.6433L24.6922 22.6433C25.2696 23.6433 24.5479 24.8933 23.3932 24.8933H19.9291C18.7744 24.8933 18.0527 23.6433 18.63 22.6433L20.3621 19.6433ZM20.7951 22.8933H22.5272L21.6611 21.3933L20.7951 22.8933Z" fill="#131C26"/>
<path fill-rule="evenodd" clip-rule="evenodd" d="M9.47446 28.1631C9.47446 27.4285 10.0699 26.8331 10.8045 26.8331H16.3308C17.0654 26.8331 17.6608 27.4285 17.6608 28.1631C17.6608 28.8976 17.0654 29.4931 16.3308 29.4931H10.8045C10.0699 29.4931 9.47446 28.8976 9.47446 28.1631Z" fill="#131C26"/>
<path fill-rule="evenodd" clip-rule="evenodd" d="M31.2032 9.53181C31.9377 9.53181 32.5332 10.1273 32.5332 10.8618V16.3882C32.5332 17.1227 31.9377 17.7182 31.2032 17.7182C30.4687 17.7182 29.8732 17.1227 29.8732 16.3882V10.8618C29.8732 10.1273 30.4687 9.53181 31.2032 9.53181Z" fill="#131C26"/>
</svg>
