<svg width="32" height="32" viewBox="0 0 32 32" xmlns="http://www.w3.org/2000/svg">
<path fill-rule="evenodd" clip-rule="evenodd" d="M26.5821 3.16814H8.91747C7.44488 3.16814 6.25111 4.36191 6.25111 5.83451V27.1654C6.25111 28.638 7.44488 29.8318 8.91747 29.8318H26.5821C28.0547 29.8318 29.2485 28.638 29.2485 27.1654V5.83451C29.2485 4.36191 28.0547 3.16814 26.5821 3.16814ZM8.91747 1.83496C6.70859 1.83496 4.91793 3.62562 4.91793 5.83451V27.1654C4.91793 29.3743 6.70859 31.165 8.91747 31.165H26.5821C28.791 31.165 30.5817 29.3743 30.5817 27.1654V5.83451C30.5817 3.62562 28.791 1.83496 26.5821 1.83496H8.91747Z" />
<path d="M2.41821 9.83405C2.41821 8.72961 3.31354 7.83428 4.41799 7.83428H8.41753C9.52198 7.83428 10.4173 8.72961 10.4173 9.83405C10.4173 10.9385 9.52198 11.8338 8.41753 11.8338H4.41799C3.31354 11.8338 2.41821 10.9385 2.41821 9.83405Z" />
<path d="M2.41821 16.5C2.41821 15.3955 3.31354 14.5002 4.41799 14.5002H8.41753C9.52198 14.5002 10.4173 15.3955 10.4173 16.5C10.4173 17.6044 9.52198 18.4997 8.41753 18.4997H4.41799C3.31354 18.4997 2.41821 17.6044 2.41821 16.5Z" />
<path d="M2.41821 23.1659C2.41821 22.0614 3.31354 21.1661 4.41799 21.1661H8.41753C9.52198 21.1661 10.4173 22.0614 10.4173 23.1659C10.4173 24.2703 9.52198 25.1656 8.41753 25.1656H4.41799C3.31354 25.1656 2.41821 24.2703 2.41821 23.1659Z" />
</svg>
