<svg width="32" height="32" viewBox="0 0 32 32" xmlns="http://www.w3.org/2000/svg">
<path fill-rule="evenodd" clip-rule="evenodd" d="M26.6667 12.6363L17.8637 3.83334H7C6.55797 3.83334 6.13405 4.00893 5.82149 4.32149C5.50893 4.63405 5.33333 5.05798 5.33333 5.5V27.5C5.33333 27.942 5.50893 28.366 5.82149 28.6785C6.13405 28.9911 6.55797 29.1667 7 29.1667H25C25.442 29.1667 25.866 28.9911 26.1785 28.6785C26.4911 28.366 26.6667 27.942 26.6667 27.5V12.6363ZM27.708 11.792C27.8008 11.885 27.8744 11.9955 27.9245 12.1169C27.9746 12.2384 28.0002 12.3686 28 12.5V27.5C28 28.2957 27.6839 29.0587 27.1213 29.6213C26.5587 30.1839 25.7956 30.5 25 30.5H7C6.20435 30.5 5.44129 30.1839 4.87868 29.6213C4.31607 29.0587 4 28.2957 4 27.5V5.5C4 4.70435 4.31607 3.94129 4.87868 3.37868C5.44129 2.81607 6.20435 2.5 7 2.5H18C18.1314 2.49977 18.2616 2.52544 18.3831 2.57554C18.5045 2.62564 18.615 2.6992 18.708 2.792L27.708 11.792Z" />
<path d="M26.6443 12.5C26.6445 12.3864 26.6223 12.2739 26.579 12.1689C26.5357 12.0639 26.4721 11.9684 26.3919 11.888L18.6121 4.10821C18.5316 4.02799 18.4362 3.96441 18.3312 3.9211C18.2262 3.87779 18.1137 3.8556 18.0001 3.8558V11.6356C18.0001 11.8648 18.0911 12.0847 18.2532 12.2468C18.4154 12.4089 18.6352 12.5 18.8645 12.5H26.6443Z" />
<path fill-rule="evenodd" clip-rule="evenodd" d="M27.9752 13.8333H18.8645C18.2816 13.8333 17.7226 13.6018 17.3104 13.1896C16.8983 12.7775 16.6667 12.2185 16.6667 11.6356V2.52485L17.9977 2.52247C18.2865 2.52195 18.5726 2.57837 18.8396 2.68848C19.1066 2.7986 19.3492 2.96026 19.5537 3.16421L19.5549 3.1654L27.3359 10.9464C27.5398 11.1509 27.7015 11.3935 27.8116 11.6605C27.9217 11.9275 27.9781 12.2136 27.9776 12.5024L27.9752 13.8333ZM26.6443 12.5V12.4969C26.6441 12.3844 26.6219 12.2729 26.579 12.1689C26.5357 12.0639 26.4721 11.9684 26.3919 11.888L18.6121 4.10821C18.5316 4.02799 18.4362 3.96441 18.3312 3.9211C18.2271 3.87818 18.1157 3.856 18.0031 3.8558L18.0001 3.8558V11.6356C18.0001 11.8648 18.0911 12.0847 18.2532 12.2468C18.4154 12.4089 18.6352 12.5 18.8645 12.5H26.6443Z" />
</svg>
