<svg width="32" height="32" viewBox="0 0 32 32" xmlns="http://www.w3.org/2000/svg">
<path fill-rule="evenodd" clip-rule="evenodd" d="M14.3915 28.5001C14.577 26.1961 15.664 24.1459 17.2977 22.7035C17.6313 22.409 17.9877 22.1398 18.3638 21.8989C18.072 21.56 17.8189 21.1912 17.6083 20.7996C17.4036 20.4191 17.2391 20.0171 17.1181 19.5998C16.8724 18.7529 16.8118 17.8632 16.9403 16.9908C17.0687 16.1185 17.3833 15.284 17.8626 14.5439C18.3419 13.8038 18.9748 13.1754 19.7183 12.7014L19.7202 6.05668C19.7202 4.46217 18.4286 3.16865 16.8341 3.16865H7.70898L7.70707 3.16675C6.11256 3.16675 4.82095 4.46027 4.82095 6.05668V26.9759H4.10846C3.72953 26.9759 3.36611 27.1264 3.09817 27.3943C2.83022 27.6623 2.67969 28.0257 2.67969 28.4046C2.67969 28.7836 2.83022 29.147 3.09817 29.4149C3.36611 29.6829 3.72953 29.8334 4.10846 29.8334H14.4299C14.3858 29.6268 14.3634 29.4161 14.3633 29.2048C14.3633 28.9675 14.3728 28.7325 14.3915 28.5001ZM13.0544 28.5001C13.2465 25.743 14.5571 23.294 16.5301 21.6042C16.2361 21.0907 16.0033 20.5427 15.8375 19.9712C15.5386 18.9407 15.4648 17.858 15.6212 16.7966C15.7775 15.7351 16.1602 14.7196 16.7435 13.8191C17.1893 13.1307 17.7443 12.5218 18.3852 12.0154L18.3869 6.05668C18.3867 5.19758 17.691 4.50199 16.8341 4.50199H7.62956C6.80903 4.54241 6.15428 5.22108 6.15428 6.05668V28.3092H4.10846C4.08315 28.3092 4.05887 28.3193 4.04098 28.3371C4.02308 28.355 4.01302 28.3793 4.01302 28.4046C4.01302 28.43 4.02308 28.4542 4.04098 28.4721C4.05887 28.49 4.08315 28.5001 4.10846 28.5001H13.0544Z" />
<path fill-rule="evenodd" clip-rule="evenodd" d="M4.82094 13.8711H13.1021C13.4179 13.8711 13.7207 13.7457 13.944 13.5224C14.1673 13.2991 14.2928 12.9963 14.2928 12.6805C14.2928 12.3647 14.1673 12.0619 13.944 11.8386C13.7207 11.6153 13.4179 11.4898 13.1021 11.4898H4.82094V13.8711ZM4.82094 8.91805H10.0141C10.3298 8.91805 10.6327 8.7926 10.856 8.56931C11.0793 8.34602 11.2047 8.04318 11.2047 7.7274C11.2047 7.41162 11.0793 7.10877 10.856 6.88549C10.6327 6.6622 10.3298 6.53675 10.0141 6.53675H4.82094V8.91805Z" />
<path fill-rule="evenodd" clip-rule="evenodd" d="M22.3795 22.9503C22.5956 22.9277 22.8137 22.9162 23.033 22.9162C23.2523 22.9162 23.4704 22.9277 23.6865 22.9503C25.1136 23.0994 26.4544 23.7336 27.4783 24.7575C28.6573 25.9365 29.3196 27.5355 29.3196 29.2028C29.3196 29.3696 29.2534 29.5295 29.1355 29.6474C29.0176 29.7653 28.8577 29.8315 28.691 29.8315H17.3751C17.2083 29.8315 17.0484 29.7653 16.9305 29.6474C16.8126 29.5295 16.7464 29.3696 16.7464 29.2028C16.7464 27.5355 17.4087 25.9365 18.5877 24.7575C19.6116 23.7336 20.9524 23.0994 22.3795 22.9503ZM22.4151 21.608C22.618 21.6417 22.8246 21.6589 23.033 21.6589C23.2414 21.6589 23.448 21.6417 23.6509 21.608C24.4221 21.4799 25.1402 21.1142 25.7002 20.5541C26.4076 19.8467 26.805 18.8873 26.805 17.8869C26.805 16.8866 26.4076 15.9271 25.7002 15.2198C24.9928 14.5124 24.0334 14.115 23.033 14.115C22.0326 14.115 21.0732 14.5124 20.3658 15.2198C19.6584 15.9271 19.261 16.8866 19.261 17.8869C19.261 18.8873 19.6584 19.8467 20.3658 20.5541C20.9259 21.1142 21.6439 21.4799 22.4151 21.608ZM23.033 20.3256C23.6798 20.3256 24.3 20.0687 24.7574 19.6113C25.2147 19.154 25.4716 18.5337 25.4716 17.8869C25.4716 17.2402 25.2147 16.6199 24.7574 16.1626C24.3 15.7052 23.6798 15.4483 23.033 15.4483C22.3862 15.4483 21.766 15.7052 21.3086 16.1626C20.8513 16.6199 20.5944 17.2402 20.5944 17.8869C20.5944 18.5337 20.8513 19.154 21.3086 19.6113C21.766 20.0687 22.3862 20.3256 23.033 20.3256ZM18.1301 28.4982H27.9359C27.7846 27.445 27.2967 26.4616 26.5355 25.7004C25.6066 24.7714 24.3467 24.2496 23.033 24.2496C21.7193 24.2496 20.4594 24.7714 19.5305 25.7004C18.7693 26.4616 18.2814 27.445 18.1301 28.4982Z" />
</svg>
