<svg viewBox="0 0 32 32" xmlns="http://www.w3.org/2000/svg">
<path fill-rule="evenodd" clip-rule="evenodd" d="M23.1675 4.49854H9.83254C6.88665 4.49854 4.49854 6.88665 4.49854 9.83254V23.1675C4.49854 26.1134 6.88665 28.5015 9.83254 28.5015H23.1675C26.1134 28.5015 28.5015 26.1134 28.5015 23.1675V9.83254C28.5015 6.88665 26.1134 4.49854 23.1675 4.49854ZM9.83254 3.16504C6.15018 3.16504 3.16504 6.15018 3.16504 9.83254V23.1675C3.16504 26.8499 6.15018 29.835 9.83254 29.835H23.1675C26.8499 29.835 29.835 26.8499 29.835 23.1675V9.83254C29.835 6.15018 26.8499 3.16504 23.1675 3.16504H9.83254Z" />
<path fill-rule="evenodd" clip-rule="evenodd" d="M23.8998 9.85329C24.0642 9.98585 24.201 10.1498 24.3025 10.3358C24.4039 10.5218 24.4681 10.7262 24.4913 10.9372C24.5145 11.1483 24.4962 11.3618 24.4376 11.5658C24.3789 11.7697 24.281 11.9599 24.1495 12.1256L15.616 22.8949C15.3561 23.2227 14.9801 23.4355 14.5675 23.4881C14.1549 23.5408 13.7383 23.4293 13.4058 23.1771L9.13905 19.9463C8.97096 19.819 8.82934 19.6595 8.72228 19.477C8.61523 19.2945 8.54484 19.0924 8.51512 18.8824C8.4854 18.6724 8.49695 18.4586 8.5491 18.2531C8.60125 18.0476 8.69297 17.8544 8.81905 17.6847C8.94512 17.515 9.10306 17.372 9.28386 17.264C9.46467 17.1559 9.66478 17.0848 9.87279 17.0548C10.0808 17.0248 10.2926 17.0365 10.4962 17.0891C10.6997 17.1418 10.891 17.2344 11.0591 17.3617L14.0863 19.6534L21.647 10.1074C21.7782 9.9414 21.9404 9.80309 22.1246 9.70043C22.3087 9.59777 22.5111 9.53278 22.7202 9.50917C22.9292 9.48557 23.1408 9.50381 23.3429 9.56286C23.5449 9.6219 23.7335 9.7206 23.8977 9.85329H23.8998Z" />
<path d="M23.7579 11.8147L23.7576 11.8151L15.2242 22.5843C15.2241 22.5843 15.2241 22.5844 15.2241 22.5844C15.0448 22.8105 14.7864 22.9561 14.5042 22.9922C14.222 23.0282 13.9365 22.952 13.7079 22.7787L13.7076 22.7785L9.44089 19.5477C9.32528 19.4601 9.22758 19.3502 9.15358 19.2241C9.07958 19.0979 9.03079 18.958 9.01019 18.8124C8.98958 18.6668 8.9976 18.5185 9.03374 18.376C9.06988 18.2336 9.13338 18.1001 9.22042 17.9829C9.30744 17.8658 9.41624 17.7674 9.54042 17.6931C9.66458 17.6189 9.80178 17.5702 9.94417 17.5497C10.0865 17.5292 10.2315 17.5371 10.371 17.5732C10.5104 17.6092 10.6417 17.6727 10.7573 17.7603L10.7573 17.7603L13.7845 20.052L14.1746 20.3473L14.4783 19.9638L22.039 10.4179L22.0394 10.4173C22.1299 10.3028 22.2416 10.2076 22.368 10.1371C22.4945 10.0667 22.6332 10.0222 22.7763 10.006C22.9193 9.98986 23.0642 10.0023 23.2026 10.0428C23.3411 10.0832 23.4705 10.1509 23.5835 10.2422L23.628 10.2781C23.7225 10.3625 23.8023 10.463 23.8635 10.5753C23.9337 10.7039 23.9782 10.8454 23.9943 10.9918C24.0104 11.1382 23.9977 11.2863 23.957 11.4276C23.9164 11.5688 23.8486 11.7004 23.7579 11.8147ZM23.1675 3.99854H9.83254C6.61051 3.99854 3.99854 6.61051 3.99854 9.83254V23.1675C3.99854 26.3896 6.61051 29.0015 9.83254 29.0015H23.1675C26.3896 29.0015 29.0015 26.3896 29.0015 23.1675V9.83254C29.0015 6.61051 26.3896 3.99854 23.1675 3.99854ZM3.66504 9.83254C3.66504 6.42632 6.42632 3.66504 9.83254 3.66504H23.1675C26.5738 3.66504 29.335 6.42632 29.335 9.83254V23.1675C29.335 26.5738 26.5738 29.335 23.1675 29.335H9.83254C6.42632 29.335 3.66504 26.5738 3.66504 23.1675V9.83254Z" />
</svg>
