<svg width="32" height="32" viewBox="0 0 32 32" xmlns="http://www.w3.org/2000/svg">
<path fill-rule="evenodd" clip-rule="evenodd" d="M5.90451 4.9462C6.47379 3.83145 7.61987 3.12987 8.87157 3.12988L23.1341 3.13004C24.3866 3.13006 25.5333 3.83257 26.1022 4.94843L28.9716 10.5769C29.2105 11.0455 29.335 11.564 29.335 12.09V26.5385C29.335 28.3784 27.8435 29.87 26.0035 29.87H5.99657C4.15662 29.87 2.66504 28.3784 2.66504 26.5385V12.091C2.66504 11.5642 2.78996 11.045 3.02955 10.5758L5.90451 4.9462ZM8.87156 4.4625C8.12054 4.46249 7.43289 4.88344 7.09132 5.55229L4.21636 11.1819C4.0726 11.4634 3.99765 11.775 3.99765 12.091V26.5385C3.99765 27.6424 4.8926 28.5374 5.99657 28.5374H26.0035C27.1075 28.5374 28.0024 27.6424 28.0024 26.5385V12.09C28.0024 11.7744 27.9277 11.4633 27.7844 11.1822L24.9149 5.55369C24.5736 4.88417 23.8856 4.46266 23.1341 4.46266L8.87156 4.4625Z" />
<path fill-rule="evenodd" clip-rule="evenodd" d="M3.75202 11.7779L3.75202 10.2885L28.2944 10.2885V11.7779L3.75202 11.7779Z" />
<path fill-rule="evenodd" clip-rule="evenodd" d="M14.6329 10.2885V4.46482L17.2981 4.46482V10.2885H14.6329Z" />
</svg>
