<svg version="1.1" xmlns="http://www.w3.org/2000/svg" width="35" height="33" viewBox="0 0 35 33">
<title>recently-added</title>
<path fill="#131C26" d="M3.56299 9.08067C6.38326 4.1068 11.7262 0.750001 17.8531 0.750001C26.8302 0.750001 34.1337 7.92867 34.1337 16.75C34.1337 25.5713 26.8313 32.75 17.8531 32.75C10.6105 32.75 4.16779 27.9713 2.19126 21.134L2.19446 21.1436C2.14859 21.0039 2.12406 20.8556 2.12406 20.7009C2.12406 19.9159 2.76086 19.2791 3.54592 19.2791C4.20299 19.2791 4.75659 19.7249 4.92192 20.3404C6.54966 25.9724 11.8691 29.9052 17.8531 29.9052C25.2451 29.9052 31.2899 24.0033 31.2899 16.75C31.2899 9.49667 25.2633 3.5948 17.8531 3.5948H17.8457C12.5817 3.5948 8.01846 6.59853 5.74219 11.0615L9.55766 9.934L9.54806 9.93614C9.67712 9.89774 9.81472 9.8764 9.95659 9.8764C10.7417 9.8764 11.3785 10.5132 11.3785 11.2983C11.3785 11.9415 10.9507 12.4855 10.3545 12.6636L3.84032 14.5591L3.84992 14.5569C3.72192 14.5953 3.58539 14.6167 3.44459 14.6167H3.44139C2.82806 14.6145 2.30646 14.2252 2.10486 13.6705L0.0813894 7.982L0.0845894 7.9916C0.0291227 7.84014 -0.000743934 7.67587 -0.000743934 7.5052C-0.000743934 6.71907 0.636056 6.08227 1.42219 6.08227C2.03766 6.08227 2.56139 6.47267 2.76299 7.0284L3.52032 9.16174L3.56299 9.08067ZM18.4889 16.1633L22.3363 20.0108C22.5945 20.2679 22.7534 20.6241 22.7534 21.0167C22.7534 21.8028 22.1166 22.4396 21.3305 22.4396C20.9379 22.4396 20.5817 22.2796 20.3246 22.0225L16.0579 17.7559C15.803 17.4988 15.6451 17.1447 15.6451 16.7543V16.718V6.7948C15.6451 6.00974 16.2819 5.37293 17.067 5.37293C17.8521 5.37293 18.4889 6.00974 18.4889 6.7948V16.1633Z"/>
</svg>
