<svg width="32" height="32" viewBox="0 0 32 32" xmlns="http://www.w3.org/2000/svg">
<path fill-rule="evenodd" clip-rule="evenodd" d="M9.8524 10.412C9.61969 11.2082 9.33393 11.9391 8.96109 12.5577C8.52895 13.2746 7.95362 13.8889 7.16942 14.2754C6.38398 14.6625 5.48078 14.7759 4.47154 14.6472C3.9183 14.5767 3.5272 14.0729 3.59799 13.5218C3.66878 12.9708 4.17465 12.5812 4.72789 12.6518C5.43481 12.7418 5.92003 12.6466 6.27365 12.4723C6.62851 12.2974 6.94288 11.9975 7.22942 11.5222C7.83523 10.5171 8.19018 8.95815 8.54355 6.92108C8.77123 5.60861 10.6692 5.48366 11.0134 6.82117L12.9625 14.3948L14.0364 10.6142C14.3563 9.48798 15.882 9.3842 16.386 10.4018C16.8975 11.4346 17.2591 12.0304 17.6911 12.389C18.0574 12.6932 18.5718 12.9011 19.6007 12.8406C20.1575 12.8079 20.6355 13.2309 20.6683 13.7855C20.7012 14.3401 20.2765 14.8162 19.7197 14.8489C18.339 14.9301 17.2673 14.6561 16.3979 13.9344C16.0468 13.6429 15.7492 13.2929 15.484 12.9077L14.1411 17.6353C13.79 18.8711 12.0237 18.8493 11.7035 17.6052L9.8524 10.412Z" />
<path fill-rule="evenodd" clip-rule="evenodd" d="M2.22047 2.01371V29.9902H16.1231C16.6809 29.9902 17.133 30.4405 17.133 30.9961C17.133 31.5516 16.6809 32.002 16.1231 32.002H2.22047C1.10497 32.002 0.200684 31.1013 0.200684 29.9902V2.01371C0.200684 0.902649 1.10497 0.00195312 2.22047 0.00195312H22.0394C23.1549 0.00195312 24.0592 0.902646 24.0592 2.01371V13.4662C24.0592 14.0217 23.6071 14.4721 23.0493 14.4721C22.4916 14.4721 22.0394 14.0217 22.0394 13.4662V2.01371L2.22047 2.01371Z" />
<path d="M28.4219 23.4786C28.587 23.6431 28.6798 23.8661 28.6798 24.0986C28.6798 24.3311 28.587 24.5541 28.4219 24.7185C28.2569 24.8829 28.033 24.9753 27.7995 24.9753H24.2786C24.0451 24.9753 23.8212 24.8829 23.6562 24.7185C23.4911 24.5541 23.3984 24.3311 23.3984 24.0986V20.5917C23.3984 20.3591 23.4911 20.1361 23.6562 19.9717C23.8212 19.8073 24.0451 19.7149 24.2786 19.7149C24.512 19.7149 24.7359 19.8073 24.901 19.9717C25.0661 20.1361 25.1588 20.3591 25.1588 20.5917V23.2219H27.7995C28.033 23.2219 28.2569 23.3142 28.4219 23.4786Z" />
<path fill-rule="evenodd" clip-rule="evenodd" d="M16.3565 24.0986C16.3565 28.4568 19.903 31.9892 24.2786 31.9892C26.3797 31.9892 28.3947 31.1578 29.8804 29.6781C31.366 28.1983 32.2007 26.1913 32.2007 24.0986C32.2007 22.0059 31.366 19.9989 29.8804 18.5191C28.3947 17.0393 26.3797 16.208 24.2786 16.208C19.903 16.208 16.3565 19.7403 16.3565 24.0986ZM20.8554 18.9957C21.8686 18.3214 23.0599 17.9615 24.2786 17.9615C25.9128 17.9615 27.48 18.608 28.6355 19.759C29.791 20.9099 30.4402 22.4709 30.4402 24.0986C30.4402 25.3124 30.0788 26.4989 29.4018 27.5082C28.7247 28.5174 27.7624 29.304 26.6365 29.7686C25.5107 30.2331 24.2718 30.3546 23.0765 30.1178C21.8813 29.881 20.7834 29.2965 19.9217 28.4382C19.0599 27.5799 18.4731 26.4864 18.2354 25.2959C17.9976 24.1054 18.1196 22.8714 18.586 21.75C19.0523 20.6286 19.8421 19.6701 20.8554 18.9957Z" />
</svg>
