<svg version="1.1" xmlns="http://www.w3.org/2000/svg" width="32" height="32" viewBox="0 0 32 32">
<title>send-email</title>
<path fill="#333" d="M29.8261 0.915055C30.889 0.588903 31.8398 1.62883 31.4639 2.64061L31.4203 2.74512L19.0238 29.4038C18.6015 30.312 17.379 30.4335 16.7784 29.6695L16.7037 29.5648L13.297 24.2957L9.44425 26.4098C8.62848 26.8574 7.64556 26.3487 7.49622 25.4759L7.48157 25.3601L7.47684 25.2452L7.47596 18.4738L0.929173 11.8116C0.289028 11.1601 0.490828 10.0992 1.26261 9.70175L1.37136 9.65176L1.48702 9.61063L29.8261 0.915055ZM26.6243 6.75649L10.1328 18.4756V23.0009L13.1029 21.3718C13.6372 21.0786 14.2903 21.1901 14.6986 21.6145L14.7822 21.7102L14.8575 21.8152L17.6284 26.1023L26.6243 6.75649ZM23.3281 5.68669L4.35602 11.5086L8.78843 16.0189L23.3281 5.68669Z"></path>
</svg>