<svg version="1.1" xmlns="http://www.w3.org/2000/svg" width="32" height="32" viewBox="0 0 32 32">
<title>send-mail</title>
<path fill="#333" d="M30.2784 1.06102C31.3414 0.734869 32.2922 1.7748 31.9163 2.78658L31.8726 2.89109L19.4762 29.5497C19.0539 30.458 17.8314 30.5795 17.2308 29.8155L17.1561 29.7108L13.7494 24.4417L9.89661 26.5558C9.08085 27.0034 8.09795 26.4946 7.94861 25.6219L7.93393 25.506L7.9292 25.3912L7.92835 18.6198L1.38155 11.9576C0.741406 11.3061 0.943206 10.2451 1.71499 9.84772L1.82374 9.79773L1.9394 9.75658L30.2784 1.06102ZM27.0767 6.90245L10.5851 18.6215V23.1469L13.5553 21.5178C14.0896 21.2246 14.7427 21.3361 15.151 21.7604L15.2346 21.8561L15.3099 21.9612L18.0808 26.2483L27.0767 6.90245ZM23.7805 5.83266L4.80838 11.6546L9.24079 16.1649L23.7805 5.83266Z"></path>
</svg>