<svg viewBox="0 0 32 32" xmlns="http://www.w3.org/2000/svg">
<g clip-path="url(#clip0_3887_356597)">
    <path fill-rule="evenodd" clip-rule="evenodd" d="M1.94208 11.658C3.09409 10.506 4.65655 9.85882 6.28574 9.85882C7.09243 9.85882 7.89122 10.0177 8.63651 10.3264C9.3818 10.6351 10.059 11.0876 10.6294 11.658C11.1998 12.2284 11.6523 12.9056 11.961 13.6509C12.2697 14.3962 12.4286 15.195 12.4286 16.0017C12.4286 16.8084 12.2697 17.6072 11.961 18.3524C11.6523 19.0977 11.1998 19.7749 10.6294 20.3453C10.059 20.9157 9.3818 21.3682 8.63651 21.6769C7.89123 21.9856 7.09243 22.1445 6.28574 22.1445C4.65655 22.1445 3.09409 21.4973 1.94208 20.3453C0.790075 19.1933 0.142883 17.6309 0.142883 16.0017C0.142883 14.3725 0.790075 12.81 1.94208 11.658ZM6.28574 11.8588C5.18699 11.8588 4.13323 12.2953 3.3563 13.0722C2.57936 13.8492 2.14288 14.9029 2.14288 16.0017C2.14288 17.1004 2.57936 18.1542 3.3563 18.9311C4.13323 19.7081 5.18699 20.1445 6.28574 20.1445C6.82979 20.1445 7.36851 20.0374 7.87114 19.8292C8.37378 19.621 8.83048 19.3158 9.21518 18.9311C9.59988 18.5464 9.90504 18.0897 10.1132 17.5871C10.3214 17.0844 10.4286 16.5457 10.4286 16.0017C10.4286 15.4576 10.3214 14.9189 10.1132 14.4163C9.90504 13.9136 9.59988 13.4569 9.21518 13.0722C8.83048 12.6875 8.37378 12.3824 7.87114 12.1742C7.36851 11.966 6.82979 11.8588 6.28574 11.8588Z" />
    <path fill-rule="evenodd" clip-rule="evenodd" d="M21.3707 21.3723C22.5227 20.2203 24.0851 19.5731 25.7143 19.5731C27.3435 19.5731 28.906 20.2203 30.058 21.3723C31.21 22.5243 31.8572 24.0868 31.8572 25.716C31.8572 27.3451 31.21 28.9076 30.058 30.0596C28.906 31.2116 27.3435 31.8588 25.7143 31.8588C24.0851 31.8588 22.5227 31.2116 21.3707 30.0596C20.2186 28.9076 19.5715 27.3451 19.5715 25.716C19.5715 24.0868 20.2186 22.5243 21.3707 21.3723ZM25.7143 21.5731C24.6156 21.5731 23.5618 22.0096 22.7849 22.7865C22.0079 23.5635 21.5715 24.6172 21.5715 25.716C21.5715 26.8147 22.0079 27.8685 22.7849 28.6454C23.5618 29.4223 24.6156 29.8588 25.7143 29.8588C26.8131 29.8588 27.8668 29.4223 28.6438 28.6454C29.4207 27.8685 29.8572 26.8147 29.8572 25.716C29.8572 24.6172 29.4207 23.5635 28.6438 22.7865C27.8668 22.0096 26.8131 21.5731 25.7143 21.5731Z" />
    <path fill-rule="evenodd" clip-rule="evenodd" d="M21.3707 1.94373C22.5227 0.791723 24.0851 0.144531 25.7143 0.144531C27.3435 0.144531 28.906 0.791723 30.058 1.94373C31.21 3.09574 31.8572 4.6582 31.8572 6.28739C31.8572 7.91658 31.21 9.47904 30.058 10.631C28.906 11.7831 27.3435 12.4302 25.7143 12.4302C24.0851 12.4302 22.5227 11.7831 21.3707 10.631C20.2186 9.47904 19.5715 7.91658 19.5715 6.28739C19.5715 4.6582 20.2186 3.09574 21.3707 1.94373ZM25.7143 2.14453C24.6156 2.14453 23.5618 2.58101 22.7849 3.35795C22.0079 4.13488 21.5715 5.18863 21.5715 6.28739C21.5715 7.38614 22.0079 8.43989 22.7849 9.21683C23.5618 9.99377 24.6156 10.4302 25.7143 10.4302C26.8131 10.4302 27.8668 9.99377 28.6438 9.21683C29.4207 8.43989 29.8572 7.38614 29.8572 6.28739C29.8572 5.18863 29.4207 4.13488 28.6438 3.35795C27.8668 2.58101 26.8131 2.14453 25.7143 2.14453Z" />
    <path fill-rule="evenodd" clip-rule="evenodd" d="M22.0137 8.12429C22.2615 8.61783 22.0624 9.21886 21.5688 9.46673L11.3288 14.6096C10.8353 14.8575 10.2343 14.6583 9.9864 14.1648C9.73853 13.6712 9.93768 13.0702 10.4312 12.8223L20.6712 7.67947C21.1648 7.4316 21.7658 7.63076 22.0137 8.12429Z" />
    <path fill-rule="evenodd" clip-rule="evenodd" d="M9.9864 17.8386C10.2343 17.345 10.8353 17.1459 11.3288 17.3938L21.5688 22.5366C22.0624 22.7845 22.2615 23.3855 22.0137 23.8791C21.7658 24.3726 21.1648 24.5717 20.6712 24.3239L10.4312 19.181C9.93768 18.9331 9.73853 18.3321 9.9864 17.8386Z" />
</g>
<defs>
<clipPath id="clip0_3887_356597">
    <rect width="32" height="32" transform="translate(0 0.00195312)"/>
</clipPath>
</defs>
</svg>
