<svg version="1.1" xmlns="http://www.w3.org/2000/svg" width="32" height="32" viewBox="0 0 32 32">
<title>telephone</title>
<path d="M3.50224347,1.04742757 L2.47933104,2.07262662 C-0.326672477,4.87544935 -0.806988542,9.25434914 1.32576298,12.6004083 C6.1459556,19.7353852 12.2682442,25.8576738 19.3776837,30.661105 C22.7463745,32.8140896 27.126685,32.3381361 29.9339169,29.5328137 L30.9559062,28.5108245 C32.3528212,27.1128871 32.3528212,24.8479464 30.9562018,23.4503047 L26.6404776,19.1345804 C25.360537,17.8555759 23.3332761,17.7364802 21.9160387,18.8377545 L21.6316035,19.0857816 C21.0741944,19.6394014 20.2545167,19.6394014 19.7485317,19.1340635 L12.8695854,12.2459743 C12.4071149,11.7829116 12.3639849,11.0485076 12.7609475,10.5374124 L12.9180381,10.3626673 C14.2659639,9.01688705 14.2659639,6.7519463 12.8693446,5.35430463 L8.56276328,1.04772318 C7.16482589,-0.349191786 4.89988514,-0.349191786 3.50224347,1.04742757 Z M6.94681492,2.66426287 L11.2528049,6.97025299 C11.75729,7.47510746 11.75729,8.29372589 11.2525093,8.79887607 L11.0012439,9.08041298 C9.85452349,10.5532052 9.97360216,12.580841 11.252288,13.8611643 L18.1322685,20.7502877 C19.531697,22.1479278 21.7970141,22.1479278 23.1953889,20.7513414 L23.3734604,20.5971073 C23.8288101,20.2460946 24.5622532,20.2891822 25.0245292,20.7511201 L29.3396621,25.0662531 C29.8441472,25.5711076 29.8441472,26.389726 29.3393665,26.8948762 L28.3179478,27.9162947 C26.2697022,29.963147 23.0732594,30.3104644 20.6328656,28.7510913 C13.7900373,24.1273418 7.87628768,18.2135921 3.23647227,11.3463163 C1.69690155,8.93013488 2.04740246,5.73472152 4.09601946,3.68842509 L5.11909426,2.66306383 C5.6230463,2.15948218 6.44166473,2.15948218 6.94681492,2.66426287 Z"></path>
</svg>