<svg viewBox="0 0 32 32" xmlns="http://www.w3.org/2000/svg">
<g clip-path="url(#clip0_4765_286492)">
<path fill-rule="evenodd" clip-rule="evenodd" d="M2.17995 1.72948C2.05995 1.72948 1.94487 1.77714 1.86002 1.86199C1.77517 1.94684 1.72751 2.06193 1.72751 2.18192V14.0278C1.72751 14.1478 1.77517 14.2629 1.86002 14.3477C1.94487 14.4326 2.05995 14.4802 2.17995 14.4802H3.49614C3.97318 14.4802 4.3599 14.867 4.3599 15.344V17.2073L6.83396 14.7332C6.99595 14.5712 7.21565 14.4802 7.44473 14.4802H10.0771C10.5542 14.4802 10.9409 14.867 10.9409 15.344C10.9409 15.821 10.5542 16.2078 10.0771 16.2078H7.80251L4.10691 19.9034C3.85988 20.1504 3.48836 20.2243 3.1656 20.0906C2.84284 19.9569 2.63239 19.642 2.63239 19.2926V16.2078H2.17995C1.60179 16.2078 1.04731 15.9781 0.638492 15.5693C0.229673 15.1604 0 14.606 0 14.0278V2.18192C0 1.60376 0.229673 1.04927 0.638492 0.640451C1.04731 0.231628 1.60179 0.00195312 2.17995 0.00195312H17.9743C18.5525 0.00195312 19.1069 0.231628 19.5157 0.640451C19.9246 1.04927 20.1542 1.60376 20.1542 2.18192V14.0278C20.1542 14.5048 19.7675 14.8916 19.2905 14.8916C18.8135 14.8916 18.4267 14.5048 18.4267 14.0278V2.18192C18.4267 2.06193 18.3791 1.94685 18.2942 1.86199C18.2094 1.77714 18.0943 1.72948 17.9743 1.72948H2.17995ZM9.4191 4.36221C9.12457 4.36221 8.8421 4.47922 8.63383 4.68748C8.42557 4.89575 8.30856 5.17823 8.30856 5.47276V6.58331H10.5296V5.47276C10.5296 5.17823 10.4126 4.89575 10.2044 4.68748C9.99611 4.47922 9.71364 4.36221 9.4191 4.36221ZM12.2572 5.47276C12.2572 4.72006 11.9581 3.99818 11.4259 3.46594C10.8937 2.9337 10.1718 2.63469 9.4191 2.63469C8.66641 2.63469 7.94454 2.9337 7.4123 3.46594C6.88007 3.99818 6.58106 4.72006 6.58106 5.47276V11.3957C6.58106 11.8727 6.96777 12.2595 7.44481 12.2595C7.92185 12.2595 8.30856 11.8727 8.30856 11.3957V8.31083H10.5296V11.3957C10.5296 11.8727 10.9164 12.2595 11.3934 12.2595C11.8704 12.2595 12.2572 11.8727 12.2572 11.3957V5.47276ZM14.0257 14.8912C13.9057 14.8912 13.7906 14.9389 13.7058 15.0237C13.6209 15.1086 13.5733 15.2237 13.5733 15.3437V25.8733C13.5733 25.9933 13.6209 26.1084 13.7058 26.1933C13.7906 26.2781 13.9057 26.3258 14.0257 26.3258H24.5553C24.7844 26.3258 25.0041 26.4168 25.166 26.5788L27.6401 29.0529V27.1895C27.6401 26.7125 28.0268 26.3258 28.5039 26.3258H29.8201C29.9401 26.3258 30.0551 26.2781 30.14 26.1933C30.2248 26.1084 30.2725 25.9933 30.2725 25.8733V15.3437C30.2725 15.2237 30.2248 15.1086 30.14 15.0237C30.0551 14.9389 29.94 14.8912 29.8201 14.8912H21.9229C21.4458 14.8912 21.0591 14.5045 21.0591 14.0275C21.0591 13.5504 21.4458 13.1637 21.9229 13.1637H29.8201C30.3982 13.1637 30.9527 13.3934 31.3615 13.8022C31.7703 14.211 32 14.7655 32 15.3437V25.8733C32 26.4515 31.7703 27.006 31.3615 27.4148C30.9527 27.8236 30.3982 28.0533 29.8201 28.0533H29.3676V31.1382C29.3676 31.4875 29.1572 31.8025 28.8344 31.9362C28.5116 32.0699 28.1401 31.996 27.8931 31.7489L24.1975 28.0533H14.0257C13.4475 28.0533 12.8931 27.8236 12.4843 27.4148C12.0754 27.006 11.8458 26.4515 11.8458 25.8733V15.3437C11.8458 14.7655 12.0754 14.211 12.4843 13.8022C12.8931 13.3934 13.4475 13.1637 14.0257 13.1637H15.3419C15.8189 13.1637 16.2057 13.5504 16.2057 14.0275C16.2057 14.5045 15.8189 14.8912 15.3419 14.8912H14.0257ZM23.2391 15.7964C23.7161 15.7964 24.1028 16.1832 24.1028 16.6602V17.1123H25.2057C25.2102 17.1123 25.2147 17.1123 25.2193 17.1123H27.1877C27.6648 17.1123 28.0515 17.499 28.0515 17.9761C28.0515 18.4531 27.6648 18.8399 27.1877 18.8399H25.9807C25.7708 20.0456 25.2592 21.1815 24.4907 22.1402C25.1429 22.5947 25.8896 22.9067 26.6821 23.0488C27.1517 23.133 27.464 23.5819 27.3798 24.0515C27.2956 24.521 26.8467 24.8334 26.3772 24.7492C25.2292 24.5434 24.1545 24.0657 23.2391 23.3645C22.3237 24.0657 21.249 24.5434 20.101 24.7492C19.6314 24.8334 19.1825 24.521 19.0983 24.0515C19.0141 23.5819 19.3265 23.133 19.796 23.0488C20.5886 22.9067 21.3352 22.5947 21.9874 22.1402C21.2189 21.1815 20.7074 20.0456 20.4974 18.8399H19.2906C18.8135 18.8399 18.4268 18.4531 18.4268 17.9761C18.4268 17.499 18.8135 17.1123 19.2906 17.1123H21.2589C21.2634 17.1123 21.2679 17.1123 21.2725 17.1123H22.3753V16.6602C22.3753 16.1832 22.762 15.7964 23.2391 15.7964ZM23.2153 18.8399H22.2593C22.4344 19.5979 22.7676 20.3127 23.2391 20.9361C23.7105 20.3127 24.0438 19.5979 24.2189 18.8399H23.2629C23.255 18.8401 23.247 18.8402 23.2391 18.8402C23.2311 18.8402 23.2232 18.8401 23.2153 18.8399Z" />
</g>
<defs>
<clipPath id="clip0_4765_286492">
<rect width="32" height="32" fill="white" transform="translate(0 0.00195312)"/>
</clipPath>
</defs>
</svg>
