<svg width="32" height="32" viewBox="0 0 32 32" xmlns="http://www.w3.org/2000/svg">
    <path d="M18.7288 12.3746C18.7139 12.3397 18.703 12.3028 18.694 12.261L18.6931 12.2627C18.6764 12.1786 18.668 12.0917 18.667 12.003V5.33595C18.667 4.59995 19.264 4.00295 20 4.00295C20.736 4.00295 21.333 4.59995 21.333 5.33595V8.78295L29.723 0.392953C29.964 0.150953 30.298 0.00195312 30.666 0.00195312C31.403 0.00195312 32 0.598953 32 1.33595C32 1.70395 31.85 2.03795 31.609 2.27895L23.219 10.669H26.666C27.402 10.669 27.999 11.266 27.999 12.002C27.999 12.738 27.402 13.335 26.666 13.335L19.999 13.335C19.908 13.334 19.818 13.324 19.74 13.308L19.732 13.306C19.693 13.296 19.655 13.285 19.626 13.274L19.62 13.273C19.573 13.262 19.528 13.247 19.49 13.231L19.484 13.229C19.44 13.21 19.399 13.188 19.363 13.165L19.26 13.108L19.255 13.104C19.185 13.055 19.118 13 19.057 12.941C18.996 12.882 18.941 12.816 18.891 12.741C18.8786 12.7199 18.8674 12.6982 18.8559 12.6759C18.8488 12.6621 18.8416 12.6481 18.834 12.634L18.836 12.638C18.812 12.599 18.791 12.559 18.771 12.511L18.774 12.519C18.7564 12.474 18.7416 12.429 18.7288 12.3746Z" />
    <path d="M13.306 19.7427C13.297 19.7008 13.2861 19.6639 13.2711 19.629C13.2583 19.5747 13.2436 19.5297 13.226 19.4847L13.229 19.4927C13.209 19.4447 13.188 19.4047 13.164 19.3657L13.166 19.3697L13.1541 19.3473L13.1441 19.3278C13.1326 19.3055 13.1214 19.2837 13.109 19.2627C13.059 19.1877 13.004 19.1217 12.943 19.0627C12.882 19.0037 12.815 18.9487 12.745 18.8997L12.74 18.8957L12.637 18.8387C12.601 18.8157 12.56 18.7937 12.516 18.7747L12.51 18.7727C12.472 18.7567 12.427 18.7417 12.38 18.7307L12.374 18.7297C12.345 18.7187 12.307 18.7077 12.268 18.6977L12.26 18.6957C12.182 18.6797 12.092 18.6697 12.001 18.6687H5.334C4.598 18.6687 4.001 19.2657 4.001 20.0017C4.001 20.7377 4.598 21.3347 5.334 21.3347H8.781L0.391001 29.7247C0.150001 29.9657 0 30.2997 0 30.6677C0 31.4047 0.597 32.0017 1.334 32.0017C1.702 32.0017 2.036 31.8527 2.277 31.6107L10.667 23.2207V26.6677C10.667 27.4037 11.264 28.0007 12 28.0007C12.736 28.0007 13.333 27.4037 13.333 26.6677V20.0007C13.332 19.9119 13.3236 19.8251 13.3069 19.7409L13.306 19.7427Z" />
    <path d="M19.741 18.6959C19.6991 18.7049 19.6622 18.7159 19.6273 18.7308C19.573 18.7436 19.528 18.7583 19.483 18.7759L19.491 18.7729C19.443 18.7929 19.403 18.8139 19.364 18.8379L19.368 18.8359C19.3653 18.8374 19.3627 18.8388 19.3601 18.8402C19.3486 18.8463 19.3373 18.8521 19.3261 18.8578C19.3234 18.8593 19.3206 18.8607 19.3178 18.8621C19.2984 18.8722 19.2794 18.8821 19.261 18.8929C19.186 18.9429 19.12 18.9979 19.061 19.0589C19.002 19.1199 18.947 19.1869 18.898 19.2569L18.894 19.2619L18.837 19.3649C18.814 19.4009 18.792 19.4419 18.773 19.4859L18.771 19.4919C18.755 19.5299 18.74 19.5749 18.729 19.6219L18.728 19.6279C18.717 19.6569 18.706 19.6949 18.696 19.7339L18.694 19.7419C18.678 19.8199 18.668 19.9099 18.667 20.0009V26.6679C18.667 27.4039 19.264 28.0009 20 28.0009C20.736 28.0009 21.333 27.4039 21.333 26.6679V23.2209L29.723 31.6109C29.964 31.8519 30.298 32.0019 30.666 32.0019C31.403 32.0019 32 31.4049 32 30.6679C32 30.2999 31.851 29.9659 31.609 29.7249L23.219 21.3349H26.666C27.402 21.3349 27.999 20.7379 27.999 20.0019C27.999 19.2659 27.402 18.6689 26.666 18.6689H19.999C19.9102 18.6699 19.8234 18.6783 19.7392 18.6951L19.741 18.6959Z" />
    <path d="M12.259 13.308C12.3009 13.299 12.3378 13.288 12.3727 13.2731C12.427 13.2603 12.472 13.2456 12.517 13.228L12.509 13.231C12.557 13.211 12.597 13.19 12.636 13.166L12.632 13.168C12.6461 13.1603 12.6601 13.1531 12.6739 13.146C12.6962 13.1345 12.718 13.1233 12.739 13.111C12.814 13.061 12.88 13.006 12.939 12.945C12.998 12.884 13.053 12.817 13.102 12.747L13.106 12.742L13.163 12.639C13.186 12.603 13.208 12.562 13.227 12.518L13.229 12.512C13.245 12.474 13.26 12.429 13.271 12.382L13.272 12.376C13.283 12.347 13.294 12.309 13.304 12.27L13.306 12.262C13.322 12.184 13.332 12.094 13.333 12.003V5.33595C13.333 4.59995 12.736 4.00295 12 4.00295C11.264 4.00295 10.667 4.59995 10.667 5.33595V8.78295L2.277 0.392954C2.036 0.151954 1.702 0.00195312 1.334 0.00195312C0.597005 0.00195312 4.38465e-06 0.598953 4.35243e-06 1.33595C4.33635e-06 1.70395 0.149005 2.03795 0.391004 2.27895L8.781 10.669L5.334 10.669C4.598 10.669 4.001 11.266 4.001 12.002C4.001 12.738 4.598 13.335 5.334 13.335L12.001 13.335C12.0897 13.334 12.1766 13.3256 12.2608 13.3088L12.259 13.308Z" />
</svg>
