<?xml version="1.0" encoding="UTF-8"?>
<svg width="32px" height="16px" viewBox="0 0 32 16" version="1.1" xmlns="http://www.w3.org/2000/svg" xmlns:xlink="http://www.w3.org/1999/xlink">
    <path d="M32,14.667 C32,14.666 32,14.664 32,14.662 C32,14.059 31.789,13.506 31.436,13.072 L31.44,13.077 L27.7,8.49 C27.454,8.19 27.082,8 26.667,8 C25.93,8 25.333,8.597 25.333,9.334 C25.333,9.655 25.446,9.95 25.635,10.18 L25.633,10.178 L28.213,13.335 L3,13.335 C1.31,13.335 0,14.895 0,16.888 L0,22.668 C0,23.404 0.597,24.001 1.333,24.001 C2.069,24.001 2.666,23.404 2.666,22.668 L2.666,22.668 L2.666,16.888 C2.664,16.865 2.663,16.838 2.663,16.811 C2.663,16.495 2.791,16.208 2.999,16.002 L2.999,16.002 L28.232,16.002 L25.632,19.159 C25.445,19.387 25.332,19.681 25.332,20.002 C25.332,20.739 25.929,21.336 26.666,21.336 C27.082,21.336 27.453,21.146 27.697,20.848 L27.699,20.846 L31.439,16.273 C31.788,15.843 31.999,15.29 31.999,14.687 C31.999,14.681 31.999,14.675 31.999,14.669 L31.999,14.67 L32,14.667 Z"></path>
</svg>