<svg viewBox="0 0 32 32" version="1.1" xmlns="http://www.w3.org/2000/svg" xmlns:xlink="http://www.w3.org/1999/xlink">
    <title>+icon/+Oss/upload</title>
    <g id="icons" stroke="none" stroke-width="1" fill-rule="evenodd">
        <g id="+icon/+Oss/upload" transform="translate(0.000000, -1.000000)">
            <path d="M30.899447,29.2598886 C31.5071042,29.2598886 32,29.8513389 32,30.5804972 C32,31.3096554 31.5071042,31.9011058 30.899447,31.9011058 L30.899447,31.9011058 L13.2864705,31.9011058 C12.6788133,31.9011058 12.1859174,31.3096554 12.1859174,30.5804972 C12.1859174,29.8513389 12.6788133,29.2598886 13.2864705,29.2598886 L13.2864705,29.2598886 Z M21.4354614,13.6239355 C22.0378095,13.6239355 22.5926038,13.8329741 23.0285136,14.1826926 L27.5540501,17.8908982 C27.8492799,18.1346114 28.036523,18.5011719 28.036523,18.9113234 C28.036523,19.2313209 27.922592,19.5235786 27.7343582,19.7524312 C27.4926264,20.0417169 27.1270566,20.2269785 26.7188865,20.2269785 C26.395917,20.2269785 26.1036592,20.1130476 25.8748066,19.9248138 L22.7530979,17.3707785 L22.7530979,26.3046704 C22.7530979,27.0338286 22.1616475,27.625279 21.4324893,27.625279 C20.703331,27.625279 20.1118806,27.0338286 20.1118806,26.3046704 L20.1118806,17.3747413 L16.9842277,19.9337301 C16.7652821,20.1021498 16.4868942,20.2032016 16.1847295,20.2032016 C15.4555712,20.2032016 14.8641209,19.6117513 14.8641209,18.882593 C14.8641209,18.4873021 15.0374941,18.1336207 15.3119191,17.8918889 L19.8473626,14.1787298 C20.2793096,13.8329741 20.8331133,13.6239355 21.4354614,13.6239355 Z M29.0606544,1 C30.4534019,1 31.5944332,2.07772466 31.6952858,3.44471125 L31.7025321,3.64187767 L31.7025321,18.1594647 C31.7025321,18.8889991 31.1111276,19.4804036 30.3815933,19.4804036 C29.7041685,19.4804036 29.1458455,18.9704681 29.0695413,18.3135141 L29.0606544,18.1594647 L29.0606544,3.64187767 L2.64187767,3.64187767 L2.64187767,22.1350214 L14.2499044,22.1350214 C14.9794388,22.1350214 15.5708433,22.7264259 15.5708433,23.4559602 C15.5708433,24.133385 15.0609078,24.691708 14.4039538,24.7680122 L14.2499044,24.7768991 L2.64187767,24.7768991 C1.24913023,24.7768991 0.108098869,23.6991744 0.0072463223,22.3321878 L0,22.1350214 L0,3.64187767 C0,2.24913023 1.07772466,1.10809887 2.44471125,1.00724632 L2.64187767,1 L29.0606544,1 Z M14.3535503,7.85726968 L14.4992169,7.99269895 L18.3965641,11.9631368 C18.9076085,12.4837653 18.8998391,13.3201014 18.3792518,13.831187 C17.8957699,14.305687 17.1401118,14.3328837 16.6254564,13.9175035 L16.5112016,13.8137923 L12.624598,9.85336143 L7.19729792,16.0388918 C6.75049067,16.5480751 5.99894838,16.6313993 5.45482414,16.2554476 L5.3331721,16.1605215 C4.82398883,15.7137142 4.74066468,14.9621719 5.11661638,14.4180477 L5.2115425,14.2963956 L10.7544012,7.98398188 C11.7392224,6.99916072 13.3081198,6.95439612 14.3535503,7.85726968 Z M21.4324892,7.60469419 C22.5267907,7.60469419 23.4138974,8.49180088 23.4138974,9.58610244 C23.4138974,10.680404 22.5267907,11.5675107 21.4324892,11.5675107 C20.3381876,11.5675107 19.4510809,10.680404 19.4510809,9.58610244 C19.4510809,8.49180088 20.3381876,7.60469419 21.4324892,7.60469419 Z"></path>
        </g>
    </g>
</svg>