<svg version="1.1" xmlns="http://www.w3.org/2000/svg" width="32" height="32" viewBox="0 0 32 32">
<title>user-blocked</title>
<path fill="#333" d="M23.3582 14.3284C27.5787 14.3284 31 17.7497 31 21.9702C31 26.1906 27.5787 29.6119 23.3582 29.6119C19.1378 29.6119 15.7164 26.1906 15.7164 21.9702C15.7164 17.7497 19.1378 14.3284 23.3582 14.3284ZM12.139 0C15.9205 0 18.986 3.06548 18.986 6.84694C18.986 9.05861 17.9374 11.0254 16.3102 12.2771C17.0044 12.376 17.5372 12.9727 17.5372 13.6939C17.5372 14.4387 16.9689 15.0507 16.2423 15.1201L16.1043 15.1267H7.38074C4.94115 15.1267 2.98059 16.9125 2.87054 19.1159L2.86566 19.3113V27.1758C2.86566 27.9671 2.22419 28.6086 1.43286 28.6086C0.688076 28.6086 0.0759608 28.0404 0.00653076 27.3138L0 27.1758V19.3113C0 15.4754 3.19321 12.3844 7.14288 12.2646L7.38074 12.261L7.94702 12.261C6.33176 11.0085 5.29211 9.04913 5.29211 6.84694C5.29211 3.06548 8.35758 0 12.139 0ZM27.4783 19.5529L21.3732 26.3155C21.9777 26.5921 22.65 26.7463 23.3582 26.7463C25.996 26.7463 28.1343 24.6079 28.1343 21.9702C28.1343 21.0881 27.8952 20.2619 27.4783 19.5529ZM23.3582 17.194C20.7204 17.194 18.5821 19.3324 18.5821 21.9702C18.5821 22.8561 18.8233 23.6857 19.2437 24.3968L25.3531 17.6294C24.7461 17.3499 24.0704 17.194 23.3582 17.194ZM12.139 2.86567C9.94025 2.86567 8.15778 4.64815 8.15778 6.84694C8.15778 9.04573 9.94025 10.8282 12.139 10.8282C14.3378 10.8282 16.1203 9.04573 16.1203 6.84694C16.1203 4.64815 14.3378 2.86567 12.139 2.86567Z"></path>
</svg>