<svg version="1.1" xmlns="http://www.w3.org/2000/svg" width="32" height="32" viewBox="0 0 32 32">
<title>user-blocked</title>
<path fill="#333" d="M544.858209,212.328358 C549.078654,212.328358 552.5,215.749705 552.5,219.970149 C552.5,224.190594 549.078654,227.61194 544.858209,227.61194 C540.637764,227.61194 537.216418,224.190594 537.216418,219.970149 C537.216418,215.749705 540.637764,212.328358 544.858209,212.328358 Z M533.639062,198 C537.420521,198 540.486,201.065478 540.486,204.846938 C540.486,207.058608 539.437375,209.025359 537.81019,210.277125 C538.50439,210.375987 539.037167,210.972713 539.037167,211.693875 C539.037167,212.43866 538.468916,213.050722 537.742323,213.120152 L537.604331,213.126711 L528.880739,213.126711 C526.441156,213.126711 524.480585,214.912532 524.370544,217.115878 L524.365672,217.31134 L524.365672,225.17579 C524.365672,225.967123 523.724169,226.608626 522.932836,226.608626 C522.188051,226.608626 521.575989,226.040374 521.506559,225.313782 L521.5,225.17579 L521.5,217.31134 C521.5,213.475394 524.693197,210.384382 528.642871,210.264641 L528.880739,210.26104 L529.447035,210.260984 C527.831776,209.008488 526.792124,207.049125 526.792124,204.846938 C526.792124,201.065478 529.857603,198 533.639062,198 Z M548.978335,217.552883 L542.873168,224.315495 C543.477689,224.592102 544.149945,224.746269 544.858209,224.746269 C547.495987,224.746269 549.634328,222.607927 549.634328,219.970149 C549.634328,219.088127 549.395239,218.261946 548.978335,217.552883 Z M544.858209,215.19403 C542.220431,215.19403 540.08209,217.332371 540.08209,219.970149 C540.08209,220.856079 540.323302,221.685671 540.743634,222.396832 L546.853176,215.629359 C546.24609,215.34989 545.570351,215.19403 544.858209,215.19403 Z M533.639062,200.865672 C531.44027,200.865672 529.657796,202.648145 529.657796,204.846938 C529.657796,207.04573 531.44027,208.828204 533.639062,208.828204 C535.837855,208.828204 537.620328,207.04573 537.620328,204.846938 C537.620328,202.648145 535.837855,200.865672 533.639062,200.865672 Z"></path>
</svg>