<svg version="1.1" xmlns="http://www.w3.org/2000/svg" width="32" height="32" viewBox="0 0 32 32">
<title>user-add</title>
<path d="M15.5,17.3333333 C18.5547692,17.3333333 21.4849511,18.2391085 23.6880369,19.9210536 C24.8333333,20.7954297 23.9929427,22.406403 22.3885522,21.4546423 C20.2866197,20.2077285 18.0605576,19.3333333 15.5,19.3333333 C8.88666664,19.3333333 3.49999996,24.5733333 3.49999996,31 C3.49999996,31.5466667 3.04666663,31.9999999 2.49999996,31.9999999 C1.95333329,31.9999999 1.49999996,31.5466667 1.49999996,31 C1.49999996,23.4666667 7.77999997,17.3333333 15.5,17.3333333 Z M25.3181818,21.3333333 C25.8482828,21.3333333 26.2878787,21.8168889 26.2878787,22.4 L26.287,26.1809999 L29.1,26.1818181 C29.6831111,26.1818181 30.1666666,26.6214141 30.1666666,27.1515151 C30.1666666,27.6816161 29.6831111,28.1212121 29.1,28.1212121 L26.287,28.1209999 L26.2878787,30.9333333 C26.2878787,31.5164444 25.8482828,31.9999999 25.3181818,31.9999999 C24.7880808,31.9999999 24.3484848,31.5164444 24.3484848,30.9333333 L24.348,28.1209999 L20.5666666,28.1212121 C19.9835555,28.1212121 19.5,27.6816161 19.5,27.1515151 C19.5,26.6214141 19.9835555,26.1818181 20.5666666,26.1818181 L24.348,26.1809999 L24.3484848,22.4 C24.3484848,21.8168889 24.7880808,21.3333333 25.3181818,21.3333333 Z M15.5,15.9999999 C11.0866666,15.9999999 7.49999997,12.4133333 7.49999997,7.99999995 C7.49999997,3.58666662 11.0866666,-5.00003807e-08 15.5,-5.00003807e-08 C19.9133333,-5.00003807e-08 23.5,3.58666662 23.5,7.99999995 C23.5,12.4133333 19.9133333,15.9999999 15.5,15.9999999 Z M15.5,1.99999995 C12.1933333,1.99999995 9.49999997,4.69333329 9.49999997,7.99999995 C9.49999997,11.3066666 12.1933333,14 15.5,14 C18.8066667,14 21.5,11.3066666 21.5,7.99999995 C21.5,4.69333329 18.8066667,1.99999995 15.5,1.99999995 Z"/>
</svg>