<svg version="1.1" xmlns="http://www.w3.org/2000/svg" width="32" height="32" viewBox="0 0 32 32">
<title>user-settings</title>
<path d="M23.1203977,12.1891608 L23.267304,12.1937083 C24.289565,12.2543991 25.1789872,12.9193358 25.5249216,13.8786776 L25.5705992,14.0176957 L26.1697573,15.9869878 C26.2506783,16.2544922 26.5074382,16.4234567 26.7775815,16.4004851 L26.8588635,16.3877422 L28.8575131,15.924834 C29.9593038,15.6765714 31.0943508,16.1748254 31.6572199,17.1538271 C32.1945041,18.0883288 32.0908287,19.2528189 31.4118481,20.0755535 L31.3109444,20.1907004 L29.9136366,21.69617 C29.7232183,21.9008924 29.7041764,22.2066553 29.8569119,22.4320172 L29.9141864,22.5039112 L31.3104465,24.008253 C32.0795015,24.8352451 32.220089,26.0666605 31.6572199,27.0456622 C31.1188234,27.9820987 30.056922,28.4786827 28.997476,28.3019375 L28.8530708,28.2736404 L26.8602144,27.8120588 C26.587791,27.7494827 26.3136216,27.88844 26.1986887,28.1368085 L26.1691469,28.2145092 L25.5714992,30.1706867 C25.2463503,31.2552678 24.2480347,31.9981012 23.1155834,31.9981012 C22.0323692,31.9981012 21.0718802,31.3184577 20.7066392,30.3127905 L20.6605676,30.1736665 L20.0614096,28.2043745 C19.9804886,27.9368701 19.7237285,27.7679055 19.4535853,27.7908771 L19.3723033,27.8036201 L17.3736537,28.2665282 C16.2718629,28.5147908 15.136816,28.0165369 14.5739469,27.0375351 C14.0366627,26.1030334 14.1403381,24.9385432 14.8193187,24.1158087 L14.9202225,24.0006618 L16.3175302,22.4951923 C16.5079485,22.2904698 16.5269903,21.9847069 16.3742548,21.759345 L16.3169804,21.6874511 L14.9207204,20.1831091 C14.1516654,19.3561171 14.0110777,18.1247018 14.5739469,17.1456999 C15.1123434,16.2092635 16.1742449,15.7126795 17.2336908,15.8894247 L17.3780961,15.9177218 L19.3709524,16.3793034 C19.6433758,16.4418795 19.9175451,16.3029223 20.0322854,16.0551857 L20.0617635,15.9776941 L20.6601828,14.0108371 C20.9878771,12.9270153 21.9879422,12.1865231 23.1203977,12.1891608 Z M23.1168089,13.7129874 L23.0118837,13.7180155 C22.6313471,13.755532 22.3012936,13.9999772 22.1541619,14.3538833 L22.1186698,14.4530437 L21.5202197,16.4200027 C21.2119871,17.4389417 20.1964663,18.0615178 19.1582007,17.8897492 L19.0283486,17.8641121 L17.0385837,17.4032338 C16.5886449,17.3018507 16.1251252,17.5053229 15.8952661,17.9051183 C15.6830884,18.2741603 15.715686,18.7310322 15.9693643,19.0651833 L16.0373761,19.1460425 L17.4335841,20.6503286 C18.1563341,21.4273713 18.1877581,22.6120073 17.528337,23.4239751 L17.434134,23.5323148 L16.0368782,25.0377285 C15.7228188,25.3754476 15.6654069,25.8783213 15.8952661,26.2781167 C16.1074437,26.6471586 16.5187168,26.8489192 16.9311291,26.7988334 L17.0341414,26.7810162 L19.0296995,26.3188114 C20.0673752,26.0804556 21.1120736,26.6527399 21.4777433,27.636926 L21.5198658,27.7620657 L22.1195698,29.7331711 C22.2514362,30.1730305 22.65631,30.4742916 23.1155834,30.4742916 C23.5395281,30.4742916 23.9171204,30.2175957 24.077329,29.8291375 L24.1127534,29.7293502 L24.7109471,27.7713595 C25.0191797,26.7524205 26.0347004,26.1298445 27.072966,26.301613 L27.2028182,26.3272501 L29.1925831,26.7881284 C29.6425219,26.8895115 30.1060416,26.6860393 30.3359007,26.2862439 C30.5480784,25.917202 30.5154807,25.4603301 30.2618025,25.126179 L30.1937908,25.0453197 L28.7975827,23.5410337 C28.0748326,22.763991 28.0434088,21.5793548 28.7028297,20.7673872 L28.7970328,20.6590474 L30.1942887,19.1536337 C30.508348,18.8159146 30.5657598,18.3130409 30.3359007,17.9132455 C30.123723,17.5442036 29.71245,17.3424429 29.3000377,17.3925288 L29.1970254,17.410346 L27.2014673,17.8725508 C26.1637916,18.1109066 25.1190931,17.5386224 24.7534235,16.5544362 L24.711301,16.4292964 L24.1110818,14.4564651 C23.9802547,14.0162917 23.5760879,13.7140717 23.1168089,13.7129874 Z M23.1155834,19.3019882 C24.658765,19.3019882 25.9097608,20.552767 25.9097608,22.0956811 C25.9097608,23.6385951 24.658765,24.8893741 23.1155834,24.8893741 C21.5724019,24.8893741 20.321406,23.6385951 20.321406,22.0956811 C20.321406,20.552767 21.5724019,19.3019882 23.1155834,19.3019882 Z M13.7954836,14.0017467 C14.1826661,14.1666849 14.3628074,14.6142127 14.1978406,15.001328 C14.0328739,15.3884433 13.5852685,15.5685534 13.1980861,15.4036153 C10.6083891,14.3004147 7.6378647,14.5697764 5.28893162,16.1208028 C2.93999855,17.6718292 1.52599137,20.2976221 1.52407412,23.1120941 C1.52378747,23.5328825 1.18237964,23.8737664 0.761518399,23.8734804 C0.340657152,23.8731932 -0.000285925329,23.5318446 1.79934016e-07,23.1110563 C0.00226639085,19.7851216 1.67323537,16.682154 4.44903054,14.8492658 C7.22482571,13.0163777 10.7351715,12.698066 13.7954836,14.0017467 Z M23.1155834,20.8257977 C22.4141245,20.8257977 21.8454797,21.3943438 21.8454797,22.0956811 C21.8454797,22.7970184 22.4141245,23.3655646 23.1155834,23.3655646 C23.8170423,23.3655646 24.3856871,22.7970184 24.3856871,22.0956811 C24.3856871,21.3943438 23.8170423,20.8257977 23.1155834,20.8257977 Z M9.90666987,0 C13.4139118,0 16.2570932,2.84268846 16.2570932,6.34932237 C16.2570932,9.85595629 13.4139118,12.6986447 9.90666987,12.6986447 C6.39942788,12.6986447 3.5562465,9.85595629 3.5562465,6.34932237 C3.5562465,2.84268846 6.39942788,0 9.90666987,0 Z M9.90666987,1.52380952 C7.24115057,1.52380952 5.08032024,3.68426521 5.08032024,6.34932237 C5.08032024,9.01437953 7.24115057,11.1748352 9.90666987,11.1748352 C12.5721892,11.1748352 14.7330195,9.01437953 14.7330195,6.34932237 C14.7330195,3.68426521 12.5721892,1.52380952 9.90666987,1.52380952 Z"></path>
</svg>