<svg version="1.1" xmlns="http://www.w3.org/2000/svg" width="32" height="32" viewBox="0 0 32 32">
<title>user-tick</title>
<path fill="#333" d="M31.3909 15.4514L31.5004 15.5375C32.0684 16.0287 32.1603 16.8658 31.7339 17.4657L31.6479 17.5752L22.0885 28.6263C21.5685 29.2274 20.6687 29.2906 20.071 28.7912L19.9743 28.7027L14.3203 23.0487C13.7561 22.4845 13.7561 21.5698 14.3203 21.0056C14.8513 20.4746 15.6928 20.4434 16.2603 20.9119L16.3633 21.0056L20.919 25.5622L29.4627 15.6849C29.954 15.117 30.791 15.0251 31.3909 15.4514ZM11.2762 0C15.0889 0 18.1797 3.09079 18.1797 6.90347C18.1797 9.12387 17.1314 11.0994 15.5028 12.3623L16.2373 12.3623C17.0352 12.3623 17.682 13.0091 17.682 13.807C17.682 14.5579 17.1091 15.175 16.3765 15.245L16.2373 15.2516H7.44168C4.98195 15.2516 3.00521 17.0522 2.89426 19.2737L2.88934 19.4708V27.4002C2.88934 28.1981 2.24254 28.8449 1.44467 28.8449C0.693737 28.8449 0.0766263 28.2719 0.00662231 27.5393L0 27.4002V19.4708C0 15.6483 3.14483 12.5595 7.06268 12.3714C5.42658 11.11 4.37271 9.12978 4.37271 6.90347C4.37271 3.09079 7.4635 0 11.2762 0ZM11.2762 2.88934C9.05923 2.88934 7.26205 4.68652 7.26205 6.90347C7.26205 9.12042 9.05923 10.9176 11.2762 10.9176C13.4931 10.9176 15.2903 9.12042 15.2903 6.90347C15.2903 4.68652 13.4931 2.88934 11.2762 2.88934Z"></path>
</svg>