<svg width="32" height="32" viewBox="0 0 32 32" xmlns="http://www.w3.org/2000/svg">
<path fill-rule="evenodd" clip-rule="evenodd" d="M22.8122 18.554C24.1543 17.0887 26.2787 16.6244 28.7433 17.3871C29.1886 17.5249 29.4975 17.9299 29.5125 18.3958C29.5276 18.8616 29.2456 19.2858 28.8101 19.4521C28.0959 19.7248 27.5824 20.2264 27.3538 20.6947C27.1555 21.1006 27.2032 21.3636 27.3342 21.5391C27.4749 21.6341 27.575 21.6528 27.6407 21.6547C27.7256 21.657 27.8593 21.6332 28.052 21.515C28.4674 21.2601 28.9742 20.6747 29.4467 19.7531C29.6494 19.3578 30.0711 19.1245 30.5137 19.1629C30.9562 19.2013 31.3315 19.5037 31.4631 19.9279C32.1855 22.2568 31.8516 24.3535 30.4225 25.7116C29.1557 26.9154 27.271 27.3008 25.2298 26.9868L20.707 31.5096C20.69 31.5266 20.6724 31.543 20.6543 31.5589C20.0963 32.0477 19.418 32.1513 18.8288 32.0403C18.2646 31.9341 17.7636 31.6346 17.3883 31.272C17.0137 30.9102 16.6897 30.413 16.5757 29.8323C16.4546 29.2154 16.5833 28.5357 17.0782 27.9758C17.0944 27.9574 17.1113 27.9395 17.1288 27.9223L21.576 23.5272C21.2568 21.6647 21.6439 19.8296 22.8122 18.554ZM24.4241 20.0303C23.7506 20.7657 23.4278 22.0525 23.8277 23.6134C23.9242 23.9897 23.8136 24.3889 23.5373 24.662L18.7226 29.4203C18.7363 29.475 18.7871 29.5842 18.9069 29.7C19.0329 29.8216 19.1612 29.8786 19.2331 29.8923L24.0905 25.0349C24.3534 24.772 24.7318 24.6608 25.0951 24.7396C26.9508 25.1424 28.2381 24.7721 28.9168 24.1271C29.1671 23.8893 29.378 23.5716 29.5082 23.1641C29.4063 23.241 29.302 23.3125 29.1953 23.3779C28.7265 23.6656 28.1788 23.8565 27.5791 23.8396C26.9709 23.8224 26.4061 23.594 25.9113 23.2048C25.8691 23.1716 25.8294 23.1353 25.7925 23.0962C24.8361 22.0834 24.8879 20.763 25.3897 19.7355C25.4595 19.5926 25.5387 19.4526 25.6266 19.3163C25.1053 19.456 24.7099 19.7183 24.4241 20.0303Z" />
<path fill-rule="evenodd" clip-rule="evenodd" d="M8.00005 8C8.00005 12.418 11.5821 16 16.0001 16C20.4181 16 24.0001 12.418 24.0001 8C24.0001 3.582 20.4181 0 16.0001 0C11.5821 0 8.00005 3.582 8.00005 8ZM10.667 7.99967C10.667 5.05467 13.054 2.66667 16 2.66667C18.945 2.66667 21.333 5.05367 21.333 7.99967C21.333 10.9447 18.946 13.3327 16 13.3327C13.055 13.3327 10.667 10.9447 10.667 7.99967ZM12.0686 32L12.0686 29.333H8.00005H7.99805V29.334C7.99605 29.324 7.99505 29.313 7.99505 29.302C7.99505 29.276 8.00105 29.251 8.01105 29.23L8.00905 29.239C8.03305 29.157 8.04805 29.072 8.05505 28.98L8.05605 28.969C8.07105 28.776 8.10105 28.587 8.14205 28.427V28.387C8.84505 25.513 10.0821 21.69 10.6821 20.87C11.8351 19.29 13.9721 19.333 13.9721 19.333H16.0705C16.5833 18.3752 17.2224 17.495 17.9654 16.7148C17.4685 16.6656 17.1271 16.6668 17.0568 16.667C17.0531 16.667 17.0502 16.667 17.0481 16.667H14.0481C13.6351 16.667 10.4451 16.667 8.52805 19.29C7.24505 21.06 5.65505 27.324 5.55505 27.727L5.56405 27.685C5.48414 27.9947 5.42817 28.3143 5.39516 28.6659C5.35364 28.8594 5.33105 29.0614 5.33105 29.268C5.33105 29.915 5.54805 30.511 5.90905 30.98L5.91405 30.986C6.38705 31.603 7.13105 32 7.96805 32H7.97005H12.0686ZM5.39516 28.6659C5.39512 28.6663 5.39509 28.6666 5.39505 28.667L5.39905 28.648C5.39774 28.654 5.39644 28.6599 5.39516 28.6659Z" />
<path fill-rule="evenodd" clip-rule="evenodd" d="M9.13745 30.667C9.13745 29.9308 9.73426 29.334 10.4705 29.334H13.1303C13.8665 29.334 14.4633 29.9308 14.4633 30.667C14.4633 31.4032 13.8665 32 13.1303 32H10.4705C9.73426 32 9.13745 31.4032 9.13745 30.667Z" />
<path fill-rule="evenodd" clip-rule="evenodd" d="M14.1155 18.0127C14.1155 17.2765 14.7123 16.6797 15.4485 16.6797H18.1083C18.8445 16.6797 19.4413 17.2765 19.4413 18.0127C19.4413 18.7489 18.8445 19.3457 18.1083 19.3457H15.4485C14.7123 19.3457 14.1155 18.7489 14.1155 18.0127Z" />
</svg>
