<svg version="1.1" xmlns="http://www.w3.org/2000/svg" width="32" height="32" viewBox="0 0 32 32">
<title>user-recycle</title>
<path fill="#333" d="M18.4401179,0.202908348 C19.3489689,0.349850746 19.9666179,1.20574041 19.8196755,2.11459141 C19.6727331,3.02344242 18.8168434,3.64109138 17.9079924,3.49414898 C16.0287441,3.19031342 14.0991233,3.3173667 12.2352582,3.88720747 C5.5947599,5.91741153 1.857378,12.9464046 3.88758206,19.5869028 C4.76830372,22.4676136 6.61444674,24.8768058 9.09044928,26.4733997 L9.10135152,26.4407282 C9.35469075,25.6120929 10.1951118,25.1244135 11.0271243,25.294318 L11.1828827,25.3339584 C12.011518,25.5872976 12.4991973,26.4277187 12.3292929,27.2597311 L12.2896524,27.4154896 L11.2488048,30.8199486 C10.9954656,31.6485839 10.1550446,32.1362632 9.3230321,31.9663588 L9.16727368,31.9267184 L5.76281464,30.8858708 C4.88238966,30.6166978 4.38687196,29.6847646 4.65604489,28.8043396 C4.78308096,28.3888234 5.0577379,28.05904 5.40493154,27.8549125 C3.2162208,25.9365279 1.57679379,23.4318787 0.69928116,20.5616642 C-1.83223235,12.2814566 2.72430577,3.52380993 10.8993767,0.813940067 L11.2604968,0.698906564 C13.6148781,-0.0209000486 16.0600513,-0.181899175 18.4401179,0.202908348 Z M27.322436,1.87228795 C27.5757752,2.70092322 27.1517414,3.5751852 26.3669624,3.89958352 L26.3492974,3.90448058 C28.5720998,5.83315203 30.236607,8.36002915 31.1232544,11.2601222 C33.6918043,19.6614704 28.9633871,28.5543299 20.5620388,31.1228798 C18.7794482,31.6678725 16.9426878,31.8933218 15.1170709,31.8019864 C14.1975678,31.7559837 13.4894557,30.9732866 13.5354584,30.0537835 C13.581461,29.1342804 14.3641581,28.4261684 15.2836612,28.4721711 C16.7248749,28.5442748 18.1754001,28.3662332 19.5872774,27.9345789 C26.2277757,25.9043749 29.9651576,18.8753818 27.9349535,12.2348836 C27.347433,10.3131904 26.3302912,8.60132717 24.9831435,7.20054724 C24.8603161,7.70418058 24.5057578,8.13721393 24.003351,8.34489014 L23.8520547,8.39912573 C23.0234195,8.65246496 22.1491575,8.22843118 21.8247592,7.44365222 L21.7705236,7.29235598 L20.729676,3.88789694 C20.4763368,3.05926166 20.9003706,2.18499969 21.6851495,1.86060137 L21.8364458,1.80636578 L25.2409048,0.765518199 C26.1213298,0.496345269 27.053263,0.991862963 27.322436,1.87228795 Z M15.7959377,6.49069164 C18.5843618,6.49069164 20.8448261,8.75115595 20.8448261,11.53958 C20.8448261,12.8644059 20.3345589,14.0700525 19.4998368,14.9707075 C22.4596155,15.3361561 24.7728379,17.7575268 24.7728379,20.7307507 C24.7728379,21.6514038 24.0265011,22.3977407 23.1058479,22.3977407 C22.2393508,22.3977407 21.5272654,21.7366257 21.4464889,20.8912929 L21.4388579,20.7307507 C21.4388579,19.4417084 20.3398168,18.350015 18.9084266,18.2612785 L18.7199018,18.2554582 L12.2871807,18.2554582 C10.8283399,18.2554582 9.66851377,19.2934415 9.5743943,20.5638001 L9.56822457,20.7307507 C9.56822457,21.6514038 8.82188773,22.3977407 7.90123458,22.3977407 C6.98058144,22.3977407 6.2342446,21.6514038 6.2342446,20.7307507 C6.2342446,17.5811582 8.83004257,15.0508314 12.0391501,14.9262836 L12.0521062,14.9271148 C11.2410716,14.0313282 10.7470494,12.8431466 10.7470494,11.53958 C10.7470494,8.75115595 13.0075137,6.49069164 15.7959377,6.49069164 Z M15.7959377,9.82467161 C14.84882,9.82467161 14.0810294,10.5924622 14.0810294,11.53958 C14.0810294,12.4866977 14.84882,13.2544884 15.7959377,13.2544884 C16.7430555,13.2544884 17.5108461,12.4866977 17.5108461,11.53958 C17.5108461,10.5924622 16.7430555,9.82467161 15.7959377,9.82467161 Z"></path>
</svg>