<svg version="1.1" xmlns="http://www.w3.org/2000/svg" width="32" height="32" viewBox="0 0 32 32">
<title>user-tick</title>
<path fill="#333" d="M483.890888,213.451447 L484.00044,213.537467 C484.568375,214.028744 484.660271,214.865794 484.233937,215.465655 L484.147917,215.575207 L474.588464,226.626297 C474.0685,227.227396 473.168693,227.290562 472.571019,226.791149 L472.474322,226.7027 L466.820276,221.048654 C466.256097,220.484476 466.256097,219.569763 466.820276,219.005585 C467.351267,218.474594 468.192766,218.443359 468.760288,218.911881 L468.863345,219.005585 L473.418977,223.562162 L481.9627,213.684944 C482.453977,213.117009 483.291027,213.025113 483.890888,213.451447 Z M463.776195,198 C467.588882,198 470.679675,201.090793 470.679675,204.90348 C470.679675,207.123874 469.631418,209.099435 468.002793,210.362272 L468.737321,210.362292 C469.535189,210.362292 470.181989,211.009092 470.181989,211.80696 C470.181989,212.557895 469.609046,213.175011 468.876452,213.245015 L468.737321,213.251628 L459.94169,213.251628 C457.48196,213.251628 455.505199,215.052196 455.394249,217.273738 L455.389336,217.470814 L455.389336,225.400209 C455.389336,226.198077 454.742536,226.844877 453.944668,226.844877 C453.193733,226.844877 452.576617,226.271933 452.506613,225.53934 L452.5,225.400209 L452.5,217.470814 C452.5,213.648352 455.644818,210.559537 459.562672,210.371374 C457.926566,209.109962 456.872715,207.129791 456.872715,204.90348 C456.872715,201.090793 459.963508,198 463.776195,198 Z M463.776195,200.889336 C461.559245,200.889336 459.762051,202.68653 459.762051,204.90348 C459.762051,207.12043 461.559245,208.917624 463.776195,208.917624 C465.993145,208.917624 467.790338,207.12043 467.790338,204.90348 C467.790338,202.68653 465.993145,200.889336 463.776195,200.889336 Z"></path>
</svg>