<svg version="1.1" xmlns="http://www.w3.org/2000/svg" width="32" height="32" viewBox="0 0 32 32">
<title>user-recycle</title>
<path fill="#333" d="M18.8607 1.19653C19.7409 1.33886 20.3392 2.16785 20.1969 3.04814C20.0545 3.92843 19.2255 4.52667 18.3452 4.38435C16.5251 4.09006 14.6561 4.21312 12.8508 4.76505C6.41895 6.73146 2.79901 13.5396 4.76542 19.9714C5.61845 22.7615 7.40653 25.095 9.80466 26.6414L9.81535 26.6098C10.0607 25.8073 10.8747 25.3349 11.6806 25.4995L11.8315 25.5379C12.6341 25.7832 13.1064 26.5972 12.9419 27.4031L12.9035 27.554L11.8953 30.8515C11.6499 31.654 10.8359 32.1264 10.0301 31.9618L9.8792 31.9234L6.58172 30.9153C5.72896 30.6546 5.24902 29.7519 5.50973 28.8992C5.63279 28.4967 5.89885 28.1772 6.23518 27.9795C4.11496 26.1212 2.52719 23.6954 1.67731 20.9155C-0.774656 12.8955 3.6387 4.41308 11.5569 1.78836L11.9066 1.67694C14.187 0.979757 16.5554 0.823817 18.8607 1.19653ZM27.4638 2.81345C27.7092 3.61605 27.2985 4.46284 26.5384 4.77704L26.5227 4.78304C28.675 6.65094 30.2866 9.09795 31.1452 11.9063C33.6331 20.0436 29.0532 28.657 20.9159 31.1449C19.1893 31.6727 17.4103 31.8911 15.642 31.8026C14.7514 31.7581 14.0656 31 14.1101 30.1094C14.1547 29.2188 14.9128 28.5329 15.8034 28.5775C17.1993 28.6473 18.6043 28.4748 19.9718 28.0568C26.4036 26.0903 30.0235 19.2822 28.0571 12.8504C27.4882 10.9897 26.5035 9.33208 25.1993 7.97555C25.0788 8.46242 24.7355 8.88159 24.2491 9.08266L24.1025 9.13519C23.2999 9.38057 22.4531 8.96986 22.1389 8.20974L22.0864 8.0632L21.0783 4.76572C20.8329 3.96313 21.2436 3.11634 22.0037 2.80213L22.1503 2.7496L25.4477 1.74146C26.3005 1.48075 27.2031 1.96069 27.4638 2.81345ZM16.2996 7.28673C19.0004 7.28673 21.1898 9.47616 21.1898 12.177C21.1898 13.46 20.6957 14.6276 19.8874 15.4999C22.7529 15.8533 24.9944 18.1989 24.9944 21.0793C24.9944 21.971 24.2715 22.6939 23.3798 22.6939C22.5405 22.6939 21.8508 22.0536 21.7725 21.2348L21.7652 21.0793C21.7652 19.8308 20.7007 18.7734 19.3142 18.6874L19.1316 18.6818H12.9011C11.4881 18.6818 10.3647 19.6872 10.2735 20.9176L10.2676 21.0793C10.2676 21.971 9.54467 22.6939 8.65294 22.6939C7.76122 22.6939 7.03834 21.971 7.03834 21.0793C7.03834 18.0287 9.55256 15.5779 12.6608 15.4572L12.6731 15.4578C11.8877 14.5901 11.4093 13.4394 11.4093 12.177C11.4093 9.47616 13.5988 7.28673 16.2996 7.28673ZM16.2996 10.5159C15.3822 10.5159 14.6385 11.2596 14.6385 12.177C14.6385 13.0943 15.3822 13.838 16.2996 13.838C17.2169 13.838 17.9606 13.0943 17.9606 12.177C17.9606 11.2596 17.2169 10.5159 16.2996 10.5159Z"></path>
</svg>